<svg xmlns="http://www.w3.org/2000/svg" viewBox="0 0 400 400" id="Fixing-Bugs--Streamline-Free-Illustrations.svg" height="400" width="400"><desc>Fixing Bugs Streamline Illustration: https://streamlinehq.com</desc><g><g><path d="M355.36 248.96c4.98 12.62 10 28 9.62 42.94 -0.28 10.74 0.32 10.96 -6.56 27.84 -2.88 7.06 -11.44 17.82 -18.24 22a70.82 70.82 0 0 1 -26.44 9.14 309.14 309.14 0 0 0 -40.12 8.34c-17.26 3.5 -25.08 1.72 -42.64 -2.12 -12.28 -2.7 -16 -3.54 -28.9 -3.52 -40.48 0 -82.8 6.44 -81.4 -33.6 0 -1.16 0.82 -2.44 2 -2.24a36.18 36.18 0 0 0 10.64 -1.38c2.9 -0.7 12.68 -1.86 15.08 -8.32 0.96 -2.64 1.22 -2.38 6.44 -10.7 8.4 -13.36 12.44 -13.18 19.1 -17.72 2.6 -1.78 3.34 -4.58 1.08 -8a21.16 21.16 0 0 0 7.2 -2.2 4.32 4.32 0 0 0 2.18 -5.6 28.22 28.22 0 0 0 12.78 3.44c8.1 0.16 19.8 -2.48 29.74 -1.42l0 0.16a64.58 64.58 0 0 0 -27.32 8.56A15.54 15.54 0 0 0 194 280c-0.26 0.5 0.18 0.72 0.5 0.42a37.72 37.72 0 0 1 6 -4.46c5.16 -3.34 16.98 -7.34 28.48 -8.34 7.08 -0.62 10.36 -0.24 17.02 -1.54a70 70 0 0 1 10.8 -1.18c3.8 -0.14 4.72 0.62 11.52 -0.92a95.74 95.74 0 0 1 13.72 -2.5c8.9 -1.32 11.62 -4.68 19 -11.58A129.08 129.08 0 0 1 340 224.12c1.5 -0.62 1.28 -2.14 -0.74 -1.28 -24 10 -34.4 22.28 -37.36 24 2.42 -6.22 14.42 -20.6 25.6 -31.32 0.32 -0.32 0.56 -0.52 0.72 -0.66a0.44 0.44 0 0 0 -0.46 -0.74 6.4 6.4 0 0 0 -1.36 0.84c-10.24 8 -18.82 21.56 -20.24 22.58 1.82 -11.48 2.58 -10.6 5.3 -20.46 2.62 -9.46 1.34 -6.8 4 -28.68 0.14 -1.04 0.3 -1.2 1.16 -1.28 2.66 -0.24 6.62 -0.82 6.66 -3.46 0.18 -12 -0.82 -22.46 -1.14 -26.68 -0.88 -11.02 -0.52 -6.96 -1.32 -11.34 -1.56 -8.54 -2.86 -12.74 -5.56 -17.28 -0.3 -0.5 -0.1 -0.86 0.48 -1.02a18.84 18.84 0 0 1 12.12 1.8 58.48 58.48 0 0 1 13.7 10.22c5.3 5.2 7.58 11.78 10.34 19.22 5.08 13.62 4.24 29.04 4.12 43.78 -0.02 10.6 -6.88 30.88 -0.66 46.6Zm-33.74 84.24a137.7 137.7 0 0 0 -6.78 -39.58c-2.84 -8 -9.6 -21.74 -17.28 -25.52 -0.86 -0.36 -1.22 0.34 -0.5 0.96 4.76 4.12 10.38 8.98 16 24.74 6.4 18 7.24 39.14 7.32 39.44 0.14 0.76 1.18 0.88 1.24 -0.04Zm-19.48 -5.76a138.34 138.34 0 0 0 -1.36 -31.32c-1.06 -5.18 -4.32 -18.46 -9.14 -20.74 -0.8 -0.38 -0.88 0.18 -0.62 0.76 0.66 1.52 4.84 2.5 8.36 21.06 2.12 11.2 1.56 29.58 1.58 30.14 0.04 1.06 1.04 0.86 1.18 0.1Zm-64.42 -54c0.52 -0.86 -0.52 -1.7 -1.44 0a92.86 92.86 0 0 0 -9.88 25.54 113.54 113.54 0 0 0 -2.56 37.58c0 0.46 1 0.76 0.98 -0.12a125.4 125.4 0 0 1 2.84 -34.98 105.42 105.42 0 0 1 10.06 -28.1Zm-13.84 11.5c0.34 -0.58 1 -1.24 0.66 -1.62 -1.38 -1.58 -21.04 28.9 -16.82 54 0.14 0.84 1.06 0.96 0.98 -0.12 -1.64 -19.2 5.3 -35.2 15.18 -52.34Z" fill="#d6f3e3" stroke-width="1"></path><path d="M321.8 183.2c0 0.14 0.24 0.2 0.16 0.3a1.66 1.66 0 0 1 -0.68 0.2c-4.64 -0.12 -22.22 -1.58 -26.86 0.52 -0.38 0 -13.56 1.38 -14 1.44 -0.22 -2.96 0.2 -5.8 -0.2 -14.72a10.5 10.5 0 0 1 1.12 -4.54 53.6 53.6 0 0 1 18.5 -23.42c1.28 -0.9 0.7 -2.18 -1.68 -0.72 -5.3 3.22 -10.22 10 -13.16 14.46 -1.24 1.88 -2.12 3.36 -2.54 4 0 -10 0.38 -26.18 5.82 -34.78 2.62 -4.14 4.82 -7.48 9.38 -9.02a6.6 6.6 0 0 1 4.62 -0.28 19.34 19.34 0 0 1 8.28 6.68 46.32 46.32 0 0 1 8.78 22.54c1.86 9.96 2.44 27.24 2.46 37.34Zm-24.24 -27.68c0.64 -0.8 1.82 -2 1.66 -2.68 -0.26 -0.98 -1.24 -0.58 -2 0.3a78.46 78.46 0 0 0 -6.26 9.42c-1.14 2 -4.92 11.36 -3.2 11.54 1.28 0.1 0.54 -6.82 9.8 -18.58Z" fill="#ffffff" stroke-width="1"></path><path d="M314.84 293.62a137.7 137.7 0 0 1 6.78 39.58c0 0.92 -1.1 0.84 -1.26 0 0 -0.3 -0.92 -21.4 -7.32 -39.44 -5.6 -15.76 -11.22 -20.62 -16 -24.74 -0.72 -0.62 -0.36 -1.32 0.5 -0.96 7.7 3.82 14.46 17.48 17.3 25.56Z" fill="#000001" stroke-width="1"></path><path d="M314.28 186a45.74 45.74 0 0 1 -0.7 7.8 93.46 93.46 0 0 1 -2.54 10.7c-4.26 16.2 -9.22 15.22 -22.4 16.68a136.46 136.46 0 0 1 -21.3 -0.2c-9.8 -0.68 -14.3 -1.64 -28.7 -2l-1.18 0a38 38 0 0 0 -0.7 -10.42l26.76 -6.88c9.5 -2.38 17.02 -3.04 20.56 -5.5 2.52 -1.76 2.2 -3.36 2.58 -8.36 0 -0.44 0 -1 0.22 -1.28s0.8 0 1.22 -0.12c14.46 -2 13.42 -2 20.6 -1.84 5.14 -0.02 5.58 -0.02 5.58 1.42Z" fill="#ffb68c" stroke-width="1"></path><path d="M312 206c0.14 -0.48 0.4 -0.42 0.5 -0.28 -0.76 12.1 -6 20.22 -7.14 29a44.24 44.24 0 0 1 -6 14.2 25.72 25.72 0 0 1 -19.48 11.24 76.82 76.82 0 0 0 -12.24 2.22 27.24 27.24 0 0 1 -8.64 0.96c-0.44 0 -0.58 -0.22 -0.66 -0.64 -0.7 -3.44 -1 -20 -8.98 -32a19.2 19.2 0 0 1 -2.86 -9.42 0.5 0.5 0 0 1 0.6 -0.62c14.94 1.06 13.34 1.52 21.78 1.86a167.6 167.6 0 0 0 23.62 0c12.3 -1.28 15.66 -3.8 19.5 -16.52Zm-14.7 34.48c0.12 -0.5 -5.48 -5.04 -14.58 -8.48 -6.36 -2.4 -4.88 -1.7 -10.96 -4.16 -0.72 -0.3 -2.42 -1.02 -1.74 0.12s11.76 5.18 11.84 5.2c10.38 3.94 15.14 8.2 15.34 7.3Zm-19.5 14.28c0.28 0.6 1.2 0 0.96 -0.66 -5.32 -15.44 -14 -23.34 -18.74 -28.58 -0.48 -0.52 -1.48 -0.8 -0.84 0.64l0.14 0.16c8.22 9.66 9.66 10.72 14 19.32 1.46 3 3.52 7.58 4.38 9.1Z" fill="#ff9293" stroke-width="1"></path><path d="M300.78 296.12a138.34 138.34 0 0 1 1.36 31.32c0 0.76 -1.14 0.96 -1.18 -0.1 0 -0.56 0.54 -18.94 -1.58 -30.14 -3.52 -18.56 -7.7 -19.54 -8.36 -21.06 -0.26 -0.58 -0.18 -1.14 0.62 -0.76 4.82 2.28 8.08 15.56 9.14 20.74Z" fill="#000001" stroke-width="1"></path><path d="M299.22 152.84c0.16 0.64 -1.02 1.88 -1.66 2.68 -9.26 11.76 -8.52 18.68 -9.72 18.58 -1.72 -0.18 2 -9.64 3.2 -11.54a78.46 78.46 0 0 1 6.26 -9.42c0.7 -0.88 1.66 -1.28 1.92 -0.3Z" fill="#000001" stroke-width="1"></path><path d="M282.62 232c9.1 3.44 14.7 8 14.58 8.48 -0.2 0.9 -4.96 -3.36 -15.44 -7.32 0 0 -11.32 -4.32 -11.84 -5.2s1.02 -0.42 1.74 -0.12c6.08 2.44 4.6 1.74 10.96 4.16Z" fill="#000001" stroke-width="1"></path><path d="M299.02 115.1a14.56 14.56 0 0 0 -6.24 3.16c-11.26 9.1 -10.8 25.86 -11.9 40.4 -0.52 6.98 -2.2 8.8 -1.78 15.16 0.16 2.58 0.14 11.3 0 12.26 -0.12 2.56 3.8 2.98 5.84 3.02a8.46 8.46 0 0 1 -0.38 4.24 5.26 5.26 0 0 1 -3.84 2.98c-2.76 0.66 -17.3 4 -19.14 4.26 0.16 -1.84 1.3 -13.62 1.58 -16.34a178.76 178.76 0 0 1 2.46 -17.78 117.22 117.22 0 0 1 2 -15.86c0.6 -2.9 4.58 -16.52 4.6 -16.56 0.88 -2.94 2.74 -7.34 3.7 -11.76 3.52 -16.22 0.76 -16.32 3.58 -15.56 3.16 0.88 18.74 6.1 19.52 8.38Z" fill="#ff9293" stroke-width="1"></path><path d="M278.66 254c0.24 0.72 -0.68 1.26 -0.96 0.66 -0.86 -1.52 -2.92 -6.1 -4.46 -9.12 -4.36 -8.6 -5.8 -9.66 -14 -19.32l-0.14 -0.16c-0.64 -1.44 0.36 -1.16 0.84 -0.64 4.8 5.32 13.4 13.22 18.72 28.58Z" fill="#000001" stroke-width="1"></path><path d="M274.94 104.74c1.02 0.86 1.68 1.3 1.26 3.62a48 48 0 0 1 -3.52 11.52c-2.46 5.34 -8.46 14.92 -14.26 14 -3.88 -0.56 -5.32 -11.34 -5.36 -11.64 -0.12 -0.7 0 -0.26 4 3.3 0.18 0.18 0.92 0.64 1.14 0.2s-0.3 -1.06 -0.56 -1.28c-1.12 -0.96 -3.2 -3.08 -4.8 -4.66a1.64 1.64 0 0 1 0.18 -2.5 30.9 30.9 0 0 0 10.12 -11.16c0.2 -0.42 0.74 -1.24 0.3 -1.38s-0.88 0.18 -1.72 1.52c-4.12 6.48 -12.56 13.64 -20.28 13.28 -8.62 -0.4 -13.52 -7.88 -14.32 -15.74a7.78 7.78 0 0 0 4.58 0c0.32 -0.14 0.96 -1.14 -0.28 -1.1 -3.64 0 -5.86 -0.74 -6.92 -2.3 -1.44 -2.14 0.88 -3.82 4.62 -3.02 1.56 0.34 2.14 -0.72 0.56 -1.04a8.3 8.3 0 0 0 -3.58 -0.18c-0.92 0.24 -0.42 -0.56 -1.6 -1.34 -0.66 -0.52 -1.26 -0.2 -1.34 0.64l0 0.68a6 6 0 0 1 -1.9 -2.46c0.64 0 1.34 -0.18 1.62 -0.7s0.1 -1.22 -0.32 -1.3a0.44 0.44 0 0 0 -0.32 0 2 2 0 0 1 -1.84 0.46 43.6 43.6 0 0 1 -2.64 -13.02c0 -0.5 0 -0.72 0.68 -0.8 5.16 -0.68 7.34 -3.18 11.18 -6.8 0.3 -0.28 0.42 -0.46 0.8 0 3.36 3 7.26 0.74 9.38 -1.52 0.38 0.84 2 1.18 3.84 0 -0.4 3.06 1.36 4.62 4 5.6 1.78 0.66 0.26 1.4 -0.46 3.72a2.26 2.26 0 0 0 2.18 3.04l2.62 0c-0.76 1.36 -1.54 2.38 -1 3.6a1.5 1.5 0 0 0 1.16 0.98 4.5 4.5 0 0 0 5.26 -2.76 7.36 7.36 0 0 1 3.38 -4c3.88 -2 8 0.96 8.44 6.2 0.34 4.9 -2.52 8.48 -5.88 9.04a6 6 0 0 1 -3.82 -1.06 0.52 0.52 0 0 0 -0.54 0.88 7.52 7.52 0 0 0 3 1.4c1.62 0.4 3.22 0.96 4.84 1.38a7.84 7.84 0 0 1 3.24 2.32c1.32 1.24 3.6 3.26 4.88 4.38Zm-10.22 -20.98c0.16 0.16 0.98 0.16 0.76 -0.66a1.76 1.76 0 0 0 -2.14 -1.06 4.3 4.3 0 0 0 -3.34 4.18c0.28 4 3.52 1.4 4.7 2a1.62 1.62 0 0 1 0.76 1.28c0.14 2 -2.7 2 -2.7 3.18 0 0.54 1.22 0.28 1.72 0 3.74 -2.24 1.3 -5.02 0.92 -5.24 -1.62 -0.96 -4.26 0.84 -3.52 -1.62 0.38 -1.32 2.12 -3.02 2.84 -2.06Zm-14.4 22.94a2.14 2.14 0 0 0 0.36 -3.52c-1.22 -0.9 -2.74 0.72 -2.76 1.9 0.08 1.6 0.98 2.26 2.4 1.62Zm-9.8 -21.5c0.42 0.94 1.08 0.58 1.04 -0.12a4 4 0 0 0 -5.28 -2.96c-3.84 1.42 -5.58 4.98 -7.14 7.66 -1.26 2.18 -1.88 1.32 -2.22 -0.48 -0.16 -0.88 -1.18 -0.34 -1.18 0.28a4.78 4.78 0 0 0 0.36 1.84 1.72 1.72 0 0 0 2 1.08c2.84 -0.94 3.1 -6.94 8.38 -8.9a3 3 0 0 1 4.04 1.6Zm-5.34 7.88a2.92 2.92 0 0 0 -1 -1.8 0.86 0.86 0 0 0 -1.2 0 2 2 0 0 0 0.84 2.7 0.92 0.92 0 0 0 1.36 -0.9Z" fill="#ffb68c" stroke-width="1"></path><path d="M276.22 113.74a90.66 90.66 0 0 1 -2 10c-0.64 2.44 -4 11.36 -6.7 21.62a77.88 77.88 0 0 0 -2.88 20.44c0 1.6 -1.64 8.7 -2 12.5 0 0.4 0.28 -3.3 -2 20.82 -0.12 1.28 -0.4 2.28 -2 2.54s-11.3 3.06 -13.24 3.4c-0.72 0.12 -0.84 0 -0.8 -0.8 0.26 -4.98 0.58 -9.3 1.56 -23.04 1.28 -18 4.98 -45.5 6.66 -53.8 1.18 3.56 2.78 7.56 6 8 3.58 0.5 8.38 -4 10.62 -7.04 5.14 -7.18 5.98 -14.18 6.78 -14.64Z" fill="#ffffff" stroke-width="1"></path><path d="M274 60.36c1.2 0.42 2 0.94 2 1.5s-0.7 2.22 -0.9 3c-0.12 0.44 -0.38 0.56 -0.86 0.54 -8.18 0 -6.46 2 -5.58 2.48 2.64 1.36 3.2 1.58 2.66 2.44A27.08 27.08 0 0 0 268 80c-3.6 -3.48 -9.82 -1.26 -11.24 3.52a4.34 4.34 0 0 1 -3.78 2.48c-2 0.2 -0.22 -2.38 0 -2.88 1.54 -3.44 -6.14 -0.34 -4.48 -4 0.68 -1.5 2.66 -3.22 0 -4.3 -6 -2.5 -3.2 -6 -2.42 -6.5s0.32 -1.34 -0.56 -0.82c0 0 -5.44 4 -4.66 0.88 0.26 -1.06 -0.66 -1.22 -1.08 -0.38 -1.22 2.46 -6.14 6 -9.02 2.46 -1.52 -2 -0.84 0.1 -7.08 4.8a10.6 10.6 0 0 1 -6 2.12 22.42 22.42 0 0 0 -10.76 3.52c-0.4 0.24 -0.64 0.14 -0.76 -0.32 -1.18 -4.62 -1.26 -4.44 0.22 -4.9 4.92 -1.56 6.64 -1.5 6.9 -3.16 0.44 -2.88 -5.58 -2.22 -8.3 -1.74 -0.7 0.12 -0.82 0.14 -0.92 -0.58a31.5 31.5 0 0 1 -0.32 -3.66c0 -1.9 1.58 -0.28 8.44 -0.58 1.24 0 4.6 -3.18 -6.66 -5a0.4 0.4 0 0 1 -0.34 -0.36c0 -1.14 1.14 -4.26 2.34 -4 3.2 0.98 4.26 2 7.26 2.58a1.68 1.68 0 0 0 2 -1.18c0.46 -1.58 -4.22 -4.76 -5.64 -5.44 -0.56 -0.28 -0.64 -0.62 -0.44 -1.08 0.48 -1.08 2.54 -4.68 3.78 -3.54 3.14 2.92 4.12 4.28 4.94 4.98s2 0.54 2.26 -0.78c0.72 -3.12 0 -4.46 -2.14 -8.98 -0.46 -1 -0.46 -1.18 0.4 -1.76a11.22 11.22 0 0 1 1.72 -0.98 1.26 1.26 0 0 1 1.68 0.32 11.12 11.12 0 0 1 2.78 6.22c0.28 2.18 1.2 1.14 1.24 0.82a23.3 23.3 0 0 1 1.3 -9.08c0.66 -1.52 0.88 -1.54 2.14 -0.92 0.88 0.44 1.78 0.84 2.72 1.28 -1.8 2.94 -3.2 7.26 0.12 8.18a2.5 2.5 0 0 0 2.8 -0.72c1.66 -2.12 1.74 -3.62 2.12 -7.52 0 -0.58 0.24 -0.98 0.86 -1.12s1.5 -0.38 2.24 -0.52a0.88 0.88 0 0 1 1.02 0.84 14.5 14.5 0 0 1 0 5.48c0 0.2 -0.52 1.1 0.12 1.44s1.32 -0.9 1.78 -1.88c1.2 -2.58 3.08 -8.16 5.42 -7.26 1.38 0.52 3.66 1.28 2.9 2.52 -1.48 2.44 -2.86 4 -2.36 6.5a0.84 0.84 0 0 0 1.32 0.64 2 2 0 0 0 0.34 -0.24c6.56 -6.1 4.8 -7.78 6.64 -7.06 0.88 0.4 1.74 0.88 2.58 1.36s0.52 1.04 0.34 1.62c-1.24 4 -2.4 4.62 -5.18 6.72 -0.72 0.54 0.16 1.46 0.7 1.14 3.34 -2 5.42 -4 11.44 -4 1.76 0 2 3.48 2.12 4.72 -4.96 0 -8 1.44 -8.26 2.68s1.22 1.52 2.86 1.2c4.12 -0.42 6.36 -1.1 6.6 0.24a36.38 36.38 0 0 1 0.2 3.9c0 0.5 -0.44 0.38 -0.8 0.4 -2.94 -0.1 -4 0.2 -4.76 0.74s-0.38 0.98 0.54 0.88a13.16 13.16 0 0 1 6.78 0.42Z" fill="#595959" stroke-width="1"></path><path d="M265.48 83.1c0.22 0.82 -0.6 0.82 -0.76 0.66 -0.82 -0.96 -2.46 0.74 -2.86 2 -0.74 2.46 1.9 0.66 3.52 1.62 0.38 0.22 2.82 3 -0.92 5.24 -0.5 0.3 -1.7 0.56 -1.72 0 0 -1.16 2.84 -1.22 2.7 -3.18a1.62 1.62 0 0 0 -0.76 -1.28c-1.18 -0.6 -4.42 2 -4.7 -2a4.3 4.3 0 0 1 3.36 -4.16 1.76 1.76 0 0 1 2.14 1.1Z" fill="#000001" stroke-width="1"></path><path d="M256.64 262.48c0.12 0.66 0.12 0.7 -0.56 0.74a32.16 32.16 0 0 0 -8.62 1.04c-6.2 1.36 -6.48 0.78 -15.54 0.16 -14.5 -0.98 -27.4 2 -36.24 1.04a23.34 23.34 0 0 1 -17.68 -9.9c-0.74 -0.96 -2.34 0 0 2.8 1.46 1.74 2.94 3.48 4.38 5.24 4 4.9 -6.76 5.86 -9.22 6.3a0.98 0.98 0 0 0 -0.7 1.64c0.68 1 5.52 3.7 -1.42 7.64 -11.8 6.68 -14 12.24 -18.56 19.12 -4.98 7.6 -4.14 5.88 -5.24 8.68 -1.88 4.88 -8.54 6.98 -15.24 8 -12 1.66 -11.56 1.06 -23.46 -6.62 -4.5 -2.9 -7.24 -4.12 -7.76 -9.4 -0.48 -4.88 -0.76 -7.14 2.48 -10.84 6.92 -8 7.42 -6.96 12.46 -14.16 10.38 -14.9 10 -12.58 13.06 -16.32 5.7 -7.22 8.88 -23.34 23.1 -32.38a1.2 1.2 0 0 1 0.82 -0.18c0.2 0 38.88 9.24 41.02 8.32 3.02 -1.3 15.6 -11.4 17.12 -12.68a2.3 2.3 0 0 1 1.22 -0.66 21.74 21.74 0 0 0 6.2 -1.8 2 2 0 0 1 2.38 0.56 11.42 11.42 0 0 0 5.1 2.56c2.92 0.64 6 -1 6.56 -0.82 0.24 0 0.36 0.52 0.52 0.82a1.38 1.38 0 0 0 1.3 0.74 7.1 7.1 0 0 0 1.72 -0.2 1.5 1.5 0 0 0 1.26 -1.14c0 -0.4 0.38 -0.46 0.88 -0.4 6.12 0.56 7.22 -0.24 7.26 1.02a18.2 18.2 0 0 0 2.52 9.74 67.18 67.18 0 0 1 7.12 17.56c0.78 3.3 0.34 4.9 1.76 13.78Zm-91.32 9.3c0.46 0.66 1.14 0.3 0.8 -0.36a48.18 48.18 0 0 1 -6.86 -31.88c0 -0.7 0.44 -2.62 -0.24 -2.42 -1.74 0.5 -3.56 21.02 6.3 34.66Zm-10.56 -40.52c0.44 -1.04 -0.68 -1.22 -1.06 -0.48a62.26 62.26 0 0 0 -5.56 19.58 71.5 71.5 0 0 0 1.44 28A23.22 23.22 0 0 0 152 284c0.22 0.36 0.46 1.04 0.94 0.78s0 -0.86 -0.12 -1.26c-3.76 -6.82 -7.92 -28.34 1.94 -52.26Z" fill="#6f95b5" stroke-width="1"></path><path d="M251.36 120.88a1.56 1.56 0 0 1 0.36 1.4c-0.94 8.12 -1.1 9.64 -1.26 10.66 0 0.2 -3.34 18 -6 47.28 0 0 -1.4 22.36 -1.36 24.7a0.8 0.8 0 0 1 -0.66 0.92c-6.24 1.58 -6.12 1.66 -6.46 0.86 -0.18 -0.38 -0.42 -0.68 -1.3 -0.8l-0.66 0c0 -0.66 4 -20.5 5.52 -30.78 3.54 -23.46 3.68 -34 10.8 -53.24a1.38 1.38 0 0 1 1.02 -1Z" fill="#ff9293" stroke-width="1"></path><path d="M250.68 103.18a2.14 2.14 0 0 1 -0.36 3.52c-1.42 0.64 -2.4 0 -2.4 -1.62 0.08 -1.22 1.56 -2.78 2.76 -1.9Z" fill="#000001" stroke-width="1"></path><path d="M248.94 122.46c-7.02 19.52 -8 32.32 -10.26 50.46 0 0.58 -0.36 0.4 -1.82 0.18a51.76 51.76 0 0 0 -8.86 -0.44c0.92 -6.24 6 -26 8.12 -32.52 2.94 -9.56 7.2 -14.4 12.82 -17.68Z" fill="#ffffff" stroke-width="1"></path><path d="M241.56 85.08c0 0.7 -0.62 1.06 -1.04 0.12a3 3 0 0 0 -4 -1.6c-5.28 2 -5.54 8 -8.38 8.9a1.72 1.72 0 0 1 -2 -1.08 4.78 4.78 0 0 1 -0.36 -1.84c0 -0.62 1.02 -1.16 1.18 -0.28 0.34 1.8 0.96 2.66 2.22 0.48 1.56 -2.68 3.3 -6.24 7.14 -7.66a4 4 0 0 1 5.24 2.96Z" fill="#000001" stroke-width="1"></path><path d="M237.64 174.32c0.76 0 0.86 0.22 0.7 0.96 -3.12 13.84 -4.52 28 -5.52 30.5a3.4 3.4 0 0 0 -2 1.84c-2.54 -1.28 -5.28 -2.28 -7.74 -3.82a24 24 0 0 0 -11.66 -3.8c-2 0 -3.28 1.06 -6 2.7 -8.64 -2 -8 -0.84 -7.76 -2.62 0 -0.7 -0.64 -0.78 -0.86 -0.18s-0.36 1.34 -0.62 2c-3.04 7.72 -4.38 12.34 -5.32 10.48s0.22 -6.28 0.4 -8.48a2.4 2.4 0 0 0 -1.54 -2.3 8.88 8.88 0 0 0 -5.2 -1.26 34.4 34.4 0 0 0 -4.82 1.48 2.18 2.18 0 0 0 -1.2 3.02c0.42 1.18 0.86 2.36 1.24 3.54a1.64 1.64 0 0 1 -0.84 2.3c-0.64 0.4 -1.14 0.22 -1.3 -0.52 -1.16 -6 -3.1 -5.12 -2.38 -8 0.88 -3.44 1.38 -3.22 6.36 -4.98 1.7 -0.6 0.98 -1.76 0 -1.3 -2.78 1.36 -7.84 1.4 -7.72 7.58a8.74 8.74 0 0 1 -0.48 1.78l0 1.56c-0.32 1.72 -1.7 1.78 -1.82 0.72 -0.22 -2 -1.14 -3.46 -0.68 -4.42 1.42 -2.6 -0.54 -5.04 3.62 -7.02l2 -1c0.9 -0.44 0 -1 -0.38 -0.84 -4.7 1.68 -4.82 2.56 -5.56 4.76 -0.26 0.74 0 1.04 -0.42 2.58 -2.28 -0.82 -1.14 -1.46 -0.34 -5.22 0.48 -2.2 2.26 -2.52 4.84 -3.68 1.44 -0.66 1.02 -1.34 0.44 -1.18a11.24 11.24 0 0 0 -2.26 0.66 7.44 7.44 0 0 0 -3.4 2.28 1.36 1.36 0 0 1 -0.3 0.16c-0.64 -1.26 2.5 -5.02 6.58 -4.86 7.62 0.32 6.24 0 8 0.18a88 88 0 0 1 18.88 2.6c1.52 0.28 5.1 0.62 8 1.16a104.2 104.2 0 0 0 11.36 2.12c0.94 0 6.68 0.74 6.9 -0.22 0.12 -0.52 -0.44 -0.5 -0.76 -0.66s-1.04 0.18 -1.2 -0.36c0 -0.18 3.46 -19.38 3.46 -19.42s0.14 -0.54 0.2 -0.82a0.48 0.48 0 0 1 0.52 -0.46 32 32 0 0 1 6.58 0.46Z" fill="#ffb68c" stroke-width="1"></path><path d="M236.68 217.44a8.6 8.6 0 0 1 -0.42 2.36c-0.32 1.12 -0.8 1.36 -2 1.12 0.14 -0.38 0.3 -0.76 0.44 -1.16a13.62 13.62 0 0 0 0.34 -4.68 22.32 22.32 0 0 0 -1.72 -8.12c0.14 -0.16 1.04 -0.12 1.32 -0.12 0.62 0 0.76 0.28 1.2 1.56a31.26 31.26 0 0 1 0.84 9.04Z" fill="#269eef" stroke-width="1"></path><path d="m236.28 273.46 -0.86 1.66A89.16 89.16 0 0 0 226.4 299a113.58 113.58 0 0 0 -2.56 37.58c0 0.46 1 0.76 0.98 -0.12a125.4 125.4 0 0 1 2.84 -34.98 110.82 110.82 0 0 1 8.8 -25.82c0.42 -0.8 0.84 -1.56 1.26 -2.3s-0.52 -1.7 -1.44 0.1Z" fill="#000001" stroke-width="1"></path><path d="M234.18 91.28a2.92 2.92 0 0 1 1 1.8 0.92 0.92 0 0 1 -1.36 0.94 2 2 0 0 1 -1.04 -2.28 0.84 0.84 0 0 1 1.4 -0.46Z" fill="#000001" stroke-width="1"></path><path d="M233.54 210.68A25.72 25.72 0 0 1 234 218c0 0.54 -0.38 1.04 -0.86 0.96 -1.64 -0.24 -2.58 1.28 -6.34 1.12a6.3 6.3 0 0 1 -2 -0.62 10 10 0 0 1 -3.44 -2.14c-0.86 -0.8 0 -0.84 0.82 -2.2 0 -0.22 0 -0.56 -0.68 -0.34a29.2 29.2 0 0 1 -6.3 3.24 18.52 18.52 0 0 1 -3.44 0.9c-2.38 0.42 -2.76 -1.76 -1.2 -2.96a60.42 60.42 0 0 0 5.8 -4.66 0.32 0.32 0 0 0 -0.14 -0.56c-0.32 0 -0.68 -0.16 -0.78 -0.56s-0.64 0 -0.64 0.3 -0.46 0.9 -0.86 1.24c-1.02 0.88 -2 1.8 -3.08 2.66s-1.88 1.18 -2.3 2.36c-0.14 0.36 -0.64 0.14 -0.92 0a2.36 2.36 0 0 1 -0.18 -3.78 1.84 1.84 0 0 1 0.56 -0.48 14.54 14.54 0 0 0 3.02 -2.9c1.9 -1.88 3 -2 1.76 -2.7s-0.64 -0.12 -1.52 0.8c-0.42 0.42 -0.84 0.84 -1.22 1.3a11.36 11.36 0 0 1 -2.96 2.74 5.18 5.18 0 0 0 -1.64 2.4 5.1 5.1 0 0 1 -3.7 3.04c-0.42 0 -0.88 0.18 -1.14 -0.28 -0.52 -1 1.64 -1.28 2.58 -4.64a5.64 5.64 0 0 1 0.7 -1.14c1.48 -2 0.98 -2.9 4.16 -4.52l1.76 -0.94a1.12 1.12 0 0 0 0.64 -0.76 0.3 0.3 0 0 0 -0.34 -0.34 8.98 8.98 0 0 0 -3.06 1.28 6.64 6.64 0 0 0 -2.48 2 12.14 12.14 0 0 1 -1.02 2 7.28 7.28 0 0 0 -1.34 1.7c-0.46 0.96 -0.48 2.2 -2 3.18a2.76 2.76 0 0 1 -1.86 0.46 0.64 0.64 0 0 1 -0.36 -1.16c1.36 -1.5 2.76 -2 3.74 -4.68a7.76 7.76 0 0 1 3.04 -3.78 5.82 5.82 0 0 0 1.38 -1.42 7.46 7.46 0 0 1 8.66 -2.46 16 16 0 0 1 5.48 2.28c2 1.36 4.44 2.2 6.64 3.34 6.52 3.4 6.06 1.08 6.6 3.4Z" fill="#ffb68c" stroke-width="1"></path><path d="M224.54 283.24c0.34 0.38 -0.32 1.04 -0.66 1.62 -9.8 17.12 -16.82 33.14 -15.18 52.26 0 1.08 -0.84 0.96 -0.98 0.12 -4.22 -25.1 15.44 -55.58 16.82 -54Z" fill="#000001" stroke-width="1"></path><path d="M208.56 218a2.34 2.34 0 0 0 1.58 2c-7.14 5.56 -14.24 11.48 -17.2 12 -1.24 0.26 -29.34 -5.16 -48.52 -10 -4.14 -1.06 -16.86 -4.5 -20 -5.78 -0.48 -0.18 -0.48 -0.48 -0.48 -0.56l0 -1.6c0 -0.58 -1.34 -0.7 40.92 9.62a212 212 0 0 0 28.28 5.48c0.86 0.1 1.14 0 10.76 -7.18 1.08 -0.8 1.5 -2 -0.18 -0.82 -2.58 2 -7.08 5.1 -9.76 6.78 -0.5 0.38 -0.92 0.14 -1.54 0a279.62 279.62 0 0 1 -29.2 -5.66c-1.1 -0.26 -36.98 -9.12 -37.46 -9.2s0.26 -0.36 0.4 -0.42c4.88 -2.7 23.86 -11.8 41.04 -19.64a0.72 0.72 0 0 0 0.28 -0.22l0.82 0a2.56 2.56 0 0 0 0.18 2.84c0.42 0.7 0.38 0.76 -0.4 1.18 -27.68 14.7 -29.14 14.8 -28.18 16.18a3.02 3.02 0 0 0 2 0.94c3.1 0.66 37.2 7.3 37.2 7.3a1.6 1.6 0 0 0 1.74 -0.46c1.6 -1.48 0.94 -0.56 8.62 -6.84a1.08 1.08 0 0 1 1.32 -0.18 1.62 1.62 0 0 0 2.18 -0.66 11.7 11.7 0 0 0 0.88 -2c0.5 -1.54 0.92 -0.88 6.92 -6 0.82 -0.66 0.22 -1.22 -0.48 -0.66 -1.66 1.34 -3.36 2.64 -5 4l-0.46 0.3a52.92 52.92 0 0 1 2.56 -6.62l7.68 1.5a14.34 14.34 0 0 1 -1.24 1 6.44 6.44 0 0 0 -2.54 2.88 18.2 18.2 0 0 1 -4 5.66c-1.06 1.26 -0.64 2.52 1 2.86a8 8 0 0 0 1.02 0.12 2.54 2.54 0 0 0 2.86 2.18 11.76 11.76 0 0 0 3.78 -2c0.42 0.88 1.46 1.92 2.62 1.68Zm-9.5 1.42c-0.54 0.32 -2.86 2.42 -4.32 3.56a2.2 2.2 0 0 1 -1.46 0.5 71.86 71.86 0 0 1 -7.12 -1.66c-0.26 -0.12 0.18 -0.56 0.32 -0.68 3.28 -2.98 3.44 -3.12 7.7 -6.62 0.54 -0.44 0.74 -1.48 -0.68 -0.36s-2.46 2 -7.72 6.58c-0.8 0.7 -0.88 1.44 0.12 1.8s7.4 1.68 7.44 1.68a2 2 0 0 0 1.28 -0.16 32.82 32.82 0 0 0 4.9 -4c0.08 -0.68 -0.22 -0.82 -0.46 -0.66Z" fill="#ffffff" stroke-width="1"></path><path d="M206.14 154.12c-1.4 0.32 -35.5 4.54 -36.48 4.64 -0.5 0 -0.8 0 -0.78 -0.26s0.24 -0.44 0.86 -0.54c1.36 -0.2 34.86 -4.78 36.22 -4.72s1.12 0.76 0.18 0.88Z" fill="#000001" stroke-width="1"></path><path d="M199.54 219.68a1.42 1.42 0 0 1 0 0.3 32.82 32.82 0 0 1 -4.9 4 2 2 0 0 1 -1.28 0.16s-6.38 -1.32 -7.44 -1.68 -0.92 -1.1 -0.12 -1.8c5.24 -4.7 6.44 -5.56 7.72 -6.58s1.22 0 0.68 0.36c-4.26 3.48 -4.4 3.64 -7.7 6.62 -0.14 0.12 -0.58 0.56 -0.32 0.68a71.86 71.86 0 0 0 7.12 1.66 2.2 2.2 0 0 0 1.46 -0.5c1.72 -1.36 4 -3.5 4.4 -3.6a0.32 0.32 0 0 1 0.38 0.38Z" fill="#000001" stroke-width="1"></path><path d="M188.86 202.4a6 6 0 0 0 -5.18 -0.7 21.8 21.8 0 0 0 -3.82 1.38 0.88 0.88 0 0 0 -0.32 0.68c0.24 0.62 0.94 -0.28 3.4 -1.06 0.54 -0.12 0.54 0.44 -0.92 1.16l-2 0.92a1 1 0 0 0 0 0.24c0.2 0 8 1.12 8.58 1.3s0.26 0.52 -0.12 0.86c-0.88 0.6 -3.1 2.34 -4.34 3.26l2.6 0.66a0.4 0.4 0 0 1 -0.16 0.76c-0.32 0 -0.88 -0.18 -2.24 -0.5a2.26 2.26 0 0 0 -1.58 0c-0.16 0 -0.94 0.7 -4.42 3.42l4 0.7c0.36 0 0.8 0 0.76 0.52s-0.56 0.3 -0.84 0.26c-1.36 -0.22 -2.7 -0.42 -4 -0.74a1.38 1.38 0 0 0 -1.26 0.32l-4.2 3.2 6.44 1.28a1.4 1.4 0 0 0 1.28 -0.24c2.8 -2.3 5.6 -4.56 8.42 -6.82 1.66 -1.32 -0.3 -0.68 1.18 -8.28 0.34 -1.82 0.1 -1.74 -1.26 -2.58Z" fill="#ffffff" stroke-width="1"></path><path d="M186.7 119.42c0.36 -0.16 0.72 0.14 0.68 0.6 -0.62 0.7 -25.62 20.2 -26 20.28s-0.92 -0.3 -0.48 -0.66c2.58 -2.14 24.62 -19.64 25.8 -20.22Z" fill="#000001" stroke-width="1"></path><path d="M181.12 205.84c-0.7 -0.12 -0.92 0 -0.78 0.8a7.3 7.3 0 0 1 0.7 3.34 3.42 3.42 0 0 1 -1.54 1.76 1.8 1.8 0 0 1 -2.4 -0.56 21.46 21.46 0 0 1 -1.22 -3.38l-7.5 5.16 8.2 1.56a1.36 1.36 0 0 0 1.16 -0.24c1.38 -1.12 2.96 -2.26 4.36 -3.32 -0.14 -0.2 -0.82 -0.16 -0.74 -0.62a0.34 0.34 0 0 1 0.28 -0.28c0.54 0 0.82 0.32 1.58 0a27.08 27.08 0 0 0 4 -3.1Z" fill="#ffffff" stroke-width="1"></path><path d="M176.22 215.46a33.48 33.48 0 0 0 -4 3.1 1.16 1.16 0 0 1 -1.04 0.24c-2.3 -0.48 -6.9 -1.32 -8.38 -1.62a0.2 0.2 0 0 1 0 -0.36c4.34 -2.92 4.38 -3.22 5.02 -3.12 6.32 1.04 7.8 1.34 8.4 1.48a0.16 0.16 0 0 1 0 0.28Z" fill="#ffffff" stroke-width="1"></path><path d="M174.64 205.5c1.12 1.38 1.12 1.42 -0.32 2.18 0.1 -0.72 0.2 -1.4 0.32 -2.18Z" fill="#ffffff" stroke-width="1"></path><path d="M170.32 208.24a11.74 11.74 0 0 0 -0.9 -4.42l-4.64 2.92a0.86 0.86 0 0 0 0 0.22l4.48 0.86c0.34 0 0.42 0.32 0 0.64a0.56 0.56 0 0 1 -0.4 0c-1.58 -0.28 -3.16 -0.56 -4.72 -0.9a1.42 1.42 0 0 0 -1.1 0.16c-2.14 1.38 -4.26 2.6 -5.04 3.26a78.46 78.46 0 0 0 8.3 1.64 1.7 1.7 0 0 0 1.38 -0.3c1.2 -0.82 2.4 -1.68 3.7 -2.6 -1 -0.42 -1.04 -0.5 -1.06 -1.48Z" fill="#ffffff" stroke-width="1"></path><path d="M167.64 200.64a3.2 3.2 0 0 0 1.66 2.14c-2.42 -0.82 -4.94 -0.88 -7.58 -1.56l6.64 -3.52c-0.12 1.12 -0.9 1.92 -0.72 2.94Z" fill="#ffffff" stroke-width="1"></path><path d="M166.12 271.42c0.34 0.66 -0.34 1.02 -0.8 0.36 -5.86 -8 -8 -19.34 -7.6 -29.04 0 -1.72 0.62 -5.42 1.3 -5.62s0.32 1.72 0.24 2.42a48.18 48.18 0 0 0 6.86 31.88Z" fill="#000001" stroke-width="1"></path><path d="M166 213.42a0.26 0.26 0 0 1 0 0.2 36.36 36.36 0 0 1 -4 2.84 2.56 2.56 0 0 1 -1.84 0.16c-8 -1.7 -7.68 -1.34 -8.34 -1.84 5.16 -2.94 5 -3.1 5.8 -3.04 8.38 1.54 8.38 1.48 8.38 1.68Z" fill="#ffffff" stroke-width="1"></path><path d="M161.78 191.06c1.14 -0.5 1.54 0.24 0.72 0.62 -4.56 2.12 -18.36 8 -36.36 15.76 -0.36 0.14 -0.88 0.56 -1.1 0s0.4 -0.62 0.74 -0.78c9.08 -4.04 27.14 -11.78 36 -15.6Z" fill="#000001" stroke-width="1"></path><path d="M162.4 182.88c0.18 0.54 -0.36 0.64 -0.76 0.78 -16.14 5.74 -40.4 14.78 -41.42 14.76a0.36 0.36 0 0 1 0 -0.68c11.42 -4.32 27.78 -10.22 41.18 -14.96 0.36 -0.12 0.84 -0.38 1 0.1Z" fill="#000001" stroke-width="1"></path><path d="M158.82 174.94c0.12 0.7 0 0.4 -25 8.98 -10.54 3.6 -8 2.86 -18.44 6.26 -0.32 0 -0.74 0.4 -0.9 -0.12s0.36 -0.54 0.66 -0.66c26.62 -9.08 42.62 -14.68 43.28 -14.8a0.38 0.38 0 0 1 0.4 0.34Z" fill="#000001" stroke-width="1"></path><path d="M156.78 170c0.6 1.14 0 2 -1.02 2.5a5 5 0 0 1 -0.82 0.32s-35.4 10.92 -37.38 11.5c-5.22 1.56 -6 1.62 -7.2 0A225.76 225.76 0 0 1 92 153.2a4.28 4.28 0 0 1 -0.38 -1.18 1.18 1.18 0 0 1 1 -1.34c5.22 -1.1 43.52 -8.22 48.46 -8.3 0.9 0 1.18 0.78 1.5 1.32 6.02 10.08 5.8 10.4 14.2 26.3Zm-2 1.64c0.94 -0.28 1.16 -0.7 0.78 -1.5 -1.6 -3.46 -10.16 -20.9 -14 -26 -0.54 -0.72 -0.7 -0.86 -1.56 -0.72 0 0 -33.44 5.44 -47.56 8.44 5.34 11.54 16.64 28.66 18.62 31.74 1.22 1.92 1.3 1.46 43.7 -11.96Z" fill="#000001" stroke-width="1"></path><path d="M155.54 170.14c0.38 0.8 0.16 1.22 -0.78 1.5 -42.44 13.44 -42.48 13.88 -43.76 11.88 -2 -3.08 -13.28 -20.2 -18.62 -31.74 14.12 -3 47.62 -8.42 47.62 -8.44 0.86 -0.14 1 0 1.56 0.72 3.82 5.18 12.44 22.62 13.98 26.08Zm-12.3 0.38c2.48 -0.86 3.3 -3.64 0.32 -5.76 -0.32 -0.24 -16.84 -12.92 -20.62 -14.94 -2.12 -1.12 -3.58 0 -4.24 2 -0.22 0.66 -2.22 12.34 -2.98 21.48 0 1.02 0 2.9 0.66 3.58a3.56 3.56 0 0 0 3.44 0.7c1.36 -0.32 7.5 -1.58 23.42 -7.06Z" fill="#ffa69f" stroke-width="1"></path><path d="M153.7 230.78c0.38 -0.74 1.5 -0.56 1.06 0.48 -9.86 24 -5.7 45.44 -2 52.32 0.22 0.4 0.74 0.94 0.12 1.26s-0.72 -0.42 -0.94 -0.78c-5.16 -8.5 -5.06 -23.68 -3.86 -33.7a62.26 62.26 0 0 1 5.62 -19.58Z" fill="#000001" stroke-width="1"></path><path d="M153.24 180.78c1.18 -0.42 1.42 0.48 0.24 0.92 -16 6 -33.1 12.14 -34.78 12.78 -0.82 0.3 -0.94 -0.54 -0.48 -0.72 6 -2.34 -1.42 0.52 35.02 -12.98Z" fill="#000001" stroke-width="1"></path><path d="M152 92.8c0.56 0 0.76 0.56 0.48 1.06 -19.32 34 -18.94 33.82 -19.52 33.42s-0.14 -0.64 10 -18.66c9.54 -17.2 8.3 -15.1 9.04 -15.82Z" fill="#000001" stroke-width="1"></path><path d="M160.94 201.84c-0.34 0 -0.26 0 -7.46 3.74 -10 5.26 -12.34 6.5 -12.84 6.84a0.22 0.22 0 0 0 0.1 0.38c0.48 0 1 0.16 9.32 1.88a1.3 1.3 0 0 0 1.28 -0.28c0.64 -0.76 0.68 -0.52 4.18 -3 -2.46 -0.44 -4.68 -0.84 -6.88 -1.28 -0.26 0 -0.86 0 -0.78 -0.48s0.6 -0.26 0.9 -0.2l7 1.24a1.68 1.68 0 0 0 1.44 -0.24 40.76 40.76 0 0 0 4.8 -3.18c-0.42 -0.34 -0.22 -0.12 -5.6 -1.14 -0.32 0 -1.36 -0.8 0.5 -0.64s3.48 0.64 5.2 1.02a2.34 2.34 0 0 0 1.88 -0.34c0.96 -0.64 3.78 -2.42 4.3 -2.76 -0.72 -0.36 -7.3 -1.56 -7.34 -1.56Z" fill="#ffffff" stroke-width="1"></path><path d="M151.1 190.68c0.24 0 0.58 -0.14 0.64 0.48 -0.7 0.7 0.72 0 -27.66 11.8 -0.34 0.14 -0.86 0.58 -1.1 0s0.38 -0.64 0.74 -0.8c9.16 -3.9 26.78 -11.3 27.38 -11.48Z" fill="#000001" stroke-width="1"></path><path d="M149.7 224.44c-0.22 0.24 -0.44 0.48 -0.68 0.7 -10.88 10 -11.5 11.66 -16.58 22.46A33.2 33.2 0 0 1 126 258c-10 10.7 -7.6 10.14 -13.16 16.84 -6.22 7.52 -8.24 8.38 -12.12 13.42 -2 2.66 -1.68 4.5 -2 8.38a32.18 32.18 0 0 1 -6 -3.86 8.96 8.96 0 0 1 -3.1 -4.98c-2 -9.22 2.16 -11.56 8 -17.9 8.96 -9.86 7.34 -12 16.94 -22.34 5.52 -6 5 -8.26 8.58 -15.32a42.3 42.3 0 0 1 8.32 -11.9 1.32 1.32 0 0 1 1.6 -0.34c10.38 3.1 12.7 3.24 16.64 4.44Zm-17.42 5.84c0.18 -0.76 0 -1.24 -0.16 -1.34 -0.82 -0.46 -1.54 2 -2 3.66s-8.42 23.84 -6.46 24c1.52 0.2 0.92 -5.86 5.78 -18.62 0.86 -2.34 2.56 -6.94 2.84 -7.7Zm-12.42 16.82c0.5 -1.14 -0.18 -1.56 -0.76 -0.38a63.22 63.22 0 0 0 -4.34 11.38c-1.42 5.28 -1.58 7.7 -0.66 7.54s0.96 -7.64 5.76 -18.54Z" fill="#6f95b5" stroke-width="1"></path><path d="M143.66 166.22c1.76 1.6 0 3.02 -1.18 3.44a238.96 238.96 0 0 1 -23.16 7.1 2.18 2.18 0 0 1 -2.62 -2.54c0.2 -2 2.38 -20.34 3.26 -22.74a1.82 1.82 0 0 1 2.96 -0.68c2.44 1.74 18.26 13.2 20.74 15.42ZM129.78 172a2 2 0 0 0 2 -1.88 1.72 1.72 0 0 0 -1.64 -1.8 2 2 0 0 0 -2 1.68 1.8 1.8 0 0 0 1.64 2Zm-1.78 -4.5c1 -0.32 1.7 -1.06 1.64 -1.78 0 -0.24 -0.14 -0.52 -0.22 -0.76 -3.42 -9.52 -3.1 -8.96 -3.56 -9.68a0.82 0.82 0 0 0 -0.76 -0.2c-0.92 0.36 -1.82 0.8 -2.72 1.22 -1.46 0.68 -0.86 1.1 0.62 4l3.36 6.48c0.42 0.74 0.88 0.92 1.64 0.72Z" fill="#ff4931" stroke-width="1"></path><path d="M143.56 164.76c2.98 2.12 2.16 4.9 -0.32 5.76a243.58 243.58 0 0 1 -23.42 7.1 3.56 3.56 0 0 1 -3.44 -0.7c-0.76 -0.68 -0.74 -2.56 -0.66 -3.58 0.76 -9.14 2.76 -20.82 2.98 -21.48 0.66 -2 2.12 -3.16 4.24 -2 3.78 1.98 20.3 14.66 20.62 14.9Zm-1.08 4.9c1.16 -0.42 2.94 -1.84 1.18 -3.44 -2.48 -2.22 -18.3 -13.68 -20.74 -15.42a1.82 1.82 0 0 0 -2.96 0.68c-0.88 2.4 -3.06 20.74 -3.26 22.74a2.18 2.18 0 0 0 2.62 2.54 238.96 238.96 0 0 0 23.16 -7.1Z" fill="#000001" stroke-width="1"></path><path d="M132.12 228.94c0.18 0 0.34 0.58 0.16 1.34s-2 5.36 -2.92 7.8c-4.76 12.46 -4.3 18.82 -5.78 18.62 -2 -0.26 6 -22.96 6.46 -24 0.54 -1.7 1.26 -4.22 2.08 -3.76Z" fill="#000001" stroke-width="1"></path><path d="M131.78 170a2 2 0 0 1 -2 1.88 1.8 1.8 0 0 1 -1.58 -2 2 2 0 0 1 2 -1.68 1.72 1.72 0 0 1 1.58 1.8Z" fill="#000001" stroke-width="1"></path><path d="M129.56 165.72c0 0.72 -0.64 1.46 -1.64 1.78 -0.68 0.2 -1.14 0 -1.56 -0.74 -1.12 -2.16 -4.24 -8 -4.62 -8.88s-0.24 -1.18 0.64 -1.58 1.8 -0.86 2.72 -1.22a0.82 0.82 0 0 1 0.76 0.2 5.74 5.74 0 0 1 0.6 1.34c0.92 2.8 3.04 8.86 3.1 9.1Z" fill="#000001" stroke-width="1"></path><path d="M122.84 213.72a7.42 7.42 0 0 1 0 2 5.48 5.48 0 0 1 -2.66 -1.76c-4.72 -5.64 -34.68 -51.96 -36.76 -58.66a6.7 6.7 0 0 1 1.12 -7.06c0 3.86 2.4 7.34 4.76 11.86 4.8 9.18 14.12 23.84 15.48 26 8.42 13.56 7.66 12.48 16.92 25.8a6.18 6.18 0 0 1 1.14 1.82Z" fill="#ffffff" stroke-width="1"></path><path d="M119.1 246.72c0.58 -1.18 1.26 -0.76 0.76 0.38 -4.84 11.06 -4.96 18.42 -5.76 18.54s-0.76 -2.26 0.66 -7.54a63.22 63.22 0 0 1 4.34 -11.38Z" fill="#000001" stroke-width="1"></path><path d="M119.5 317.2c0.48 0.18 0.66 0.46 0.22 0.82 -0.8 0.66 -1.6 1.32 -2.46 2a24 24 0 0 0 -5 6.34c-0.66 1.08 0 1.22 -1.6 2.3l-3.44 2.18a4.64 4.64 0 0 1 -0.74 0.26l-0.14 -0.16c3.12 -5.32 3 -4.88 5.66 -9.26a44.26 44.26 0 0 1 4.72 -5.42c0.84 0.2 1.8 0.54 2.78 0.94Z" fill="#ffffff" stroke-width="1"></path><path d="M118.18 142.28a1.06 1.06 0 1 1 0 2 1.12 1.12 0 0 1 -0.98 -1.14 0.94 0.94 0 0 1 0.98 -0.86Z" fill="#000001" stroke-width="1"></path><path d="M114.92 128.86a0.32 0.32 0 0 1 -0.54 0.24c-0.56 -0.9 -5.68 -21.44 -7.68 -29.3 -0.1 -0.4 -0.16 -0.68 0.28 -0.82s0.66 0.4 0.72 0.66c7.62 30.46 7.08 28.16 7.22 29.22Z" fill="#000001" stroke-width="1"></path><path d="M115.54 315.58c-0.58 0.64 -1.04 1.24 -1.6 1.76a18.38 18.38 0 0 0 -3.46 4.1c-1.04 1.68 -4.52 7.4 -5.2 8.6a7.02 7.02 0 0 0 -0.42 1.44 5.12 5.12 0 0 1 -4.24 -1 23 23 0 0 0 1.4 -1.88 66.72 66.72 0 0 0 4.32 -6.92c1.16 -2.5 3.78 -4.16 5.64 -8.14 0.14 -0.28 0.26 -0.56 0.6 -0.32 0.98 0.78 1.92 1.52 2.96 2.36Z" fill="#ffffff" stroke-width="1"></path><path d="M112.48 329.16c-0.1 1.5 0 2.84 -1.4 3.74 -1 0.64 -1.86 1.5 -2.88 2a8.7 8.7 0 0 1 -8 0.22 10.54 10.54 0 0 1 -4.94 -5.66l2.26 -1.7a5.86 5.86 0 0 0 4.72 5.1c4.26 1.14 6.82 -1.54 10.24 -3.7Z" fill="#fc6dbf" stroke-width="1"></path><path d="M110.66 311.66c0.66 0.38 0.74 0.4 0.2 1.48 -1.86 3.7 -3.28 3.64 -6.6 9.3 -1.38 2.34 -2.82 4.66 -4.36 7.18a8.12 8.12 0 0 1 -1.26 -3.42 1.64 1.64 0 0 1 0 -0.88 6.76 6.76 0 0 0 -0.72 -6.42c-0.4 -0.56 -0.72 -1.2 -1.14 -2 6.68 -6.54 4.7 -5.58 6.36 -9.7l2.22 1.58c-1.88 3.42 -2.12 5.42 -4.68 8.38a6 6 0 0 0 -0.78 1.1 0.8 0.8 0 0 0 0 0.74 0.96 0.96 0 0 0 1.28 -0.4 18.32 18.32 0 0 0 4.16 -7.22l0.88 -2c1.66 0.86 3.06 1.54 4.44 2.28Z" fill="#ffffff" stroke-width="1"></path><path d="M110.82 334.76a2.56 2.56 0 0 1 0.68 -0.14c-1.02 2 -2 4 -2.88 6 -7.36 -3.54 -19.34 -0.34 -25.18 3.88l-1.38 1.02c-2.52 -2.78 -4.74 -6 -10.36 -6.84 -4.92 -0.72 -6.38 -0.92 -10.84 0.56 -0.54 0.18 -0.78 0.2 -1.16 -0.36a9.16 9.16 0 0 0 -3.7 -3.62 18.2 18.2 0 0 0 -6.36 -1.54 6.1 6.1 0 0 1 0 -1.48c0.88 -4 -2.6 -6.46 -0.34 -6.86 6.12 -1.14 7.32 -0.44 12.5 -2.22l0.5 -0.12c0 2.64 0.72 7.8 2.84 9.62a7.5 7.5 0 0 0 3.08 1.56c6.96 1.76 12.9 3.48 15.8 3.2a2.6 2.6 0 0 0 2.2 -3.26 106.86 106.86 0 0 1 -1.66 -14.56 1.36 1.36 0 0 1 0.5 -0.74 60.54 60.54 0 0 1 7.7 -5.14c1.26 0.84 2.14 3.34 3.52 5.52 0.18 0.34 0.42 0.66 0.6 1a6 6 0 0 1 -0.34 6c-1.06 1.76 -3.54 1.8 -5.62 4.44a0.62 0.62 0 0 0 0.16 1.02c2.98 -2 2.88 -2 3.2 -1.22a11.34 11.34 0 0 0 7.72 6.92c3.72 1.12 6.24 -1.06 8.82 -2.64Z" fill="#f1d7f2" stroke-width="1"></path><path d="M108 341.88a0.78 0.78 0 0 1 0.24 0.62 31.8 31.8 0 0 1 -1.6 11.04c-0.18 0.7 -0.36 0.84 -1.06 0.6a164.28 164.28 0 0 0 -21.8 -7.56l-0.46 -0.28c6.12 -4.54 16.98 -7.48 23.68 -5a3.84 3.84 0 0 1 1 0.58Z" fill="#269eef" stroke-width="1"></path><path d="M106 355.8c0.52 0.14 0.5 0.52 0.48 0.9 0 1.28 0 5.36 -0.2 6.52 0 0.84 -0.26 0.88 -1.04 0.62 -5.62 -1.9 -5.36 -1.16 -5.32 -2.72 0.24 -2.16 -2.76 -2.96 -3.44 -1.24 -0.26 0.48 -0.48 0.56 -1.06 0.48a35.46 35.46 0 0 1 -6.22 -2c-0.42 -0.16 -0.56 -0.32 -0.46 -0.76 0.46 -1.8 0.28 -2.2 -0.56 -2.46 -1.4 -0.4 -2.58 -0.56 -3.14 0.68 -0.34 0.78 -0.44 0.8 -1.28 0.58a23.74 23.74 0 0 1 -6.24 -2 0.5 0.5 0 0 1 -0.32 -0.74c0.6 -1.66 -2.18 -2.96 -3.1 -1.6 -1.16 1.76 -6.5 -0.76 -8.64 -1.64a1.42 1.42 0 0 1 -0.9 -1.2c-0.26 -3.28 -2.66 -3.06 -3.46 -2.14a2.3 2.3 0 0 1 -2.82 0.72c-7.26 -2.56 -6.82 -2.38 -7 -3.56a2 2 0 0 0 -2 -2 2 2 0 0 0 -1.7 0.6c-1.32 1.16 -1.54 0.76 -7.24 -2a0.9 0.9 0 0 1 -0.58 -1.08c0.28 -1.58 -1.86 -3.36 -3.4 -2a0.82 0.82 0 0 1 -1.12 0 42 42 0 0 1 -4.82 -3.2 1.52 1.52 0 0 1 -0.34 -2l2.38 -4.24c2.42 3.66 9.2 7.2 11.16 8 24.5 9.18 39.54 9.9 62.38 19.48Z" fill="#ffffff" stroke-width="1"></path><path d="M101.44 304.8c0.5 0.66 0.38 3.36 -1.42 6.38a24.44 24.44 0 0 1 -3.34 3.74c-0.82 0.76 -1.48 -0.42 -1.5 -0.46 -0.84 -1.36 -1.08 -1.6 -2 -2a37.02 37.02 0 0 1 6.36 -9.7 22.84 22.84 0 0 1 1.9 2.04Z" fill="#ffffff" stroke-width="1"></path><path d="M100.5 205.1c0.56 -0.46 1.22 0 0.7 0.56 -0.98 1.14 -19.74 22.88 -23.32 26.76 -0.94 1.02 -1.34 0 -0.9 -0.42s23.28 -26.68 23.52 -26.9Z" fill="#000001" stroke-width="1"></path><path d="M99 299.18c0 1 0.22 1.62 -0.38 2.42a75.74 75.74 0 0 0 -7.54 11.32c-0.24 0.4 -0.26 0.36 -2.78 2a4 4 0 0 1 -0.38 -3.32 7 7 0 0 0 -1.66 -6.74 0.84 0.84 0 0 1 0.12 -1.28c0.72 -0.7 1.4 -1.4 2.12 -2 2.6 -2.42 2.52 -5.84 3.48 -6.96l2.16 1.54a38 38 0 0 1 -4.44 8.22c-0.38 0.56 -1.2 1.4 -0.68 1.86s1.28 -0.54 1.4 -0.66a29.12 29.12 0 0 0 4.64 -8.22c0.18 -0.38 0.42 -0.52 0.84 -0.3l2.26 1.18a1.3 1.3 0 0 1 0.84 0.94Z" fill="#ffffff" stroke-width="1"></path><path d="M89.86 132.56c0.9 1.1 0.42 1.56 -0.54 0.52C64.54 105.7 64 105.46 64.94 105.02c0.26 -0.14 0.54 0.12 0.74 0.34 3.66 3.66 24.14 27.16 24.18 27.2Z" fill="#000001" stroke-width="1"></path><path d="M85.66 306.76a6 6 0 0 1 0.18 6.38 2.9 2.9 0 0 1 -2.78 1.74 18.74 18.74 0 0 0 -5.66 1.02c-0.8 0.28 -1.6 0.48 -2.62 0.78 -0.72 -8.58 -1.5 -9.64 -0.4 -10.52a50.7 50.7 0 0 1 6.96 -4.88c0.84 -0.54 0.78 0.28 4.32 5.48Z" fill="#f1d7f2" stroke-width="1"></path><path d="M85.48 182c0 0.14 0 0.4 -0.34 0.52 -1.08 0.48 -27.58 12 -30.72 13.22 -0.42 0 -0.62 -0.4 -0.36 -0.68 0.98 -1.14 25.52 -11.12 30.2 -12.9 0.32 -0.16 1.04 -0.46 1.22 -0.16Z" fill="#000001" stroke-width="1"></path><path d="M84.8 334.52c0.16 0.92 -0.36 1.56 -1.3 1.44a87.46 87.46 0 0 1 -14.34 -3.16 6.8 6.8 0 0 1 -3.36 -1.64 18.58 18.58 0 0 1 -1.72 -9.04 2.2 2.2 0 0 1 1.48 -1.48c5.78 -1.68 3.6 -0.72 10 -2.58 4.62 -1.34 6.6 -2.3 9.3 -1.16a3.54 3.54 0 0 0 -1.66 3.04 99.22 99.22 0 0 0 1.6 14.58Z" fill="#fc6dbf" stroke-width="1"></path><path d="m80.38 345.76 -19.28 -5.08 0.52 -0.34a16 16 0 0 1 7.8 -0.66 14.32 14.32 0 0 1 9.88 4.64 5.66 5.66 0 0 1 1.08 1.44Z" fill="#269eef" stroke-width="1"></path><path d="M75.4 150.54c0.12 0.12 0.42 0.6 -0.7 0.34s-33.44 -8 -33.86 -8 -0.64 -1.22 0.8 -0.88c4.52 1.08 24 6 24.26 6 4.42 1.08 9.04 2 9.5 2.54Z" fill="#000001" stroke-width="1"></path><path d="M73.22 316.82c0 1 -1.26 0.4 -7.66 2.28a5.76 5.76 0 0 0 -2.42 1.38 0.94 0.94 0 0 1 -0.72 0.26c-1.84 -0.44 -3.68 -0.88 -5.48 -1.44 -1.08 -0.22 -1.62 -0.68 -2 -2a22.62 22.62 0 0 1 -1.26 -6.22 3.24 3.24 0 0 1 0.1 -1.24 2 2 0 0 1 1.46 -1.62l5.9 -1.6c6 -1.64 7.18 -2.44 10 -2.78 2.12 -0.28 2.62 -0.32 2.96 0.64a3.18 3.18 0 0 0 -1.52 2.98c-0.12 1.34 0.38 5.84 0.64 9.36Z" fill="#fc6dbf" stroke-width="1"></path><path d="M58.24 321.4c0.66 0.18 1.36 0.32 2.12 0.5 -1.02 1.06 -6.44 1.06 -10 1.86a2.72 2.72 0 0 1 -1.54 -0.22 40.84 40.84 0 0 0 -5.82 -2.2c-1.02 -0.2 -2.34 -0.36 -3.1 -0.42a11.32 11.32 0 0 0 -1.1 -6.88c-0.18 -0.68 0 -0.98 0.7 -1.1a97.46 97.46 0 0 0 12.68 -2.42 30.2 30.2 0 0 0 1.66 7.7 6.22 6.22 0 0 0 4.4 3.18Z" fill="#f1d7f2" stroke-width="1"></path><path d="M54 336a11.6 11.6 0 0 0 -4.82 -0.66c-0.84 0.16 -1.16 -0.3 -1.12 -1.18a11.12 11.12 0 0 0 -0.46 -6.2 3.38 3.38 0 0 1 0 -3.12 6.68 6.68 0 0 0 -2.66 -0.12c-4.58 0.24 -6.76 -0.16 -9.36 0.72a2 2 0 0 0 -0.9 3.2c4.5 5.04 15.82 8.7 22.3 10.7 0.46 0.14 0.92 0.46 1.54 0.18A7.48 7.48 0 0 0 54 336Z" fill="#269eef" stroke-width="1"></path><path d="M44 323.06c0 0.46 -1.7 0 -4.22 0.3 -5.04 0.46 -15.74 -6.54 -15.2 -8.44 0.36 -1.3 1.54 -2.3 5.1 -2.62a76.92 76.92 0 0 1 7.9 0 2.68 2.68 0 0 0 0.12 2.7 9.12 9.12 0 0 1 0.74 5.1c-0.26 1.76 -0.18 1.54 1.5 2s4.06 0.2 4.06 0.96Z" fill="#269eef" stroke-width="1"></path><path d="m388.32 228.74 -34 4.34a1.88 1.88 0 0 1 -0.12 -0.48c0.24 -10.54 3.18 -23.26 3.22 -30.56 0.14 -26.88 -0.44 -28.76 -3.06 -39.8 -1.62 -6.86 -6.48 -18.88 -11.86 -24 -9.22 -8.68 -17.12 -13.78 -28 -12.32a0.96 0.96 0 0 1 -0.68 -0.28c-3.36 -5.74 -5.58 -7.46 -11.26 -10.56 -8.6 -5.52 -13.64 -6.4 -23.32 -9.7a13.42 13.42 0 0 1 -4 -2 42.98 42.98 0 0 1 -7.7 -7.82c-0.38 -0.46 -0.3 -0.72 0.12 -1.12a11.08 11.08 0 0 0 2.4 -10.74 7.1 7.1 0 0 1 -0.54 -3.58 28.66 28.66 0 0 1 3.24 -9.88c1 -2 -1.76 -2.6 -3.18 -3.28 4.54 -1.08 6 0.76 6.6 -1.04 0.38 -1.16 0.74 -2.32 1.02 -3.52a2 2 0 0 0 -0.46 -2 30.96 30.96 0 0 0 -2.84 -1.66c-0.68 -0.34 -0.34 -0.14 -0.76 -4.82a1.84 1.84 0 0 0 -1.46 -1.7c-2.12 -0.6 -6 0.36 -7.38 0.42 -0.38 0 -0.5 -0.22 0 -0.44a15.36 15.36 0 0 1 5.66 -1.06c0.58 0 1.24 0 1.6 -0.54a5.08 5.08 0 0 0 -1.56 -6c-2 -1.28 -6.46 0.12 -8.62 0.88a9.82 9.82 0 0 0 1.62 -4.76 2.12 2.12 0 0 0 -0.94 -1.88 16.68 16.68 0 0 0 -2.92 -1.62c-1.22 -0.42 -1.74 -0.3 -2.36 0.78a18.48 18.48 0 0 1 -5.04 6.28 0.16 0.16 0 0 1 -0.26 0 2.94 2.94 0 0 1 0.16 -1.42 19.42 19.42 0 0 1 1.84 -3.24c2 -3.02 -0.58 -3.88 -4 -5.04 -1.4 -0.48 -3.6 3.14 -4 4.14s-0.82 1.76 -1.24 2.7c-0.24 -1.16 -0.3 -2.98 -0.52 -3.68a2 2 0 0 0 -2.58 -1.34 23.28 23.28 0 0 0 -2.3 0.68 2.4 2.4 0 0 0 -1.54 2.16c-0.34 1.88 -0.32 7.4 -3.02 7.04s-0.86 -3.68 0.2 -6.24a1.22 1.22 0 0 0 -0.3 -1.68c-0.62 -0.56 -0.66 -0.58 -3.82 -2a1.34 1.34 0 0 0 -2 0.48 11.28 11.28 0 0 0 -1.74 5.18c0 0.4 -0.16 0.78 -0.2 1.16a0.16 0.16 0 0 1 -0.3 0 12.72 12.72 0 0 0 -0.62 -1.42c-0.82 -1.58 -2.12 -3.26 -3.24 -2.82 -2 0.76 -4.94 2.34 -4.12 4.34 1.22 2.94 3.2 5.46 2.52 8.62 -0.34 1.58 -2.38 -2.78 -5.2 -4.88s-5.44 2.5 -6 4.96a1.12 1.12 0 0 0 0.58 1.32 17.88 17.88 0 0 1 5.02 3.78c0.4 0.38 0.18 0.78 -0.38 0.84a22 22 0 0 1 -6.1 -2.16A2.3 2.3 0 0 0 205.2 57a7.06 7.06 0 0 0 -1.08 3.68 1.38 1.38 0 0 0 1.44 1.38c1.64 0 7.5 0.96 7.02 2.64 -0.32 1.16 -6.84 -0.6 -8.92 -0.2a1.12 1.12 0 0 0 -0.84 0.96 13.5 13.5 0 0 0 0.32 5.44 1.12 1.12 0 0 0 1.34 0.88s7.52 -1.54 7.7 0.2c0.14 1.16 -2.54 1.44 -6.92 2.62 -1.1 0.3 -1.26 0.84 -1.16 2a12.16 12.16 0 0 0 1.48 4.98 1.32 1.32 0 0 0 1.82 0.36l0.88 -0.56c5.24 -2.7 5.36 -2.42 8.26 -2.76a36.1 36.1 0 0 0 2.72 13.6c-1.46 0.24 -2.84 1.46 -1.6 3.88 0.26 0.5 0.78 0.64 1.04 0.42s0 -0.78 -0.26 -1.34c-0.38 -1.32 1.26 -2.22 1.64 -1.44a8.86 8.86 0 0 0 3.18 3.74 3.32 3.32 0 0 0 1.28 5.02c0.72 0.5 1.16 0.7 1.24 1.02 1.26 11.86 8.76 18.14 17.34 17.54a19.64 19.64 0 0 0 7 -2c0.14 0 0.38 0.3 0.64 0.58a53.74 53.74 0 0 0 -8.96 6.64c-4 4.18 -6.34 11.32 -8.28 17.78 0 0 -4.36 15.32 -7.14 28.8a3.24 3.24 0 0 0 1.58 3.58 0.96 0.96 0 0 1 0.48 1.06c-2.86 19.54 -2.44 17.4 -4.52 17.22a66.12 66.12 0 0 1 -9.46 -1.54 106 106 0 0 0 -11.38 -1.86c-8.12 -1.44 -9.12 -2.22 -20 -2.58 -2 0 -2.74 0.12 -6.52 0a13.62 13.62 0 0 0 -4 0.48c-0.48 0.14 -0.8 -0.44 -1.04 -0.88 -16.62 -31.72 -22.66 -44.1 -25.3 -48.34 -1.02 -1.62 -2.28 -3.74 -7.64 -3.08 -9.88 1.08 -39.18 4.4 -48.76 7.08 -7.38 2 -9.46 7.22 -7.22 12.62 4 9.8 26.54 43.48 32.92 52.72a50 50 0 0 0 4.54 6 7.42 7.42 0 0 0 3.78 1.86 55.46 55.46 0 0 1 6.68 2.18c-1.74 1.04 -6.7 8 -7.58 9.86 -3.84 7.86 -4.62 12.32 -10.48 18.2a48.16 48.16 0 0 0 -6 7.08A76 76 0 0 1 100 264a4 4 0 0 1 -3.34 1.82c-0.84 0 -83.76 10.66 -85.9 10.92 -0.32 0 -0.7 0 -0.66 0.5s0.74 0.54 1.42 0.46c6.72 -0.82 85.22 -10.82 86 -10.9 -2 3.36 -11.22 8.28 -10 18 0.86 6.76 3.8 7.48 2.94 8.86 -1.36 2.12 0 4.24 -5.56 9.18a8.32 8.32 0 0 0 -2 -2.86 1.52 1.52 0 0 0 -2.2 0l-5.34 3.62a3.1 3.1 0 0 0 -3.42 -1.42c-5.12 0.58 -8.38 2.48 -10.66 2.84a40.8 40.8 0 0 0 -6.9 1.84 3.38 3.38 0 0 0 -1.54 1.36 1.62 1.62 0 0 1 -0.9 0.72 96.16 96.16 0 0 1 -11.3 2.3c-1.62 0.38 -13.46 -1.52 -16.12 1.2a26 26 0 0 0 -4.86 7.08c-1.7 3.54 2 4.58 5.46 6.82a2 2 0 0 0 2.44 0c0.76 -0.5 1.4 -0.16 1.3 0.72a2.3 2.3 0 0 0 0.96 2.1c0.78 0.58 0 0.86 -0.76 2.58 -1.86 3.64 2 4.7 5.44 7a2.58 2.58 0 0 0 2.68 0c2 -1.14 0.14 2 2.68 3.36 0 0 3.66 1.8 5.78 2.64a2.52 2.52 0 0 0 2.8 -0.6c0.94 -0.88 1.18 -0.58 1.48 0.54 0.14 1.66 1.58 2.28 8.5 4.62a3.26 3.26 0 0 0 3.52 -1c1.04 -1.04 1.3 0.84 1.3 1 0 2.22 4 3.42 6 4.16 0.52 0.18 4.22 1.38 5.1 0.32s1.44 -1.26 1.3 0c-0.12 0.98 0 1.3 0.96 1.7a31.18 31.18 0 0 0 7.12 2.52c2.46 0.64 2.12 -1.9 3.52 -1.52 0.92 0.24 -1.56 2.34 2 3.5a34.68 34.68 0 0 0 6 1.84c2.8 0.42 2.2 -1.7 3.12 -1.38s-0.7 2 0.74 2.74a46.36 46.36 0 0 0 6.86 2.26c1.2 0.26 1.82 -1.32 1.88 -2.52a29.46 29.46 0 0 0 0 -7.34 2.8 2.8 0 0 1 0 -1.62c3.68 -11.68 0.4 -9.26 3.02 -14.72 0.62 -1.3 1.3 -2.56 1.8 -3.9a14.7 14.7 0 0 0 0.96 -8 1.2 1.2 0 0 1 0 -0.7c3.78 -6.26 2.66 -4.44 5.78 -6.58 -0.12 0.84 -0.16 1.5 -0.28 2 -1.8 9.04 5.04 22 15.48 27.28 17.2 8.66 49.4 5.96 54.98 5.76 16.6 -0.62 25.1 -0.7 42 3.68 10.22 2.4 26 4.72 36.34 3 22 -3.64 5.56 -3.2 44.78 -8.7a108.2 108.2 0 0 0 26.6 -8.72c8.6 -4.62 17.6 -16.14 21.12 -24.96 6.92 -17.24 5.72 -16.88 6.18 -28 0.5 -12.52 -4.66 -29.72 -9.46 -42a37.88 37.88 0 0 1 -2.88 -14.5c0 -0.48 0.1 -0.72 0.56 -0.78l34.3 -4.3c0.88 -0.06 1.82 -1.42 -0.8 -1.08Zm-86 -112.14a19.18 19.18 0 0 1 8.28 6.68 46 46 0 0 1 8.78 22.54c1.88 10 2.48 27.28 2.5 37.38 0 0.14 0.24 0.2 0.16 0.3a1.66 1.66 0 0 1 -0.68 0.2c-26.34 -0.68 -10.48 -1.58 -40.9 2 -0.24 -3.1 0.22 -5.54 -0.2 -14.72a10.5 10.5 0 0 1 1.12 -4.54 53.82 53.82 0 0 1 18.5 -23.42c1.28 -0.9 0.7 -2.18 -1.68 -0.72 -4.88 2.98 -9.46 8.98 -12.46 13.4 -1.7 2.52 -2.66 4.18 -3.24 5.02 0 -10 0.38 -26.18 5.82 -34.78 2.56 -4 4.84 -7.5 9.38 -9.02a6.5 6.5 0 0 1 4.54 -0.32ZM178 258.36c1.46 1.74 2.94 3.48 4.38 5.24 4 4.9 -6.76 5.86 -9.22 6.3a0.98 0.98 0 0 0 -0.7 1.64c0.68 1 5.52 3.7 -1.42 7.64 -11.8 6.7 -14 12.24 -18.56 19.12 -4.98 7.6 -4.14 5.88 -5.24 8.68 -1.88 4.88 -8.54 6.98 -15.24 8 -12 1.66 -11.56 1.06 -23.46 -6.62 -4.5 -2.9 -7.22 -4.12 -7.76 -9.4 -0.48 -4.88 -0.74 -7.14 2.48 -10.84 6.92 -8 7.42 -6.96 12.46 -14.16 10.38 -14.9 10 -12.58 13.06 -16.32 5.7 -7.22 8.86 -23.38 23.1 -32.38a1.2 1.2 0 0 1 0.82 -0.18c0.2 0 38.88 9.24 41.02 8.32 3.2 -1.38 15.1 -11.04 16.9 -12.5a2.8 2.8 0 0 1 1.44 -0.84 22.44 22.44 0 0 0 6.2 -1.8 2 2 0 0 1 2.38 0.56 11.42 11.42 0 0 0 5.1 2.56c2.96 0.62 6 -1 6.56 -0.82 0.24 0 0.36 0.52 0.52 0.82a1.38 1.38 0 0 0 1.3 0.74 7.1 7.1 0 0 0 1.72 -0.2 1.5 1.5 0 0 0 1.26 -1.14c0 -0.4 0.38 -0.46 0.88 -0.4 6.22 0.56 7.22 -0.26 7.26 1.06a18.3 18.3 0 0 0 2.52 9.7 70.42 70.42 0 0 1 6.28 14.38c1.86 6.22 0.8 6 2.56 17.04 0.12 0.66 0.12 0.7 -0.56 0.74a32.16 32.16 0 0 0 -8.62 1.04c-6.2 1.36 -6.48 0.78 -15.54 0.16 -14.5 -0.98 -27.4 2 -36.24 1.04a23.34 23.34 0 0 1 -17.64 -9.98c-0.68 -0.96 -2.28 -0.02 0 2.8ZM98 318.9c-0.4 -0.58 -0.72 -1.2 -1.14 -2 6.68 -6.54 4.7 -5.58 6.36 -9.7l2.22 1.58a36.76 36.76 0 0 0 -1.56 3.22c-2 5 -4.58 5.84 -3.84 7a0.96 0.96 0 0 0 0.74 0c0.32 -0.16 0.34 -0.14 2.58 -3.14a22.34 22.34 0 0 0 2.12 -4.54l0.88 -2c1.54 0.78 2.94 1.46 4.32 2.2 0.7 0.38 0.68 0.46 0.36 1.16 -1.72 3.68 -3.42 4 -6.76 9.62 -1.36 2.34 -2.84 4.64 -4.36 7.16a8 8 0 0 1 -1.26 -3.4 1.64 1.64 0 0 1 0 -0.88 6.7 6.7 0 0 0 -0.66 -6.28Zm-1.3 -4c-0.82 0.76 -1.48 -0.42 -1.5 -0.46 -0.84 -1.36 -1.08 -1.6 -2 -2a36.68 36.68 0 0 1 6.36 -9.7 22.84 22.84 0 0 1 1.82 2.1c0.5 0.66 0.38 3.36 -1.42 6.38a24.44 24.44 0 0 1 -3.28 3.7Zm5.3 13.7a66.72 66.72 0 0 0 4.32 -6.92c1.14 -2.46 3.52 -3.88 5.48 -7.82 0.24 -0.48 0.36 -0.94 0.76 -0.64 0.96 0.74 2 1.52 2.96 2.36 -0.58 0.64 -1.04 1.24 -1.6 1.76a19.4 19.4 0 0 0 -3.46 4.1c-5.4 8.9 -5.34 8.56 -5.62 10a5.12 5.12 0 0 1 -4.24 -1 15.5 15.5 0 0 0 1.4 -1.84Zm114.18 -118c-0.32 0 -0.7 -0.16 -0.78 -0.56s-0.64 0 -0.64 0.3 -0.46 0.9 -0.86 1.24c-1.02 0.88 -2 1.8 -3.08 2.66s-1.88 1.18 -2.3 2.36c-0.14 0.36 -0.64 0.14 -0.92 0a2.34 2.34 0 0 1 -0.18 -3.78 1.84 1.84 0 0 1 0.56 -0.48 11.28 11.28 0 0 0 2.78 -2.64c1.86 -2 3.36 -2.22 2 -2.96s-0.64 -0.12 -1.52 0.8a21.44 21.44 0 0 1 -4.18 4 5.18 5.18 0 0 0 -1.64 2.4 5.1 5.1 0 0 1 -3.7 3.04c-0.42 0 -0.88 0.18 -1.14 -0.28s0 -0.76 0.34 -1.02a7.46 7.46 0 0 0 2.24 -3.62 5.64 5.64 0 0 1 0.7 -1.14c1.48 -2 0.98 -2.88 4.16 -4.52l1.76 -0.94a1.12 1.12 0 0 0 0.64 -0.76 0.3 0.3 0 0 0 -0.34 -0.34 9.14 9.14 0 0 0 -3.06 1.28 6.64 6.64 0 0 0 -2.48 2 12.14 12.14 0 0 1 -1.02 2 7.28 7.28 0 0 0 -1.34 1.7c-0.44 0.92 -0.48 2.2 -2 3.18a2.76 2.76 0 0 1 -1.86 0.46 0.64 0.64 0 0 1 -0.32 -0.98c1.36 -1.5 2.78 -2 3.74 -4.68a7.76 7.76 0 0 1 3.04 -3.78 5.82 5.82 0 0 0 1.38 -1.42 8.4 8.4 0 0 1 4.2 -2.76 8.92 8.92 0 0 1 4.46 0.3 16.86 16.86 0 0 1 5.48 2.28c2.12 1.34 4.44 2.2 6.64 3.34a33.32 33.32 0 0 0 3.32 1.54c2.52 0.94 2.86 0.3 3.16 1.32A24 24 0 0 1 234 218c0 0.54 -0.38 1.04 -0.86 0.96 -1.58 -0.24 -2.62 1.28 -6.34 1.12a6.3 6.3 0 0 1 -2 -0.62 10.26 10.26 0 0 1 -3.44 -2.14c-0.86 -0.82 0 -0.82 0.82 -2.2 0 -0.22 0 -0.56 -0.68 -0.34a27.72 27.72 0 0 1 -6.3 3.24 17.08 17.08 0 0 1 -3.44 0.9c-2.3 0.44 -2.82 -1.72 -1.2 -2.96 1.02 -0.76 2.14 -1.52 3.08 -2.34s1.82 -1.52 2.72 -2.32a0.33 0.33 0 0 0 -0.16 -0.64Zm18.74 4.42a22.5 22.5 0 0 0 -1.72 -8.12c0.14 -0.18 1.34 -0.14 1.6 0s0.56 0.48 0.92 1.52a31.32 31.32 0 0 1 0.94 9.04 8.6 8.6 0 0 1 -0.42 2.36c-0.3 1.12 -0.8 1.36 -2 1.12 0.14 -0.38 0.3 -0.76 0.44 -1.16a13.14 13.14 0 0 0 0.26 -4.7Zm14.3 15.6a18.54 18.54 0 0 1 -2.82 -9.2c0 -0.44 0 -0.9 0.56 -0.84 14.94 1.02 13.34 1.52 21.78 1.86a170.72 170.72 0 0 0 23.62 0c12.42 -1.22 16 -3.7 19.52 -16.48 0.16 -0.48 0.4 -0.42 0.5 -0.28 -0.76 12.1 -6.16 20.2 -7.14 29a42.68 42.68 0 0 1 -6 14.2 25.82 25.82 0 0 1 -19.48 11.24 76.82 76.82 0 0 0 -12.24 2.22 27.24 27.24 0 0 1 -8.64 0.96c-0.44 0 -0.58 -0.22 -0.66 -0.64 -0.7 -3.4 -1.02 -19.94 -8.98 -31.98Zm61.8 -26.22c-4.26 16.2 -9.22 15.22 -22.4 16.68a136.46 136.46 0 0 1 -21.3 -0.2c-9.8 -0.68 -14.3 -1.64 -28.7 -2l-1.18 0a37.72 37.72 0 0 0 -0.7 -10.42l26.76 -6.88c11 -2.78 18.34 -3.08 21.6 -6.4 1.34 -1.36 1.22 -3.36 1.54 -7.46 0 -0.44 0 -1 0.22 -1.28s0.8 0 1.22 -0.12c15.1 -2 12.62 -2 20.6 -1.84 5.14 0 5.58 0 5.58 1.48a70.44 70.44 0 0 1 -3.22 18.5Zm-66.64 -0.28c1.82 -34.8 6 -65.82 8.22 -76.84 1.18 3.56 2.78 7.58 6 8 3.58 0.54 8.36 -4 10.62 -7.04a41.08 41.08 0 0 0 6.2 -12.78c1.74 -5.32 0.24 2.22 -1.28 8.14 -0.64 2.44 -4 11.36 -6.7 21.62a76.2 76.2 0 0 0 -2.88 20.44c-0.14 2.12 -1.66 8.32 -2 12.5 0 0.38 0.28 -3.3 -2 20.82 -0.12 1.28 -0.4 2.28 -2 2.54s-11.34 3.08 -13.24 3.4c-0.84 0.18 -0.96 0.04 -0.92 -0.74Zm34.46 -97.62c3.78 0.94 19.4 6.32 20.16 8.54a14.46 14.46 0 0 0 -6.24 3.16c-11.24 9.12 -10.98 25.84 -11.9 40.4 -0.66 7.78 -2.22 9.12 -1.78 15.16 0.14 2.72 0.14 11.06 0 12.26 -0.1 2.56 3.8 2.98 5.84 3.02a8.7 8.7 0 0 1 -0.38 4.24 5.06 5.06 0 0 1 -3.54 2.9c-0.86 0.26 -17.54 4.14 -19.44 4.34 2.86 -32.8 3.38 -27.76 4.2 -35.64a92.68 92.68 0 0 1 1.74 -14.34c0.6 -2.9 4.58 -16.52 4.6 -16.56 0.88 -2.94 2.74 -7.34 3.7 -11.76 3.34 -14.88 1.3 -16.1 3.06 -15.66Zm-72 -25.74c-0.4 0.24 -0.64 0.14 -0.76 -0.32 -1.18 -4.62 -1.26 -4.44 0.22 -4.9 4.92 -1.62 6.64 -1.5 6.9 -3.16 0.44 -2.88 -5.58 -2.22 -8.3 -1.74 -0.7 0.12 -0.82 0.14 -0.92 -0.58a31.5 31.5 0 0 1 -0.32 -3.66c0 -1.9 1.62 -0.28 8.44 -0.58 1.24 0 4.6 -3.24 -6.66 -5a0.4 0.4 0 0 1 -0.34 -0.36c0 -1.14 1.14 -4.26 2.34 -4a72.66 72.66 0 0 0 7.26 2.58 1.68 1.68 0 0 0 2 -1.18c0.48 -1.58 -4.22 -4.76 -5.64 -5.44 -0.56 -0.28 -0.64 -0.62 -0.44 -1.08 0.48 -1.08 2.54 -4.68 3.78 -3.54 3.14 2.92 4.12 4.28 4.94 4.98s2 0.54 2.26 -0.78c0.72 -3.12 0 -4.46 -2.14 -8.98 -0.46 -1 -0.46 -1.16 0.4 -1.76a13.18 13.18 0 0 1 1.72 -0.98 1.26 1.26 0 0 1 1.68 0.32 11.12 11.12 0 0 1 2.78 6.22c0.28 2.18 1.2 1.14 1.24 0.82a23.3 23.3 0 0 1 1.3 -9.08c0.66 -1.52 0.88 -1.54 2.14 -0.92l2.72 1.28c-1.8 2.94 -3.2 7.26 0.12 8.18a2.5 2.5 0 0 0 2.8 -0.72c1.66 -2.12 1.74 -3.62 2.12 -7.52 0 -0.58 0.24 -0.98 0.86 -1.12s1.48 -0.4 2.24 -0.52a0.88 0.88 0 0 1 1.02 0.84 14.94 14.94 0 0 1 0 5.48c0 0.2 -0.52 1.1 0.12 1.44s1.32 -0.9 1.78 -1.88c1.2 -2.58 3.08 -8.16 5.42 -7.26 1.38 0.52 3.66 1.28 2.9 2.52 -1.56 2.58 -2.86 4 -2.36 6.5 0 0.68 0.82 1.18 1.66 0.4 6.44 -5.9 4.8 -7.78 6.64 -7.06a26.48 26.48 0 0 1 2.58 1.36c0.56 0.32 0.52 1.04 0.34 1.62 -1.2 4 -2.42 4.64 -5.18 6.72 -0.72 0.54 0.16 1.46 0.7 1.14a18.44 18.44 0 0 1 11.44 -4c1.76 0 2 3.48 2.12 4.72 -4.96 0 -8 1.44 -8.26 2.68s1.22 1.52 2.86 1.2c4.12 -0.42 6.36 -1.1 6.6 0.24a36.38 36.38 0 0 1 0.2 3.9c0 0.5 -0.44 0.38 -0.8 0.4 -2.94 -0.1 -4 0.2 -4.76 0.74s-0.38 0.98 0.54 0.88a13.6 13.6 0 0 1 6.76 0.4c1.2 0.44 2 0.94 2 1.5s-0.72 2.22 -0.9 3c-0.12 0.44 -0.38 0.54 -0.86 0.54 -8.18 0 -6.46 2 -5.58 2.48 2.64 1.36 3.2 1.58 2.66 2.44A27.08 27.08 0 0 0 268 80c-3.6 -3.48 -9.82 -1.26 -11.24 3.52a4.34 4.34 0 0 1 -3.78 2.48c-2 0.2 -0.22 -2.38 0 -2.88 1.54 -3.44 -6.14 -0.34 -4.48 -4 0.66 -1.5 2.66 -3.22 0 -4.3 -6 -2.5 -3.18 -6 -2.42 -6.5s0.32 -1.34 -0.56 -0.82c0 0 -5.44 4 -4.66 0.88 0.26 -1.06 -0.66 -1.22 -1.08 -0.38 -1.24 2.46 -6.14 6 -9.02 2.46 -1.5 -2 -0.82 0 -7.08 4.8a10.6 10.6 0 0 1 -6 2.12 22.42 22.42 0 0 0 -10.74 3.44Zm34.56 38.8c-8.62 -0.4 -13.52 -7.88 -14.32 -15.74a7.78 7.78 0 0 0 4.58 0c0.32 -0.14 0.96 -1.14 -0.28 -1.1 -3.64 0 -5.86 -0.74 -6.92 -2.3 -1.44 -2.14 0.88 -3.82 4.62 -3.02 1.56 0.34 2.14 -0.7 0.56 -1.04a8.62 8.62 0 0 0 -3.58 -0.18c-0.92 0.24 -0.42 -0.56 -1.6 -1.34 -0.66 -0.52 -1.28 -0.2 -1.34 0.64l0 0.68a6 6 0 0 1 -1.9 -2.46c0.64 0 1.34 -0.18 1.62 -0.7s-0.16 -1.62 -0.64 -1.24a2 2 0 0 1 -1.84 0.46 43.6 43.6 0 0 1 -2.64 -13.02c0 -0.5 0 -0.72 0.68 -0.8 5.16 -0.68 7.34 -3.2 11.18 -6.8 0.3 -0.28 0.42 -0.46 0.8 0 3.36 3 7.24 0.74 9.38 -1.52 0.38 0.84 2 1.18 3.84 0 -0.4 3.06 1.36 4.62 4 5.6 1.78 0.66 0.26 1.4 -0.46 3.72a2.26 2.26 0 0 0 2.18 3.04l2.62 0c-0.74 1.34 -1.54 2.4 -1 3.6a1.5 1.5 0 0 0 1.16 0.98 4.52 4.52 0 0 0 5.26 -2.76 7.6 7.6 0 0 1 3.38 -4c3.9 -2 8 0.96 8.44 6.2 0.3 4 -2 8.36 -5.88 9.04a6 6 0 0 1 -3.82 -1.06 0.508 0.508 0 0 0 -0.6 0.82 7.14 7.14 0 0 0 3.06 1.46c1.62 0.42 3.22 0.96 4.84 1.38s1.7 1.18 8 6.66c1.02 0.86 1.7 1.3 1.26 3.62a48.64 48.64 0 0 1 -3.52 11.52c-2.46 5.34 -8.46 14.92 -14.26 14 -3.88 -0.56 -5.32 -11.34 -5.36 -11.64 -0.12 -0.68 0 -0.26 4 3.3 0.18 0.18 0.92 0.64 1.14 0.2s-0.3 -1.06 -0.56 -1.28c-1.12 -0.96 -3.2 -3.08 -4.8 -4.66a1.64 1.64 0 0 1 0.18 -2.5 31.4 31.4 0 0 0 10.12 -11.16c0.2 -0.42 0.74 -1.24 0.3 -1.38s-0.88 0.18 -1.72 1.52c-3.9 6.52 -12.34 13.7 -20.06 13.32Zm9.86 1.26a1.56 1.56 0 0 1 0.36 1.4c-0.66 5.66 -0.94 8.12 -1.1 9.44 -0.26 2.28 -2.98 15.14 -6.18 48.5 0 0 -1.4 22.36 -1.36 24.7a0.8 0.8 0 0 1 -0.66 0.92c-6.24 1.58 -6.12 1.66 -6.46 0.86a1.04 1.04 0 0 0 -0.62 -0.62 4.38 4.38 0 0 0 -1.34 -0.22c0.14 -1.3 4 -20.28 5.82 -32.78 2.98 -19.58 3.1 -31.2 10.5 -51.24a1.38 1.38 0 0 1 1.14 -0.9ZM228 172.66c0.92 -6.28 6.14 -26.18 8.12 -32.52 2.4 -7.74 5.86 -13.62 12.82 -17.68 -6.94 19.26 -8 32 -10.26 50.46 0 0.3 -0.18 0.44 -0.48 0.4a46.68 46.68 0 0 0 -10.2 -0.66Zm-52.22 17.1c7.62 0.32 6.24 0 8 0.18a88 88 0 0 1 18.88 2.6c1.52 0.28 5.1 0.62 8 1.16a104.2 104.2 0 0 0 11.36 2.12c0.94 0 6.68 0.74 6.9 -0.22 0.12 -0.52 -0.44 -0.5 -0.76 -0.66s-1.04 0.18 -1.2 -0.36c0 -0.18 3.46 -19.38 3.46 -19.42s0.14 -0.54 0.2 -0.82a0.5 0.5 0 0 1 0.58 -0.46 31.68 31.68 0 0 1 6.36 0.44c0.78 0 0.86 0.24 0.7 0.96 -3.14 14.28 -4.52 28 -5.52 30.5a3.4 3.4 0 0 0 -2 1.84c-2.54 -1.28 -5.26 -2.3 -7.74 -3.82a24 24 0 0 0 -11.66 -3.8c-2 0 -3.38 1.12 -6 2.7 -8.6 -2 -8 -0.84 -7.76 -2.62 0 -0.7 -0.64 -0.78 -0.86 -0.18s-0.36 1.34 -0.62 2c-3.06 7.72 -4.38 12.34 -5.32 10.48s0.22 -6.28 0.4 -8.48a2.4 2.4 0 0 0 -1.54 -2.3 8.88 8.88 0 0 0 -5.2 -1.26 34.4 34.4 0 0 0 -4.82 1.48 2.18 2.18 0 0 0 -1.2 3.02c0.42 1.18 0.86 2.36 1.24 3.54a1.64 1.64 0 0 1 -0.84 2.3c-0.64 0.4 -1.14 0.22 -1.3 -0.52 -1.16 -6.14 -3.1 -5.1 -2.38 -8 0.9 -3.44 1.38 -3.22 6.36 -4.98 1.7 -0.6 0.98 -1.76 0 -1.3 -2.78 1.36 -7.84 1.4 -7.72 7.58a7.62 7.62 0 0 1 -0.48 1.78l0 1.56c-0.32 1.72 -1.7 1.78 -1.82 0.72 -0.22 -2 -1.14 -3.44 -0.68 -4.42 1.42 -2.6 -0.54 -5.04 3.62 -7.02l2 -1c0.9 -0.44 0 -1 -0.38 -0.84 -4.7 1.68 -4.82 2.56 -5.56 4.76 -0.26 0.74 0 1.04 -0.42 2.58 -2.28 -0.82 -1.14 -1.46 -0.34 -5.22 0.48 -2.2 2.26 -2.52 4.84 -3.68 1.44 -0.66 1.02 -1.34 0.44 -1.18a11.24 11.24 0 0 0 -2.26 0.66 7.44 7.44 0 0 0 -3.4 2.28 1.36 1.36 0 0 1 -0.3 0.16c-0.48 -1.24 2.66 -5 6.74 -4.84Zm13.14 23.58c-2.82 2.26 -5.62 4.52 -8.42 6.82a1.4 1.4 0 0 1 -1.28 0.24l-6.44 -1.28 4.2 -3.2a1.38 1.38 0 0 1 1.26 -0.32c1.32 0.32 2.66 0.52 4 0.74 0.28 0 0.8 0.28 0.84 -0.26s-0.4 -0.46 -0.76 -0.52l-4 -0.7c3.48 -2.72 4.26 -3.34 4.42 -3.42a2.26 2.26 0 0 1 1.58 0c1.36 0.32 2 0.48 2.24 0.5a0.4 0.4 0 0 0 0.16 -0.76l-2.6 -0.66c1.24 -0.94 3.46 -2.66 4.34 -3.26 0.36 -0.34 0.58 -0.7 0.12 -0.86s-7.88 -1.2 -8.58 -1.3a1 1 0 0 1 0 -0.24l2 -0.92c1.46 -0.72 1.44 -1.28 0.92 -1.16a18.5 18.5 0 0 0 -2.68 1.12c-0.92 0.46 -0.84 -0.42 -0.4 -0.74a21.8 21.8 0 0 1 3.82 -1.38 6 6 0 0 1 5.18 0.7c1.84 1.14 1.5 0.76 0.94 4.34 -0.86 5.82 0.66 5.32 -0.86 6.52Zm-19.62 -10.56c-2.42 -0.82 -4.94 -0.88 -7.58 -1.56l6.64 -3.52c-0.12 1.12 -0.88 2 -0.72 2.94a3.2 3.2 0 0 0 1.66 2.14Zm6.58 5.02a21.46 21.46 0 0 0 1.22 3.38 1.8 1.8 0 0 0 2.4 0.56 3.32 3.32 0 0 0 1.54 -1.76 7.3 7.3 0 0 0 -0.7 -3.34c-0.14 -0.7 0 -0.92 0.78 -0.8l6.12 1.12a27.08 27.08 0 0 1 -4 3.1c-0.76 0.32 -1.04 0 -1.58 0a0.32 0.32 0 0 0 -0.28 0.28c0 0.46 0.6 0.42 0.74 0.62 -1.4 1.06 -2.98 2.2 -4.36 3.32a1.36 1.36 0 0 1 -1.16 0.24l-8.2 -1.56Zm-1.56 -0.12c0 -0.72 0.2 -1.4 0.32 -2.18 1.12 1.38 1.12 1.42 -0.32 2.18Zm-6.58 4.66a1.7 1.7 0 0 1 -1.38 0.3c-5.48 -1.08 -7.02 -1.16 -8.3 -1.64 0.74 -0.62 3.18 -2 5.04 -3.26a1.42 1.42 0 0 1 1.1 -0.16c1.56 0.34 3.14 0.62 4.72 0.9a0.56 0.56 0 0 0 0.4 0 0.96 0.96 0 0 0 0.28 -0.4 0.64 0.64 0 0 0 -0.3 -0.24c-0.48 -0.12 -4 -0.78 -4.48 -0.86a0.86 0.86 0 0 1 0 -0.22l4.64 -2.92a11.88 11.88 0 0 1 0.9 4.42c0 0.98 0 1.06 1.12 1.5Zm0.6 -8.94c-0.52 0.34 -3.34 2.12 -4.3 2.76a2.34 2.34 0 0 1 -1.88 0.34c-1.72 -0.38 -3.46 -0.7 -5.2 -1.02l-0.96 0a1 1 0 0 0 0 0.26c0.18 0.12 0.36 0.34 0.58 0.38 5.46 1.02 5.18 0.8 5.6 1.14a52 52 0 0 1 -4.86 3.18 1.68 1.68 0 0 1 -1.44 0.24l-7 -1.24c-0.24 0 -0.58 -0.2 -0.76 0a0.42 0.42 0 0 0 -0.14 0.24c0 0.56 0.52 0.42 0.78 0.48 2.2 0.44 4.42 0.84 6.88 1.28 -3.5 2.48 -3.54 2.24 -4.18 3a1.3 1.3 0 0 1 -1.28 0.28c-8.32 -1.72 -8.84 -1.82 -9.32 -1.88a0.18 0.18 0 0 1 -0.18 -0.16c0 -0.26 -0.12 -0.18 6.48 -3.66 14.28 -7.54 13.58 -7.2 14 -7.14s6.4 1.16 7.18 1.52Zm-10.92 8.34 8.38 1.54a0.18 0.18 0 0 1 0 0.34c-3.68 2.56 -3.84 2.74 -4 2.84a2.56 2.56 0 0 1 -1.84 0.16c-8 -1.7 -7.68 -1.32 -8.34 -1.84 4.88 -2.78 4.96 -3.12 5.8 -3.04Zm5.32 5.08c4.64 -3.24 4.5 -3.2 5.02 -3.12 8.78 1.58 8.48 1.4 8.52 1.6a0.14 0.14 0 0 1 0 0.16 33.48 33.48 0 0 0 -4 3.1 1.16 1.16 0 0 1 -1.04 0.24c-2.3 -0.48 -6.9 -1.32 -8.38 -1.62a0.2 0.2 0 0 1 -0.12 -0.36Zm-39.82 -1.1a5.48 5.48 0 0 1 -2.66 -1.76c-4.8 -5.66 -34.76 -51.96 -36.84 -58.66a6.7 6.7 0 0 1 1.12 -7.06c0 3.86 2.4 7.34 4.76 11.86 4.8 9.18 14.12 23.84 15.48 26 8.42 13.56 7.66 12.48 16.92 25.8a6.64 6.64 0 0 1 1.14 1.78 7.42 7.42 0 0 1 0.08 2.04Zm2 0.68c-0.48 -0.16 -1.02 -0.28 -1.04 -0.76l0 -1.68a0.32 0.32 0 0 1 0.4 -0.24c21.42 4.52 48 12.98 68.8 15.42 0.88 0.1 1.32 -0.18 10.76 -7.18 1.08 -0.8 1.5 -2 -0.18 -0.82 -2.58 2 -7.08 5.1 -9.76 6.78 -0.52 0.38 -0.92 0.14 -1.54 0a273.52 273.52 0 0 1 -29.2 -5.66c-1.1 -0.24 -36.98 -9.12 -37.46 -9.2s0.26 -0.34 0.4 -0.42c4.9 -2.66 24 -11.68 41.04 -19.64 0.54 -0.24 0.68 -1.22 -0.86 -0.56 -25.34 11.04 -27.08 12.64 -42 19.58a1 1 0 0 1 -1.34 -0.44c-13.42 -19.44 -26.32 -40.88 -34.18 -54.98 -2 -3.76 -2.82 -5.28 -2.78 -7.46a3.14 3.14 0 0 1 2.54 -3.42c10.44 -3.08 48.24 -7.26 50.88 -7.52a5.56 5.56 0 0 1 6.18 2.8c1.4 2 25.16 48.3 25.28 48.5a0.58 0.58 0 0 1 -0.18 0.9c-2 1.74 -3.66 2.98 -2.26 5.3 0.42 0.7 0.38 0.76 -0.4 1.18 -27.86 14.76 -29.12 14.82 -28.18 16.18a3.12 3.12 0 0 0 2 0.94l37.2 7.3a1.6 1.6 0 0 0 1.74 -0.46c1.52 -1.4 0.72 -0.42 8.62 -6.84a1.06 1.06 0 0 1 1.32 -0.18 1.62 1.62 0 0 0 2.22 -0.74 10.76 10.76 0 0 0 0.84 -2c0.5 -1.56 0.92 -0.88 6.92 -6 0.82 -0.66 0.22 -1.22 -0.48 -0.66l-5 4 -0.46 0.3a52.92 52.92 0 0 1 2.56 -6.62l7.68 1.5a14.34 14.34 0 0 1 -1.24 1 6.44 6.44 0 0 0 -2.54 2.88 17.02 17.02 0 0 1 -4 5.66c-1.06 1.26 -0.64 2.52 1 2.86a8 8 0 0 0 1.02 0.12 2.56 2.56 0 0 0 3.46 2 16.92 16.92 0 0 0 3.18 -2c0.52 0.84 1.56 1.88 2.72 1.62a2.38 2.38 0 0 0 1.58 2c-7.14 5.56 -14.24 11.48 -17.2 12 -1.56 0.52 -47.38 -8.24 -68.06 -15.34Zm-35.26 71.42c-2 -9.22 2.16 -11.56 8 -17.9 8.96 -9.86 7.34 -12 16.94 -22.34 5.52 -6 5 -8.26 8.58 -15.32a42 42 0 0 1 8.32 -11.9 1.3 1.3 0 0 1 1.6 -0.34c9.62 2.84 13.14 3.34 16.68 4.42 -0.22 0.24 -0.44 0.48 -0.68 0.7 -10.9 10 -11.5 11.66 -16.58 22.46A33.2 33.2 0 0 1 126 258c-10 10.7 -7.6 10.14 -13.16 16.84 -6.22 7.52 -8.24 8.38 -12.12 13.42 -2 2.66 -1.68 4.5 -2 8.38a32.28 32.28 0 0 1 -6 -3.86 8.96 8.96 0 0 1 -3.06 -4.96Zm-3.28 15.78c0.7 -0.7 1.4 -1.4 2.12 -2 2.58 -2.42 2.52 -5.84 3.48 -6.96l2.16 1.54c-3 7.74 -6 9.24 -5.12 10 0.56 0.48 1.28 -0.54 1.4 -0.66a28.38 28.38 0 0 0 4.64 -8.22c0.18 -0.38 0.42 -0.52 0.84 -0.3l2.26 1.18a1.3 1.3 0 0 1 0.84 1c0 1 0.22 1.62 -0.38 2.42a74.22 74.22 0 0 0 -7.54 11.32c-0.24 0.4 -0.26 0.36 -2.78 2a4 4 0 0 1 -0.38 -3.32 7 7 0 0 0 -1.66 -6.74 0.84 0.84 0 0 1 0.12 -1.26Zm-12 2.56a50.7 50.7 0 0 1 6.96 -4.88c0.84 -0.54 0.78 0.28 4.32 5.48a6 6 0 0 1 0.18 6.38 2.9 2.9 0 0 1 -2.78 1.74 18.14 18.14 0 0 0 -5.66 1.02c-0.8 0.26 -1.6 0.48 -2.62 0.78 -0.78 -8.58 -1.5 -9.64 -0.4 -10.52Zm10.42 28.36c0.16 0.92 -0.36 1.56 -1.3 1.44a87.46 87.46 0 0 1 -14.34 -3.16 6.8 6.8 0 0 1 -3.36 -1.64 18.58 18.58 0 0 1 -1.72 -9.04 2.2 2.2 0 0 1 1.48 -1.48c5.76 -1.72 3.6 -0.72 10 -2.58 4.62 -1.34 6.6 -2.3 9.3 -1.16a3.54 3.54 0 0 0 -1.66 3.04 99.22 99.22 0 0 0 1.6 14.58Zm-31.02 -24.74a2 2 0 0 1 1.46 -1.62c12.58 -3.24 12.56 -4 15.8 -4.38 2.12 -0.28 2.62 -0.32 2.96 0.64a3.18 3.18 0 0 0 -1.52 2.98c0 1.4 0.48 6 0.74 9.42 0 1.04 -1.34 0.32 -7.66 2.28a5.76 5.76 0 0 0 -2.42 1.38 0.94 0.94 0 0 1 -0.72 0.26c-1.84 -0.44 -3.68 -0.88 -5.48 -1.44 -1.08 -0.22 -1.62 -0.68 -2 -2a22.62 22.62 0 0 1 -1.26 -6.22 3.24 3.24 0 0 1 0.1 -1.3Zm-14.34 3.16a85.04 85.04 0 0 0 12.68 -2.42 30.2 30.2 0 0 0 1.66 7.7 6.26 6.26 0 0 0 4.46 3.18c0.66 0.18 1.36 0.32 2.12 0.5 -1.02 1.06 -6.44 1.06 -10 1.86a2.72 2.72 0 0 1 -1.54 -0.22 40.84 40.84 0 0 0 -5.82 -2.2c-1.04 -0.2 -2.68 -0.4 -3.1 -0.42a11.32 11.32 0 0 0 -1.1 -6.88c-0.24 -0.68 -0.04 -0.96 0.64 -1.1ZM47.6 328a9.5 9.5 0 0 1 0.5 5.58c-0.14 1.14 0 2 1.08 1.8A11.6 11.6 0 0 1 54 336a7.48 7.48 0 0 1 4.44 3.52c-0.62 0.28 -1.08 0 -1.54 -0.18 -6.48 -2 -17.8 -5.66 -22.3 -10.7a2 2 0 0 1 0.9 -3.2c2.6 -0.88 4.78 -0.48 9.36 -0.72a6.68 6.68 0 0 1 2.66 0.12 3.38 3.38 0 0 0 0.08 3.16Zm-18 -15.62a76.92 76.92 0 0 1 7.9 0 2.74 2.74 0 0 0 0.12 2.7 8.94 8.94 0 0 1 0.74 5.1c-0.24 1.58 -0.2 1.56 1.04 1.84 2.22 0.52 4.56 0.22 4.52 1.04 0 0.46 -1.66 0 -4.22 0.3 -5.04 0.46 -15.74 -6.54 -15.2 -8.44 0.36 -1.3 1.5 -2.3 5.1 -2.62Zm-2.5 12.88a0.94 0.94 0 0 1 -1.22 0c-6.52 -4.26 -6.38 -2.58 -2.76 -9.1 2.26 3.32 8.56 6.96 11.5 8 -1.1 1.34 -2.12 2.6 -3.18 3.86 -0.14 0.16 -0.52 0.34 -0.58 0.28s-0.48 -0.48 -0.46 -0.7a2.18 2.18 0 0 0 -3.3 -2.42Zm79.26 38c0 0.84 -0.26 0.88 -1.04 0.62 -5.64 -1.9 -5.36 -1.16 -5.32 -2.72 0.24 -2.16 -2.76 -2.96 -3.44 -1.24 -0.26 0.48 -0.48 0.56 -1.06 0.48a35.46 35.46 0 0 1 -6.22 -2c-0.42 -0.16 -0.58 -0.32 -0.46 -0.76 0.46 -1.8 0.28 -2.2 -0.56 -2.46 -1.4 -0.4 -2.58 -0.56 -3.14 0.68 -0.36 0.78 -0.44 0.8 -1.28 0.58a23.74 23.74 0 0 1 -6.24 -2 0.52 0.52 0 0 1 -0.32 -0.74c0.6 -1.66 -2.18 -2.96 -3.1 -1.6 -1.18 1.76 -6.5 -0.76 -8.64 -1.64a1.42 1.42 0 0 1 -0.9 -1.2c-0.3 -3.28 -2.66 -3.06 -3.46 -2.14a2.3 2.3 0 0 1 -2.82 0.72c-7.26 -2.56 -6.82 -2.38 -7 -3.56a2 2 0 0 0 -2 -2 2 2 0 0 0 -1.7 0.6c-1.32 1.16 -1.54 0.76 -7.24 -2a0.9 0.9 0 0 1 -0.58 -1.08c0.28 -1.58 -1.86 -3.36 -3.4 -2a0.82 0.82 0 0 1 -1.12 0 42 42 0 0 1 -4.82 -3.2 1.52 1.52 0 0 1 -0.34 -2l2.38 -4.24c2.42 3.66 9.2 7.2 11.16 8 25.64 9.56 39.74 10 62.3 19.52 0.52 0.14 0.5 0.52 0.48 0.9 0.06 1.22 0 5.22 -0.12 6.44ZM61.1 340.68l0.52 -0.34a16 16 0 0 1 7.8 -0.66 14.14 14.14 0 0 1 9.88 4.64 5.42 5.42 0 0 1 1.08 1.44Zm45.46 12.86c-0.18 0.7 -0.36 0.84 -1.06 0.6a164.28 164.28 0 0 0 -21.8 -7.56l-0.46 -0.28c6.12 -4.54 16.98 -7.46 23.68 -5a3.84 3.84 0 0 1 1 0.58 0.78 0.78 0 0 1 0.24 0.62 31.34 31.34 0 0 1 -1.6 11.04Zm2 -12.98c-7.36 -3.54 -19.34 -0.32 -25.18 3.88L82 345.46c-0.98 -1.08 -2 -2.18 -2.94 -3.22a12.86 12.86 0 0 0 -7.42 -3.62c-5.28 -0.82 -6.8 -0.76 -10.84 0.56 -0.54 0.18 -0.78 0.2 -1.16 -0.36a9.36 9.36 0 0 0 -7.12 -4.7 28.48 28.48 0 0 0 -2.88 -0.4 6.1 6.1 0 0 1 0 -1.48c0.88 -4 -2.6 -6.46 -0.34 -6.86 6.12 -1.14 7.32 -0.46 12.5 -2.22l0.5 -0.12c0 2.64 0.74 7.78 2.84 9.62a7.62 7.62 0 0 0 3.08 1.56c6.94 1.82 12.9 3.5 15.8 3.2a2.58 2.58 0 0 0 2.2 -3.26 106.86 106.86 0 0 1 -1.66 -14.56 1.26 1.26 0 0 1 0.5 -0.74 60.54 60.54 0 0 1 7.7 -5.14c1.26 0.84 2.14 3.34 3.52 5.52 0.18 0.34 0.42 0.66 0.6 1a6 6 0 0 1 -0.34 6c-1.08 1.8 -3.52 1.76 -5.62 4.44a0.62 0.62 0 0 0 0.16 1.02c2.96 -2 2.88 -2 3.2 -1.22a11.28 11.28 0 0 0 7.72 6.92 7.24 7.24 0 0 0 6.2 -1.04c2.7 -1.68 2.56 -1.7 3.24 -1.74 -0.96 2.08 -1.88 4 -2.82 5.94Zm2.46 -7.66c-1 0.64 -1.86 1.52 -2.88 2a8.62 8.62 0 0 1 -8 0.22 10.54 10.54 0 0 1 -4.94 -5.66l2.26 -1.7c0.96 5.36 6.66 6.5 10.68 4.1 1.5 -0.88 2.64 -1.78 4.22 -2.78 0.02 1.58 0.1 2.92 -1.28 3.82Zm8.7 -14.9c-0.8 0.66 -1.6 1.3 -2.46 2a23.54 23.54 0 0 0 -5 6.34c-0.66 1.08 0 1.22 -1.6 2.3 -3.62 2.28 -3.46 2.26 -4.18 2.44l-0.14 -0.16c3.08 -5.24 2.98 -4.82 5.66 -9.26a42.56 42.56 0 0 1 4.72 -5.42c0.84 0.3 1.82 0.64 2.78 1.04 0.5 0.1 0.66 0.38 0.22 0.72Zm235.64 -69.06c4.98 12.62 10 28 9.62 42.94 -0.28 10.74 0.32 10.96 -6.56 27.84 -2.88 7.06 -11.44 17.82 -18.24 22a70.82 70.82 0 0 1 -26.44 9.14 309.14 309.14 0 0 0 -40.12 8.34c-17.78 3.6 -24.98 1.56 -42.64 -2.12 -15.16 -3.48 -17.64 -3.72 -37.52 -3.44 -37.38 0.56 -74 3.74 -72.78 -33.68 0 -1.16 0.82 -2.44 2 -2.24a36.18 36.18 0 0 0 10.64 -1.38c2.9 -0.7 12.68 -1.86 15.08 -8.32 0.96 -2.64 1.22 -2.38 6.44 -10.7 8.4 -13.36 12.46 -13.16 19.1 -17.72 2.6 -1.78 3.34 -4.58 1.08 -8a21.16 21.16 0 0 0 7.2 -2.2 4.32 4.32 0 0 0 2.18 -5.6 28.22 28.22 0 0 0 12.78 3.44c8.1 0.16 19.8 -2.48 29.74 -1.42l0 0.18a64.58 64.58 0 0 0 -27.32 8.56A15.54 15.54 0 0 0 194 280c-0.26 0.5 0.18 0.7 0.5 0.42a37.72 37.72 0 0 1 6 -4.46c5.16 -3.34 16.98 -7.34 28.48 -8.34 7.08 -0.62 10.36 -0.24 17.02 -1.54a72.52 72.52 0 0 1 10.8 -1.18c3.8 -0.12 4.72 0.64 11.52 -0.92a95.74 95.74 0 0 1 13.72 -2.5c8.9 -1.32 11.58 -4.7 19 -11.58a135.7 135.7 0 0 1 27.64 -20.22 109.58 109.58 0 0 1 11.3 -5.46c1.5 -0.64 1.26 -2.16 -0.74 -1.28 -24 9.76 -34.4 22.28 -37.36 24 3.14 -8 21.32 -27.88 26.32 -32a0.44 0.44 0 0 0 -0.46 -0.74 6.4 6.4 0 0 0 -1.36 0.84c-10.24 8 -18.82 21.56 -20.24 22.58 1.82 -11.58 2.48 -10.24 5.3 -20.46a42.84 42.84 0 0 0 2 -10.4c0.3 -2.7 1.58 -14.82 2 -18.28 0.14 -1.04 0.3 -1.2 1.16 -1.28 2.66 -0.24 6.62 -0.82 6.66 -3.46a265.72 265.72 0 0 0 -1.14 -26.68c-0.88 -11.02 -0.52 -6.96 -1.32 -11.34 -1.56 -8.54 -2.86 -12.74 -5.56 -17.28 -0.3 -0.5 -0.1 -0.86 0.48 -1.02a18.84 18.84 0 0 1 12.12 1.8 58.48 58.48 0 0 1 13.7 10.22c5.3 5.2 7.58 11.78 10.34 19.22 5.06 13.66 4.24 28.44 4.12 43.78 0 10.52 -6.86 30.8 -0.64 46.52Z" fill="#000001" stroke-width="1"></path><path d="M34.62 324c-1.1 1.34 -2.12 2.6 -3.18 3.86 -0.14 0.16 -0.52 0.34 -0.58 0.28s-0.48 -0.48 -0.46 -0.7a2.18 2.18 0 0 0 -3.26 -2.26 1 1 0 0 1 -1.26 0c-6.52 -4.26 -6.38 -2.58 -2.76 -9.1 2.26 3.32 8.56 6.96 11.5 7.92Z" fill="#ffffff" stroke-width="1"></path></g></g></svg>