<svg xmlns="http://www.w3.org/2000/svg" viewBox="0 0 400 400" id="Get-Inspired--Streamline-Free-Illustrations.svg" height="400" width="400"><desc>Get Inspired Streamline Illustration: https://streamlinehq.com</desc><g><g><path d="m131.3 266.52 6.5 19.36 8.5 -4.36 -8.82 -18.3s-5.76 2.98 -6.18 3.3Z" fill="#79e1cf" stroke-width="1"></path><path d="M173.38 211.6a162 162 0 0 0 31.5 -12.58l49.64 7.8s9.08 5.26 10.18 5.42a15.38 15.38 0 0 1 8.92 2c3.66 2.54 10.98 2.54 12.88 2.86a34.28 34.28 0 0 1 7.8 3.66c1.9 1.12 10.34 3.82 11.78 4.78s4.76 2 5.56 6a83.24 83.24 0 0 1 2 14.96c-0.16 3.66 -1.1 13.52 -2.54 17.34s-7.64 23.7 -8 26 -1.1 17.82 -2 21.02 -5.24 20 -6 23.06 -6.52 18.3 -7.48 21 -2.4 7.64 -2 9.7a18.8 18.8 0 0 1 0.48 6.84c-0.32 2.56 1.76 15.12 1.12 16s-22.92 1.9 -30.7 -0.48 -38.82 0.96 -51.4 0.32 -45.82 -0.96 -50.58 -2 -10.66 -1.26 -7.8 -4.44 3.18 -7.64 3.34 -12a61.78 61.78 0 0 1 2.38 -11.62l-10 -68.5 14.68 -30Z" fill="#bed4fc" stroke-width="1"></path><path d="M311.48 192c2.5 1.76 2.18 1.38 0 1.66s-3.32 0.36 -3.58 1.78a17.74 17.74 0 0 1 -0.98 3.38 1.72 1.72 0 0 1 -0.28 -0.26c-4 -5.88 -0.9 -4.36 -8.24 -4.96 -1.46 0 2.56 -1.36 3.74 -4 0.44 -0.98 -1.62 -4.64 -0.46 -4 3.52 1.86 2.38 1.18 2.82 1.44 1.32 0.82 5.24 -2.4 6.74 -2.84 0.46 3.24 -3.24 5.24 0.24 7.8Z" fill="#ffeab6" stroke-width="1"></path><path d="M341.08 130c0.98 0.36 -2 1.22 -3.22 2.14 -2 1.48 -0.12 2.72 -0.28 4.8 -1.56 -0.66 -3.32 -4 -5.64 -4 -4.18 1.4 -4.44 2 -5.18 2 0.24 -1.5 3.76 -4.54 1.76 -6.16 -0.78 -0.6 -2.72 -3.46 -1.74 -3.24 3.88 0.9 3.86 1.08 4.6 0.56 3.9 -2.68 4 -6.8 4.72 -1.16 0.62 5.06 -0.64 3.06 4.98 5.06Z" fill="#ffeab6" stroke-width="1"></path><path d="M336.22 64.12c-0.1 0.14 -0.18 0.32 -0.32 0.38 -5.04 2.6 -5.38 2.28 -5.08 4 0.76 4.74 0.58 4 0.46 4.82 -5.34 -4.84 -3.22 -4.22 -4 -4.36 -1.48 -0.22 -4.24 1.44 -6.9 2 -0.92 0 -0.56 -0.2 1.74 -4 2.54 -4.14 -9.82 -9.04 0.9 -6 2 0.58 1.64 0.3 5.28 -4.6 1.16 -1.58 0.42 5.56 3.12 5.8 0.94 0 2.24 1.12 4.38 1.6a1.84 1.84 0 0 1 0.42 0.36Z" fill="#ffeab6" stroke-width="1"></path><path d="M129.34 151.2c10.16 -2.28 0 0.92 2.26 4.72 1.86 3.28 2.62 2.98 -1 2.18 -4.2 -0.94 -2.3 -1.22 -6.66 3.2 -0.52 0.54 0.1 -1.66 0.26 -3.74 0.18 -2.48 -4.62 -3.28 -5.32 -4.58 0.34 0 -0.26 0 2.82 -0.3 3.8 -0.32 2 -2.46 3.66 -5.86 1.36 1.18 2.76 4.64 3.98 4.38Z" fill="#ffeab6" stroke-width="1"></path><path d="M149.78 106.24c0.5 0.84 -2 0 -5.54 -1.32 -2 -0.74 -1.54 -2.24 -6.26 4.36 -1.82 2.58 0.84 -5.68 -2.18 -6.8 -6.84 -2.56 -6.84 -2 0.68 -4.72 1.64 -0.6 0.86 -4.18 2 -7.26 7.14 6.68 1.12 6.12 11.56 3.72 -1.54 4.12 -4.74 5.3 -2.9 7.44a28.18 28.18 0 0 1 2.64 4.58Z" fill="#ffeab6" stroke-width="1"></path><path d="M204.32 223.62c0.94 4.44 1.86 4.96 0.82 4.8 -9.06 -1.42 -17.9 -10.38 -19.72 -17.9 -0.34 -1.42 -0.58 -1.28 0.94 -1.8 4.46 -1.58 6.76 -3.28 6.2 -2.28 -1.12 2 -0.32 4.58 -0.46 5.5 -0.52 3.46 1.88 6.38 5.34 8.22 0.46 0.24 0.3 0.2 3.36 0.4 2 -0.48 2.26 -0.68 2.5 0a15.22 15.22 0 0 1 1.02 3.06Z" fill="#ffc6a6" stroke-width="1"></path><path d="M275.6 71.36c5.48 2.3 7.02 2.66 3.32 3.58 -2.32 -0.56 -2.6 -0.6 -4 -3.44 -0.14 -0.36 0.3 -0.3 0.68 -0.14Z" fill="#e6fcff" stroke-width="1"></path><path d="M286.56 70.48c0.34 0 0.32 0.24 0.18 0.42 -0.82 1.1 -1.76 2.72 -3.3 1.74 -4 -2.58 -11.8 -3.76 -9.66 -7.1 0.88 -1.36 0.16 0.2 4.72 2.16 4.94 2.12 6.72 2.94 8.06 2.78Z" fill="#e6fcff" stroke-width="1"></path><path d="M288.2 66.16c1.22 0.12 -0.28 2.3 -2.22 2.26 -3.22 -1.12 -12.92 -4.68 -10.24 -6.8 0.32 -0.24 0.16 -0.92 0.62 -0.88 0.8 0 -0.26 0.84 5.04 2.96s5.76 2.3 6.8 2.46Z" fill="#e6fcff" stroke-width="1"></path><path d="M278.18 56.46c10.6 8 14.8 3.88 11.6 7.6 -0.6 0.7 -2.92 -0.48 -3.8 -0.8 -4.28 -1.58 -11.42 -3.86 -7.8 -6.8Z" fill="#e6fcff" stroke-width="1"></path><path d="M306.22 42.24c0.62 0.18 0.16 1.64 -0.4 1.34 -2.12 -1.08 -0.34 -1.58 0.4 -1.34Z" fill="#ffd152" stroke-width="1"></path><path d="M285.08 36.76c-1.1 0.9 -1.6 -0.84 -0.88 -1.04 0.24 -0.06 0.66 0.7 0.88 1.04Z" fill="#ffd152" stroke-width="1"></path><path d="M292.62 20.4c24.78 -0.14 30.12 32.46 4.36 35.4 -3.36 0.4 -4 -0.56 -5.04 0.78 -1.88 2.66 -0.66 3.86 -2.2 3.46a30.74 30.74 0 0 1 -8.88 -3.84c-2.54 -1.54 2 -2 0.68 -4.86s-1.38 -0.68 -3.46 -4C268.46 32 282.1 19.82 292.62 20.4Zm12.36 25.48c1.26 3.12 5.18 -4.26 2.16 -5.24s-3.82 1.14 -4.3 1.02c-4.64 -1.04 -1.76 -0.44 -4.44 -1.82 -1.24 -0.64 -2.22 0.86 -3.22 -0.56 -1.58 -2.28 -0.44 0 -7.86 -2.96 -0.52 -0.2 -0.8 -0.92 -1.2 -1.4s-1.02 -0.48 -1.76 -0.68c-2.16 -0.58 -3.4 3.84 0 4.42 0.36 0 0.62 0 0.5 0.62 -0.76 3.26 3.66 6 2.78 7.58a25.54 25.54 0 0 0 -2.5 7.28c-0.1 0.6 0.44 0.28 0.66 0.46 0.84 0.72 1.24 -3.04 3.4 -7.1 1.46 -2.7 -2.78 -5.4 -2.68 -7.72 0.12 -2.98 1.28 -1.28 4 -0.42 1.52 0.48 2.68 0 3.1 1a2.5 2.5 0 0 0 3.02 1.24c1.84 -0.48 1.36 0.94 3.52 1.4s2.14 0.36 2.14 1.16c0 0.28 0 0.58 -0.34 0.66a13.14 13.14 0 0 0 -2.92 1.42c-1.14 0.54 -0.64 -0.38 -2.54 0.86 -2.86 1.86 -2.38 0.68 -3.58 1.62 -2 1.62 -6.38 6.24 -4.98 7.34s1.56 -1.78 4.4 -4.38 2.4 -1.34 3.36 -2c2 -1.24 2.28 -1.42 2.58 -1.44 1.72 -0.14 3.04 -1.58 4.34 -1.7 1.76 -0.16 1.3 -1.7 1.68 -1.58s0.54 0.58 0.68 0.92Z" fill="#ffd152" stroke-width="1"></path><path d="M133.56 38.9a5.36 5.36 0 1 1 -6.1 -3.72 5.38 5.38 0 0 1 6.1 3.72Z" fill="#9edeff" stroke-width="1"></path><path d="M113.74 56.12c0.88 -1 2 -2 2.54 -0.66 0 0 -18.18 20.32 -18.22 20.36 -1.48 -1.02 -2.06 1.06 15.68 -19.7Z" fill="#9edeff" stroke-width="1"></path><path d="M125.8 73.8c0.36 0.86 0.2 0.54 -12.4 13.02 -0.64 0.66 -0.34 0.64 -1.04 -9.38 0 -0.94 8 -7.2 10.58 -10.28s1.9 -2.56 2.86 6.64Z" fill="#9edeff" stroke-width="1"></path><path d="M103.88 48c1.54 -0.2 -2.82 3.34 -6 8.14 -0.72 1.04 -3.44 4.68 -4.5 4.82 0 0 -10 0.3 -10 0.24 -0.28 -0.38 5.06 -5.48 10 -11.14 0.62 -0.94 0.62 -0.78 10.5 -2.06Z" fill="#9edeff" stroke-width="1"></path><path d="M152.5 18.98a28.34 28.34 0 0 1 -1.84 8.26c-4.82 11.76 -4.4 10.7 -5.72 8.34 -6.12 -10.9 -14.6 -12 -13 -12.98A42.14 42.14 0 0 1 145.4 16c7.58 -2 6.74 0 7.1 2.98Z" fill="#ff8e92" stroke-width="1"></path><path d="M273.84 165.42c-1.54 -5.26 2.26 -18.52 3.4 -21.46a40.6 40.6 0 0 0 1.32 -16.34c-0.8 -6.26 -5.2 -16.86 -7.52 -22s-12.4 -14.66 -15.6 -17.14 -18.54 -8.92 -24 -11.32 -15.28 -2.94 -15.28 -2.94a10.36 10.36 0 0 0 -12.6 -2.86c-6 2.66 -7 9.06 -7.52 9.2 -12.4 -0.14 -14.14 9.86 -14.14 9.86 -4.6 4.66 -3.32 7.6 -1.4 10.66s8.14 3.14 8.14 3.14S226.46 96 238 114s7 47.36 7 47.36l0.32 29.16a13.3 13.3 0 0 0 14 2.74c-7.18 -5.48 -5.8 -8.6 -5.8 -8.6 10.88 6.72 15.68 0 15.68 0a11.54 11.54 0 0 1 -8.4 -6.8 42 42 0 0 0 9.86 1.74c8.94 0.86 10.94 -4 10.94 -4s-6.24 -4.92 -7.76 -10.18Z" fill="#ffb564" stroke-width="1"></path><path d="M197.24 180a3.4 3.4 0 0 1 0 -4.54c-12.3 -7.58 -9.66 -13.84 -12.3 -12.58a27.22 27.22 0 0 1 -8.94 2.24c-0.8 0.24 2.22 5.4 8.88 7.62 5.64 1.88 -6 7.26 -7.78 7.4 -2.9 0.22 9.34 7.56 16.28 2.88a1 1 0 0 1 1.6 1.02A26.76 26.76 0 0 1 192 192c3.46 0.62 7.42 -1.66 10.3 -3.62 0.76 -0.5 0.48 -1.38 0.78 -2 0.12 -0.28 -2.4 -2.14 -5.84 -6.38Z" fill="#ffb564" stroke-width="1"></path><path d="M165.74 204.64c3.66 7.6 3.82 7.22 2.92 7.54L128 225.6c-0.48 0 0.18 1.14 -8.86 -16.74 -0.46 -0.9 -2.88 0.32 25.66 -9.24 4.96 -1.66 9.68 -3.32 14.98 -5.06 1.36 -0.44 0.22 -1.8 5.96 10.08Zm-5.46 6.5c-0.86 -1.48 -1.54 -0.46 -2.6 -0.42 -0.26 0 -26.16 8 -28 8.88 -0.9 0.38 -1.72 1.58 -0.62 1.86 0.42 0.1 29.68 -8.54 31.22 -10.32ZM154 202.7c0.64 -0.32 1.08 -1.44 -0.28 -1.72 -0.24 0 -1.78 0.46 -4 1.02 -7.9 2 -9 3.48 -11.04 3.44 -2.36 0 -2.26 0.96 -5.78 1.74 -8 1.78 -6.7 2.54 -8.84 2.64 -0.26 0 -0.68 0.62 -0.76 0.86 -0.18 0.72 2 1.14 3.04 0.56a20.16 20.16 0 0 1 7.16 -2.26c3.3 -0.58 3.18 -1.64 5.12 -1.54 3.7 -0.5 5.1 -2 8.46 -2.84s4.36 -0.6 6.92 -1.9Zm-5.26 7.3a1.4 1.4 0 0 0 1.46 -1.1c0 -2.3 -8 1.36 -11.78 2 -3.44 0.58 -11.26 2.86 -12.4 4.1 -0.8 0.88 -0.36 1.38 0.72 1.44 4 -1.36 3.46 -1.54 4.9 -2 8.32 -2.34 2.6 -0.42 11.42 -2.96 4 -1.08 4.26 -1.48 5.68 -1.48Z" fill="#fff5db" stroke-width="1"></path><path d="M134 258.62c0.6 1.22 -1.6 1.9 -2.88 2.14 -0.76 -0.5 0.92 2.28 -17.4 -34.62C102 202.82 102 203.76 103.2 203.76c6.24 0.02 -3.42 -13.76 30.8 54.86Z" fill="#79e1cf" stroke-width="1"></path><path d="M107.64 218.3c22.28 45.2 21.86 43.12 20.9 43.46 -12 4.12 -6 12 -7.24 14.7 -0.66 -0.94 -42 -85.64 -42.28 -86.34 0.32 -0.12 -0.76 -0.66 16.76 9.8 5.62 3.36 2.36 -0.92 11.86 18.38Z" fill="#79e1cf" stroke-width="1"></path><path d="M169.2 196.14c-6.82 -14.14 -6.36 -13.3 -6.92 -13.1 -6 2.14 -37.4 12.56 -42.7 14.3 -13.06 4.32 -12.24 3.48 -11.44 5.04 30.6 59.82 26 56.44 29.5 55.5 4.1 -0.1 1.36 6.72 1.5 7.08s1.14 2.86 1.7 2.66a37.1 37.1 0 0 1 3.7 -1.38 30.4 30.4 0 0 0 8.18 -2.42c5.6 -2.86 5.68 6.12 -1.4 9.58a26.22 26.22 0 0 1 -6.12 2.72c-0.36 0 -0.44 0.28 -0.28 0.6 1.44 3.04 1.08 2.8 2 2.8 10.8 0 9.52 -1.74 17 -3.32 2.2 -0.48 3.12 2.22 2.26 4 -0.2 0.4 0.14 0.36 0.56 0.24 0 0 36 -10.66 37.56 -11.16s0.82 1.3 -35.1 -73.14Zm0.8 17.62c-0.32 0.12 -37.52 12.46 -42 13.78 -1.66 -0.18 -1.34 0.72 -10.6 -18.54 -1.24 -2.56 -2.88 -1.36 42.7 -16.52 1.8 -0.6 1.72 0 4.22 5.12 6.76 13.88 8.24 15.28 5.68 16.16Z" fill="#79e1cf" stroke-width="1"></path><path d="M277.84 312.88c2 2.98 2.46 -1.7 -14.16 21.76a73.56 73.56 0 0 1 -5.84 6.96c-2.82 3.26 -5.08 6.9 -9.54 10.32 -10.44 8 -18.26 6 -27.36 -4.66a24.6 24.6 0 0 1 -2.9 -7.56c-1.3 -5.26 -3.62 -6.72 -5.24 -12.68 -4.24 -15.58 0.38 -90.86 0.8 -91.24 1.72 -1.58 -0.96 -0.8 -4.82 -5.84 -3.14 -4 -1.68 -8.28 -8 -18.56a2 2 0 0 0 -1.36 -1.12c-1.22 -0.2 -0.22 1.38 0.34 2.62 0.84 1.82 -0.88 0.66 -1.2 0.64 -0.82 -0.1 -1.38 0.84 1.42 2.48 0.34 0.2 1.26 0.22 1.5 0.54a5.18 5.18 0 0 1 0.5 1.42c0 0.28 0 0.36 -0.26 0.38 -2.2 0.26 -3.16 0.72 -4.98 -0.82 -1.04 -0.88 -2.9 -2.88 -2.86 -4.24 0.1 -4 -0.58 -6 2.86 -8 1.34 -0.74 1.58 -2 1.66 -3.48 0.14 -2.72 2.88 -1.24 4 -4.78 1.6 -5.04 8.92 -0.6 7.86 -3.42 -3.24 -8.5 -13.4 -14 -12 -16.44 1.32 -2.14 6.14 1.84 7.38 3.28 3.88 4.38 11 10.34 11.64 14.5 0.4 2.5 2.14 3.36 3.88 9.2 3.14 10.48 6.7 14.94 7.12 26.52 0.66 18 19.24 87.08 19.26 87.14 0.52 1.08 1.76 0.62 1.7 -0.5 -0.72 -13.42 -8.2 -28.22 -6.36 -28.32a17.3 17.3 0 0 1 8.8 1.72c1.84 1.38 13.2 11.48 14.2 12.42 4.36 3.88 8.98 5.2 11.96 9.76Z" fill="#ffc6a6" stroke-width="1"></path><path d="M255.2 143.22c8.44 -7.14 18.42 -1.34 10 12.14 -1.68 2.66 -3.36 4.96 -10.7 8 -9.54 4 -10.68 -20.42 -10.86 24 0 12.6 1.36 16.38 19.06 24.96 0.7 0.34 -5.44 4.92 -5.48 4.94 -10.66 7.64 -4.4 4 -16.2 8.74 -2 0.76 -10.26 4.18 -10.4 2.92 -1.6 -13.38 -4.8 -16.44 -7 -24.28 -2 -6.92 -4.24 -8.68 -4.44 -11 -0.28 -3.4 -8 -10 -8.94 -11.2 -0.34 -0.4 -0.3 -0.56 0.2 -0.74 22.54 -7.34 19.12 -12.92 16.84 -11.58 -4.64 2.7 -25.42 10.14 -35.1 -0.96 -10.62 -12.2 -10.86 -33.86 -6.46 -32.5a10.18 10.18 0 0 0 10 -3.4c1.16 -1.16 0 3.26 5.6 4.28 1.16 0.22 1.6 -1.2 0.9 -1.54 -1.7 -0.86 -3.3 -1.26 -4.22 -4.12 -0.72 -2.22 6.2 -0.44 6 -5.64 0 -1.38 -1.34 -1.42 -1.64 -0.18 -0.54 2.14 0 1.82 -3.2 2.42 -0.28 0 -0.36 0 -0.26 -0.34 1.76 -5.54 1.2 -7.12 3 -8.46a5.04 5.04 0 0 1 7.58 4.54c0.26 6.54 6.6 16.12 14 15.84 10.48 -0.42 13.5 -11.22 15.4 -12.4 1.26 -0.8 2.58 -0.3 7.9 2.96 1.56 0.94 -2.98 10.42 4.42 13.66 0.78 0.34 -0.92 1.38 0.98 2 0.22 0.24 1.3 -1.62 3.02 -3.06Zm9.58 6.28a3.34 3.34 0 0 0 -3.64 -4.76c-3.24 0.7 -6.78 4.82 -5.06 8.16 0.58 1.14 0 3.5 -1.2 3.78 -2.38 0.52 -2.54 -0.6 -3.12 0.48s0.7 2 2 2c4.12 0 5.5 -4.72 4.18 -7.26a2 2 0 0 1 -0.12 -1.86c0.84 -2 5.02 -5.78 5.42 -0.42 0.1 0.56 1.12 0.76 1.54 -0.12Zm-63.12 2.26c0 -0.72 -0.44 -2.82 -2.12 -2.86 -2 0 -2.3 2.98 -0.86 4.44 0.86 0.9 2.5 1.1 2.98 -1.58Z" fill="#ffc6a6" stroke-width="1"></path><path d="M169.34 300.82c5.84 4 4.94 0.18 2.12 19.14a184 184 0 0 1 -5.74 24.18c-0.56 1.64 0.28 -4.7 0 -11.42 -0.28 -9.12 -9.68 -24.36 -10.68 -24 -2 0.66 2 3 6.88 16.52 3.34 9.48 1.58 22.52 -0.76 26 -3.04 4.48 -5.68 6.38 -13.34 5.22a17.58 17.58 0 0 1 -14.44 -13.14c-1.08 -4.44 -2.84 -9.56 -2 -14.94 4 -28.8 1.6 -15.46 6.6 -8.58l0.9 0c-0.28 -2.18 -0.48 -2 -3.16 -10.8 -0.84 -2.8 -0.86 -3.2 -1.74 -3.76 -3.78 -2.36 -3.08 -2.74 -3.82 -6.74 -0.46 -2.42 -3.44 -1.78 -3.06 -5.18a5.68 5.68 0 0 0 -2.14 -5.08c-1.38 -1.3 -1.06 -5.14 1.34 -7.64 4.28 -4.44 4.76 -6.42 8.92 -9.5 0.66 -0.5 0.82 -0.32 6.98 -1.76 1.34 -0.32 0.52 -0.64 3.34 -1.14 7.54 -1.36 9.44 -4 9.36 -2.32a7.34 7.34 0 0 1 -4.86 6 26.74 26.74 0 0 1 -5.12 2.3c-12 2.72 -11.36 10.76 -9.4 8.46 2.56 -3 2.18 -3.62 3.14 -1.86 0.72 1.32 0.36 0.72 -2 2.84 -2 1.8 -8.68 7.2 -5.44 6.72 0.46 0 0.72 -0.3 4.96 -3.86 3.02 -2.56 4.24 -4.86 14 -4.96 5.62 0 10 -2.58 13.82 -3.32 1.46 -0.3 1.08 4.38 -9.16 7.14a36.2 36.2 0 0 1 -6.92 2 9.74 9.74 0 0 0 -5.2 1.82c-1.4 1.32 -2.44 2 -1.72 2.74 0.26 0.28 0.5 0.5 0.88 0.1 2.42 -2.52 4.92 -2.4 10 -3.42 1.52 -0.3 1.2 -1.06 3.62 -1.3a68.66 68.66 0 0 0 7.34 -1.68c2 0 0.46 4.24 -10 8.28 -5.06 2 -7.44 2.54 -9.22 5.2 -0.48 0.72 -0.88 1.8 0 2.2 1.46 0.66 0.58 -2.4 5.8 -4.3 0.9 -0.32 1.12 -0.4 1.44 3.6 0.68 8.68 -2.52 12.48 -2.78 16 0 0.48 0.56 1.1 1.16 0.36a63.38 63.38 0 0 0 2.42 -6c4.48 -13.4 -6 -17.76 8 -13.46 6.34 1.96 7.22 1.66 9.68 3.34Z" fill="#ffc6a6" stroke-width="1"></path><path d="M136.96 260.2c2.72 -0.62 0.46 5.26 -4.52 8 -4 2.26 -4.4 2.48 -4.96 3.16s0 1.54 0.52 1.36c3.28 -0.96 8.72 -6.82 -2.44 6 -2.64 3.04 -2.24 3.26 -2.6 0.58a22.32 22.32 0 0 1 0.28 -3.04c0.5 -2.38 -2.12 -8 0.68 -9.78a59.54 59.54 0 0 1 11.48 -5.4 7.3 7.3 0 0 1 1.56 -0.88Z" fill="#ffc6a6" stroke-width="1"></path><path d="M186.64 112c0 -0.28 1.6 -8 3.56 -10.82s8.68 -10 8.68 -10 5 2.6 5.46 -2c0 0 1.88 1.78 4 -1.52S216 84.7 218 85.58s7.5 1.88 10.54 6.98S242 115.44 243.86 118s7.76 10 3.38 11.26l-8 -4.56s-2.78 -8.14 -9.76 -9.3 -15.28 -1.86 -18.68 4c0 0 -6.7 -4 -11.36 0.26 0 0 -1.06 -6.26 -6.88 -7.24s-5.92 -0.42 -5.92 -0.42Z" fill="#ffc6a6" stroke-width="1"></path><path d="m52.7 150.36 -0.94 -5.66 4.5 3.8 5.8 -2.72 -1.96 6.46 4.12 6 -6.88 -1.18 -2.72 6.08 -1.74 -7.3L46.9 153l5.8 -2.64z" fill="#ffeab6" stroke-width="1"></path><path d="M340.76 148.66c-9.34 7.44 -10.34 21.7 -15.04 18.28 -5.38 -4 -8.82 -8.18 -8.98 -14.18 0 -1.66 -0.9 -3.28 -2.5 -2.68a32.44 32.44 0 0 1 -4 1.44c-4.58 1.2 -4.4 -2.96 -6.52 -1.02a16.5 16.5 0 0 0 -2.38 2c-0.66 0.6 -0.34 0.26 -1.86 -0.88s-3.72 0.42 -3.42 1.3a1.14 1.14 0 0 0 1.36 0.42c1.18 -0.52 1.36 0.6 2.56 1.56 2 1.62 3.58 -3.66 5.3 -2.44 2.86 2 4.16 1.32 8.52 -0.16 2.7 -0.9 -2.48 5.08 8.34 14.26 6 5.14 7.02 3.52 11.72 -5.88 1.72 -3.44 5.1 -9.04 8.16 -10.92 1.26 -0.78 2.74 -1.18 5.82 1 7.22 5.12 4 6.42 3.06 8.64 -0.16 0.4 0.7 1.12 1.08 0.6 2.38 -3.26 1.72 -2.24 2.22 -3.82 -0.86 -4.96 -8.96 -11.08 -13.44 -7.52Z" fill="#000001" stroke-width="1"></path><path d="M337.76 123.16c-0.16 -1 -0.48 -2 -0.68 -2.98a1.18 1.18 0 0 0 -0.86 -1.02c-0.78 -0.24 -0.88 0.2 -3.56 3.38 -2.38 2.82 -0.96 2.34 -6.8 0.9a2.2 2.2 0 0 0 -1.54 1.1c-0.4 0.58 -0.36 0.8 1.42 3.68 1.52 2.46 2 1.86 1.28 2.92 -3.78 5.66 -5.48 7.52 1.48 4.98 4 -1.44 3.84 -1.66 4.42 -1.08 2.7 2.7 6.42 7.26 6.64 3.44a10.36 10.36 0 0 0 -0.68 -4.4c-0.28 -1.44 5.22 -2.18 5.54 -4.24a0.68 0.68 0 0 0 -0.5 -0.86c-7.62 -2.7 -5.26 -0.06 -6.16 -5.82Zm0.1 8.94c-2 1.48 -0.12 2.72 -0.28 4.8 -1.56 -0.66 -3.32 -4 -5.64 -4 -4.18 1.4 -4.44 2 -5.18 2 0.24 -1.5 3.76 -4.54 1.76 -6.16 -0.78 -0.6 -2.72 -3.46 -1.74 -3.24 3.88 0.9 3.86 1.08 4.6 0.56 3.9 -2.68 4 -6.8 4.72 -1.16 0.62 5.08 -0.64 3 4.98 5.04 0.92 0.38 -1.96 1.24 -3.22 2.16Z" fill="#000001" stroke-width="1"></path><path d="M312.8 90.64c0.16 8 5.18 12 -3.22 10.92 -12.88 -1.68 -15.46 -4.78 -14.24 4.58 0.16 1.26 0.22 0.86 -6 3.38 -3.12 1.28 -1.7 2.86 0 2.2 5.68 -2.32 8.18 -2.66 8 -5.14 -0.4 -4.38 -0.96 -5.16 0.7 -4.88 11.22 1.8 13.12 2.22 15.14 2 7.88 -0.84 -2.16 -13.38 3.22 -16 3.78 -1.88 5.04 1.12 23.18 8.34 1 0.4 2 0.8 2.32 -0.14s-0.6 -1 -1.1 -1.2c-18 -7.38 -16.16 -7.74 -20 -9a5.62 5.62 0 0 0 -8 4.94Z" fill="#000001" stroke-width="1"></path><path d="M320.56 66.14c-1.5 2.46 -4.98 7.82 -1.76 7.02 1.2 -0.28 3.5 -0.72 4 -0.92 3.06 -1.04 3.16 -1.46 3.58 -1.02 4 4 6.86 8.38 6.66 1.06 -0.12 -3.44 -0.88 -4 0.1 -4.38 1.3 -0.56 3.88 -2 4.6 -2.18 2.46 -0.74 2.58 -2.34 1.52 -2.82s-4 -1.04 -5.82 -1.82c-2.9 -1.3 -1.66 0.48 -3.52 -6.88a1.06 1.06 0 0 0 -2 -0.24c-0.24 0.32 -1.08 1.52 -3.64 5.28 -0.6 0.9 -6.34 -2.12 -7.28 -1 -2.36 2.74 4.34 6.62 3.56 7.9Zm2.4 -5.08c2 0.58 1.64 0.3 5.28 -4.6 1.16 -1.58 0.42 5.56 3.12 5.8 0.92 0 2.24 1.12 4.38 1.6a1.84 1.84 0 0 1 0.48 0.26c-0.1 0.14 -0.18 0.32 -0.32 0.38 -5.04 2.6 -5.38 2.28 -5.08 4 0.76 4.74 0.58 4 0.46 4.82 -5.34 -4.84 -3.22 -4.22 -4 -4.36 -1.48 -0.22 -4.24 1.44 -6.9 2 -0.92 0 -0.56 -0.2 1.74 -4 2.48 -4.1 -9.88 -8.96 0.84 -5.9Z" fill="#000001" stroke-width="1"></path><path d="M273.28 70.72a5.64 5.64 0 0 0 5.5 6.28c2.92 0.26 4.1 -2.24 5.2 -2 2.46 0.48 4.42 -2.24 4.5 -4.18 0 -1.02 0.76 -1.7 1.16 -2.68s-0.12 -1.6 0.4 -1.76a5.42 5.42 0 0 0 2.34 -4.76c0 -0.26 0.68 -1.18 0 -2 -0.14 -0.18 0.54 -1.26 0.7 -1.42s19.2 1.36 22.54 -15.42c4.88 -24.52 -34.5 -34.44 -41.84 -10.88 -4 12.68 6.4 19.4 5.78 20.7 -1.62 3.34 -2.66 2 -3.26 3.46 -1.6 3.7 0 3.24 -0.86 3.7 -2.88 1.48 -1.28 3.3 -2.28 4a3.76 3.76 0 0 0 -0.9 5.12c0.78 0.92 1.18 1.12 1.02 1.84Zm5.64 4.22c-2.32 -0.56 -2.6 -0.6 -4 -3.44 -0.18 -0.36 0.26 -0.3 0.64 -0.14 5.52 2.28 7.06 2.64 3.36 3.58Zm-0.92 -27.6c-9.62 -15.26 4 -27.52 14.54 -26.94 24.78 -0.14 30.12 32.46 4.36 35.4 -3.36 0.4 -4 -0.56 -5.04 0.78 -1.88 2.66 -0.66 3.86 -2.2 3.46a30.74 30.74 0 0 1 -8.88 -3.84c-2.54 -1.54 2 -2 0.68 -4.86s-1.3 -0.68 -3.46 -4Zm0.1 9.12c10.6 8 14.8 3.88 11.6 7.6 -0.6 0.7 -2.92 -0.48 -3.8 -0.8 -4.2 -1.58 -11.34 -3.86 -7.72 -6.8Zm-2.44 5.16c0.32 -0.24 0.16 -0.92 0.62 -0.88 0.8 0 -0.26 0.84 5.04 2.96s5.76 2.36 6.8 2.46 -0.12 2.3 -2.12 2.26c-3.24 -1.12 -12.92 -4.68 -10.26 -6.8Zm-2 4c0.88 -1.36 0.16 0.2 4.72 2.16 4.94 2.14 6.72 2.94 8 2.78 0.34 0 0.32 0.24 0.18 0.42 -0.82 1.1 -1.76 2.72 -3.3 1.74 -3.9 -2.72 -11.62 -3.84 -9.48 -7.18Z" fill="#000001" stroke-width="1"></path><path d="M312.82 190.72c-1.56 -1 -0.96 -1.12 -0.62 -2.6 1.38 -6 1.32 -5.58 1.24 -6a0.92 0.92 0 0 0 -1.5 -0.66c-2 1.58 -4.28 2.52 -6.32 4 -0.94 0.64 -4.1 -2.56 -4.82 -2.28 -1.06 0.44 -1.84 0.96 -1.5 2.26 1.42 5.14 0.98 4.6 0.24 5.08 -2.18 1.4 -4 2 -3.86 3.78 0 1.44 4.36 1.34 6 1.36s1.3 0.72 1.86 1.64c2.5 4.12 4 6.5 5.24 1.82 1.08 -3.88 -0.26 -3.46 6.38 -3.68 2.84 -0.22 0.7 -2.78 -2.34 -4.72Zm-1.42 2.9c-2.34 0.3 -3.32 0.36 -3.58 1.78a17.74 17.74 0 0 1 -0.98 3.38 1.72 1.72 0 0 1 -0.28 -0.26c-4 -5.88 -0.9 -4.36 -8.24 -4.96 -1.46 0 2.56 -1.36 3.74 -4 0.44 -0.98 -1.62 -4.64 -0.46 -4 3.52 1.86 2.38 1.18 2.82 1.44 1.32 0.82 5.24 -2.4 6.74 -2.84 0.54 3.3 -3.26 5.3 0.32 7.82 2.52 1.74 2.18 1.36 -0.08 1.64Z" fill="#000001" stroke-width="1"></path><path d="M290.52 217.78c-5.68 -3 -10.26 -0.76 -17.26 -4.72a10.4 10.4 0 0 0 -6.9 -1.84c-1.7 0.44 -16.46 -6 -19.64 -13a16.86 16.86 0 0 1 -1.04 -5.7c-0.14 -1.52 7.34 5 14.58 1.44a1.04 1.04 0 0 0 0.18 -1.88 13.58 13.58 0 0 1 -6.32 -5.42c-0.24 -0.4 -0.52 -1.2 0.4 -0.58 8.14 5.54 18.82 -0.38 15.56 -2a13.54 13.54 0 0 1 -7.32 -4.76c-0.4 -0.5 0 -0.42 0.24 -0.28 6 2.68 14.44 2.3 19.2 -2.28 2.48 -2.4 -5.48 -3.42 -7.22 -12.78s4 -15.5 5 -31.48c0.52 -8.32 -5.68 -23.74 -9.6 -29.5 -10.66 -15.64 -26 -23.28 -45.14 -28.72a27.32 27.32 0 0 0 -13.72 0.38c-0.8 0.32 -0.62 1.64 0.34 1.5a30.92 30.92 0 0 1 20.46 2.52c7.8 3.68 23.22 7.16 34.92 23.62 25.68 36 -6 54 9.86 70.44 3.34 3.46 3.82 2.9 2.24 3.84a17.34 17.34 0 0 1 -18.34 -0.88c-1.24 -0.8 -2.52 0 -1.86 1.5 2.78 6.72 9.54 7.6 7.8 8.2 -9.2 3.1 -12.92 -2.54 -14.22 -3.26 -2.76 -1.48 -3.26 4.52 4.34 10.3 1.58 1.2 -11.7 0.18 -11.58 -4.16 1.1 -36.56 -2.42 -20.52 8.2 -22 8.82 -1.26 19 -13.76 16.56 -22.58 -1.64 -5.86 -7.06 -5.18 -8.42 -6.16 -13.18 -9.46 -20.18 -12.38 -24 -18.38 -4.52 -7.08 -21.38 -9.52 -27.32 -1.18 -0.22 0.32 -0.4 0.4 -0.7 0a6.28 6.28 0 0 0 -9.14 -0.54c-0.26 0.28 -0.38 0.28 -0.48 -0.12 -1.04 -4.28 -6.86 -6.3 -11.64 -6.56 -0.74 0 -0.88 0.26 1.04 -4.72 0.36 -0.92 2.44 -1.12 5.52 1.08 2.78 1.72 0.84 -4.72 -3.58 -4.62 -2 0 5.84 -8.58 7.06 -10 0.64 -0.72 0.82 0.52 2.4 0.66 0.66 0 1.08 -1.04 0.28 -1.66 -10.26 -8 0.62 -24.44 10.3 -19.14 2 1.14 2.98 -0.98 1.04 -2 -6.84 -3.34 -14.58 1.22 -16.74 8.7 -0.28 0.92 -0.34 -0.14 -5 0.94a12.14 12.14 0 0 0 -8.86 8.4 5.34 5.34 0 0 1 -1.52 2.46c-4.6 4.96 -2.4 11.28 2.84 12.86 0.38 0.12 1.88 0.3 2 -0.4 0.32 -1.16 -0.62 -1.18 -1.36 -1.4 -7 -2.1 -2.9 -11.52 -2.12 -8.18s5.3 7.54 6.28 5.82 -7.12 -3.8 -4.12 -11.3c2.36 -6 11.3 -8 11.28 -5.66 -0.12 7.4 3.16 8 2.36 8.84 -4 4.18 -6 5.66 -8.46 10.86a2 2 0 0 1 -0.94 1.04c-3.02 1.4 -4.14 6 -2.98 5.32 2.48 -1.66 1.68 -1.56 1.06 1.54 -0.3 1.46 -2.3 0.12 -7.34 2.84C170 118 174.36 129.78 182 135c2.9 2 -5.72 4.78 2.84 25.32a0.48 0.48 0 0 1 -0.32 0.72 24.98 24.98 0 0 1 -10 2.2c-1.2 -0.12 -1.16 1.2 -0.8 2.16 2.98 8 11.24 8.74 9.68 9.66 -6.3 3.76 -6.16 3.06 -7.84 3.46a1.18 1.18 0 0 0 -1.06 1.28c-0.14 1.62 1.12 2.54 2.88 3.8 7.52 5.36 14.92 2 15.3 2.36a17.24 17.24 0 0 1 -2.82 5.58c-2.76 3.5 5.1 4 11.64 -0.12a0.74 0.74 0 0 1 0.36 0 33.18 33.18 0 0 1 -0.96 4.3c-0.96 3.18 -3.38 2 -4.3 5.3 -0.82 3.06 -16.34 7.34 -18.36 8.62 -0.66 0.4 -0.18 0.7 -6.22 -11.64 -8.56 -17.42 -8 -17.4 -10.2 -16.66 -5.12 1.64 -3.34 2.5 -6.54 -4 -1.64 -3.34 -39.06 6.42 -50.54 20.08 -2.42 3 -0.96 3.74 -0.14 3 0.46 -0.4 3.66 -6.72 21.66 -14.5a100 100 0 0 1 26.78 -7.4c1.04 -0.12 0.62 -0.42 2.68 4.14 0.52 1.16 -49.48 16.58 -50.72 18.16s-4 1.08 -3.16 0.44a0.88 0.88 0 0 0 0.26 -1.18c-4 -9.26 -8.56 -10 -8 -12 0 -0.38 -1.76 -4.52 -1.44 -5.12s9.76 7.8 9.44 13.34c0 1.4 2.24 2 1.88 -0.56 -1.02 -7.5 -11 -17.7 -13.64 -14.46 -0.46 0.54 1.48 4.48 1.52 5.66 -1.28 -0.38 -8.3 -6 -10.52 -3.22 -0.5 0.6 -0.26 0.68 2.86 6.44 0.78 1.46 -1.46 -0.18 -3.68 -1.5 -6.66 -4 -4 -0.14 -0.46 7.36 39.42 81.18 42.56 86 42.16 88.24a7.06 7.06 0 0 0 2.34 6.52 2.62 2.62 0 0 1 0.66 2.46c-0.22 4.94 3.32 4.14 3.28 6.9a7.62 7.62 0 0 0 2 5.06c3.04 2.22 1.74 -2.12 -0.96 22.68 -0.76 6.94 1.4 12.6 2.58 16.9 2.5 8.96 12 13.88 18.6 14 0.68 0 0.96 -0.24 0 2.74 -3.06 9.58 0.82 11.56 -3.78 17.44a7.78 7.78 0 0 0 -1.36 4 0.84 0.84 0 0 0 1.64 0.12c0.96 -3.58 4 -5.14 4.12 -10.14 0 -0.88 0.12 -6.4 0.32 -7.24 1.78 -7.7 1.4 -6.9 2.42 -7.06 6.5 -1.04 7.88 -4.68 11.54 -9.64 2.56 -3.48 8 -26.68 9.7 -43.02 0 -0.64 0 -1.3 0.58 -1.74s3.46 -18.3 3.4 -20c0 -0.66 -1.16 -0.92 -1.4 -0.32 -0.66 1.58 -1.66 11.38 -2.92 17.88 -0.14 0.8 -0.46 0.3 -3.46 -1.82 -4 -2.84 -4.58 -2.16 -9.56 -3.58 -8 -2.34 -6 -1.16 -1.54 -4 6 -3.88 5.6 -7.5 4.92 -8.36s-2.84 -0.36 0 -1.18c26.46 -7.66 36.6 -10.54 40.22 -12 2.5 -0.96 2 -1.24 1.4 -1.88 0 0 -3.8 -7.72 -28 -56.98 -0.36 -0.76 -0.58 -0.48 4.22 -2 0.32 0 0.42 0 0.48 0.34a25.74 25.74 0 0 0 8 13.52c10.74 9.02 14.68 5.88 15.5 7.26 6.82 11.62 3.34 -15.62 2 68.28 0 31.9 2.82 30 6.62 39.34 0.3 0.7 2 8 3.18 9.3 11.7 13.86 21.06 13.62 31.34 5.24 8.62 -7.02 23.08 -29.72 24.2 -28.86s2.96 0.94 4.72 2.14c2.38 1.62 6.1 3.2 8.84 2.4 2.26 -0.66 1.66 0.9 13.4 -33.6 0.62 -1.84 -0.54 15 -4.46 30.34 -5.4 21.08 -14 33.12 -12 41.16 0.8 3.12 -0.58 4.24 0 9.36 2 14.8 1.02 13.86 2.62 14s-0.18 -11.5 -0.32 -12.18c-1.22 -6.22 0.36 -8 -0.46 -11.44 -2.12 -8.78 9.54 -22.9 14.72 -53.74 2.28 -13.5 0.54 -18.76 5.16 -31.82 5.76 -16.16 9.48 -27.54 6.78 -44.58 -2 -12.46 -5.86 -9.64 -22.98 -18.68Zm-187.32 -14c6.24 0 -3.46 -13.8 30.74 54.86 0.6 1.22 -1.6 1.9 -2.88 2.14 -0.76 -0.5 0.92 2.28 -17.4 -34.62 -11.66 -23.34 -11.66 -22.4 -10.46 -22.4ZM83.44 185.2c2.66 -0.32 14 7.42 16.74 15.14a100.88 100.88 0 0 1 -13.38 -8c-0.38 -1.62 -3.02 -5.98 -3.36 -7.16Zm37.86 91.28c-0.66 -0.96 -42 -85.64 -42.28 -86.34 0.32 -0.12 -0.76 -0.66 16.76 9.8 5.62 3.36 2.36 -0.9 11.86 18.38 22.28 45.2 21.86 43.12 20.9 43.46 -11.98 4.1 -6.02 11.96 -7.24 14.68Zm1.66 2.88a22.32 22.32 0 0 1 0.28 -3.04c0.5 -2.38 -2.12 -8 0.68 -9.78a59.54 59.54 0 0 1 11.48 -5.4 7.3 7.3 0 0 1 1.56 -0.92c2.72 -0.6 0.46 5.26 -4.52 8 -4 2.26 -4.4 2.48 -4.96 3.16s0 1.54 0.52 1.36c3.28 -0.96 8.72 -6.82 -2.44 6 -2.64 3.06 -2.24 3.26 -2.6 0.6Zm15.32 -12c0.34 0.84 0.22 0.7 -2.9 1.32l0 -0.16c1.74 -1.06 2 -2.26 2.34 -2.18s0.28 0.4 0.56 1.08Zm16.48 17.88a36.2 36.2 0 0 1 -6.92 2 9.74 9.74 0 0 0 -5.2 1.82c-1.4 1.32 -2.44 2 -1.72 2.74 0.26 0.28 0.5 0.5 0.88 0.1 2.42 -2.52 4.92 -2.4 10 -3.42 1.52 -0.3 1.2 -1.06 3.62 -1.3a68.66 68.66 0 0 0 7.34 -1.68c2 0 0.46 4.24 -10 8.28 -5.08 2 -7.44 2.54 -9.22 5.2 -0.48 0.72 -0.88 1.8 0 2.2 1.46 0.66 0.58 -2.4 5.8 -4.3 0.9 -0.32 1.12 -0.4 1.44 3.6 0.68 8.68 -2.52 12.48 -2.78 16 0 0.48 0.56 1.1 1.16 0.36s2.22 -5.48 2.42 -6c4.48 -13.4 -6 -17.76 8 -13.46 6.42 2 7.22 1.66 9.68 3.34 5.84 4 4.94 0.18 2.12 19.14a184 184 0 0 1 -5.74 24.18c-0.56 1.64 0.28 -4.7 0 -11.42 -0.28 -9.12 -9.68 -24.36 -10.68 -24 -2 0.66 2 3 6.88 16.52 3.34 9.48 1.58 22.52 -0.76 26 -3.04 4.48 -5.68 6.38 -13.34 5.22a17.58 17.58 0 0 1 -14.44 -13.14c-1.08 -4.44 -2.84 -9.56 -2 -14.94 4 -28.8 1.6 -15.46 6.6 -8.58l0.9 0c-0.28 -2.18 -0.48 -2 -3.16 -10.8 -0.84 -2.8 -0.86 -3.2 -1.74 -3.76 -3.78 -2.36 -3.08 -2.74 -3.82 -6.74 -0.46 -2.42 -3.44 -1.78 -3.06 -5.18a5.68 5.68 0 0 0 -2.14 -5.08c-1.38 -1.3 -1.06 -5.14 1.34 -7.64 4.28 -4.44 4.76 -6.42 8.92 -9.5 0.66 -0.5 0.82 -0.32 6.98 -1.76 1.34 -0.32 0.52 -0.64 3.34 -1.14 7.54 -1.36 9.44 -4 9.36 -2.32a7.34 7.34 0 0 1 -4.86 6 26.74 26.74 0 0 1 -5.12 2.3c-12 2.72 -11.36 10.76 -9.4 8.46 2.56 -3 2.18 -3.62 3.14 -1.86 0.72 1.32 0.36 0.72 -2 2.84 -2 1.8 -8.68 7.2 -5.44 6.72 0.46 0 0.72 -0.3 4.96 -3.86 3.02 -2.56 4.24 -4.86 14 -4.96 5.62 0 10 -2.58 13.82 -3.32 1.46 -0.24 1.08 4.44 -9.16 7.2Zm-13.8 -4.44c-0.26 -0.24 -0.14 0.14 -1.28 -2.18 -0.26 -0.56 0.18 -0.72 2.98 -1.58 0.36 -0.12 0.68 0.54 1.5 2.36 0.18 0.48 -0.16 0.6 -3.2 1.46Zm63.24 -11.52c-1.6 0.5 -37.5 11.14 -37.56 11.16 -0.42 0.12 -0.76 0.16 -0.56 -0.24 0.86 -1.84 0 -4.54 -2.26 -4 -7.48 1.58 -6.2 3.3 -17 3.32 -0.82 0 -0.46 0.24 -2 -2.8 -0.16 -0.32 0 -0.52 0.28 -0.6a26.22 26.22 0 0 0 6.12 -2.72c7.08 -3.46 7 -12.44 1.4 -9.58a30.4 30.4 0 0 1 -8.18 2.42 37.1 37.1 0 0 0 -3.7 1.38c-0.56 0.2 -1.44 -2 -1.7 -2.66s2.6 -7.18 -1.5 -7.08c-3.5 0.94 1.1 4.32 -29.5 -55.5 -0.8 -1.56 -1.62 -0.72 11.44 -5.04 5.3 -1.74 36.78 -12.16 42.7 -14.3 0.56 -0.2 0 -1.04 6.92 13.1 36.02 74.44 36.58 72.74 35.1 73.2Zm44.46 -136.66c0 -0.8 -0.4 -0.8 9.4 5.56 1.28 0.82 -1.7 0.48 -4.74 4 -0.58 0.68 -0.6 0.64 -1.44 0.24 -3.64 -1.62 -3.74 -5.58 -3.22 -9.74ZM213.36 118c4 -3.28 17 -3.2 22 2.46 4.36 4.96 -6.44 23.1 -17.1 15.64 -5.12 -3.58 -9.88 -14.1 -4.9 -18.1Zm-25.84 9.08c0 -1 -1.12 -13.44 0.5 -13.36a15.44 15.44 0 0 1 8.64 2.28c4.3 2.82 -0.58 22.3 -11.06 18.44 -1.12 -0.44 1.84 -3.06 1.92 -7.36ZM182 114.7c1.04 -0.32 2 -0.56 3.16 -0.84 0.36 0 0.54 0 0.5 0.4 -1.04 9.02 1.88 11.58 -1.58 18.5 -0.4 0.84 -0.48 0.88 -1.16 0.34 -8.38 -6.84 -10.72 -15.34 -0.92 -18.4Zm3.7 22a10.18 10.18 0 0 0 10 -3.4c1.14 -1.16 0 3.26 5.6 4.28 1.16 0.22 1.6 -1.2 0.9 -1.54 -1.7 -0.86 -3.3 -1.26 -4.22 -4.12 -0.72 -2.22 6.2 -0.44 6 -5.64 0 -1.38 -1.34 -1.42 -1.64 -0.18 -0.54 2.14 0 1.82 -3.2 2.42 -0.28 0 -0.36 0 -0.26 -0.34 1.76 -5.54 1.2 -7.12 3 -8.46a5.04 5.04 0 0 1 7.58 4.54c0.26 6.54 6.6 16.12 14 15.84 10.48 -0.42 13.5 -11.22 15.4 -12.4 1.26 -0.8 2.58 -0.3 7.9 2.96 1.56 0.94 -2.98 10.42 4.42 13.66 0.78 0.34 -0.92 1.38 0.98 2 0.3 0 1.38 -1.78 3.1 -3.22 8.44 -7.14 18.42 -1.34 10 12.14 -1.68 2.66 -3.36 4.96 -10.7 8 -9.54 4 -10.68 -20.42 -10.86 24 0 12.6 1.36 16.38 19.06 24.96 0.7 0.34 -5.44 4.92 -5.48 4.94 -10.66 7.64 -4.4 4 -16.2 8.74 -2 0.76 -10.26 4.18 -10.4 2.92 -1.6 -13.38 -4.8 -16.44 -7 -24.28 -2 -6.92 -4.24 -8.68 -4.44 -11 -0.28 -3.4 -8 -10 -8.94 -11.2 -0.34 -0.4 -0.3 -0.56 0.2 -0.74 22.54 -7.34 19.12 -12.92 16.84 -11.58 -4.64 2.7 -25.42 10.14 -35.1 -0.96 -10.74 -11.96 -10.98 -33.62 -6.58 -32.26ZM192 192a26.76 26.76 0 0 0 2.96 -8 1 1 0 0 0 -1.6 -1.02c-6.94 4.68 -19.18 -2.66 -16.28 -2.88 1.74 -0.14 13.42 -5.52 7.78 -7.4 -6.66 -2.22 -9.68 -7.38 -8.88 -7.62a27.22 27.22 0 0 0 9.06 -2.2c2.64 -1.26 0 5 12.3 12.58a3.4 3.4 0 0 0 0 4.54c3.44 4.2 6 6 5.82 6.4 -0.3 0.64 0 1.52 -0.78 2 -2.98 2.02 -6.94 4.3 -10.38 3.6Zm13.16 36.34c-9.06 -1.42 -17.9 -10.38 -19.72 -17.9 -0.34 -1.42 -0.58 -1.28 0.94 -1.8 4.46 -1.58 6.76 -3.28 6.2 -2.28 -1.12 2 -0.32 4.58 -0.46 5.5 -0.52 3.46 1.88 6.38 5.34 8.22 0.46 0.24 0.3 0.2 3.36 0.4 2 -0.48 2.26 -0.68 2.5 0a17.04 17.04 0 0 1 1.02 3.1c0.8 4.42 1.84 5 0.8 4.84Zm58.54 106.22a73.56 73.56 0 0 1 -5.84 6.96c-2.82 3.26 -5.08 6.9 -9.54 10.32 -10.44 8 -18.26 6 -27.36 -4.66a24.6 24.6 0 0 1 -2.9 -7.56c-1.3 -5.26 -3.62 -6.72 -5.24 -12.68 -4.24 -15.58 0.38 -90.86 0.8 -91.24 1.72 -1.58 -0.96 -0.8 -4.82 -5.84 -3.14 -4 -1.68 -8.28 -8 -18.56a2 2 0 0 0 -1.36 -1.12c-1.22 -0.2 -0.22 1.38 0.34 2.62 0.84 1.82 -0.88 0.66 -1.2 0.64 -0.82 -0.1 -1.38 0.84 1.42 2.48 0.34 0.2 1.26 0.22 1.5 0.54a5.18 5.18 0 0 1 0.5 1.42c0 0.28 0 0.36 -0.26 0.38 -2.2 0.26 -3.16 0.72 -4.98 -0.82 -1.04 -0.88 -2.9 -2.88 -2.86 -4.24 0.1 -4 -0.58 -6 2.86 -8 1.34 -0.74 1.58 -2 1.66 -3.48 0.14 -2.72 2.88 -1.24 4 -4.78 1.6 -5.04 8.92 -0.6 7.86 -3.42 -3.24 -8.5 -13.4 -14 -12 -16.44 1.32 -2.14 6.12 1.84 7.38 3.28 3.88 4.38 11 10.34 11.64 14.5 0.4 2.48 2.14 3.36 3.88 9.2 3.14 10.48 6.7 14.94 7.12 26.52 0.66 18 19.24 87.08 19.26 87.14 0.52 1.08 1.76 0.64 1.7 -0.5 -0.72 -13.42 -8.2 -28.22 -6.36 -28.32a17.3 17.3 0 0 1 8.8 1.72c1.84 1.38 13.2 11.48 14.2 12.42 4.14 3.8 8.76 5.12 11.74 9.68 2.12 3.14 2.68 -1.54 -13.96 21.92Zm-60 -142.28c0.92 -4.72 0.82 -4.54 1.38 -4a13.74 13.74 0 0 1 2.42 3.72c0.42 0.78 -0.86 0.5 -0.88 0.42 -2.86 0.52 -3.2 0.76 -3.04 -0.06Zm85.84 131.24a1.44 1.44 0 0 1 -0.34 0.44 2.6 2.6 0 0 1 -0.3 -0.36c-5.44 -8 -8.18 -10 -9.46 -12.28 -1.62 -2.86 -6.3 -5.82 -9.12 -7.54 -1.86 -1.14 -5.48 -4.86 -8.34 -7.12 -6.46 -5.1 -6.62 -8.32 -15.84 -9.58 -1.4 -0.2 -3.54 0.42 -3.88 0.14s0 -0.76 1.62 -3.88a48.44 48.44 0 0 1 4.86 -8c8.28 -11.68 6.6 -11.08 9.42 -15.9 4.96 -8.56 6.26 -7.52 14.2 -16 10.88 -11.64 11.42 -11.9 12.14 -13.74 0.32 -0.86 -0.44 -1.26 -0.84 -0.84 -24.88 26.28 -22.5 21 -27.6 30.52 -11.3 21.12 -4.7 6.42 -14.34 23.8 -1.02 1.82 -12 -48.36 -10.94 -51.72 0.3 -0.96 1.42 0.58 10 -3.06 12.98 -5.54 6.14 -1.04 17 -9.04 5.5 -4 8 -8.46 13.58 -5.12 7.2 4.32 9.8 2.54 16.56 4.54 3.58 1.06 3.22 2.24 18.24 8.3 4.4 1.78 5.02 5.66 5.54 9.48 2.58 20.14 0.78 22.58 -22.28 87.04Z" fill="#000001" stroke-width="1"></path><path d="M284.46 38.66c0.36 0 0.62 0 0.5 0.62 -0.76 3.26 3.66 6 2.78 7.58a25.54 25.54 0 0 0 -2.5 7.28c-0.1 0.6 0.44 0.28 0.66 0.46 0.84 0.72 1.24 -3.04 3.4 -7.1 1.46 -2.7 -2.78 -5.4 -2.68 -7.72 0.12 -2.98 1.28 -1.28 4 -0.42 1.52 0.48 2.68 0 3.1 1a2.5 2.5 0 0 0 3.02 1.24c1.84 -0.48 1.36 0.94 3.52 1.4s2.14 0.36 2.14 1.16c0 0.28 0 0.58 -0.34 0.66a13.14 13.14 0 0 0 -2.92 1.42c-1.14 0.54 -0.64 -0.38 -2.54 0.86 -2.86 1.86 -2.38 0.68 -3.58 1.62 -2 1.62 -6.38 6.24 -4.98 7.34s1.56 -1.78 4.4 -4.38 2.4 -1.34 3.36 -2c2 -1.24 2.28 -1.42 2.58 -1.44 1.72 -0.14 3.04 -1.58 4.34 -1.7 1.76 -0.16 1.3 -1.7 1.68 -1.58s0.38 0.5 0.52 0.84c1.26 3.14 5.18 -4.26 2.16 -5.24s-3.82 1.14 -4.3 1.02c-4.64 -1.04 -1.76 -0.44 -4.44 -1.82 -1.24 -0.64 -2.22 0.86 -3.22 -0.56 -1.58 -2.28 -0.44 0 -7.86 -2.96 -0.52 -0.2 -0.8 -0.92 -1.2 -1.4s-1.02 -0.48 -1.76 -0.68c-2.1 -0.5 -3.34 3.84 0.16 4.5Zm21.76 3.58c0.62 0.18 0.16 1.64 -0.4 1.34 -2.12 -1.08 -0.34 -1.58 0.4 -1.34Zm-22 -6.52c0.24 0 0.66 0.7 0.88 1.04 -1.1 0.9 -1.62 -0.76 -0.9 -1.04Z" fill="#000001" stroke-width="1"></path><path d="M298.42 254.12c-6.64 3.4 -15.5 9.58 -36 10.84 -0.78 0 -1.56 0.36 -1.46 1.16s17.1 1.7 38 -10.36c2.76 -1.62 1.28 -2.56 -0.54 -1.64Z" fill="#000001" stroke-width="1"></path><path d="M265.54 259.58c10.7 -3.34 24.46 -14 23.58 -15.16 -1.74 -2.22 -6.14 6.7 -24.16 13.74 -0.64 0.24 -0.36 1.22 0.58 1.42Z" fill="#000001" stroke-width="1"></path><path d="M258 123.46c0.34 0.36 8.24 7.52 9.1 5.3 0.32 -0.84 -0.2 -1.08 -2.96 -3C249.76 116 243.66 96.24 236.82 92c-0.46 -0.28 -0.84 0.82 -0.66 1.16a42.24 42.24 0 0 1 4.26 5.56c8.38 13.4 6.3 12.52 17.58 24.74Z" fill="#000001" stroke-width="1"></path><path d="M259.02 224.9c-4.54 2.7 -4.64 4 -7 5.02 -1.56 0.68 -14 5.54 -12.94 7.36 0.58 0.94 0.48 0.18 14 -5.84a46 46 0 0 0 5.48 -4c6.84 -4.94 7.8 -4.86 7.46 -6 -0.6 -1.82 -4.32 1.88 -7 3.46Z" fill="#000001" stroke-width="1"></path><path d="M253.82 159.08c4.12 0 5.5 -4.72 4.18 -7.26a2 2 0 0 1 -0.12 -1.86c0.84 -2 5.02 -5.78 5.42 -0.42 0 0.64 1.04 0.84 1.48 0a3.34 3.34 0 0 0 -3.64 -4.76c-3.24 0.7 -6.78 4.82 -5.06 8.16 0.58 1.14 0 3.5 -1.2 3.78 -2.38 0.52 -2.54 -0.6 -3.12 0.48s0.7 1.88 2.06 1.88Z" fill="#000001" stroke-width="1"></path><path d="M240 68c0.12 -1.36 -0.28 -5.18 3.1 -6.1 2.72 -0.76 4.22 -0.5 5.44 -2.62 1.04 -1.8 0 -2.36 0.98 -4.22 3.28 -6 1.6 -5.08 6 -7 11.76 -5.22 2 -11.88 0.96 -8.52 -0.54 1.62 0.5 2.54 1.2 0.98 0.36 -0.82 4.18 2.14 -0.32 4.6 -4.16 2.26 -6.18 2.24 -7.3 5.1s-2.92 4.68 -2.86 7.32c0 1.88 -1.74 1.82 -3.76 2.22a7.22 7.22 0 0 0 -5.3 7.4c0.04 3.6 1.6 3.96 1.86 0.84Z" fill="#000001" stroke-width="1"></path><path d="M214.8 84.14a9.16 9.16 0 0 0 -6.92 2.92c-1.18 1.26 0 2.4 1.2 1.38a7.7 7.7 0 0 1 7.02 -2.2c14.96 2 16 20.46 31.3 38.7 1.82 2.14 3.24 1.36 2.54 0.1a111.86 111.86 0 0 1 -7.82 -10.94c-12.62 -22.64 -13.84 -27.96 -27.32 -29.96Z" fill="#000001" stroke-width="1"></path><path d="M216 102.7c-0.7 0.74 -1.22 2.34 -0.18 2 1.44 -0.58 2.8 -2.28 6.42 -2.24 5.02 0 6.84 7.36 7.18 3.62 -0.42 -5.94 -7.7 -9.52 -13.42 -3.38Z" fill="#000001" stroke-width="1"></path><path d="M219.46 126.24c1.08 0 1.14 -0.72 1.42 -1.82 -0.32 -2.12 -2 -2 -2.4 -0.78s-0.2 2.54 0.98 2.6Z" fill="#000001" stroke-width="1"></path><path d="M203.26 86.8c0 1.34 0 3.78 1.38 3.56 1.82 -0.28 -1.18 -3.68 1.6 -8a4.54 4.54 0 0 1 3.1 -2.36 1.44 1.44 0 0 0 0.88 -1.12c-0.1 -2.64 -7.04 0.26 -6.96 7.92Z" fill="#000001" stroke-width="1"></path><path d="M190 12.72c0.6 0.16 1.46 -0.7 2.42 -0.86 1.44 -0.24 5.26 -0.36 6 1.1 2.38 4.58 -5.68 10.3 -6.66 16.62 -0.62 4 3.58 5.04 10 6.82 5.54 1.52 -4.78 8.58 -1.62 12.84 0.52 0.68 2 2 3.2 3.26 3.02 3.16 -0.9 7.38 1.08 7.8s3.44 -6.18 0 -9.52c-3.82 -3.84 -4.22 -2.5 -0.16 -9.6 1.06 -1.86 1.64 -5.12 -0.68 -6.12s-2 -0.26 -7.56 -2.42c-8.48 -3.26 7.64 -12.94 3.82 -20.48 -0.88 -2.16 -2.74 -1.92 -5.28 -2.16 -5.12 -0.12 -5.3 2.52 -4.56 2.72Z" fill="#000001" stroke-width="1"></path><path d="M201.66 151.76c0 -0.72 -0.44 -2.82 -2.12 -2.86 -2 0 -2.3 2.98 -0.86 4.44 0.86 0.9 2.5 1.1 2.98 -1.58Z" fill="#000001" stroke-width="1"></path><path d="M194.36 122.86c-0.16 -2 -1.74 -2 -2 -1.24 -1.26 2.26 1.36 4.38 2 1.24Z" fill="#000001" stroke-width="1"></path><path d="M160 192.48c-45.58 15.18 -44 14 -42.7 16.52 9.26 19.26 8.94 18.36 10.6 18.54 4.56 -1.32 41.76 -13.66 42 -13.78 2.56 -0.88 1.08 -2.28 -5.76 -16.16 -2.4 -5.04 -2.32 -5.72 -4.14 -5.12Zm8.64 19.7L128 225.6c-0.48 0 0.18 1.14 -8.86 -16.74 -0.46 -0.9 -2.88 0.32 25.66 -9.24 4.96 -1.66 9.68 -3.32 14.98 -5.06 1.38 -0.44 0.28 -1.8 6 10 3.62 7.68 3.78 7.32 2.88 7.62Z" fill="#000001" stroke-width="1"></path><path d="M157.68 210.72c-0.26 0 -26.16 8 -28 8.88 -0.9 0.38 -1.72 1.58 -0.62 1.86 0.36 0 29.62 -8.54 31.16 -10.32 -0.8 -1.48 -1.48 -0.46 -2.54 -0.42Z" fill="#000001" stroke-width="1"></path><path d="M133.54 208.98c3.3 -0.58 3.18 -1.64 5.12 -1.54 3.7 -0.5 5.1 -2 8.46 -2.84s4.32 -0.6 6.94 -2c0.64 -0.32 1.08 -1.44 -0.28 -1.72 -0.24 0 -1.78 0.46 -4 1.02 -7.9 2 -9 3.48 -11.04 3.44 -2.36 0 -2.26 0.96 -5.78 1.74 -8 1.78 -6.7 2.54 -8.84 2.64 -0.26 0 -0.68 0.62 -0.76 0.86 -0.18 0.72 2 1.14 3.04 0.56a20.16 20.16 0 0 1 7.14 -2.16Z" fill="#000001" stroke-width="1"></path><path d="M140.3 109.18c2.92 -3.88 1.2 -3.32 10.82 0a1.04 1.04 0 0 0 1.34 -1.46 52.26 52.26 0 0 0 -3.64 -6.6c-0.82 -1.04 3.4 -5.54 3.48 -8 0.12 -3.62 -7.3 2.4 -8.92 0.28 -1.3 -1.7 -3.28 -3.58 -4.58 -5.64 -0.58 -0.94 -1.7 -1.28 -1.88 -0.16 -1.54 10.22 0.94 7.7 -4.76 9.9 -3.18 1.24 -3.28 1.22 -3.46 2.24 -0.56 3.22 6.88 3.68 6.9 5.14 0.12 6.58 -0.14 6.18 0 7.56a1.04 1.04 0 0 0 1.72 0.62 29.2 29.2 0 0 0 2.98 -3.88Zm-4.5 -6.7c-6.84 -2.56 -6.84 -2 0.68 -4.72 1.64 -0.6 0.86 -4.18 2 -7.26 7.14 6.68 1.12 6.12 11.56 3.72 -1.54 4.12 -4.74 5.3 -2.9 7.44a28.18 28.18 0 0 1 2.66 4.58c0.5 0.84 -2 0 -5.54 -1.32 -2 -0.74 -1.54 -2.24 -6.26 4.36 -1.84 2.58 0.82 -5.68 -2.2 -6.8Z" fill="#000001" stroke-width="1"></path><path d="M101.8 74.22c0.96 -1.04 0.98 -1.04 1.86 0a10.7 10.7 0 0 1 2 3.62c0.36 1.28 -1 0.6 -1.42 0.62 -2 0 -1.18 1.5 -0.68 1.74 4.92 2.38 7.04 -3.28 7.18 -1.42 0.22 2.52 0.2 5.26 0.32 8.56 0 1.5 1.22 2.64 2.24 1.72s3.74 -3.68 7.6 -7.44c6.32 -6.18 6.58 -6 6.5 -7.22 -0.92 -13.4 -2 -10 2.4 -14.78 5.32 -5.74 16 -17.42 19.46 -24.42 5.34 -10.58 7.46 -21.72 2.48 -22.28 -6.66 -0.74 -18.24 5.08 -24 10.14a108 108 0 0 0 -11.54 11.5c-12 13.18 -8.6 11.04 -14 11.76 -10.86 1.4 -7.06 -0.94 -20.56 13.78 -1.66 1.82 -0.48 3.06 0.6 3.06a68.52 68.52 0 0 1 9.76 -0.32 5.04 5.04 0 0 0 -1.32 4.48 9.14 9.14 0 0 0 2.42 4.18c0.66 0.42 1.14 -0.32 0.88 -1.1 -0.12 -0.4 -2.18 -3.44 -1.58 -4.18s2.12 0 6.54 3.36c1.22 0.92 -1.12 1.8 -3.1 4.72 -1.14 1.72 0.88 2.6 1.42 3s1.04 0.48 1.58 0.1ZM92 87.68c-14 22 -17.12 45.04 -6.32 73.68 0.2 0.5 0.88 2.76 1.56 2.3 2.16 -1.42 -9.26 -19.42 -5.5 -45.9 3.46 -24.36 19.54 -38.42 20 -40.54 0.24 -1.04 -0.14 -1.48 -1.38 -1A96.5 96.5 0 0 0 92 87.68Zm6.24 -20.9c-3.9 -2.94 -5.44 -1.64 -4.7 -2.9 0.36 -0.62 0.72 -1.32 1.3 -1.06 2.78 0.24 3.74 1.3 7.1 3.58 0.58 0.4 0.12 0.84 -0.8 1.74 -0.54 0.6 -0.42 0.48 -2.82 -1.36ZM98 75.82c-1.48 -1.02 -2.14 1.06 15.68 -19.7 0.88 -1 2 -2 2.54 -0.66 0.06 0.06 -18.12 20.32 -18.22 20.36Zm10.7 2c-1.76 1.5 -0.18 0 -3.22 -4 -1.4 -1.84 -1.58 -1.84 -1.32 -2.14 1.62 -1.9 1.28 -2.8 5.16 4.78 0.4 0.54 0 0.84 -0.56 1.32Zm4.64 9.04c-0.64 0.66 -0.34 0.64 -1.04 -9.38 0 -0.94 8 -7.2 10.58 -10.28s2 -2.56 2.86 6.64c0.42 0.82 0.26 0.5 -12.34 12.98ZM132 22.6a42.14 42.14 0 0 1 13.4 -6.6c7.58 -2 6.74 0 7.1 2.98a28.2 28.2 0 0 1 -1.84 8.26c-4.82 11.76 -4.4 10.7 -5.72 8.34 -6.12 -10.9 -14.58 -11.96 -12.94 -12.98Zm-2.58 2c2.56 -2.42 17.1 12.52 15 15.32 -6.14 8.24 -27.5 32.24 -33.14 35.7a53.84 53.84 0 0 0 -4 -6.58c-0.5 -0.74 -0.56 -0.24 6.5 -8.1 4 -4.56 5.14 -5.08 3.74 -6.8 -0.6 -0.74 -2.2 -1.82 -3.22 -0.78s-1.58 1.74 -6.6 7.5c-4.62 5.28 -3.66 4.68 -5.3 3.44 -6.6 -4.98 -7.78 -1.06 -3.56 -6.44a359 359 0 0 1 30.52 -33.3ZM93.24 50c0.82 -0.96 0.82 -0.8 10.64 -2 1.54 -0.2 -2.82 3.34 -6 8.14 -0.72 1.04 -3.44 4.68 -4.5 4.82 0 0 -10 0.3 -10 0.24 -0.42 -0.36 4.92 -5.46 9.86 -11.2Z" fill="#000001" stroke-width="1"></path><path d="M143.06 211.56c4 -1.16 4.26 -1.52 5.68 -1.54a1.4 1.4 0 0 0 1.46 -1.1c0 -2.3 -8 1.36 -11.78 2 -3.44 0.58 -11.26 2.86 -12.4 4.1 -0.8 0.88 -0.36 1.38 0.72 1.44 4 -1.36 3.46 -1.54 4.9 -2 8.36 -2.28 2.6 -0.36 11.42 -2.9Z" fill="#000001" stroke-width="1"></path><path d="M136 148c-1.24 0.16 -5.36 1.06 -6 1.24 -1.18 0.3 -4.88 -7.88 -5.82 -4.84 -2.3 7.48 0.86 6.26 -5 6.76 -2.4 0.2 -2.44 0.84 -2.38 2 0 0.78 0.28 0.94 1.72 1.82 6.5 4 3.66 1.1 3.12 8.5 0 1.02 0.52 1.5 1.34 1.24 1.86 -0.62 4.8 -6 6.16 -5.3a58 58 0 0 0 6 1.72c1.14 0.32 1.62 -0.28 1.48 -1.16 -0.22 -1.4 -1.76 -2 -3.3 -4.84 -0.34 -0.66 -0.26 -0.36 3.56 -4.94 0.66 -0.84 0.96 -2.42 -0.88 -2.2Zm-4.4 8c1.86 3.28 2.62 2.98 -1 2.18 -4.2 -0.94 -2.3 -1.22 -6.66 3.2 -0.52 0.54 0.1 -1.66 0.26 -3.74 0.18 -2.48 -4.62 -3.28 -5.32 -4.58 0.34 0 -0.26 0 2.82 -0.3 3.8 -0.32 2 -2.46 3.66 -5.86 1.36 1.16 2.76 4.64 4 4.38 10.14 -2.36 0.04 0.84 2.24 4.72Z" fill="#000001" stroke-width="1"></path><path d="M128.52 47.64c9.66 -0.5 8.98 -14.64 -0.3 -14.42 -10.22 1.24 -8.36 14.78 0.3 14.42Zm-1.06 -12.46a5.36 5.36 0 1 1 -0.18 10.52 5.36 5.36 0 0 1 0.18 -10.52Z" fill="#000001" stroke-width="1"></path><path d="M106.46 180.68c-1.32 0.24 -1.58 2 0.12 2 8.68 -0.14 9.12 -15.86 0.76 -15.74a7.66 7.66 0 0 0 -2.68 0.38c-0.12 -1.14 2 -6.12 -0.24 -10 -2.48 -4.28 -9.66 -4 -12 1.9a20.52 20.52 0 0 0 0.88 15.74c0.46 0.9 1.62 0.38 1.34 -0.82 -6 -17.06 5.74 -21.46 8.38 -15.3 2.2 5.14 -2.56 10.82 -0.5 12 1.46 0.82 2.2 -2.4 5.02 -2 3.66 0.64 4.32 4.62 3.72 7.28 -1.02 4.38 -3.78 4.36 -4.8 4.56Z" fill="#000001" stroke-width="1"></path><path d="M85.76 165.48c-11.18 -18.36 -14 -50.46 -0.18 -76.62a138.66 138.66 0 0 1 10.66 -16c1.86 -1.82 0 -2.78 -1.02 -1.62 -11.58 13.7 -20.66 33.54 -20.66 51.42 0 26.2 6.56 38.96 9.84 42.88 1.6 1.84 2.42 1.68 1.36 -0.06Z" fill="#000001" stroke-width="1"></path><path d="M76.48 181.28c-10 3.14 -8.86 -8.46 1.04 -4.44a0.98 0.98 0 0 0 1.42 -0.48c0.54 -1.22 -0.52 -1.52 -1.54 -1.86 -5.46 -1.82 0.62 -12.24 8.18 0.48 0.62 1.04 1.68 0.32 1.44 -0.48 -1.6 -5.7 -8 -10 -12 -6.5a4.72 4.72 0 0 0 -1.02 6c-4.72 0.12 -6 2 -6.54 4.46 -1.08 5.8 8.26 6.48 10.64 4.2 0.92 -0.92 0.16 -1.94 -1.62 -1.38Z" fill="#000001" stroke-width="1"></path><path d="M62.9 145.74c-0.3 -0.6 -0.5 -1.76 -1.88 -0.92 -5.62 3.42 -4.48 2.88 -6 1.26 -2.28 -2.38 -2.86 -3.3 -4 -3.02 -0.5 0.14 -0.38 1.16 -0.26 1.7 1.38 6.4 1.82 4.7 -0.78 5.66 -0.6 0.24 -1.12 0.52 -3.56 1.54a1.32 1.32 0 0 0 0 2.4c7.44 2.78 5.76 2.26 6.26 5.4 0.58 3.6 0.68 4.5 1.44 4.58a1.42 1.42 0 0 0 1.5 -0.86c3.12 -7.58 1.08 -5.58 4 -5.06 5.02 0.9 5.28 1.4 6 0.52s-0.74 -2.18 -1.46 -3c-4.72 -5.44 -3.32 -1.84 -1.26 -10.2Zm-1.48 10.94a7.3 7.3 0 0 1 -3.04 -0.92c-2.52 -0.82 -2.52 4.22 -3.52 5.08a16 16 0 0 1 -0.4 -3.22c0 -2.2 -1.2 -2.36 -4.84 -4.36 -0.8 -0.46 1.02 -0.64 3.08 -1.68s0.42 -3.04 0.38 -4.44c0 -0.84 1.4 1.18 2.28 2.28 1.36 1.7 1.52 -1 5.34 -2.14 -0.64 3.3 -2.86 4.16 -0.72 6.44 3.12 3.34 2.28 3.04 1.44 2.96Z" fill="#000001" stroke-width="1"></path></g></g></svg>