<svg xmlns="http://www.w3.org/2000/svg" viewBox="0 0 400 400" id="Whistling-With-A-Good-Mood--Streamline-Free-Illustrations.svg" height="400" width="400"><desc>Whistling With A Good Mood Streamline Illustration: https://streamlinehq.com</desc><g><g><path d="M288.16 355.12c0.74 0.92 0.94 1.4 0.26 2a42.72 42.72 0 0 0 -8.8 7.78c-3.56 4.54 -2.86 12.78 -12.14 17.44a15.7 15.7 0 0 1 -11.58 2.3c-1.54 -0.3 -2.18 -2.3 -1.32 -2 5.5 1.48 10.16 -0.78 15 -3.8 3.5 -2.18 5 -7.18 6.28 -11.04 2.34 -7.08 6.4 -8.68 11.4 -13.2 0.34 -0.38 0.56 0.08 0.9 0.52Z" fill="#ffffff" stroke-width="1"></path><path d="M267.6 362.46a10.32 10.32 0 0 0 -6.66 -0.64c-0.94 0.14 -1.32 -1.02 -0.22 -1.62a9.44 9.44 0 0 1 6.24 0c1.72 -0.04 1.74 2.92 0.64 2.26Z" fill="#ffffff" stroke-width="1"></path><path d="M267.74 364.34c-0.26 2.48 -1.8 -0.26 -6 0.52 -0.48 0 -2.24 0.38 -2.24 0s0.1 -1.12 0.7 -1.42c1.8 -1.06 7.66 -0.92 7.54 0.9Z" fill="#ffffff" stroke-width="1"></path><path d="M266.4 366.52a1.02 1.02 0 0 1 0.36 1.62c-0.44 0.52 -2.52 -0.54 -4.46 -0.42 -2.72 0.22 -2.86 0.46 -2.98 -0.18a0.96 0.96 0 0 1 0.8 -1.28 15.26 15.26 0 0 1 3 -0.42 12.28 12.28 0 0 1 3.28 0.68Z" fill="#ffffff" stroke-width="1"></path><path d="M139.32 359.08a11.1 11.1 0 0 1 0.38 4c-0.22 1.24 -2 1.24 -2 0.48a14.74 14.74 0 0 0 -0.94 -6.62c-0.38 -1.16 0.98 -1.3 1.36 -0.7a5.88 5.88 0 0 1 1.2 2.84Z" fill="#ffffff" stroke-width="1"></path><path d="M136.72 362.84c-0.18 1.42 -2.18 1.16 -2 0.26a11.08 11.08 0 0 0 -0.72 -5.72c-0.64 -1.58 -1.06 -1.86 -0.3 -2a1.68 1.68 0 0 1 1.7 0.64 14 14 0 0 1 1.32 6.82Z" fill="#ffffff" stroke-width="1"></path><path d="M132.86 357.5a8.12 8.12 0 0 1 0.64 4.7c-0.2 0.64 -1.02 0.86 -2 0.56 -1.48 -0.44 0.18 -3.06 -2.6 -6.84 -0.22 -0.3 0.34 -0.8 1.14 -0.76a2.98 2.98 0 0 1 2.82 2.34Z" fill="#ffffff" stroke-width="1"></path><path d="M131.5 372.84c8.16 8 18 10.48 17.56 15.3 -0.26 2.44 -8.74 -3.6 -9.86 -4.74a153.68 153.68 0 0 0 -12.92 -11.4c-6 -4.28 -11.36 -7.66 -14.74 -14.36 -0.42 -0.86 0.48 -1.54 1.28 -1.24 3.74 1.36 6.8 4.96 18.68 16.44Z" fill="#ffffff" stroke-width="1"></path><path d="M152 384.68c-2.14 4.6 -0.58 0.68 -5.14 -2.38 -11.1 -7.58 -10.32 -6.16 -23.04 -18.6 -5.04 -4.96 -9.14 -8.84 -12.22 -8.68 1.34 -3.32 2.78 -1.82 5.56 -0.16 8.62 5.16 13.52 15.56 23.8 21.06 2.76 1.5 9.86 6.5 11.04 8.76Z" fill="#ffffff" stroke-width="1"></path><path d="M158 364.9c8.7 -12.38 6.48 -10.18 8.76 -8.94 -1.84 3 0 -0.64 -7.02 9.76 -0.42 0.64 -0.3 0.98 -1.06 0.88 -1.46 -0.08 -2.32 0.56 -0.68 -1.7Z" fill="#ffffff" stroke-width="1"></path><path d="M162.52 351.86c2.12 3.44 4 -0.94 -3.72 10.26 -3.54 5.12 -2.98 4.48 -4.32 4.62a2.14 2.14 0 0 1 -1.58 -0.42c-1.14 -0.96 -1.4 0.16 7.48 -12.66 1.38 -2 1.62 -2.56 2.14 -1.8Z" fill="#ffffff" stroke-width="1"></path><path d="M162.3 346.6c1.8 1.64 7.14 5.56 6.38 6.64 -1.08 1.48 -1.24 2 -1.54 1.58a11.78 11.78 0 0 0 -2.7 -2.82c-0.68 -0.44 -1.1 -2 -3.36 -3.22 -2.62 -1.44 -2.54 -2.64 -4.76 -3.12 -0.76 -0.16 -1.06 -0.28 -0.8 -0.72 0.84 -1.4 0.76 -1.7 1.4 -1.62a10 10 0 0 1 5.38 3.28Z" fill="#ffffff" stroke-width="1"></path><path d="M160.34 350c0.9 0.64 1.08 0.22 -4.18 8 -0.52 0.72 -4.28 6.24 -4.66 6.66 -0.34 -0.34 -0.64 -0.9 -0.26 -1.2a6.48 6.48 0 0 0 1.8 -6.24c0 -0.3 0.12 -0.42 0.5 -1.02 5.78 -8.66 3.48 -8.64 6.8 -6.2Z" fill="#ffffff" stroke-width="1"></path><path d="M157.18 347.42c0.5 0.44 -4.48 8.76 -5 8 -1.4 -2 -2.18 -1.46 -1.76 -2.14a47.18 47.18 0 0 1 4.32 -6.88 7.04 7.04 0 0 1 2.44 1.02Z" fill="#ffffff" stroke-width="1"></path><path d="M262.74 344.86c-2.78 1.58 -1.46 2.78 -6.38 -3s-3.42 -2.86 -1.32 -5.3c0.42 -0.46 7.4 7.86 7.7 8.3Z" fill="#ffffff" stroke-width="1"></path><path d="M274.44 341.78c1.2 1.8 0.9 0.98 1.24 2 -0.56 2.64 -0.16 2.3 -4.36 -3.56 -6 -8.32 -5.2 -6.74 -6.14 -8.46 -2 -3.58 -3.38 -2.14 -0.78 -4 0.6 -0.42 -0.1 -1.12 10.04 14.02Z" fill="#ffffff" stroke-width="1"></path><path d="M274.58 346.6c0.28 0.26 0.16 0.52 0 0.78 -2 2.14 -1.84 0.52 -5.3 -3.68 -10 -12.14 -10.16 -10.94 -9.3 -11.88s1.4 -1.54 2.12 -2.22c0.64 0.68 11.56 16.2 12.48 17Z" fill="#ffffff" stroke-width="1"></path><path d="M270.9 348c0.6 0.78 1.1 1.24 0.5 1.36 -1.14 0.26 -0.84 -1.4 -2.22 -2.98 -1.78 -2 -1.58 -2 -3.66 -2.14 -0.78 0.12 -1.42 0.34 -1.68 0 -6.92 -8.16 -7.72 -8.2 -7.3 -8.72 2.82 -3.4 0.82 -3.54 8.92 5.6a56.3 56.3 0 0 1 5.44 6.88Z" fill="#ffffff" stroke-width="1"></path><path d="M262.48 323.84c1.5 2.26 2 2 0.64 3.28 -1.06 0.94 -2.26 2 -3.12 2.82a52.78 52.78 0 0 1 -4.96 4.96 6 6 0 0 1 -3.04 1.84c-0.16 0 -0.3 0 -0.34 -0.14 -1.7 -1.7 -1.74 -1.66 -1.32 -1.88a24.92 24.92 0 0 0 6.5 -5.58c1.8 -2 3.54 -3.82 4.48 -4.88s0.98 -0.72 1.16 -0.42Z" fill="#ffffff" stroke-width="1"></path><path d="M239.06 205.38c1.12 0.9 1.06 0.76 0.86 1.02 -1.8 2.22 -2 2.6 -2.14 2.52 -0.64 -0.56 -1.16 -0.82 -0.64 -1.46a15.58 15.58 0 0 1 1.92 -2.08Z" fill="#ffffff" stroke-width="1"></path><path d="M237.48 203.32c0.72 1.72 1.84 0 -1.32 3.6 -0.22 0.2 -0.3 0.2 -0.48 0 -1.12 -1.54 -1.44 -0.7 1.08 -3.22a2.78 2.78 0 0 1 0.72 -0.38Z" fill="#ffffff" stroke-width="1"></path><path d="M236.66 202.46c-1.58 1.2 -2.34 2.48 -2.78 2s-0.64 -0.8 -0.12 -1.46 0.78 -1.2 1.54 -1.4a1.12 1.12 0 0 1 1.36 0.86Z" fill="#ffffff" stroke-width="1"></path><path d="M198.3 191.56c0.46 0.78 2.38 4.16 1.06 4 -4.18 -0.5 -3.88 0.48 -2.44 -3.46a3.32 3.32 0 0 1 0.44 -0.6c0.46 -0.66 0.5 -0.66 0.94 0.06Z" fill="#ffffff" stroke-width="1"></path><path d="M280.3 345.2c4.14 2.56 6.28 8.2 5.68 8.68 -3.28 2.68 -3.28 2.94 -3.64 2.38 -2.56 -4.48 -2.56 -10.26 -2.04 -11.06Z" fill="#ffccce" stroke-width="1"></path><path d="M280.38 357c2 1.28 0.22 0.34 -2.82 4.56 -4.44 6.16 -4.28 14.1 -4.96 7.28 -0.52 -5.24 0 -7.7 3.9 -10.82a7.52 7.52 0 0 1 3.88 -1.02Z" fill="#ffccce" stroke-width="1"></path><path d="M278.3 162.38c2.56 10.7 -0.42 7.84 -6.3 17.14a20.98 20.98 0 0 1 -5.16 6.28c-1.74 1.46 -20.68 21.04 -21.46 20.64 -5.12 -2.56 -3.5 1.12 -7 -3.8 -0.26 -0.34 -0.56 -0.78 -0.86 -1.24s18 -29.82 19.7 -32.52c2 -3.34 1.42 -3.84 0 -7.52 0 -0.22 0 -0.3 0.22 -0.34 8.62 -1.26 8.54 -3.16 17.7 -6 1.36 -0.24 0.98 -1.7 3.16 7.36Z" fill="#e5b39e" stroke-width="1"></path><path d="M278.94 344.78a21.64 21.64 0 0 0 1.58 11.02 8.94 8.94 0 0 0 -8.76 6.2c-2 4.78 0.54 10.84 0.12 12 -0.72 1.88 -1.76 -1.84 -5.12 -2.38a18.44 18.44 0 0 0 -7.1 -0.64c-0.86 0 -0.26 -0.7 -0.18 -1.04s0 -0.64 0.4 -0.76a7.6 7.6 0 0 1 2.6 -0.22c3.66 0 4.76 1.42 5.42 -0.12s-0.2 -2 0.34 -2.66c1.04 -1.28 0.34 -2.64 0.74 -3.08a2.64 2.64 0 0 0 -1.46 -4 10.42 10.42 0 0 0 -5.22 -0.46c-0.72 0.26 -0.12 -1.08 -1.06 -2.74s-1.36 -1.06 -3.3 -3.42c-0.5 -0.64 -0.58 -1.28 1.5 -3.42a9.36 9.36 0 0 1 6 -3.24c2 -0.52 3.62 3.5 4.14 5.68 0.22 0.9 0 1.84 0.64 2.3a0.42 0.42 0 0 0 0.72 -0.34c0 -0.72 0.44 -1.44 0.18 -2.22s5.68 -0.64 6 -7.68a2.92 2.92 0 0 0 -0.98 -2c-1.34 -1.46 3.86 -3.04 2.8 3.22Z" fill="#c5cdf3" stroke-width="1"></path><path d="M269.52 374.82c1.48 1.5 2 1.18 -4.4 4.82a14.16 14.16 0 0 1 -10.38 1.62c-4.22 -0.72 2 -8.72 3.64 -8.88a12.88 12.88 0 0 1 6.32 0.22 6.44 6.44 0 0 1 4.82 2.22Z" fill="#ffccce" stroke-width="1"></path><path d="M259.4 305.62c1.36 2.66 6 7.14 5.3 7.78a77.6 77.6 0 0 0 -7.74 7.86c-7.44 10.18 -7.44 7.18 -10.84 10.56a23.56 23.56 0 0 1 -4 2.96 3.82 3.82 0 0 1 -2.34 0.42c-3.3 0 -2 -0.52 -4.54 -4.32s-5.72 -11.8 -7.56 -14c-2.74 -3.26 -2.86 -2.44 -4.58 -5.26 -2.68 -4.44 -2.22 -8.26 -6.44 -10 -1.68 -0.68 -6.58 -5.72 -5.74 -7.26 1.68 -2.96 2.18 -4 0.74 -7.18 -0.82 -1.8 1.58 -5.1 2.98 -6.46a41.54 41.54 0 0 0 5.52 -4.82c6 -5.86 12.3 -24.84 12.74 -23.76 5.08 12.12 1.44 20.16 6.92 21.32a4.14 4.14 0 0 1 2.98 5.16c-1.36 5.64 1.38 2.74 3.26 5.52a5.02 5.02 0 0 1 1.28 4.62c-0.92 6.48 7.3 7.56 12.06 16.86Z" fill="#ff9c9f" stroke-width="1"></path><path d="M256.96 323.84c3.38 -4.92 2.74 -4.16 4.54 -1.58 -0.3 0.58 -11.38 12.94 -12.66 11.18 -0.42 -0.6 -0.98 -1.1 -0.64 -1.36a28 28 0 0 0 8.76 -8.24Z" fill="#d6ad9e" stroke-width="1"></path><path d="M257 38.16c2.28 0.56 1.64 4.7 -2 4.48 -1.4 0 -1.06 0.86 -0.52 1.36a1.44 1.44 0 0 1 0.44 0.74 3.18 3.18 0 0 1 -3.5 3.58c-1.2 -0.2 -2.58 -1.14 -3.86 -0.86 -0.72 0.18 -1.28 0.56 -2 1.8 -1.42 2.52 -1.32 3.3 -2.52 4.5 -2.32 2.34 -1.2 2.52 -2.22 2.64 -4.66 0.68 -4.62 4.4 -6.2 3.34s1.58 -1.46 0.9 -4c-0.44 -1.54 0.56 -2.18 1.84 -3.5 0.98 -0.98 0 -1.68 -0.64 -2.36s0.38 -2.4 1.02 -2.82c1.28 -0.9 0.6 -2.26 -0.52 -3.42 -1.4 -1.5 -0.16 -2.6 0.26 -3.72 0.26 -0.64 0 -1.06 -0.72 -0.94a4.9 4.9 0 0 0 -0.82 0.22c-1.32 0.3 -3.62 -0.52 -3.24 -1.84 0.26 -0.76 0.3 -1.66 -0.44 -2s-0.72 2 -3.88 0.9c-1.12 -0.4 -0.82 -1.46 -0.86 -2a0.64 0.64 0 0 0 -0.68 -0.64 1.84 1.84 0 0 0 -0.82 0.44c-2 1.44 -2.18 -1.38 -3.28 -0.94s0.56 1.58 -1.08 2.82c-0.98 0.76 -2.6 0.12 -3.46 -0.52s-1.1 -4 -2.38 -1.4 -4.16 2.12 -4.28 0c0 -1.12 -0.38 -1.54 -1.62 -0.52 -1.72 1.4 -3.72 0 -3.46 -0.82a3.68 3.68 0 0 1 1.4 -2c2 -2 -4 -0.14 -3.28 -4.4 0.38 -2 2.34 -1.72 2.94 -1.84a0.72 0.72 0 0 0 0.44 -1.24c-1.2 -1.2 0 -3.46 1.54 -3.86s3.2 1.46 2.6 -1.14c-1.12 -4.96 4.96 -6.8 6.58 -3.56 0.52 1.04 1.32 0.6 1.4 -0.34 0.44 -3.84 4 -4 5.36 -0.34 0.2 0.6 1.02 0.86 1.32 0 0.64 -1.7 1.14 -2.34 2.38 -2.68a3.26 3.26 0 0 1 4.58 2.26c0.12 0.38 -0.22 1.16 -0.3 1.54 -0.26 1.2 0.9 1.46 1.42 0.82s2 -1.16 3.62 0c0.22 0.16 0.34 1.06 0.52 1.36 0.64 1.24 1.28 -0.12 2.98 -0.56a3.02 3.02 0 0 1 3.42 4.24c0 0.26 -0.72 0.6 -0.16 1.2a1.06 1.06 0 0 0 1.24 0 2.76 2.76 0 0 1 4.4 2.44 3.82 3.82 0 0 1 -0.52 2.22c0 0.52 0.82 0.56 1.12 0.3a2.72 2.72 0 0 1 3.5 0.82c0.82 0.94 0.18 1.8 -0.48 2.64 -0.34 0.44 -0.42 1.16 0.52 1s2.26 0.34 2.22 1.44a5.56 5.56 0 0 1 -1.2 3.3c-0.56 1.04 -0.34 1.42 0.98 1.86Z" fill="#897466" stroke-width="1"></path><path d="M252.1 174c0.42 0.56 0 0.56 -1.54 3.38 -0.6 1.18 -1.04 0.94 -2.22 0.94 -7.46 0.6 -21.54 -21.88 -25.14 -28.46 -4.7 -8.58 -5.08 -9.4 -3.28 -11.36s4.18 0.16 6.1 1.32c3.24 2 6 6.84 8.6 10.38a54.9 54.9 0 0 1 5.38 6.54c3.68 5.94 7.76 11.7 12.1 17.26Z" fill="#d3ffcf" stroke-width="1"></path><path d="M248 179.34c0.64 0 1.34 0 1 0.4 -1.08 1.58 -1.16 2 -2.32 2 -5.72 -0.12 -16 -14.36 -19.14 -19.1 -0.46 -0.68 0 -3.86 0.56 -2.94 6.32 9.06 3.12 5.3 9.86 12.6 2.4 2.5 4.58 6.66 10.04 7.04Z" fill="#ffffff" stroke-width="1"></path><path d="M246.36 182.76c0.3 0 0.3 0.18 0.18 0.44a2.22 2.22 0 0 1 -1.54 1.36 38 38 0 0 1 -7.18 2.26c-6.32 1.46 -7.74 1.04 -10.98 -2.3 -2.56 -2.56 -4.48 -7.1 -6 -10.22 -4.46 -9.06 -14.86 -25.72 -8.38 -31.36 1.2 -1.02 3.58 -3.72 3.34 -2.26 -0.78 5 7.3 15.6 7.04 17.3 -0.22 1.12 -0.56 3.56 0.38 4.24a76.74 76.74 0 0 1 -1.06 8c-0.22 1.2 1.42 1.7 2.22 1.66 1.88 0 2.56 0.22 2.44 -1.24 -0.38 -3.2 0 -4.36 -0.42 -7.38 -0.24 -1.78 11.74 18.52 19.96 19.5Z" fill="#d3ffcf" stroke-width="1"></path><path d="M245.82 209.1c1.4 0 1.1 2.22 -0.3 2.16s-0.7 -2.16 0.3 -2.16Z" fill="#c5cdf3" stroke-width="1"></path><path d="M227 186.52c6 5.6 14.66 -0.38 17.52 -0.2 -0.46 2 -2.72 4.6 -7.12 12.38 -1.64 2.92 -0.78 -0.16 -4.8 3.6 -1.24 1.08 -2.84 -0.76 -7.86 1.88 -2.48 1.32 -1.28 0.76 -3.32 0.46a27.74 27.74 0 0 1 -7.7 -1.36c-4.32 -1.58 -10 -2.26 -11.06 -4.44 -2.58 -4.92 -0.52 -3.5 -3.78 -8.72 -1.22 -2 -2.68 0.12 -3.4 2.3 -0.52 1.28 -1.08 2.52 -1.72 3.76s-1.62 1.28 -3.68 0.78c-2.42 -0.6 -2 0.38 -4.4 -0.34 -3.5 -1.04 -7.26 1.24 -11.74 -1.04 -1.24 -0.6 3.02 -12.26 2.26 -19.3a67.78 67.78 0 0 1 0.76 -7.82c2.36 -22.84 3.08 -40.2 6.46 -50.82a27.16 27.16 0 0 1 2.7 -6.12c0.16 -0.76 3.2 -10.88 2.12 -11.58s-2.6 10.34 -3.46 11.46c-5.12 6.58 -7.6 38.34 -7.34 40.34 0 1.36 0 1.06 -7.78 -1.06a43.36 43.36 0 0 0 -5.34 -2s-4.32 -2.24 -4.32 -2.28c-1.16 -0.6 -1.62 -0.9 -1.24 -1.7 8.78 -18.42 9.78 -25.3 14.32 -33.12 3.34 -5.86 1.16 -8.82 9.02 -13.72 2.26 -1.42 7.48 -4.96 7.68 -4 3.04 15.88 22 47.42 21.38 48.38 -6.26 8 3.52 19.18 1.74 20.5 -2.22 1.54 -2.18 2.58 -2.72 2 -2 -2.1 -6 -2.36 -4.5 -0.64a20.84 20.84 0 0 1 4 2.42c1.14 1.2 1.32 0.14 3.76 -2.12 0.68 -0.66 0.68 -0.6 2.18 2.56 3.24 7.08 5.72 9.6 4.74 10.26 -1.84 1.18 -1.54 1.52 -2.22 0.88 -3.72 -3.42 -5.08 -1.48 -3.76 -0.54a12.34 12.34 0 0 1 3.36 2.44c1.14 1.28 1.62 0 3.16 -1.38 1.1 -0.86 0.94 3.04 6.1 7.9Zm7.88 6.72c1.14 -0.32 2.52 -0.44 2.3 -1.32a0.8 0.8 0 0 0 -0.94 -0.7c-6.38 1.8 -3.3 3.22 -6 0.74 -0.82 -0.78 -0.52 -0.56 -3.38 -1.38a0.7808969202 0.7808969202 0 0 0 -0.26 1.54c2.3 0.9 2 0.38 3.46 2 0.72 0.74 1.02 1.8 2.14 1.04s1.44 -1.6 2.68 -1.92Zm-8.82 4c0.82 -1.68 -2.64 -1.28 -4.74 0.6 -1.44 1.28 -0.72 -0.94 -4.96 -1.84 -1.54 0 -1.1 1.32 0 1.66a6.56 6.56 0 0 1 3.58 2.48c1.16 1.04 1.7 -0.42 2.3 -0.94 1.86 -1.74 3.36 -0.88 3.76 -1.86Zm-10.98 -8.5c1.32 -0.48 2 -0.98 1.28 -2 -0.38 -0.44 -2 0.38 -2.6 0.68 -3.08 1.54 -2.78 2.82 -3.42 1.88s-2.14 -1.46 -3.68 -2c-1.74 1.04 -0.12 1.5 1.54 2.36a7.56 7.56 0 0 1 1.76 1.5c1.88 1.94 1.48 -1.02 5.12 -2.32ZM208.94 174a0.7839005039 0.7839005039 0 0 0 -0.78 -1.36c-4.74 1.28 -4.48 3.84 -5.46 2.94s-4.84 -2.64 -5.04 -1.24c0 0.38 0.24 0.86 1.18 1.12 3.52 0.94 4 4 5.44 1.88s2.5 -2.4 4.66 -3.34Zm-5.7 -18c2.64 -3.6 4 -2.18 3.38 -4 -0.42 -1.06 -2.98 0.82 -4.22 2.26 -0.56 0.64 -0.94 -0.8 -4.36 -1.66 -1.62 0 -0.68 1.32 -0.44 1.42 4.16 1.62 4.52 3.58 5.64 1.98Zm-2.68 -22c2.8 -2.88 2.74 -2.62 2.14 -3.6 -0.34 -0.56 -1.46 0.38 -1.88 0.78 -1.88 1.62 -0.14 1.32 -4.24 -0.22 -1.32 0 -1.24 0.98 -0.64 1.32 3.68 2.2 3.94 2.54 4.62 1.86Zm-2.82 8.16a0.82 0.82 0 0 0 -0.56 -1.54c-2 0.34 -3.12 3.12 -4 2.44 -2.36 -1.62 -1.72 -0.68 -3.12 -1.5 -0.42 -0.26 -2.3 0.72 -0.26 1.62 2.78 1.2 1.5 0.98 4.18 2.18 1.66 -0.96 2.02 -2.42 3.76 -3.06Zm-0.64 22c0.9 -0.5 0.76 -1.88 -0.14 -1.7a8.32 8.32 0 0 0 -4 2.94c-0.5 0.72 -1.36 -0.86 -4.82 -2 -0.52 0.3 -0.94 0.16 -0.56 1.28 0 0.34 0.48 0 4.84 2.82a1.14 1.14 0 0 0 1.58 -0.42s0 0 0 -0.14a6 6 0 0 1 3.1 -2.68ZM195.86 118c0.28 -1.62 -1.5 -0.9 -2.78 0.18s-1.2 1.82 -1.84 1.54c-1.46 -0.7 -4.32 -2.1 -4.58 -0.86 -0.12 0.56 0 0.86 0.74 1.06 4.32 1.42 4 3 5.34 1.24 2.52 -3.52 2.96 -2.24 3.12 -3.16Zm-4.2 69.48c1.24 -0.26 2.58 -0.72 1.72 -1.7 -0.6 -0.68 -2.22 0 -3.08 0.38 -3.04 1.32 -2.44 3.2 -3.68 2a6.48 6.48 0 0 0 -4.14 -1.2c-1.12 0.26 -0.72 1.34 0 1.5 2.14 0.48 2.56 0.44 3.2 1.16 3.12 3.24 2.32 -1.4 5.98 -2.16Zm-2.34 -12.28c0.56 -0.16 1.4 0 1.36 -0.98s-0.76 -0.86 -1.54 -0.72c-3.32 0.68 -3.58 3.36 -4.48 2.56s-4.58 -2.36 -4.78 -0.94c-0.14 0.9 0.94 1.06 1.84 1.28 2.12 0.56 2.56 2.3 4 1.88s0.62 -2.28 3.6 -3.08Zm1.1 -20.8c1.2 -0.7 0.64 -1.88 -0.58 -1.46 -3.04 1.06 -2.58 2.78 -3.84 2.26s-4.18 -1.8 -4.4 -0.68c-0.16 0.82 0.4 0.86 1.24 1.2 6.86 2.94 2.58 1.54 7.58 -1.32Zm-1.7 -20.7c1.12 -1.1 2 -1.4 1.62 -2.22s-1.06 -0.46 -1.66 0c-3.3 2.78 -1.2 2.78 -5.74 1.34 -0.42 0 -0.8 0 -0.94 0.46a0.82 0.82 0 0 0 0.52 0.94c5.18 2.3 3.16 2.52 6.2 -0.52Zm-4 -28.8c0 -2.48 -2.86 0.22 -3.38 -0.6a4.86 4.86 0 0 0 -1.32 -1.62 0.62 0.62 0 0 0 -0.94 0.6c0 0.42 0.9 1.62 1.32 2.6 0.86 2 1.54 0 3.5 -0.46a1.24 1.24 0 0 0 0.76 -0.52Zm-7.14 12.62c3 -1.62 4 -0.9 3.8 -2 0 -0.38 -0.38 -0.86 -1.32 -0.68 -2.48 0.42 -2.86 1.58 -3.24 0.76 -1.64 -3.36 -2.92 -2.3 -2.36 -1.18 1.36 2.66 1.78 3.78 3.06 3.1Zm-0.6 10.24a0.8 0.8 0 0 0 0.44 -1.02 0.78 0.78 0 0 0 -0.9 -0.46c-2.18 0.38 -2.22 1.1 -3.04 1.14 -0.42 0 -0.68 -1.4 -3.2 -2.48 -1.16 0 -0.22 1.64 0.5 2.14 2.24 1.5 1.64 3.2 3.42 2.1 3.32 -2.1 0.98 -0.66 2.72 -1.42Zm-4 12.92c0.76 -0.14 2.9 -0.22 2 -1.54 -0.6 -0.94 -4 0.26 -4.88 0.76s-0.42 -0.12 -2.82 -2.34c-1.1 -1.08 -2 -0.4 -2 0 0 1.3 2.44 1.54 3.28 4.28a0.82 0.82 0 0 0 0.86 0.56c1.22 -0.62 1.14 -1.32 3.54 -1.72Z" fill="#fff59e" stroke-width="1"></path><path d="M244.14 60.24c0.1 1.34 0.1 1.16 0.18 1.2 -1.28 6.8 -2.4 4.88 -6 7.78s-3.28 -4.96 -5.84 1.66c-0.22 0.56 -1.58 -0.68 -1.04 -3.02a2.68 2.68 0 0 0 -0.94 -2.66c-2.48 -1.62 -3.02 -0.38 -3.72 -1.44 -1.78 -2.78 -4 -1.34 -4.74 -2.7a4 4 0 0 0 -2.38 -1.62 3.1 3.1 0 0 0 -2 0.3c-1.58 0.46 -1.62 -1.34 -4.26 -0.98 -2.22 0.3 -2.82 -2 -4.8 -0.22 -0.68 0.6 -0.98 0.38 -2 0.12s-1.66 0 -0.6 -3.66c0.82 -2.74 2.18 -5.52 5.08 -4.28 0.56 0.22 1.16 -0.3 0.52 -1.02s-2.34 -0.6 -2.6 -0.94a11.54 11.54 0 0 1 0.72 -5.82c0.38 -1.02 2.14 -2.9 3.5 -0.72 0.1 0.16 0.22 1.02 0.98 1.02 0.14 0 0.56 -0.48 0.4 -1.28a2.98 2.98 0 0 0 -3.68 -2.18c-0.3 0 -0.18 -0.34 0.26 -1.32s0.42 -1.36 0.8 -1.16c2.28 1.12 4 -1.16 4.5 -1.12a7.16 7.16 0 0 0 3.72 1.8 3.18 3.18 0 0 0 3.24 -1.78 0.34 0.34 0 0 1 0.46 -0.22c1.5 0.26 1.84 -0.22 2.18 0a4.1 4.1 0 0 0 4.5 2.22s0.6 -0.3 0.68 0c0.42 1.76 1.7 2.14 3.3 2.56 2 0.52 -0.78 1.16 2 4.4 0.76 0.9 0.34 0.52 0 1.08 -3.46 4.44 0.34 4.74 -0.7 5.76 -3.12 3.04 -0.76 4 -2 5.6 -2.74 3.2 2 5.04 2.86 3.6 2.52 -4.74 7.28 -3.38 7.42 -0.96Z" fill="#e5b39e" stroke-width="1"></path><path d="M243.58 212.6c0.64 -0.28 1.16 -0.18 1.24 0.6 -0.12 2.56 -3.8 0.48 -1.24 -0.6Z" fill="#fff59e" stroke-width="1"></path><path d="M243.38 219.52c-0.3 11.66 -6 18.62 -9.78 26.8 0 0 0.42 -1.14 -3.34 8.12 -0.9 2.18 -2 4.6 -2.7 6.32a57.7 57.7 0 0 1 -5.38 10.56c-6 8.88 -8.98 6.18 -11.76 13.32 -1.7 4.4 3.34 3 -1.74 10.56 -1.16 1.7 -3.6 2.64 -5.82 5.34 -0.86 1.02 -0.56 1.76 -0.3 3 0.74 3.24 -2 5.16 -4 7.72a48.6 48.6 0 0 0 -3.6 7.22c-1.62 3.78 -3.04 4.76 -4.74 8.18 0 0 -6.2 13.02 -6.24 13.06 -1.28 3.12 -3.76 6.5 -4.48 8.3 -1.24 3.04 -1.34 3.38 -1.88 2.52 -1.5 -2.4 -6 -8 -8.56 -9.18s-1.88 -3.3 -6.4 -5.6c-3.38 -1.72 -6.54 -6.2 -10.26 -8.8 -6.74 -4.72 -4 4.2 9.22 -23.82 4 -8.36 6.72 -12.46 7.78 -16.48 0.3 -1.08 1.42 -5.86 1.42 -6 2.56 -7.26 5.34 -8 7.74 -12.56 1.28 -2.44 9.3 -18.26 10.72 -21.08 6.58 -13.4 5 -11 5.76 -14a85.22 85.22 0 0 0 3.12 -11.02 6.6 6.6 0 0 0 2.56 0c0.7 -0.3 0.22 -1.02 -0.16 -1.1 -3.38 -0.38 -4 0.12 -6.2 -0.34a4.92 4.92 0 0 0 -3.58 0.94c-0.78 0.86 -0.18 1.36 0.68 0.94 1.32 -0.68 1.7 -0.9 3.02 0 2.18 1.32 1.72 4 0.6 7.04 -2.14 6 -1.44 5.38 -2 6.96 -1.76 4.58 -2 3.82 -3.86 8.52 -0.3 0.9 -1.12 3.08 -1.4 2.18 -1.38 -4 -4.52 -8.52 -5.52 -16.46 -0.26 -2.74 -1.88 -7.66 -2.48 -11.66 -0.68 -4.58 -0.46 -20.4 -0.46 -20.44 0 -0.42 0.2 -0.46 0.5 -0.46 3.42 -0.18 4.46 -0.48 6.38 0.2 1.4 0.52 1.74 -0.38 3.68 0.18s4.26 0.76 5.16 -1.32c0.6 -1.34 0.38 -0.44 4.32 -0.44 1.24 0 1.46 0.64 2.26 2.66s1.62 2.14 8.12 4.14c12 3.78 12.58 1.52 9.84 3.34a29.02 29.02 0 0 1 -5.06 2c-2.42 0.94 -1.24 4.48 4.36 3.5 4.92 -0.86 4.32 -2.34 5.26 -1.06 12.42 17.14 17 14.16 14.96 12.68 -0.6 -0.42 -1.54 0.3 -0.56 -1.62 3.76 -7.1 0.68 -7.14 4.58 -6.24 0.6 0.28 0.3 -0.14 0.22 3.38ZM222.56 214c4.72 9.7 11.76 17.36 12 14.66 -0.9 -2.56 -1.04 2 -10.9 -14.88 -0.8 -1.48 -1.44 -0.5 -1.1 0.22Zm-22.44 4.92c1.24 0.2 -0.54 -10.18 0 -15.26 0.18 -2 0.82 -5.6 -0.56 -4.32a53.44 53.44 0 0 0 -0.72 8.38 12.64 12.64 0 0 1 0.38 4.82c-0.16 0.78 -0.12 6.16 0.9 6.34Zm-4.74 0.3c1.24 -0.64 -1.7 -6.58 -1.28 -9.8 0 0 0 -8.24 -0.72 -8.32 -1.38 -0.14 0 6 -0.3 7.04 -0.56 1.86 1.02 11.68 2.3 11.04Z" fill="#ff9c9f" stroke-width="1"></path><path d="M242 207.12c1.38 0 1.46 2.18 -0.12 2.22s-1.5 -2.12 0.12 -2.22Z" fill="#ffccce" stroke-width="1"></path><path d="M240 210.38c0.42 0 0.94 0.72 0.94 1.28a1.22 1.22 0 0 1 -0.9 1.06c-0.42 0 -1.06 -0.76 -1.06 -1.28a1.24 1.24 0 0 1 1.02 -1.06Z" fill="#d3ffb0" stroke-width="1"></path><path d="M239.24 214.38c1.24 0.94 -2.44 8 -2.48 8.12 -0.34 0.74 -3.08 -1.28 -6.88 -5.76 -1.5 -1.76 -3.22 -4 -5 -6.42s-1.08 0 -7.18 0.7c-0.48 0 -3.12 0 -3.08 -0.6 0 -1.2 2.82 -0.98 5.26 -2.44s2.64 -0.82 3.36 -1.42a13.22 13.22 0 0 1 7.52 -2.64 1.4 1.4 0 0 1 0.56 0 1.3 1.3 0 0 1 1.04 0.5 6 6 0 0 1 0.64 0.94c2 3.52 4.44 4.28 4 5.18 -0.42 1.46 1 2.86 2.24 3.84Z" fill="#e5b39e" stroke-width="1"></path><path d="M230 68c-0.76 3.72 2.14 3.38 0.98 6.38 -1.8 4.66 -2.18 5.3 -3.72 5.64 -2 0.46 -0.94 3.62 -4.32 2.86 -0.72 -0.18 -2.18 -0.52 -2.42 0 -0.52 0.9 -1.64 0.8 -2.24 1.54 -5.3 -0.22 -4.18 -2.82 -6.78 -1.68 -3.86 1.76 -2.96 -2.64 -5.86 -2.26 -0.48 0 -1.42 0.52 -2 -0.16a2.58 2.58 0 0 1 -0.4 -2.62c1.54 -2.14 -0.76 -2.9 0 -4.4s1.3 -2 0.44 -3.2c-2.14 -2.82 1.4 -3.2 0 -6.12 -0.78 -1.62 -0.44 -4 1.84 -4.14 2.3 0.38 2.3 0.64 3.16 0 0.56 -0.34 1.02 -0.98 2 -0.5a3.6 3.6 0 0 0 2.34 0.72c2.88 -0.38 2 1.32 4.76 1.02 0.46 0 2.12 -0.88 3.16 0.74 0.46 0.72 0.68 1.32 1.74 1.24 3.22 -0.3 2.88 2.68 5.26 2.6A2 2 0 0 1 230 68Zm-17.3 -2.76c0.46 -0.14 1.52 -0.22 1.32 -0.9 0 -0.34 -0.38 -0.4 -0.68 -0.4 -3.38 0.34 -5.4 -3.62 -7.06 2.18 -0.64 2.18 1.66 1.68 4 4.4a1.02 1.02 0 0 0 0.86 0.14c1.28 -0.82 -3.56 -3.16 -3.04 -3.76 2.28 -2.64 -1.26 -3.2 4.56 -1.6Z" fill="#897466" stroke-width="1"></path><path d="M228.42 81.18c0.56 1.88 -4.98 7.34 -0.3 10.18 0.3 0.16 0.34 0.34 0 0.56 -5.42 4.52 -10 4.18 -10 4.14 -5.08 0 -2.6 2 -4.74 8 -0.8 2.3 -0.76 2 -1.32 2.76 -0.38 -0.24 -0.26 -0.52 -0.26 -0.98 -0.34 -3.58 -1.5 -3.16 -0.94 -5.64s1.28 -4.82 -0.5 -5.8c-2.48 -1.34 -2 -2.44 -3.52 -4.5 -0.38 -0.56 0.14 -0.5 1.08 -0.8s1.5 -1.08 2.34 -3.82c0.26 -0.8 0.68 -0.64 1.16 -0.94a1.5 1.5 0 0 1 2.14 0.3 4.44 4.44 0 0 0 2.52 1c2.78 0.68 2.74 -0.18 5.3 -1.54 0.64 -0.34 3.68 1.62 5.42 -1.64 0.98 -1.44 0.16 -0.46 1.62 -1.28Z" fill="#e5b39e" stroke-width="1"></path><path d="M224.74 158.24c2 0.26 2 0.64 1.84 2a1.48 1.48 0 0 1 0 0.36c-0.18 0.88 -0.22 0.88 -1.12 0.84 -1.7 0 -2 0 -1.84 -1.7 -0.08 -1.24 -0.04 -1.74 1.12 -1.5Z" fill="#ffffff" stroke-width="1"></path><path d="M218.12 141.28c4 10.88 9.48 16.44 8 16.14 -1.88 -0.34 -2 0.1 -3 -1.62 -6.88 -12.94 -6.88 -13.24 -6.12 -16.24 0.26 -1.02 1.46 -1.54 1.64 -1.32s-1.12 1.36 -0.52 3.04Z" fill="#ffffff" stroke-width="1"></path><path d="M225.38 162.94a20.6 20.6 0 0 1 0.3 4.92c-0.16 2 0.86 2.9 -0.76 2.98 -2.52 0.14 -1.68 -1.06 -1.32 -3.46a28.3 28.3 0 0 1 0.76 -4.58 0.58 0.58 0 0 1 0.64 -0.38 0.56 0.56 0 0 1 0.38 0.52Zm-0.3 6.36a0.68 0.68 0 1 0 -1.36 0c-0.04 0.7 1.36 1.32 1.36 0Z" fill="#ffffff" stroke-width="1"></path><path d="M215.12 138.1c0.52 0.82 -0.24 0.78 -2 2.36 -0.94 0.86 -0.22 1.28 -4.18 -6.12 -2.62 -4.82 -14.5 -27.12 -17.4 -38a15.44 15.44 0 0 1 -0.64 -4c0 -2 1.12 -2.14 2.66 -2.66 0.34 1.2 -2.74 0.84 8.84 26.12 0.9 2 2 2.94 6.62 12.22 0.98 2.22 5.2 8.64 6.1 10.08Z" fill="#d3ffcf" stroke-width="1"></path><path d="M279.06 151.62c-3.84 -12.28 -3.84 -13 -4.28 -13.56l-0.26 -0.72c-2.9 -7.3 -3.36 -6.96 -4 -8.58 -2.7 -8.12 -3.68 -11.76 -4.48 -13.52 -2.36 -5.2 -5.3 -7.08 -6.84 -12 -1.8 -5.72 -7.62 -3.84 -8.46 -4s-0.48 -0.68 -0.14 -0.9c0.94 -0.52 3.76 -0.26 0 -1.62 -11.74 -4.44 -6.24 -3.04 -12.78 -6.32a0.24 0.24 0 0 0 -0.2 -0.1c-0.9 0 1.58 4.96 -0.9 7.66 -1.58 1.74 -1.84 1.44 -5.64 3.46 -1.42 0.76 -2 2 -4 3.2 -4 2.26 -7.86 6.46 -8.66 2.66 -0.36 -1.58 0.28 -2.18 -0.14 -3.56a4.78 4.78 0 0 1 0 -2.38c0 -0.34 0.34 -0.82 0 -1.08s-0.66 0.3 -1 0.48a0.6 0.6 0 0 1 -0.66 -0.96c0.7 -0.98 3.44 -1.6 2.98 1.76 -0.3 2.18 0.56 2.82 0.12 4.5 -0.12 0.34 0 2 0.78 1.4 1.48 -0.98 4.14 -2.94 5 -3.38a12.92 12.92 0 0 0 4.26 -3.28c3.38 -1.84 4.2 -1.8 5.3 -2.82a5.38 5.38 0 0 0 1.46 -5.6c-1.88 -5.66 2.22 -5.04 -6.12 -9.36 -1.34 -0.72 -1.64 1.02 -0.76 1.54 1.8 0.86 3.42 1.1 2.94 3.38a6 6 0 0 1 -1.5 3.2c-2.12 1.58 -4 4.7 -10.38 6.2 -3.54 0.86 -4.52 -0.9 -4.82 1.5 -1.04 9.22 -4.18 9.66 -3.68 11.82 0.18 0.78 0 1.88 -0.6 1.46 -0.98 -0.68 -0.34 -3.24 -0.46 -3.5a12.94 12.94 0 0 1 -0.52 -2.7c-0.88 -4 -1.24 -3.16 -1.1 -4.26 0 -0.22 0.68 -4.72 0.72 -4.92 0.16 -1.5 -2.64 -1.32 -3.34 -4.24 -0.54 -2.3 -3.88 -2.6 -2.6 -6.4 1.1 -3 3.08 -2.44 2.48 -3.34 -1.54 -2.3 -7.7 0.86 -7.78 6.28 0 2.1 1.4 3.3 1.14 6.12 -0.16 2 1.16 2.9 1.38 4.36a6.96 6.96 0 0 0 2 3.72 26.2 26.2 0 0 1 2 -6.34c0.8 -1.8 3.36 -1 3.54 0.82 0.12 1.2 -0.94 1.42 -1.02 0.68s-0.52 -1.16 -1.04 -1.2 -2.26 5.82 -2.38 6.34c-0.3 1.28 -0.78 2.12 -1.68 1.18 -3.12 -3.24 -2.12 -4.56 -3.24 -6.36 -1.36 -2.3 -0.3 -3.08 -1.1 -6 -0.7 -2.46 -0.68 -3.12 -1.2 -2.88 -3.6 1.58 -3.6 0.18 -0.64 9.88 2.3 7.66 8.96 19.78 14.44 30.3 0.16 0.3 4.18 5.56 5.26 7.7s3.88 -5.18 12.72 4a58.48 58.48 0 0 1 6.12 7.74 97.4 97.4 0 0 1 6.54 8.5c9 13.48 2.62 5.44 7.82 -4 0.6 -1.08 0 -1.38 -0.72 -4.5 -0.48 -2.36 -1.42 -2.54 -1.84 -3.68a59.66 59.66 0 0 0 -3.86 -9.4 14.52 14.52 0 0 1 -2 -6.54c-1.06 -9.26 -3.76 -6.92 -2 -20.84 0.16 -1.16 1.12 -1.04 1.06 0.16 -0.12 2.86 -1.4 8.56 0.94 14.36 1.68 4.1 0.48 3.38 2 10.14 0.34 1.32 1.8 3.36 2.86 5.76s1.5 5.78 3.08 7.26c0.38 0.34 0.22 0.14 0.72 2 0.34 1.28 1.08 3.58 2.48 7.68 1.76 5.36 -0.4 6.44 25.78 -3.16a2.36 2.36 0 0 0 0.5 -0.38 0.54 0.54 0 0 0 0.4 -0.82Zm-70.9 -42.82c-1.7 1.7 -2.14 2.56 -3.24 1.66s-1.72 -1.2 -1.88 -1.62 0 -1.02 0.8 -0.98c3.12 1.18 0.74 1.06 3.52 -0.34 0.84 -0.44 1.58 0.48 0.8 1.28Zm48.8 5.84c3.52 0.48 3.12 0.6 3.6 0 2.44 -3.46 2.82 -0.76 2.34 -0.26 -1.62 1.8 -1.54 3.72 -2.68 2.92s-2.74 -0.7 -3.6 -1.12 -0.98 -1.54 0.34 -1.54Zm2.92 8.82c-1.84 0.98 -1.8 3.54 -3.04 3.62 -2.32 -0.9 0.16 -0.3 -3.2 -1.28 -0.34 0 -1.72 -0.26 -1.46 -1.2 0.42 -1.5 4 0.9 4.52 0 2.58 -4.6 4.42 -1.82 3.18 -1.14Zm-6 -18c0.52 -0.64 1.42 -0.98 1.8 -0.34s0 0.94 -1.66 2.96c-1.2 1.36 -0.86 3.54 -2.78 2.52a15.24 15.24 0 0 0 -4.66 -1.34c-0.6 0 -1.36 -1.14 0.6 -1.62 5.72 1.24 3.42 2.18 6.66 -2.1Zm-42.42 15.18c-2.7 -0.86 -0.52 -3.38 3.12 -0.26 1.7 1.46 0.12 -0.94 4.52 -2.26a0.8263776376 0.8263776376 0 0 1 0.6 1.54 5.42 5.42 0 0 0 -3.08 2.68c-0.9 2.3 -2.08 -0.64 -5.2 -1.62Zm11.28 9.78c-1.32 0.94 -0.82 0.68 -2.18 1.54 -5.1 -1.24 -6 -5.12 -0.78 -2.14 1.04 0.6 3.46 -2.82 4.28 -1.02 0.34 0.84 -0.6 1.2 -1.36 1.7Zm1.66 -21.58c0.56 -0.94 2.94 0.34 3 0.34 1.36 0.44 1.32 0.52 2.22 -0.64 3.02 -4 4 -1.08 3.12 -0.6 -2.44 1.18 -2.22 3.64 -3.82 3.42 -1.28 -0.22 -5.2 -1.36 -4.56 -2.44Zm3.24 10c3.34 1.76 1.24 2.44 4.2 0.3 1.88 -1.36 2.42 0.5 1.5 1.08 -2.88 1.72 -2.48 3.2 -4 1.88 -0.58 -0.36 -4.64 -3.18 -1.74 -3.14Zm5.34 14.14c-1.52 -2 -3.24 -2 -2.72 -3.02s2.14 0.2 2.94 0.9c1.24 1.06 0.9 -0.82 3.72 -1.68 0.9 -0.26 1.62 -0.2 1.62 0.74s-1.24 0.3 -2.94 2c-0.64 0.8 -1.6 2.64 -2.66 1.18ZM244.7 152c2.3 -1.66 3.16 -1.06 3.08 -0.86 -0.26 0.52 0.86 0.52 -1.28 1.54s-0.52 1.62 -2 2a2 2 0 0 1 -1.16 -0.98c-0.84 -1.5 -1.28 -1.24 -2 -2.24 -0.34 -0.5 0.3 -1.06 0.78 -0.92 1.64 0.6 1.72 2.14 2.58 1.46Zm-2.7 -10.68a0.72 0.72 0 0 1 0.54 1.32c-1.48 0.9 -1.06 0.18 -2.56 1.46 -3.16 2.94 -1.28 -0.48 -5.34 -1.54 -0.34 0 -1.02 -1.38 0.52 -1.46a4.8 4.8 0 0 1 3.12 1.76c0.6 0.72 0.3 -0.74 3.72 -1.54Zm-3.22 -16.16a0.5 0.5 0 0 1 -0.84 0.42 7.16 7.16 0 0 1 -1.08 -3.12c-1.62 -5.3 -2.22 -5.72 -2.56 -9.4 -0.38 -4.26 0.76 -4.26 0.86 -3.58a40.62 40.62 0 0 0 0.94 6.8 46.8 46.8 0 0 1 2.22 7.04c0.1 0.22 0.52 1.8 0.52 1.84Zm4 -22.22c-2.22 -0.82 -2.78 -1.24 -4 -1.16 -0.64 0 -1.18 -0.12 -1.28 -0.76s0.86 -0.78 1.8 -0.94c4.48 1.2 2.78 1.58 4.92 -1.32 0.94 -1.24 2.34 -1.2 2.48 -0.4 0.26 1.46 -0.48 -0.22 -2.52 3.64 -0.08 0.34 -0.18 1.4 -1.36 0.94Zm1.46 17.18c-0.74 -0.14 -1.42 -1.08 0.12 -1.54 3.3 0.42 3.46 0.6 4 -0.26s2.48 -2.6 3.06 -1.54 -0.16 0.98 -0.58 1.38c-2 1.74 -1.54 4.26 -3.38 2.64a12.14 12.14 0 0 0 -3.18 -0.68Zm9.1 16.8c-0.44 2 -1.72 0.72 -4 -0.18a11.1 11.1 0 0 0 -1.7 -0.46 0.72 0.72 0 0 1 0 -1.34 6.6 6.6 0 0 1 3.54 0.74c1.24 0.46 0.9 -1.84 3.6 -2.74 0.6 -0.18 1.14 0.8 0.3 1.54a4 4 0 0 0 -1.7 2.44Zm9.18 13.54c-2.42 1.84 -2.18 4.32 -3.54 3.54a21.54 21.54 0 0 0 -4.54 -1.4 0.7 0.7 0 0 1 0.14 -1.38c1.66 -0.26 2.72 0.72 4.24 0.88 0.84 0 0 -0.86 2.3 -2.54 1.88 -1.28 2 0.44 1.44 0.9Zm3.2 -11.24c-0.12 0.3 -0.24 0.72 -0.5 0.86 -1.54 0.72 -1.58 2.48 -3.16 3.72 -1.16 -0.34 -1.76 -1.16 -4 -1.88 -0.9 -0.3 -0.72 -1.84 0.64 -1.42 3 0.94 2.64 1.66 3.42 0.56 1.8 -2.52 0.98 -2 3.28 -2.26 0.16 -0.06 0.42 0.3 0.36 0.42Zm0.9 -6.58c-0.9 1.58 -2.14 -0.68 -3.76 -0.82s-1.62 0 -1.7 -0.76c0 -1.16 2.26 -0.94 3.28 -0.48s0.98 0.86 1.42 0.18c0.9 -1.5 3.12 -2.56 3.12 -0.86 -0.78 1.02 -1.5 1.02 -2.32 2.74Zm8.64 13.04c-2 1.72 -1.62 3.88 -3.3 2.98 -1.06 -0.6 -2 -0.26 -3.76 -1.28 -0.34 -0.22 -0.6 -1.02 0.78 -1.02 4.56 0.66 2.7 0.82 4.56 -1.28a1.56 1.56 0 0 1 1.08 -0.6 0.689637586 0.689637586 0 0 1 0.68 1.2Z" fill="#fff59e" stroke-width="1"></path><path d="M177.86 210.72a1.3 1.3 0 0 1 0 0.38c-3.08 -1.8 -3.72 -6.5 -5.08 -9.88 -4.8 -12 -7.14 -15.76 -10.22 -24.3 -2.16 -6 -3.56 -12 -5.72 -16.94s0.46 -10.58 1.14 -12.76c0.4 -1.24 2 1.62 10 4.18s8.54 2.22 9.18 3.04c-1.1 6 -2.16 26.42 -3 31.84 -0.16 1.18 -0.8 2 -0.94 3.2a16.3 16.3 0 0 1 -1.02 5.46 1.36 1.36 0 0 0 0.64 1.54c6.34 4.5 4.76 -4.7 5.02 14.24Z" fill="#e5b39e" stroke-width="1"></path><path d="M173.12 347.08a32.2 32.2 0 0 1 -3.2 4.7c-4.2 -4.36 -4.24 -3.88 -4.5 -4.14 -8.62 -9.16 -10.46 -1.58 -5.12 -11.08 0.18 -0.3 0.34 -0.42 0.68 -0.24 5.74 3.1 4 3.88 7.62 6.36a14.84 14.84 0 0 1 4.52 4.4Z" fill="#d6ad9e" stroke-width="1"></path><path d="M162.52 368.4c0.46 2 -2 2 -2.82 2.74a12.26 12.26 0 0 0 -8.58 1.54c-7.58 4.66 -1.8 3.12 -8.72 -3.16a34.22 34.22 0 0 0 -3.42 -1.72 18.76 18.76 0 0 0 -3.64 -0.76c-5.42 -0.76 -3.28 0.46 -7.48 -4.14 -0.46 -0.56 -0.98 -1.04 -0.98 -1.46a36.44 36.44 0 0 0 -0.8 -5.68 4 4 0 0 1 1.58 0.34 9.7 9.7 0 0 1 2 5.46c0 3.38 2.96 2.18 4.4 3.16a2.42 2.42 0 0 0 2.36 0.22 3.56 3.56 0 0 0 2.26 0.52c3.38 -0.74 2.18 -4.62 1.66 -6.58a5.4 5.4 0 0 1 -0.16 -0.78c-0.14 -0.94 0 -0.86 0.9 -1.02a4.56 4.56 0 0 0 2.48 -1.5c1.18 -1.28 0.5 -3.04 2.94 -2.34a7.58 7.58 0 0 1 4.62 3.06 5 5 0 0 1 -1.58 6.88 17.08 17.08 0 0 1 -4.84 1.38c-0.76 0.3 -0.3 1.36 0.82 1.24 4.44 -0.64 4 -2 4.7 -0.72 2.44 5.08 7.48 2.26 9.82 3.1 0.48 0.18 1.24 -0.28 1.04 -0.76 -1.08 -2.1 1.18 -0.16 1.44 0.98Z" fill="#c5cdf3" stroke-width="1"></path><path d="M157.6 372.34c1.34 0.12 1.46 0 1.24 0.94 -0.54 2.68 -5.84 9.56 -5.88 9.62 -0.4 0.42 -0.3 0 -3.64 -2.88 -2.56 -2.22 -3.2 -2.22 -2.52 -2.78 6.58 -5.24 8.76 -4.74 10.8 -4.9Z" fill="#ffccce" stroke-width="1"></path><path d="M144.54 374.34c0.5 0.86 0.98 2.9 0 2.14 -0.52 -0.38 -12.92 -7.86 -11.12 -8.5 5.3 1.06 7.94 1.06 11.12 6.36Z" fill="#ffccce" stroke-width="1"></path><path d="M125.34 359.18c0.22 0.98 0.18 0.68 0.14 1.02 -0.52 -0.34 -6.5 -6.24 -10.14 -7.78 -1.24 -0.52 0.68 -0.82 1.38 -0.64 5.6 1.2 8.42 2.06 8.62 7.4Z" fill="#ffccce" stroke-width="1"></path><path d="M274.48 144.44a0.72 0.72 0 0 1 0.7 1.24c-2 1.7 -1.6 3.88 -3.34 2.9 -1.02 -0.6 -2 -0.26 -3.76 -1.28 -0.34 -0.22 -0.6 -1.02 0.76 -1.02 3.26 0.46 3.3 0.68 3.64 0s0.6 -0.86 0.94 -1.3a2 2 0 0 1 1.06 -0.54Z" fill="#000001" stroke-width="1"></path><path d="M265.72 130.76c0.88 -1.5 3.16 -2.56 3.12 -0.86 -0.76 0.98 -1.48 1.02 -2.38 2.7s-2.14 -0.68 -3.76 -0.82 -1.64 0 -1.72 -0.76c0 -1.16 2.22 -0.94 3.3 -0.48s1.06 0.9 1.44 0.22Z" fill="#000001" stroke-width="1"></path><path d="M265.34 138.76s0.34 0.34 0.3 0.42 -0.26 0.76 -0.52 0.86c-1.54 0.68 -1.58 2.48 -3.16 3.7 -1.14 -0.38 -1.74 -1.14 -4 -1.88 -0.9 -0.28 -0.74 -1.82 0.64 -1.4 3.02 0.9 2.64 1.66 3.42 0.56 1.78 -2.52 1.02 -1.98 3.32 -2.26Z" fill="#000001" stroke-width="1"></path><path d="M260.42 114.6c2.42 -3.46 2.82 -0.8 2.36 -0.26 -1.62 1.76 -1.54 3.72 -2.7 2.92s-2.78 -0.68 -3.58 -1.12 -0.98 -1.44 0.34 -1.44c3.54 0.46 3.16 0.58 3.58 -0.1Z" fill="#000001" stroke-width="1"></path><path d="M261.02 149.56c1.84 -1.3 2 0.48 1.42 0.9 -2.44 1.84 -2.18 4.32 -3.6 3.54a20.78 20.78 0 0 0 -4.52 -1.4c-0.64 -0.22 -0.86 -1.28 0.12 -1.38 1.74 -0.26 2.78 0.74 4.28 0.88 0.84 0.06 -0.06 -0.88 2.3 -2.54Z" fill="#000001" stroke-width="1"></path><path d="M256.62 124.48c2.58 -4.58 4.4 -1.72 3.16 -1.08 -1.84 1 -1.78 3.56 -3.02 3.64 -2.28 -0.9 0.2 -0.3 -3.22 -1.28 -0.34 0 -1.7 -0.26 -1.44 -1.2 0.42 -1.46 3.9 0.9 4.52 -0.08Z" fill="#000001" stroke-width="1"></path><path d="M255.52 105.2c0.34 0.6 0 0.94 -1.68 2.96 -1.2 1.36 -0.84 3.58 -2.78 2.48a13.82 13.82 0 0 0 -4.64 -1.34c-0.6 0 -1.38 -1.14 0.58 -1.62 5.78 1.2 3.46 2 6.72 -2.18 0.52 -0.6 1.46 -0.98 1.8 -0.3Z" fill="#000001" stroke-width="1"></path><path d="M254.74 132.94c0.56 -0.2 1.16 0.82 0.3 1.54a4 4 0 0 0 -1.8 2.38c-0.46 2 -1.7 0.74 -4 -0.16 -0.48 -0.18 -0.9 -0.18 -1.72 -0.48a0.7 0.7 0 0 1 0 -1.32 6.48 6.48 0 0 1 3.56 0.74c1.32 0.54 0.92 -1.64 3.66 -2.7Z" fill="#000001" stroke-width="1"></path><path d="M251.28 116.78c0.44 0.78 -0.16 1.04 -0.6 1.38 -2 1.7 -1.54 4.26 -3.38 2.68a10.58 10.58 0 0 0 -3.16 -0.68c-0.72 -0.12 -1.4 -1.06 0.14 -1.54 3.28 0.42 3.46 0.6 4 -0.26s2.4 -2.64 3 -1.58Z" fill="#000001" stroke-width="1"></path><path d="M244.58 152a6.44 6.44 0 0 1 2 -1.08c1.16 -0.26 1.78 0.76 -0.32 1.8s-0.5 1.64 -2 2a2.42 2.42 0 0 1 -1.16 -0.98c-0.86 -1.5 -1.24 -1.24 -2 -2.22 -0.34 -0.52 0.3 -1.12 0.76 -0.94 1.78 0.52 1.86 2.06 2.72 1.42Z" fill="#000001" stroke-width="1"></path><path d="M246.66 98.36c0.26 1.46 -0.42 -0.12 -2.52 3.64 -0.16 0.3 -0.26 1.36 -1.4 0.94 -2.26 -0.86 -2.78 -1.24 -4 -1.16 -0.68 0 -1.24 0 -1.28 -0.76s0.9 -0.82 1.8 -0.94c4.48 1.2 2.78 1.58 4.92 -1.32 1 -1.3 2.36 -1.2 2.48 -0.4Z" fill="#000001" stroke-width="1"></path><path d="M241.88 141.36a0.72 0.72 0 0 1 0.56 1.32c-1.46 0.9 -1.08 0.18 -2.52 1.5 -3.22 2.9 -1.28 -0.48 -5.34 -1.54 -0.4 0 -1.08 -1.36 0.5 -1.46a5.32 5.32 0 0 1 3.12 1.76c0.52 0.68 0.26 -0.82 3.68 -1.58Z" fill="#000001" stroke-width="1"></path><path d="M240 60.2c3.64 -1.24 3.08 4 1.7 2.32 0 -0.1 0 -1.58 -1.24 -1.04s-1.78 1.16 -1.24 2.14c1.08 1.88 -0.2 3.5 -1.48 3.26a0.68 0.68 0 0 1 -0.22 -1.34c0.46 -0.24 1.12 -0.34 0.56 -1.06 -1.12 -1.36 -0.38 -3.5 1.92 -4.28Z" fill="#000001" stroke-width="1"></path><path d="M236.76 129.3c0.88 -0.26 1.62 -0.2 1.62 0.74s-1.2 0.24 -2.96 2.12c-0.6 0.64 -1.48 2.48 -2.6 1.04 -1.54 -2 -3.24 -2 -2.74 -3.04s2.14 0.18 2.96 0.9c1.24 0.94 0.84 -0.9 3.72 -1.76Z" fill="#000001" stroke-width="1"></path><path d="M238.72 125.16a0.52 0.52 0 0 1 -0.86 0.42 7.3 7.3 0 0 1 -1.06 -3.16c-1.62 -5.3 -2.22 -5.72 -2.56 -9.4 -0.4 -4.26 0.76 -4.26 0.84 -3.58a37.7 37.7 0 0 0 0.94 6.78 43.4 43.4 0 0 1 2.22 7.06c0.06 0.26 0.48 1.84 0.48 1.88Z" fill="#000001" stroke-width="1"></path><path d="M237.22 192c0.22 0.88 -1.2 1.06 -2.3 1.32s-1.68 1.06 -2.7 1.84 -1.36 -0.26 -2.14 -1.04c-1.54 -1.54 -1.14 -1.02 -3.46 -2a0.7808969202 0.7808969202 0 0 1 0.26 -1.54c2.9 0.82 2.56 0.6 3.38 1.38 2.64 2.42 -0.44 1.06 6 -0.74a0.8 0.8 0 0 1 0.98 0.6 0.24 0.24 0 0 0 -0.02 0.18Z" fill="#000001" stroke-width="1"></path><path d="M234.62 228.62c-0.34 2.64 -7.44 -4.92 -12 -14.66 -0.34 -0.68 0.3 -1.66 1.2 -0.16 9.78 16.92 9.9 12.2 10.8 14.82Z" fill="#000001" stroke-width="1"></path><path d="M231.66 119.26c1.88 -1.36 2.44 0.52 1.5 1.08 -2.86 1.74 -2.48 3.2 -4 1.88 -0.5 -0.48 -4.56 -3.3 -1.66 -3.26 3.32 1.76 1.22 2.44 4.16 0.3Z" fill="#000001" stroke-width="1"></path><path d="M229.48 108.62c3 -3.88 4.12 -1.06 3.12 -0.6 -2.48 1.2 -2.22 3.64 -3.76 3.46s-5.16 -1.4 -4.52 -2.52 2.94 0.3 2.98 0.34c1.28 0.4 1.3 0.48 2.18 -0.68Z" fill="#000001" stroke-width="1"></path><path d="M226.12 41.82c3.54 -0.3 5.54 5.48 3.7 5.48 -0.84 0 -0.28 -0.82 -1.66 -2.9 -1.06 -1.68 -3.58 -1.12 -4.66 -0.34s-1.24 1.62 -1.88 1.28c-1.62 -0.9 2.22 -3.82 4.5 -3.52Z" fill="#000001" stroke-width="1"></path><path d="M227.44 56a0.62 0.62 0 0 0 -0.52 0.76 0.6 0.6 0 0 0 1.16 0 0.58 0.58 0 0 0 -0.64 -0.76Z" fill="#000001" stroke-width="1"></path><path d="M222.94 51.02c5.26 0.72 4.72 5 3.22 3.58a5.84 5.84 0 0 0 -6 -1.78c-0.72 -0.22 -1.28 -1.12 2.78 -1.8Z" fill="#000001" stroke-width="1"></path><path d="M221.32 198c2 -1.84 5.56 -2.22 4.74 -0.6 -0.5 1.02 -2 0.16 -3.8 1.88 -0.56 0.56 -1.14 2 -2.3 0.94a6.56 6.56 0 0 0 -3.6 -2.48c-1.14 -0.34 -1.58 -1.54 0 -1.66 4.24 0.88 3.52 3.1 4.96 1.92Z" fill="#000001" stroke-width="1"></path><path d="M223.72 169.34a0.68 0.68 0 1 1 1.36 0c0 1.28 -1.4 0.66 -1.36 0Z" fill="#000001" stroke-width="1"></path><path d="M223.88 128.84c0.4 0.8 -0.54 1.06 -1.32 1.62a15.28 15.28 0 0 1 -2.18 1.54c-5.08 -1.28 -6 -5.12 -0.76 -2.14 1.02 0.6 3.46 -2.78 4.26 -1.02Z" fill="#000001" stroke-width="1"></path><path d="M218.98 118.24a0.82 0.82 0 0 1 0.56 1.54 5.18 5.18 0 0 0 -3.08 2.74c-0.86 2.22 -2 -0.74 -5.18 -1.72 -2.74 -0.86 -0.52 -3.38 3.12 -0.26 1.76 1.46 0.18 -0.98 4.58 -2.3Z" fill="#000001" stroke-width="1"></path><path d="M216.36 186.96c0.86 0.94 0 1.4 -1.28 2 -3.62 1.32 -3.24 4.28 -5.12 2.56a6.7 6.7 0 0 0 -1.76 -1.5c-1.66 -0.84 -3.28 -1.32 -1.54 -2.34a6.56 6.56 0 0 1 3.68 2c0.6 0.94 0.34 -0.38 3.42 -1.88 0.6 -0.5 2.24 -1.28 2.6 -0.84Z" fill="#000001" stroke-width="1"></path><path d="M212.36 52.34c1.18 0.12 3.5 0.72 2.82 1.76s-1.3 -0.52 -3 -0.34c-1.12 0.12 -0.82 1.28 0 1.78s2 0.86 2.18 1.04 0.22 1.18 -0.94 1.1c-3.72 -0.34 -4.54 -5.3 -1.06 -5.34Z" fill="#000001" stroke-width="1"></path><path d="M214 64.4c0.18 0.72 -0.86 0.8 -1.32 0.9 -5.82 -1.64 -2.28 -1.04 -4.62 1.7 -0.52 0.6 4.36 2.94 3.02 3.76a1.04 1.04 0 0 1 -0.84 -0.12c-2.36 -2.74 -4.66 -2.24 -4 -4.4 1.66 -5.82 3.68 -1.84 7.04 -2.18 0.32 -0.06 0.72 -0.06 0.72 0.34Z" fill="#000001" stroke-width="1"></path><path d="M208.16 172.56a0.7839005039 0.7839005039 0 0 1 0.78 1.36 8.58 8.58 0 0 0 -4.66 3.3c-1.34 2 -2 -0.94 -5.44 -1.88 -0.94 -0.26 -1.24 -0.74 -1.18 -1.12 0.2 -1.42 3.88 0.18 5.04 1.24s0.72 -1.64 5.46 -2.9Z" fill="#000001" stroke-width="1"></path><path d="M207.26 107.46c0.82 -0.42 1.54 0.52 0.82 1.3 -1.72 1.74 -2.14 2.56 -3.2 1.62s-1.72 -1.2 -1.88 -1.62 0 -1.04 0.8 -1c3.08 1.28 0.66 1.18 3.46 -0.3Z" fill="#000001" stroke-width="1"></path><path d="M206.62 152.12c0.7 1.8 -0.68 0.4 -3.38 4 -1.1 1.54 -1.48 -0.42 -5.64 -2 -0.3 0 -1.24 -1.46 0.44 -1.42 3.42 0.86 3.8 2.32 4.36 1.68 1.24 -1.48 3.8 -3.32 4.22 -2.26Z" fill="#000001" stroke-width="1"></path><path d="M202.7 130.54c0.58 1 0.64 0.74 -2.14 3.6 -0.68 0.72 -0.9 0.34 -4.58 -1.72 -0.6 -0.34 -0.68 -1.32 0.64 -1.32 4 1.54 2.36 1.88 4.24 0.22 0.42 -0.44 1.48 -1.32 1.84 -0.78Z" fill="#000001" stroke-width="1"></path><path d="M200 203.62c-0.42 5.04 1.36 15.48 0 15.26s-1.02 -5.56 -1.02 -6.32a13.12 13.12 0 0 0 -0.38 -4.84 53.44 53.44 0 0 1 0.72 -8.38c1.5 -1.34 0.86 2.22 0.68 4.28Z" fill="#000001" stroke-width="1"></path><path d="M197.18 140.76a0.82 0.82 0 0 1 0.52 1.54c-1.68 0.64 -2 2 -3.86 3.16 -2.68 -1.16 -1.4 -0.98 -4.18 -2.18 -2 -0.86 -0.18 -1.84 0.26 -1.62 1.4 0.8 0.76 -0.14 3.12 1.5 0.96 0.72 2.22 -2.06 4.14 -2.4Z" fill="#000001" stroke-width="1"></path><path d="M196.96 162.56c0.86 -0.18 1.04 1.18 0.14 1.7a6.36 6.36 0 0 0 -3.1 2.78 1.14 1.14 0 0 1 -1.5 0.64s0 0 -0.12 0c-4.36 -2.86 -4.7 -2.48 -4.84 -2.82 -0.38 -1.12 0 -1.04 0.56 -1.28 3.46 1.1 4.32 2.68 4.82 2a8.5 8.5 0 0 1 4.04 -3.02Z" fill="#000001" stroke-width="1"></path><path d="M193.08 118.1c1.28 -1.02 3.04 -1.78 2.78 -0.16 -0.18 0.94 -0.6 -0.34 -3.12 3.16 -1.24 1.72 -1.02 0.18 -5.34 -1.24 -0.64 -0.22 -0.82 -0.52 -0.74 -1.06 0.26 -1.24 3.12 0.16 4.58 0.84 0.6 0.36 0.76 -0.64 1.84 -1.54Z" fill="#000001" stroke-width="1"></path><path d="M194.1 209.38c-0.42 3.22 2.52 9.16 1.28 9.8s-2.86 -9.24 -2.3 -11.08c0.3 -1.02 -1.08 -7.18 0.3 -7.04 0.8 0.08 0.72 8.28 0.72 8.32Z" fill="#000001" stroke-width="1"></path><path d="M193.38 185.76c0.88 1.04 -0.48 1.46 -1.72 1.7 -3.62 0.78 -2.9 5.4 -6 2 -0.64 -0.68 -1.1 -0.68 -3.2 -1.16 -0.76 -0.16 -1.12 -1.2 0 -1.5a6.62 6.62 0 0 1 4.14 1.2c1.24 1.28 0.64 -0.6 3.68 -2 0.88 -0.24 2.48 -0.96 3.1 -0.24Z" fill="#000001" stroke-width="1"></path><path d="M190.68 174.22c0 0.9 -0.84 0.82 -1.36 0.98 -2.96 0.82 -2.4 2.66 -3.68 3.08s-1.74 -1.32 -4 -1.88c-0.9 -0.22 -2 -0.38 -1.84 -1.28 0.2 -1.38 3.8 0 4.78 0.94s1.16 -1.88 4.48 -2.56c0.94 -0.14 1.58 -0.1 1.62 0.72Z" fill="#000001" stroke-width="1"></path><path d="M189.84 152.94c1.24 -0.42 1.78 0.8 0.58 1.46 -5 2.82 -0.76 4.22 -7.52 1.36 -0.9 -0.38 -1.4 -0.38 -1.24 -1.2s3.22 0.18 4.4 0.68 0.74 -1.24 3.78 -2.3Z" fill="#000001" stroke-width="1"></path><path d="M190.34 131.48c0.48 0.8 -0.5 1.12 -1.62 2.22 -3.04 3.04 -1.02 2.82 -6.24 0.52a0.8 0.8 0 0 1 -0.52 -0.94c0.14 -0.42 0.52 -0.38 0.94 -0.46 4.54 1.44 2.48 1.44 5.74 -1.34 0.6 -0.46 1.36 -0.68 1.7 0Z" fill="#000001" stroke-width="1"></path><path d="M181.28 104.3c0.52 0.82 3.42 -1.88 3.38 0.6a1.46 1.46 0 0 1 -0.86 0.56c-2 0.42 -2.64 2.4 -3.5 0.48 -0.42 -1 -1.24 -2.24 -1.32 -2.62a0.64 0.64 0 0 1 0.94 -0.64 4.54 4.54 0 0 1 1.36 1.62Z" fill="#000001" stroke-width="1"></path><path d="M181.32 115.46c0.14 1.12 -0.8 0.38 -3.8 2 -1.28 0.7 -1.66 -0.42 -3.12 -3.16 -0.56 -1.06 0.68 -2.14 2.36 1.2 0.38 0.82 0.76 -0.34 3.24 -0.76 0.9 -0.14 1.28 0.34 1.32 0.72Z" fill="#000001" stroke-width="1"></path><path d="M176.46 126.28a0.78 0.78 0 0 1 0.46 1.48c-1.74 0.78 0.6 -0.64 -2.82 1.42 -1.8 1.1 -1.2 -0.56 -3.42 -2.1 -0.76 -0.5 -1.66 -2 -0.5 -2.14 2.56 1.08 2.82 2.48 3.2 2.48 0.86 0 0.9 -0.72 3.08 -1.14Z" fill="#000001" stroke-width="1"></path><path d="M174.96 139.14c0.86 1.32 -1.28 1.36 -2 1.54 -2.34 0.42 -2.3 1.1 -3.54 1.66a0.86 0.86 0 0 1 -0.86 -0.56c-0.84 -2.78 -3.2 -3.02 -3.28 -4.26 0 -0.36 0.9 -1 2 0 2.4 2.22 2.18 2.74 2.82 2.34s4.26 -1.62 4.86 -0.72Z" fill="#000001" stroke-width="1"></path><path d="M170.78 24.26a2.44 2.44 0 0 0 -1.68 -1.24 4.76 4.76 0 0 0 -3.04 0 31.62 31.62 0 0 0 -6.7 2.18c-1.76 0.94 -0.38 0.78 2.18 7.22 0.22 0.48 1.56 3.74 1.16 4l-0.4 0c-4.28 -0.72 -6.44 2.52 -4.98 4.22 2.6 3 7.56 -0.3 6.78 -3.32 0 0 -0.36 -2.46 -0.68 -3.72 -1.4 -5.08 -2 -5.08 -0.82 -5.52 4.54 -1.54 6.2 -2.18 8 -1.58 1.4 0.32 2 1.14 0.18 -2.24Z" fill="#000001" stroke-width="1"></path><path d="M140 30.72c3 -2.22 4.74 -0.48 4.32 -2a35.66 35.66 0 0 0 -4.32 -9.54c-0.9 -1.52 -1 -0.94 -4 0.38a67.54 67.54 0 0 0 -12.26 6.98c-4.96 3.46 -2.44 0.46 0.98 9.9 1.02 2.82 2.14 5.3 -0.86 6.88 -4.3 2.36 -7 -1.66 -4 -4.22 2 -1.8 4 -0.82 3.64 -1.72 -5.38 -13.58 -8.76 -10.56 -4 -14.52a63.02 63.02 0 0 1 17.22 -9.32c1.34 -0.48 2 0.34 3 2 4.58 6.92 10.64 18.98 2.48 20.26a2.7679595373 2.7679595373 0 0 1 -2.2 -5.08Z" fill="#000001" stroke-width="1"></path><path d="M187.36 41.62c-7.78 -1.84 -8.26 -1.66 -8.64 1.06a33.34 33.34 0 0 1 -2.14 7.9c-0.12 0.3 -0.6 1.16 -0.8 0.78a3.6 3.6 0 0 0 -2.74 -1.88 2.38 2.38 0 0 0 -2.82 3.2 3.86 3.86 0 0 0 2.3 1.88c0.68 0.22 3.16 0.68 4 -1.16 4.58 -9.76 0.16 -9.18 8.58 -7.6a62.12 62.12 0 0 1 6.76 1.8c0.38 0.12 0.52 0.38 0.38 0.98a29.28 29.28 0 0 1 -2 6.42c-0.52 0.94 -0.34 -1.68 -3.6 -1.76 -4.44 -0.12 -4.1 5.08 0.68 5.04 1.24 0 2.66 0 3.42 -1.76A33.48 33.48 0 0 0 194 45.04c0.28 -1.88 -0.54 -1.98 -6.64 -3.42Z" fill="#000001" stroke-width="1"></path><path d="M289.78 355.16c-2.16 -3.6 -2 -2 -2.64 -3.26a16.2 16.2 0 0 0 -4.62 -6.82c-2 -1.46 -2.14 -1.72 -2.18 -2.32 -0.16 -2.9 -1.16 -3.72 -2.78 -4s-2.78 1.42 -3.12 0.74c-1.32 -2.66 0.14 0.46 -10.76 -16.42 -0.78 -1.2 1.66 -1.84 3.58 -8.16 0.64 -2 -5.3 -6.92 -7.14 -11.2 -3.06 -7.12 -12.56 -9.18 -11.06 -15.64a6.74 6.74 0 0 0 -4.32 -6.7c-0.6 -0.14 -1.2 -0.14 -0.64 -1.42a5.7 5.7 0 0 0 -3.62 -7.82c-3.82 -1.06 -0.9 -3.46 -5.18 -18.16a41.34 41.34 0 0 1 -1.42 -4 4 4 0 0 1 0.58 -2.58c1.64 -3.34 6.38 -10 8.66 -18.18a40.72 40.72 0 0 0 1.44 -12.88c0 -1.04 0.84 -0.48 3.56 -5.34 1.2 -2.18 -1.8 -2.98 -0.64 -4.22 3.38 -3.54 2.3 -2.18 7.7 -7.36 1.58 -1.54 4 -4.4 6.18 -6.52 6.6 -6.62 8.66 -7.28 12.22 -13.38s8.54 -6.46 6.3 -16c-2.84 -12 -3.12 -7.56 -0.26 -10 1.28 -1.14 0.6 -2.3 -0.9 -7.26a101.18 101.18 0 0 0 -7.02 -18.68c-3.24 -9.44 -4.14 -14 -6.74 -17.18 -0.6 -0.72 -1.4 -2.3 -1.84 -2.68a4.1 4.1 0 0 1 -1.2 -1.84c-0.38 -1.28 -1.2 -2.36 -1.5 -3.64 0 -0.16 -1.14 -1.76 -1.24 -1.88A6.32 6.32 0 0 0 256 98a20.8 20.8 0 0 0 -6.4 -3.16 22 22 0 0 1 -6.74 -3.16 22.78 22.78 0 0 0 -5.28 -2.74c-0.74 -0.46 0 -0.64 -0.46 -2.26a7.58 7.58 0 0 0 -5.18 -4c-2.92 -1.18 -2.18 -1.24 0.9 -9.3 1.08 -2.82 0.98 -3.42 1.54 -2.9 2.52 2.3 4.54 0 6 -1.16a5.88 5.88 0 0 0 4.4 -4.54c0.98 -3.08 1.26 -5.9 -1.54 -7.56 -0.32 -0.2 -0.54 -0.32 -0.48 -0.5 0.56 -1.72 1.66 -1.5 2.96 -4.66 2.82 -7.1 4.74 1.1 9.34 -4a4 4 0 0 0 0.9 -4c0 -0.26 0 -0.46 0.26 -0.52a4.18 4.18 0 0 0 3.3 -4.4c-0.74 -3.12 -2.92 -2.4 -2.28 -3.04a5.18 5.18 0 0 0 0.9 -3.58c-0.5 -2 -2.34 -1.58 -2 -2.52a2.56 2.56 0 0 0 -0.34 -2.7c-2.18 -2.7 -4 -1.06 -4 -2.48a5.18 5.18 0 0 0 -1.24 -3.28 3.22 3.22 0 0 0 -3.32 -1.12c-0.52 0.12 -0.44 -0.38 -0.44 -0.94a4.42 4.42 0 0 0 -6.32 -3.76c-1.36 0.6 -0.14 -0.86 -2.6 -1.62s-2.62 0.5 -3 -0.78a4.94 4.94 0 0 0 -8.6 -1.66c-0.5 0.98 -0.42 -0.94 -2.56 -1.46a4 4 0 0 0 -4.9 2.36c-0.48 0.26 -0.74 -0.34 -1.08 -0.52a5.3 5.3 0 0 0 -6.32 1.72c-1.88 2.86 -0.34 4 -1.36 4.1a3.8 3.8 0 0 0 -4 4.78c0.34 1.16 -1.2 0.38 -2.36 1.8a4.18 4.18 0 0 0 1.62 6.1c0.7 0.22 0 1.12 -0.3 2.14a2 2 0 0 0 0.78 2c2.86 2.14 3.88 -0.14 4.58 0.98a1.16 1.16 0 0 1 0 1.08 35.46 35.46 0 0 0 -2.38 7.5c-0.94 4 0 5.04 -0.8 5.72a12.94 12.94 0 0 0 -3 7.3c0 2.88 -2.26 1.16 -2 5.9 0 1.68 1.06 1.76 0.2 3.12 -2 3.22 1.08 4.62 0.1 5.82 -1.76 2.18 0.34 3.5 -0.22 4.62 -1.58 3.12 0.9 4.56 0 5.04a8.28 8.28 0 0 0 -4 5.08c-0.38 1.36 -1.06 1.2 -1.8 1.66s-1.32 -0.12 -2.26 0c-4.48 0.64 -3.24 3.04 -6.62 5 -0.56 0.36 -8.2 4.12 -10 6.38 -4.14 5.3 -2.36 4.82 -5.26 10.76 -2.56 5.36 -15.82 35.88 -17.08 40.5 -1.76 6.28 0.76 10 1.8 12.32 0.54 1.66 0.94 3.78 4.3 14 2 6 7.02 16.68 7.78 18.48a89.38 89.38 0 0 1 4.1 11.18c1.8 4.16 4.46 4.96 4.54 6.68 0.54 10.22 1.54 8.58 4 22 0.66 3.62 1.32 4.56 4.94 12.62 0.48 1.12 -6 12.7 -9.7 19.88 -2 4.1 -5.1 3.72 -8.42 15.22 -3.46 12 -5.18 10.72 -8 18 -6.2 16 -15.68 23.08 -14.28 26 5.1 10.18 11.34 10.64 9.28 14.28 0 0 -6.32 10.98 -6.7 10.72a10.22 10.22 0 0 0 -2.96 -0.84 2 2 0 0 0 -2.34 1.06 11.52 11.52 0 0 1 -1.46 2.4 4.7 4.7 0 0 1 -2 0.84c-1.76 0.56 -1.08 -2 -3.86 -1.24 -1.22 0.4 -1.58 -1.28 -3.5 -0.42 -1.52 0.7 -2.36 -1.38 -4.78 0.18 -0.9 0.5 -3.2 -0.78 -3.3 -0.86 -1.02 -1.2 -8 -4.32 -10.84 -2.7 -0.48 0.26 -1.16 1.08 -1.38 1.08 -1.78 0 -3.58 4 -2.22 6.48 3.5 6.38 7.82 9.8 16 15.4 5.8 3.88 21.42 22.28 25.14 14.14 1.68 -3.12 7.08 -10.64 7.86 -12.3 1.32 -2.74 0.52 -2.96 0.98 -3.52s3.42 -0.6 3.64 -2.78a4.12 4.12 0 0 0 -1.46 -3.58c-0.68 -0.64 -0.98 -0.12 -0.16 -1.46 0 0 3.24 -4.56 4.18 -5.72 6.36 -7.78 3.58 -7.18 7.18 -5.68a7.28 7.28 0 0 0 3.12 0.94c1.7 0 2 -0.26 2.52 -1.76a30.18 30.18 0 0 1 4.48 -8.46A197.24 197.24 0 0 1 194.78 322c1.76 -2.82 2.28 -5.44 4.24 -8.68 1.1 -1.84 3.38 -3.64 4.28 -5.48 2.26 -4.64 -0.66 -4.86 1.24 -6.78a22.76 22.76 0 0 1 4.52 -3.68c0.6 -0.38 0.68 -0.38 1.06 0.18 4.7 7.04 6.88 3.54 9.5 10.24 3.62 9.28 6 7.36 8.68 13.04 4.64 10.12 5.64 10.38 7.46 14.14a2.34 2.34 0 0 0 2.1 1.54c2.74 0.14 2.44 1.16 8.94 -2.3 0.9 -0.48 0 -0.64 10.2 10.64 2.58 2.86 2.7 1.36 0.7 4 -4.2 5.6 2 4.4 2.82 9.36 0.2 1.32 -2.4 0.98 -1.54 3.5 0.34 0.94 -0.44 1.12 -0.86 2.56 -0.12 0.44 0.18 0.86 0.3 1.28 0.22 0.74 -1.36 0.22 0 3.3 0.26 0.5 -0.3 1.28 -0.52 1.44 -0.88 0.7 -1.48 1.72 -2.38 2.4 -2.56 2 -5.04 6.88 -2.78 8.94 0.9 0.8 -0.98 4.3 5.52 4.52 5.42 0.18 14.4 -4 17.3 -9.56 4 -7.74 2.82 -10 8.54 -14.62 3.64 -2.9 7.18 -4.34 5.68 -6.82Zm-9.48 -10c4.14 2.56 6.24 8.22 5.68 8.68 -3.26 2.72 -3.24 2.94 -3.58 2.4 -2.62 -4.46 -2.62 -10.24 -2.1 -11Zm-2.78 16.28c-4.44 6.16 -4.28 14.1 -4.92 7.26 -0.5 -5.04 -0.18 -7.58 3.9 -10.8a7.88 7.88 0 0 1 3.84 -1.02c2.02 1.36 0.22 0.42 -2.82 4.64Zm-3.08 -19.74c1.2 1.84 0.9 0.98 1.24 2 -0.56 2.64 -0.16 2.3 -4.36 -3.6 -5.9 -8.28 -5.2 -6.76 -6.14 -8.46 -2 -3.58 -3.38 -2.18 -0.78 -4 0.6 -0.3 -0.16 -1.04 10.04 14.14Zm-5.26 2c-10 -12.14 -10.12 -10.94 -9.3 -11.88a27.8 27.8 0 0 1 2.12 -2.22c0.7 0.68 11.64 16.2 12.58 17 0.3 0.26 0.16 0.48 0 0.78 -2.14 2.14 -1.88 0.62 -5.4 -3.68Zm2.22 5.72c-1.14 0.26 -0.82 -1.42 -2.16 -2.98 -1.78 -2 -1.6 -2 -3.68 -2.14 -0.78 0.18 -1.42 0.38 -1.68 0 -6.96 -8.2 -7.72 -8.2 -7.3 -8.72 2.82 -3.46 0.82 -3.58 8.94 5.6a57.7 57.7 0 0 1 5.38 6.8c0.6 0.86 1.1 1.32 0.5 1.44Zm-27.8 -136.78c0.64 -0.28 1.14 -0.18 1.22 0.6 -0.12 2.52 -3.78 0.52 -1.22 -0.6Zm-7.4 -5.68c-0.22 0.24 -0.3 0.2 -0.48 0 -0.98 -1.28 -1.32 -0.9 0 -2.28a6.7 6.7 0 0 1 1.66 -1.36c0.88 1.74 1.98 -0.08 -1.18 3.64Zm2.86 -1.58c1.12 0.84 1.06 0.76 0.86 1.02 -1.82 2.24 -2 2.6 -2.18 2.56 -0.6 -0.56 -1.12 -0.8 -0.64 -1.46a16.42 16.42 0 0 1 1.96 -2.12Zm-3.42 -2c-0.82 0.76 -1.46 1.56 -1.8 1.22s-0.66 -0.84 -0.16 -1.46a3.38 3.38 0 0 1 1.54 -1.4 1.14 1.14 0 0 1 1.36 0.8 6.26 6.26 0 0 0 -0.94 0.78Zm1.46 7.1c-0.56 1.58 0.76 3.02 2 4s-2.42 8 -2.48 8.12 -0.56 0.16 -1.24 -0.3c-3.2 -2 -8.38 -8.86 -10.58 -12 -1.84 -2.6 -1.08 0 -7.18 0.7 -0.48 0 -3.1 0 -3.08 -0.6 0 -1.2 2.78 -0.94 5.26 -2.44s2.6 -0.8 3.36 -1.42a13.22 13.22 0 0 1 7.52 -2.64 1.34 1.34 0 0 1 1.34 0.22 4.12 4.12 0 0 1 0.9 1.14c2.08 3.44 4.52 4.26 4.18 5.16Zm1.88 1.02a1.2 1.2 0 0 1 1.02 -1.06 1.4 1.4 0 0 1 0.94 1.28 1.2 1.2 0 0 1 -0.9 1.06c-0.42 -0.06 -1.06 -0.78 -1.06 -1.34Zm2.94 -4.32c1.38 0 1.46 2.14 -0.12 2.22s-1.42 -2.2 0.2 -2.28Zm0.9 3.46a0.68 0.68 0 1 1 -0.12 1.34c-1.04 -0.1 -0.7 -1.38 0.12 -1.4Zm2.7 0.68c-1.38 0 -0.7 -2.16 0.3 -2.16 1.36 -0.02 1.1 2.16 -0.3 2.1Zm32.78 -48.88c2.56 10.64 -0.42 7.78 -6.38 17.18a20 20 0 0 1 -5.16 6.28c-1.5 1.2 -20.66 20.98 -21.38 20.64 -5.62 -2.68 -3.08 1.64 -8 -5.04 -0.38 -0.64 19.82 -32.74 20.28 -33.6 1.28 -2.44 0.68 -3.06 -0.58 -6.44 0 -0.22 0 -0.3 0.22 -0.34 6.9 -1.02 13.16 -4.48 17.72 -5.86 1.48 -0.48 1.14 -1.94 3.28 7.12ZM222.82 158c-0.22 1.24 -0.74 3.64 0.3 4.36a68.34 68.34 0 0 1 -1.06 8c-0.22 1.16 1.4 1.72 2.22 1.68 1.88 0 2.6 0.16 2.44 -1.24 -0.36 -3.22 0 -4.36 -0.44 -7.4 -0.22 -1.76 11.78 18.54 20 19.52 0.3 0 0.3 0.18 0.18 0.44a2 2 0 0 1 -1.3 1.26 42.82 42.82 0 0 1 -7.42 2.36c-6.28 1.46 -7.7 1.04 -10.98 -2.3a39.44 39.44 0 0 1 -6 -10.22c-4 -8.26 -14.96 -25.78 -8.34 -31.44 1.2 -1.04 3.54 -3.76 3.34 -2.26 -0.72 4.88 7.36 15.48 7.06 17.24Zm-4.7 -16.66c3.88 10.88 9.48 16.44 8 16.14 -1.88 -0.36 -2 0.14 -3 -1.62 -6.92 -12.94 -6.88 -13.24 -6.12 -16.24 0.26 -0.98 1.42 -1.5 1.64 -1.32s-1.12 1.3 -0.52 2.98ZM252 174c0.22 0.28 0.24 0.42 0 0.8s-1.78 3.04 -2.1 3.32 -0.88 0.24 -1.74 0.24c-7.38 0.6 -21.52 -22.2 -25.08 -28.58 -4.74 -8.6 -5.12 -9.44 -3.28 -11.36s4.2 0.12 6 1.32c3.48 2.16 5.8 6.54 8.6 10.38a57.54 57.54 0 0 1 5.3 6.5A168 168 0 0 0 252 174Zm-3.26 -14.22a16.96 16.96 0 0 1 1.62 -5.22c0.3 0.64 1.72 4.54 2 5.04 0.98 2.62 2 0.5 3.12 1.62a9.26 9.26 0 0 1 1.78 4.16c0 1.32 -0.84 2.22 -2.34 4.7 -1.88 3.1 -1.68 3.28 -2.22 2.64 -5.94 -8.46 -5.16 -5.46 -3.9 -12.9Zm0 20c-1.1 1.56 -1.1 2 -2.3 2 -5.74 -0.12 -16 -14.36 -19.14 -19.1 -0.56 -0.82 0 -3.86 0.64 -3.02 4.24 6 4.2 6.38 5.72 8 6.94 8 8.18 9.46 10.44 10.6a9.58 9.58 0 0 0 3.66 1.02c0.66 0.16 1.38 0.02 1.04 0.5Zm-24 -8.9c-2.52 0.14 -1.72 -1.06 -1.34 -3.46a25.02 25.02 0 0 1 0.78 -4.56c0 -0.54 1.02 -0.54 1.02 0a21.7 21.7 0 0 1 0.3 4.92c-0.04 2.22 1.04 2.98 -0.62 3.1Zm0.38 -9.36c-1.06 0 -1.56 0 -1.74 -0.42a5.52 5.52 0 0 1 0 -2.54c0 -0.36 0.36 -0.48 1.1 -0.36 1.44 0.18 2 0.46 2 1.16a14.38 14.38 0 0 1 -0.38 1.84c0.04 0.36 -0.1 0.34 -0.84 0.32Zm-15.44 -127.8c-1.7 1.42 -3.7 0 -3.46 -0.8a4.1 4.1 0 0 1 1.42 -2.1c2 -2 -4 -0.18 -3.3 -4.4 0.4 -2 2.36 -1.72 2.96 -1.84a0.7 0.7 0 0 0 0.42 -1.24c-1.2 -1.2 0 -3.42 1.54 -3.84s3.2 1.44 2.6 -1.16c-1.1 -4.96 4.96 -6.8 6.58 -3.54 0.52 1.06 1.34 0.64 1.42 -0.36 0.42 -3.84 4 -4 5.34 -0.34 0.22 0.6 1.02 0.86 1.32 0 0.7 -1.72 1.16 -2.36 2.4 -2.7a3.28 3.28 0 0 1 4.58 2.26c0.12 0.38 -0.22 1.16 -0.3 1.54 -0.26 1.2 0.9 1.46 1.4 0.82s2 -1.16 3.64 0c0.24 0.18 0.38 1.06 0.5 1.36 0.64 1.24 1.24 -0.12 3 -0.56a2.98 2.98 0 0 1 3.38 4.24c0 0.22 -0.74 0.6 -0.18 1.2a1.12 1.12 0 0 0 1.24 0 2.74 2.74 0 0 1 4.4 2.42 4.14 4.14 0 0 1 -0.5 2.24c0 0.54 0.8 0.54 1.1 0.3 0.98 -0.82 2.56 -0.26 3.5 0.8s0.18 1.76 -0.46 2.66c-0.3 0.42 -0.42 1.14 0.52 0.98s2.3 0.3 2.22 1.44a6.48 6.48 0 0 1 -1.2 3.3c-0.38 0.82 -0.18 1.16 1.16 1.58 2.3 0.58 1.58 4.7 -2 4.48 -1.4 0 -1.06 0.82 -0.5 1.38s0.46 0.72 0.16 2a3.08 3.08 0 0 1 -3.42 2.48c-1.2 -0.26 -2.52 -1.14 -3.84 -0.84 -0.72 0.16 -1.28 0.54 -2 1.78 -1.4 2.48 -1.32 3.3 -2.52 4.5 -2.26 2.34 -1.14 2.48 -2.22 2.64 -4.66 0.68 -4.6 4.44 -6.2 3.34s1.6 -1.46 0.9 -4c-0.38 -1.54 0.56 -2.18 1.84 -3.5 0.98 -0.98 0 -1.68 -0.64 -2.36s0.44 -2.38 1.02 -2.82c1.3 -0.94 0.6 -2.26 -0.5 -3.42 -1.46 -1.48 -0.24 -2.6 0.26 -3.72 0.28 -0.64 0 -1.04 -0.74 -0.94 -0.26 0 -0.5 0.18 -0.8 0.22 -1.38 0.3 -3.64 -0.56 -3.26 -1.84 0.26 -0.76 0.34 -1.66 -0.42 -2s-0.72 2 -3.88 0.9c-1.24 -0.44 -0.68 -1.72 -0.94 -2.26a0.7 0.7 0 0 0 -0.9 -0.22 2.9 2.9 0 0 0 -0.52 0.34c-2 1.5 -2.18 -1.32 -3.3 -0.94s0.56 1.54 -1.06 2.82c-0.98 0.76 -2.6 0 -3.46 -0.52s-1.16 -4 -2.4 -1.4 -4.14 2 -4.26 0c0.1 -0.96 -0.26 -1.38 -1.5 -0.36ZM206 54.96c0.82 -2.74 2.16 -5.46 5.08 -4.28 0.56 0.24 1.16 -0.3 0.52 -1.02s-2.34 -0.6 -2.6 -0.94a11.44 11.44 0 0 1 0.72 -5.8c0.38 -1.04 2.1 -2.94 3.5 -0.74 0 0.14 0.22 1.04 0.98 1.04 0.18 0 0.56 -0.48 0.4 -1.3a2.96 2.96 0 0 0 -3.68 -2.18c-0.18 0 -0.2 -0.12 0 -0.44s0.64 -1.54 0.78 -1.86 0.12 -0.3 0.38 -0.16c2.32 1.1 4 -1.16 4.5 -1.12a7.16 7.16 0 0 0 3.72 1.8 3.2 3.2 0 0 0 3.24 -1.76c0 -0.26 0.22 -0.26 0.46 -0.22 1.46 0.26 1.84 -0.22 2.18 0a4 4 0 0 0 4.5 2.22s0.6 -0.34 0.68 0c0.42 1.76 1.7 2.14 3.3 2.56 2 0.56 -0.78 1.16 2 4.4 0.72 0.9 0.34 0.52 0 1.08 -3.46 4.44 0.34 4.78 -0.7 5.76 -3.12 3.04 -0.8 4 -2 5.6 -2.74 3.26 2 5.1 2.86 3.6 2.64 -4.62 7.44 -3.24 7.56 -0.82a10.22 10.22 0 0 1 -1.58 6c-0.94 1.12 -2.18 1.14 -4.28 2.86 -3.54 2.82 -3.28 -4.96 -5.84 1.66 -0.22 0.56 -1.54 -0.68 -1.04 -3.04a2.64 2.64 0 0 0 -0.94 -2.64c-2.48 -1.58 -3.02 -0.34 -3.72 -1.46 -1.74 -2.78 -4 -1.28 -4.74 -2.7a4 4 0 0 0 -2.38 -1.62 3.54 3.54 0 0 0 -2 0.3c-1.62 0.48 -1.66 -1.32 -4.26 -0.98 -2.28 0.3 -2.86 -2 -4.8 -0.22 -0.68 0.6 -0.98 0.36 -2 0.14s-1.88 -0.12 -0.8 -3.72ZM203.58 64c-0.76 -1.62 -0.42 -4 1.84 -4.14 2.32 0.38 2.32 0.6 3.16 0s1.04 -0.98 2 -0.52a3.6 3.6 0 0 0 2.34 0.74c2.86 -0.4 2 1.32 4.74 1.02 0.44 0 2.14 -0.9 3.16 0.72 0.44 0.74 0.7 1.32 1.76 1.24 3.2 -0.3 2.86 2.7 5.26 2.62a2 2 0 0 1 2 2.3c-0.72 3.72 2.14 3.38 1 6.36 -1.76 4.66 -2.18 5.3 -3.68 5.64 -2 0.48 -0.92 3.56 -4.32 2.86 -0.72 -0.14 -2.18 -0.46 -2.44 0 -0.5 0.9 -1.62 0.86 -2.22 1.54 -5.3 -0.2 -4.22 -2.86 -6.8 -1.66 -3.84 1.76 -2.94 -2.74 -5.84 -2.26 -0.48 0 -1.42 0.5 -2 -0.18a2.56 2.56 0 0 1 -0.38 -2.6c1.54 -2.14 -0.76 -2.9 0 -4.4s1.28 -2 0.42 -3.22c-2.12 -2.8 1.42 -3.18 0 -6.06ZM228 91.4c0.34 0.18 0.34 0.34 0 0.56 -5.42 4.52 -10 4.18 -10 4.14 -5.04 0 -2.56 1.88 -4.74 8 -0.82 2.3 -0.76 2 -1.32 2.78a0.62 0.62 0 0 1 -0.26 -0.4l0 -0.48c-0.3 -3.58 -1.5 -3.16 -0.94 -5.64 0.46 -2.18 1.32 -4.82 -0.52 -5.8 -2.48 -1.32 -2 -2.44 -3.5 -4.5 -0.38 -0.54 0.12 -0.5 1.06 -0.8s1.54 -1.08 2.36 -3.8c0.26 -0.86 0.68 -0.68 1.16 -0.94a1.42 1.42 0 0 1 2.12 0.3c0.6 0.72 1.64 0.76 2.54 0.98 2.72 0.72 2.76 0 5.28 -1.54 0.66 -0.38 3.64 1.62 5.44 -1.62 0.86 -1.58 0 -0.68 1.54 -1.42 0.7 1.88 -4.82 7.34 -0.22 10.18Zm-30.72 -2c0.5 -0.24 0.5 0.42 1.18 2.84 0.82 3.04 -0.3 3.76 1.12 6 1.06 1.8 0.12 3.12 3.24 6.38 0.9 0.9 1.42 0 1.66 -1.2 0 -0.52 1.72 -6.38 2.4 -6.32a1.14 1.14 0 0 1 1.02 1.18c0.1 0.72 1.04 0.4 1.04 -0.3 0.16 -2 -2.72 -3.1 -3.56 -1.18a18.3 18.3 0 0 0 -2 6.4 6.82 6.82 0 0 1 -2 -3.72c-0.22 -1.44 -1.54 -2.38 -1.38 -4.36 0.22 -2.42 -1.14 -4.2 -1.14 -6 0 -5.42 6.28 -8.54 7.78 -6.28 0.56 0.9 -1.42 0.3 -2.48 3.34 -1.32 3.8 2 4 2.56 6.4 0.72 2.92 3.54 2.74 3.34 4.24 -1.06 7.9 -0.88 3.56 0.38 9.18a5.8 5.8 0 0 1 0.12 0.82 6 6 0 0 0 0.38 1.74c0 0.3 -0.56 2.86 0.46 3.5 0.68 0.42 0.78 -0.68 0.6 -1.46 -0.56 -2.38 2 -1.36 3.5 -10.68a8.36 8.36 0 0 0 0.18 -1.16c0.3 -2.4 1.32 -0.68 4.82 -1.48 6.46 -1.5 8.26 -4.62 10.4 -6.2a6 6 0 0 0 1.48 -3.2c0.48 -2.24 -1.14 -2.48 -2.94 -3.38 -0.9 -0.64 -0.68 -2 0.5 -1.56l0.46 0.2c8.12 4.2 4 3.62 6 9.22a5.38 5.38 0 0 1 -1.46 5.6 39.5 39.5 0 0 1 -5.3 2.82 12 12 0 0 1 -4.08 3.22c-0.86 0.4 -3.5 2.36 -5 3.38 -0.82 0.56 -0.86 -1.06 -0.78 -1.4 0.44 -1.68 -0.42 -2.28 -0.12 -4.5 0.52 -3.76 -2.9 -2.6 -3.12 -1.44a0.62 0.62 0 0 0 0.34 0.64c0.56 0.38 0.9 -0.78 1.46 -0.48s0.12 0.74 0 1.08a5.04 5.04 0 0 0 0 2.38c0.4 1.38 -0.2 2 0.14 3.56 0.8 3.8 4.7 -0.4 8.66 -2.66 2 -1.16 2.52 -2.48 4 -3.2 3.8 -2 4 -1.72 5.64 -3.46 2.8 -3 -0.6 -8.52 1.32 -7.54 6.6 3.34 0.8 1.78 12.62 6.22 3.7 1.36 0.88 1.1 0 1.62 -0.38 0.16 -0.62 0.7 0.14 0.9s6.66 -1.68 8.46 4c1.54 4.9 4.44 6.78 6.84 12 0.8 1.76 1.8 5.38 4.48 13.5 0.52 1.62 1.02 1.32 4 8.6 0.66 2 0.12 0.82 4.4 14.4a0.56 0.56 0 0 1 -0.22 0.72 2.76 2.76 0 0 1 -0.5 0.38c-2.84 1.1 -17.14 6.52 -22.12 7.08 -2.98 0.34 -2.82 -1.34 -3.74 -4s-2.2 -6.4 -2.84 -9.04a1.2 1.2 0 0 0 -0.28 -0.62c-1.54 -1.54 -2 -5.12 -3.08 -7.26a48 48 0 0 1 -2.86 -5.78c-1.54 -6.74 -0.38 -6 -2 -10.12 -2.34 -5.82 -1.06 -11.5 -0.94 -14.36 0 -1.2 -0.94 -1.32 -1.06 -0.16 -1.88 14 0.86 11.58 2 20.84a14.62 14.62 0 0 0 2 6.54 65.22 65.22 0 0 1 3.86 9.4c0.36 0.98 1.4 1.46 1.82 3.64 0.64 3.16 1.34 3.42 0.74 4.48 -5.28 9.52 1.04 17.34 -8 4a88 88 0 0 0 -6.52 -8.5 52 52 0 0 0 -7.42 -9.02c-7.84 -7.18 -10.54 -0.82 -11.44 -2.66a89.72 89.72 0 0 0 -5.26 -7.68c-5.66 -10.4 -12.12 -22.62 -14.44 -30.3 -3.06 -9.78 -3.04 -8.08 0.62 -9.82Zm-3.68 0.6a8.2 8.2 0 0 0 -0.2 2c0.24 2.46 1.8 8.34 8.96 24 0.88 2 2 2.98 6.62 12.22 1.02 2 5.14 8.48 6 10 0.5 0.78 -0.26 0.74 -2 2.36 -0.94 0.86 -0.18 1.28 -4.18 -6.12 -2.66 -4.8 -14.42 -26.98 -17.38 -37.78a14.6 14.6 0 0 1 -0.64 -4c0.14 -2 1.22 -2.2 2.82 -2.68Zm-15.78 121.18c-3.08 -1.8 -3.72 -6.5 -5.08 -9.86 -4.74 -11.92 -7.18 -15.78 -10.22 -24.36 -2.26 -6.36 -3.5 -12 -5.76 -17.02 -2.18 -4.7 0.46 -10.6 1.14 -12.78 0.4 -1.24 2 1.64 10 4.2s8.5 2.22 9.18 3.04c-1.24 6.68 -2 26.64 -2.86 31.88 -0.22 1.18 -0.82 2 -0.94 3.2a17.04 17.04 0 0 1 -1.04 5.46 1.4 1.4 0 0 0 0.66 1.54c6.28 4.54 4.44 -4.66 4.94 14.28 0.02 0.12 0.02 0.26 -0.02 0.38ZM174 195.72c-1.2 -0.6 3.08 -12.28 2.26 -19.32 0 -0.22 3.78 -48.18 7.18 -58.68a24.52 24.52 0 0 1 2.7 -6c0.16 -0.78 3.2 -10.9 2.14 -11.58s-2.6 10.4 -3.38 11.44c-4.2 5.54 -6.9 29.64 -7.3 38.92 0 2.88 1 2.76 -7.86 0.22a48.72 48.72 0 0 0 -5.34 -2s-4.26 -2.28 -4.4 -2.28c-1.34 -0.7 -1.6 -0.9 -1.1 -2 8.72 -18.34 9.32 -24.18 14.18 -32.8 3.34 -5.86 1.12 -8.76 9.02 -13.72 2.3 -1.42 7.48 -4.96 7.7 -4s0.4 1.76 0.64 2.7c4.6 16.92 21.4 44.66 20.68 45.56 -6.18 7.88 3.54 19.26 1.7 20.6 -2.18 1.58 -2.18 2.56 -2.74 2 -2 -2.1 -6 -2.4 -4.48 -0.64a18.32 18.32 0 0 1 4 2.44c1.14 1.2 1.4 0.12 3.76 -2.14 0.7 -0.68 0.72 -0.64 2.18 2.56 3.28 7.06 5.76 9.62 4.74 10.26 -1.84 1.2 -1.5 1.54 -2.22 0.9 -3.72 -3.42 -5.1 -1.54 -3.76 -0.56a13.42 13.42 0 0 1 3.42 2.48c1.1 1.28 1.62 0 3.16 -1.36 1.02 -1 0.94 2.9 6 7.76 6 5.66 14.66 -0.38 17.52 -0.2 -0.46 2 -2.72 4.62 -7.12 12.38 -1.64 2.88 -0.72 -0.1 -4.8 3.6 -1.2 1.08 -2.74 -0.78 -7.78 1.88 -2.48 1.28 -1.28 0.72 -3.32 0.46a30 30 0 0 1 -7.66 -1.28c-4.32 -1.58 -10 -2.26 -11.06 -4.44 -2.56 -4.96 -0.52 -3.5 -3.76 -8.72 -1.24 -2 -2.68 0.14 -3.42 2.32a26.52 26.52 0 0 1 -1.72 3.76c-0.64 1.48 -1.66 1.24 -3.66 0.76 -2.48 -0.6 -2 0.34 -4.4 -0.34 -3.4 -0.98 -7.16 1.34 -11.7 -0.94Zm25.38 -0.18c-4.18 -0.5 -3.88 0.48 -2.44 -3.46a3.32 3.32 0 0 1 0.44 -0.6c0.46 -0.68 0.46 -0.68 0.94 0s2.4 4.22 1.08 4.06Zm-48.9 157.82a48.7 48.7 0 0 1 4.3 -6.88 6.26 6.26 0 0 1 2.44 0.94c0.48 0.42 -4.52 8.76 -5 8 -1.38 -1.9 -2.22 -1.42 -1.74 -2.06Zm5.68 4.64c-0.52 0.72 -4.28 6.18 -4.7 6.7 -0.34 -0.38 -0.64 -0.88 -0.26 -1.2a4.86 4.86 0 0 0 1.62 -2.56 5.68 5.68 0 0 0 0.18 -3.68c0 -0.34 0.12 -0.42 0.5 -1.02 5.82 -8.54 3.46 -8.5 6.84 -6.24 0.94 0.54 1.18 0.16 -4.18 8Zm6.36 -6c2.14 3.42 4 -0.9 -3.72 10.26 -3.54 5.08 -2.94 4.48 -4.32 4.62a2.2 2.2 0 0 1 -1.58 -0.42c-1.16 -0.88 -1.4 0.16 7.48 -12.66 1.38 -2.14 1.62 -2.66 2.14 -1.94ZM138 356.22a12.66 12.66 0 0 1 1.54 6.84c-0.2 1.24 -2 1.2 -2 0.48a15.54 15.54 0 0 0 -1.04 -6.96c0.14 -0.84 1.24 -0.86 1.5 -0.36Zm-4.54 -0.8a1.74 1.74 0 0 1 1.72 0.64 13.22 13.22 0 0 1 1.4 6.74c-0.16 1.42 -2.18 1.16 -2 0.26a11.48 11.48 0 0 0 -1.3 -6.94c-0.2 -0.54 -0.2 -0.68 0.26 -0.7ZM132 356a8.94 8.94 0 0 1 1.48 6.2c-0.24 0.66 -1.02 0.86 -2 0.56 -1.48 -0.46 0.18 -3.06 -2.62 -6.84 -0.32 -0.46 1.64 -1.62 3.14 0.08Zm-15.26 -4.18c5.56 1.14 8.42 2.1 8.62 7.4 0.22 0.98 0.18 0.68 0.14 1.02 -0.52 -0.34 -6.5 -6.24 -10.14 -7.78 -1.26 -0.46 0.64 -0.82 1.36 -0.68Zm32.3 36.36c-0.26 2.36 -7.74 -2.94 -9.58 -4.48 -0.7 -0.36 -8.14 -8 -13.28 -11.66 -6 -4.24 -11.32 -7.66 -14.74 -14.36 -0.44 -0.86 0.5 -1.5 1.28 -1.24 3.32 1.16 3.9 2.12 18.76 16.44 8.14 7.88 18.06 10.44 17.54 15.26Zm-2.22 -5.9c-0.92 -0.62 -9.02 -6 -10 -6.7 -11.12 -8.42 -20 -20.84 -25.38 -20.56 1.32 -3.32 2.78 -1.84 5.56 -0.16 8.36 5.02 13.46 15.38 23.8 21.02 2.82 1.5 10 6.5 11.1 8.76 -2.08 4.6 -0.46 0.82 -5.1 -2.4ZM133.42 368c5.3 1.02 8 1.02 11.12 6.32 0.5 0.82 0.98 2.9 0 2.14 -0.54 -0.32 -12.92 -7.8 -11.12 -8.46Zm25.42 5.22c-0.58 2.64 -5.84 9.52 -5.88 9.62 -0.36 0.42 -0.3 0 -3.64 -2.88 -2.56 -2.22 -3.2 -2.26 -2.52 -2.78 6.58 -5.2 8.76 -4.74 10.8 -4.9 1.34 0.18 1.46 0.06 1.24 1Zm3.68 -4.92c0.48 2 -2 1.88 -2.82 2.74a12.14 12.14 0 0 0 -8.58 1.54c-7.62 4.66 -1.8 3.12 -8.72 -3.16 -0.34 -0.26 -3.22 -1.62 -3.42 -1.72a21.5 21.5 0 0 0 -3.64 -0.76 31.36 31.36 0 0 1 -4 -0.52 19.76 19.76 0 0 1 -4.52 -5.04 27.16 27.16 0 0 0 -0.8 -5.68 4 4 0 0 1 1.58 0.34 9.42 9.42 0 0 1 2 5.46c0 3.38 2.96 2.18 4.4 3.16a2.42 2.42 0 0 0 2.36 0.22 4.14 4.14 0 0 0 2.26 0.52 2.9 2.9 0 0 0 1.52 -0.78c1.72 -1.78 0 -5.78 -0.1 -6.62s0 -0.86 0.88 -1.02a4 4 0 0 0 2.48 -1.5c1.2 -1.28 0.56 -3.04 2.96 -2.34a7.64 7.64 0 0 1 4.6 3.06 4.98 4.98 0 0 1 -2.82 7.48c-1.36 0.44 -2.86 0.52 -3.54 0.78s-0.26 1.4 0.82 1.24c4.44 -0.7 4 -2 4.7 -0.74 2.44 5.04 7.48 2.28 9.82 3.12 0.48 0.18 1.24 -0.34 1.02 -0.76 -0.96 -2.04 1.3 -0.12 1.56 1.04Zm-2.86 -2.6c-0.42 0.6 -0.3 0.98 -1.06 0.9 -1.38 -0.14 -2.24 0.54 -0.64 -1.72 8.76 -12.34 6.48 -10.22 8.76 -8.92 -1.88 3.04 0.04 -0.64 -7.06 9.8Zm9.06 -12.52c-1.1 1.5 -1.28 2 -1.5 1.58a11.36 11.36 0 0 0 -2.68 -2.76c-0.74 -0.44 -1.12 -2 -3.38 -3.22 -2.62 -1.44 -2.52 -2.64 -4.74 -3.12 -0.82 -0.16 -1.08 -0.3 -0.82 -0.72 0.86 -1.46 0.76 -1.74 1.42 -1.62a10.28 10.28 0 0 1 5.34 3.28c1.74 1.64 7.14 5.58 6.36 6.64Zm1.2 -1.5c-4.2 -4.32 -4.24 -4 -4.5 -4.14 -8.62 -9.16 -10.66 -1.7 -5.12 -11.08 0.2 -0.34 0.38 -0.42 0.68 -0.26 5.74 3.12 4 4 7.62 6.38a15.32 15.32 0 0 1 4.52 4.4 26 26 0 0 1 -3.12 4.76Zm38.68 -56.48c-1.16 1.7 -3.6 2.6 -5.82 5.34 -0.86 1.02 -0.56 1.76 -0.3 3 0.72 3.24 -2 5.16 -4 7.72a52.68 52.68 0 0 0 -3.58 7.22c-1.62 3.78 -3.08 4.76 -4.74 8.18 0 0 -6.24 13.02 -6.24 13.06 -1.28 3.12 -3.76 6.5 -4.5 8.3 -1.24 3.04 -1.32 3.38 -1.88 2.52 -1.5 -2.4 -6 -8 -8.54 -9.18s-1.84 -3.26 -6.42 -5.6c-4.18 -2.14 -7.68 -8.16 -12.94 -10.3 -2.86 -1.2 0.84 0.96 12 -22.32 4 -8.36 6.72 -12.46 7.78 -16.48 0.3 -1.08 1.42 -5.86 1.42 -6 2.56 -7.26 5.38 -8 7.72 -12.56 2 -3.84 6.4 -12.22 11.28 -22 6 -12 4.6 -10.52 5.26 -12.92a90.18 90.18 0 0 0 3.02 -11.18 8.32 8.32 0 0 0 2.56 0 0.58 0.58 0 0 0 -0.16 -1.12 58 58 0 0 1 -6.24 -0.34 5.1 5.1 0 0 0 -3.6 0.94c-0.74 0.88 -0.16 1.36 0.68 0.94 1.34 -0.68 1.72 -0.9 3.04 0 2.18 1.36 1.72 4 0.6 7.04 -2.14 6 -1.46 5.34 -2 6.98 -1.74 4.56 -2.18 3.8 -3.84 8.5 -0.34 0.98 -1.1 3.06 -1.46 2 -1.3 -3.86 -4.5 -8.38 -5.5 -16.38 -0.26 -2.74 -1.84 -7.68 -2.48 -11.66 -0.72 -4.58 -0.48 -20.38 -0.48 -20.44 0 -0.38 0.18 -0.46 0.52 -0.46 3.42 -0.22 4.44 -0.48 6.36 0.22 1.46 0.5 1.76 -0.4 3.68 0.16 2.22 0.64 4.28 0.78 5.18 -1.32 0.6 -1.36 0.38 -0.42 4.3 -0.42 1.24 0 1.42 0.6 2.28 2.64s1.62 2.14 8.12 4.14c11.48 3.64 12.5 1.58 9.82 3.34a23.74 23.74 0 0 1 -5.04 2c-2.44 0.9 -1.2 4.44 4.36 3.5 4.96 -0.84 4.32 -2.34 5.26 -1.06 2.44 3.3 7.04 9.82 12 12.9 3.24 2 4.18 0.7 3 -0.12 -0.62 -0.44 -1.58 0.26 -0.54 -1.62 3.76 -7.1 0.68 -7.14 4.56 -6.24 0.92 0.18 0.56 0 0.48 3.5 -0.26 9.88 -4.22 16.14 -8 23.3a79.5 79.5 0 0 0 -5.22 11.62c-0.9 2.18 -2 4.6 -2.7 6.32a56.46 56.46 0 0 1 -5.38 10.56c-6 8.88 -8.98 6.18 -11.76 13.32 -1.88 4.3 3.16 2.9 -1.92 10.46Zm37.6 36.62a18.58 18.58 0 0 1 -3.9 2.96 3.82 3.82 0 0 1 -2.34 0.42c-3.3 0 -2 -0.52 -4.54 -4.32 -2.26 -3.5 -5.72 -11.74 -7.56 -14 -2.74 -3.26 -2.86 -2.44 -4.56 -5.26 -2.74 -4.44 -2.24 -8.26 -6.46 -10 -1.72 -0.72 -6.58 -5.78 -5.72 -7.26 1.66 -2.96 2.18 -4 0.72 -7.18 -0.82 -1.8 1.58 -5.1 2.98 -6.46a48.28 48.28 0 0 0 5.52 -4.82c6 -5.86 12.26 -24.84 12.74 -23.76 5.08 12.12 1.44 20.16 6.92 21.32a4.14 4.14 0 0 1 3 5.16c-1.38 5.6 1.36 2.74 3.24 5.52a5.24 5.24 0 0 1 1.28 4.62c-1.1 6.36 7.14 7.44 11.88 16.74 1.36 2.66 6 7.14 5.3 7.78a64.4 64.4 0 0 0 -7.64 7.86c-7.44 10.3 -7.44 7.3 -10.86 10.68Zm2.6 1.66c-0.42 -0.58 -0.98 -1.1 -0.64 -1.36a28.64 28.64 0 0 0 8.8 -8.24c3.42 -4.92 2.74 -4.14 4.54 -1.58 -0.3 0.6 -11.38 12.94 -12.7 11.18Zm2.9 3.14c-1.74 -1.72 -1.78 -1.68 -1.32 -1.9a25.68 25.68 0 0 0 6.5 -5.58c1.84 -2 3.54 -3.82 4.48 -4.88s0.96 -0.74 1.16 -0.42c1.52 2.22 2 2 0.64 3.28 -5.08 4.3 -3.1 3.42 -8 7.78a6 6 0 0 1 -3.02 1.84 0.96 0.96 0 0 1 -0.44 -0.12Zm4.66 5.24c-4.9 -5.72 -3.42 -2.86 -1.32 -5.24 0.44 -0.52 7.44 7.8 7.7 8.24 -2.74 1.54 -1.44 2.76 -6.38 -3Zm1.58 10.64c-0.54 -0.64 -0.58 -1.28 1.5 -3.42a9.16 9.16 0 0 1 6 -3.24c2.12 -0.56 3.62 3.46 4.14 5.68 0.22 0.9 0 1.84 0.64 2.32a0.5 0.5 0 0 0 0.34 0.12 0.4 0.4 0 0 0 0.34 -0.48c0 -0.76 0.42 -1.44 0.18 -2.22s5.68 -0.64 5.9 -7.68a2.86 2.86 0 0 0 -1 -2c-1.06 -1.2 1.48 -1.38 1.78 -1.24 1.04 0.48 1.38 2.7 1.1 4.46a22 22 0 0 0 1.58 11.06 8.98 8.98 0 0 0 -8.76 6.2c-2 4.78 0.54 10.9 0.12 12 -0.72 1.88 -1.76 -1.84 -5.12 -2.38a18.92 18.92 0 0 0 -7.1 -0.64c-0.82 0 -0.22 -0.7 -0.18 -1.04s0 -0.64 0.4 -0.76a7.52 7.52 0 0 1 2.6 -0.22c3.66 0 4.76 1.42 5.42 -0.12s-0.18 -2 0.34 -2.66c1.02 -1.3 0.38 -2.64 0.74 -3.06a2.64 2.64 0 0 0 -1.46 -4 9.82 9.82 0 0 0 -5.22 -0.48c-0.72 0.26 -0.12 -1.06 -1.06 -2.74s-1.28 -1.14 -3.16 -3.46Zm2.78 7.66a9.44 9.44 0 0 1 6.24 0 1.46 1.46 0 0 1 1.08 0.6c0.6 1.18 0.16 2.14 -0.44 1.74a10.2 10.2 0 0 0 -6.66 -0.68c-0.94 0.18 -1.32 -1.06 -0.22 -1.66Zm-0.54 3.12c1.86 -0.9 7.66 -0.8 7.52 1.02 -0.22 2.48 -1.8 -0.26 -6 0.48 -0.5 0 -2.26 0.38 -2.22 0s0.04 -1.2 0.7 -1.5Zm-0.1 3.08a10 10 0 0 1 6.32 0.2 1.04 1.04 0 0 1 0.36 1.64c-0.4 0.5 -2.48 -0.56 -4.5 -0.4 -2.74 0.22 -2.86 0.48 -2.98 -0.16l0 -0.22a0.9 0.9 0 0 1 0.72 -1.06Zm-1.7 6a14.26 14.26 0 0 1 6.32 0.2 6.82 6.82 0 0 1 4.82 2.28c1.5 1.48 2 1.14 -4.4 4.82a14 14 0 0 1 -10.38 1.58c-4.18 -0.7 2.06 -8.7 3.64 -8.9Zm30 -15.14a45.06 45.06 0 0 0 -8.84 7.74c-3.56 4.58 -2.82 12.82 -12.14 17.44a15.64 15.64 0 0 1 -11.58 2.3c-1.54 -0.3 -2.14 -2.3 -1.34 -2 5.52 1.48 10.18 -0.82 15 -3.82 3.52 -2.18 5 -7.18 6.3 -11.02 2.34 -7.04 6.4 -8.68 11.4 -13.2 0.38 -0.34 0.64 0.12 0.94 0.56 0.72 0.78 0.98 1.3 0.3 1.98Z" fill="#000001" stroke-width="1"></path></g></g></svg>