<svg xmlns="http://www.w3.org/2000/svg" fill="none" viewBox="0 0 400 400" id="Task-List--Streamline-Manchester.svg" height="400" width="400"><desc>Task List Streamline Illustration: https://streamlinehq.com</desc><g id="task-list--Work-task-list"><path id="paper" fill="#ffb949" d="m211.616 67.5582 35.116 266.6998 -198.438 36.026L10 102.0682l201.616 -34.51Z" stroke-width="1"></path><g id="task list"><path id="vector" fill="#ffffff" d="m217.064 48.0322 -199.34402 45.56L70.696 359.234l196.016 -46.772 -49.648 -264.4298Z" stroke-width="1"></path><path id="vector_2" fill="#501200" d="M70.696 360.234c-0.476 0 -0.888 -0.336 -0.98 -0.804L16.73998 93.788c-0.106 -0.53 0.23 -1.05 0.758 -1.17C217.446 47.038 217.044 46.82 217.612 47.196l50.082 265.084c0.098 0.524 -0.232 1.034 -0.75 1.158l-196.248 46.798v-0.002ZM18.88998 94.35 71.474 358.02l194.08 -46.308 -49.28 -262.474L18.88998 94.35Z" stroke-width="1"></path><path id="vector_3" fill="#501200" d="M54.954 156.4982c-0.464 0 -0.868 -0.32 -0.974 -0.772 -7.416 -31.746 -7.498 -31.25 -7.124 -31.812 0.376 -0.56 -0.024 -0.146 28.216 -4.972 0.508 -0.086 0.976 0.218 1.122 0.7l6.078 29.302c0.106 0.528 -0.222 1.044 -0.746 1.17l-26.572 6.386v-0.002Zm-6.048 -31.216 6.792 29.008 24.422 -5.896 -5.586 -27.338 -25.628 4.224v0.002Z" stroke-width="1"></path><path id="vector_4" fill="#501200" d="m65.326 205.794 -5.75 -29.2118c-0.104 -0.532 0.232 -1.048 0.76 -1.168l27.246 -6.2062c0.542 -0.132 1.114 0.2342 1.208 0.8142 5.284 32.1818 5.352 31.7098 4.966 32.2338 -0.384 0.526 0.06 0.436 -27.302 4.334 -0.558 0.08 -1.028 -0.294 -1.128 -0.796Zm-3.6 -28.646 5.378 27.324 24.694 -3.648 -4.812 -29.4318 -25.26 5.7538v0.002Z" stroke-width="1"></path><path id="vector_5" fill="#501200" d="m76.9778 259.36 -5.298 -29.364c-0.096 -0.532 0.248 -1.042 0.774 -1.156l27.398 -5.904c0.568 -0.12 1.114 0.258 1.2 0.832 4.82 32.324 4.892 31.862 4.502 32.382 -0.392 0.52 0.046 0.404 -27.456 4.024 -0.552 0.072 -1.028 -0.304 -1.12 -0.814Zm-3.158 -28.768 4.956 27.472 24.838 -3.368 -4.386 -29.578 -25.408 5.474Z" stroke-width="1"></path><path id="vector_6" fill="#501200" d="M93.704 319.064c-0.466 0 -0.868 -0.324 -0.974 -0.774 -7.418 -31.892 -7.498 -31.404 -7.124 -31.962 0.372 -0.56 0 -0.052 28.216 -4.972 0.538 -0.094 1.038 0.26 1.144 0.788l5.904 29.212c0.106 0.524 -0.22 1.04 -0.74 1.168l-26.426 6.538v0.002Zm-6.05 -31.368 6.792 29.152 24.272 -6.034 -5.522 -27.33 -25.542 4.21v0.002Z" stroke-width="1"></path><path id="vector_7" fill="#ff7449" d="M113.378 133.0642c2.808 2.244 6.412 3.024 9.996 3.024 7.166 0 14.896 -3.424 20.928 -9.478 8.114 4.106 22.094 1.254 31.656 -9.412 6.754 2.922 18.152 -0.296 24.85 -10.964 0.294 -0.468 0.152 -1.084 -0.314 -1.378 -0.47 -0.292 -1.086 -0.152 -1.378 0.314 -5.742 9.146 -15.888 12.57 -21.768 10.428 2.936 -3.808 4.292 -7.51 3.93 -10.774 -0.866 -7.104 -9.612 -6.958 -12.212 -1.006 -2.132 5.332 0.858 9.922 5.052 12.434 -9.182 9.892 -21.79 11.938 -28.41 8.82 3.112 -3.43 6.8 -9.314 6.106 -13.752 -0.562 -3.596 -4.398 -5.93 -8.256 -4.142 -2.946 1.364 -5.414 4.852 -5.74 8.104 -0.45 4.052 1.37 7.96 4.696 10.288 -9.978 9.628 -21.896 10.126 -27.312 6.366 7.236 -5.33 9.762 -11.268 6.926 -16.422 -2.46 -4.432 -8.048 -2.624 -11.052 1.24 -3.49 4.552 -3.086 10.84 0.758 14.914 -4.908 2.924 -11.168 5.672 -16.72 4.32 -0.672 -0.908 -2.048 -0.13 -1.888 0.844 0.154 0.946 1.484 1.152 1.97 1.196 1.11 0.302 2.15 0.312 3.266 0.312 4.196 -0.264 8.366 -1.27 14.92 -5.27l-0.004 -0.006Zm57.528 -28.476c1.708 -3.904 7.752 -4.696 8.382 0.466 0.388 3.492 -1.746 7.09 -3.806 9.678 -3.4 -1.896 -6.418 -5.54 -4.576 -10.144Zm-31.102 10.9c0.322 -3.218 3.436 -6.94 6.438 -6.94 1.584 0 3.286 1.11 3.592 3.078 0.468 2.992 -1.816 7.486 -4.226 10.54 -0.422 0.536 -1.008 1.132 -1.71 1.926 -2.882 -1.89 -4.474 -5.18 -4.094 -8.602v-0.002Zm-27.148 2.482c1.218 -1.566 3.588 -3.21 5.506 -3.05 0.948 0.072 1.672 0.584 2.212 1.556 3.144 5.718 -2.596 11.154 -6.768 14.138 -3.47 -3.352 -3.924 -8.766 -0.952 -12.644h0.002Z" stroke-width="1"></path><path id="vector_8" fill="#ff7449" d="M122.806 184.9602c9.48 7.068 24.848 0.176 32.79 -8.298 2.158 1.83 5.346 3.374 10.426 3.374 8.414 0 16.888 -4.896 22.464 -10.704 6.524 4.476 23.292 1.868 26.926 -6.784 0.214 -0.51 -0.026 -1.096 -0.534 -1.31 -0.51 -0.216 -1.096 0.026 -1.31 0.534 -3.006 7.158 -17.912 9.566 -23.592 6.142 2.272 -2.596 5.08 -6.452 5.08 -11.076 -0.176 -7.352 -8.546 -7.35 -11.144 -1.598 -2.254 4.99 -0.14 9.938 3.004 12.838 -6.362 6.56 -16.518 11.652 -25.782 9.302 -1.438 -0.364 -2.97 -1.152 -4.292 -2.286 3.524 -4.238 6.946 -10.018 4.824 -14.866 -1.89 -4.124 -6.93 -1.902 -9.042 1.586 -2.584 4.266 -1.822 9.744 1.536 13.458 -7.05 7.522 -20.826 14.284 -29.572 8.498 6.014 -3.554 9.79 -7.812 10.962 -12.77 0.932 -3.936 -1.788 -8.148 -5.808 -8.918 -9.872 -1.894 -16.38 13.666 -8.446 21.374 -3.932 1.818 -7.514 3.302 -11.7 3.586 -0.876 0 -2.418 -0.998 -3.542 -0.384 -0.256 0.138 -0.594 0.418 -0.75 0.958 -0.308 1.08 1.126 1.756 1.774 0.86 0.648 0.122 1.586 0.564 2.574 0.564 4.83 -0.322 8.696 -2.006 13.154 -4.08Zm62.93 -28.898c1.716 -3.8 7.198 -4.382 7.322 0.8 0 4.02 -2.638 7.532 -4.68 9.844 -2.666 -2.388 -4.506 -6.516 -2.642 -10.644Zm-31.402 6.79c0.792 -1.23 2.802 -2.932 4.252 -2.856 0.344 0.024 0.848 0.162 1.256 1.05 1.756 4.016 -1.718 9.342 -4.422 12.63 -2.584 -3.066 -3.048 -7.39 -1.086 -10.824Zm-34.206 8.748c1.224 -4.902 4.858 -7.646 8.028 -7.646 3.94 0 6.18 3.492 5.448 6.586 -1.074 4.536 -4.72 8.494 -10.592 11.834 -0.13 -0.21 -4.616 -3.832 -2.884 -10.772v-0.002Z" stroke-width="1"></path><path id="vector_9" fill="#ff7449" d="M165.282 231.724c2.598 1.67 6.362 2.286 9.3 2.286 8.722 0 18.03 -4.796 24.134 -10.76 1.404 1.43 3.188 2.622 5.19 3.286 9.62 3.192 20.608 -3.424 27.528 -11.188 0.368 -0.412 0.332 -1.044 -0.082 -1.412 -0.412 -0.366 -1.042 -0.332 -1.412 0.082 -6.236 6.994 -16.262 13.656 -25.406 10.622 -1.67 -0.554 -3.226 -1.6 -4.422 -2.82 2.012 -2.168 3.692 -4.732 5.006 -7.654 1.128 -2.666 1.426 -7.678 -0.982 -9.772 -0.98 -0.854 -2.75 -1.508 -5.616 0.208 -6.128 3.83 -5.476 11.568 -1.12 17.134 -10.788 10.624 -24.7 12.124 -30.74 8.494 4.284 -4.962 7.58 -13.672 2.414 -17.708 -6.338 -4.756 -14.406 9.556 -5.39 17.968 -5.954 5.846 -16.074 9.722 -24.106 5.646l-0.036 -0.012c5.204 -3.92 7.538 -8.486 6.764 -13.262 -0.872 -5.926 -7.41 -7.662 -11.674 -3.75 -4.938 4.79 -3.586 12.396 1.412 16.958 -4.404 2.676 -8.622 4.348 -16.296 5.626 -1.286 0.184 -3.966 -0.326 -4.646 0.776 -0.716 1.154 0.834 2.262 1.622 1.306 0.838 -0.084 2.526 0.01 3.33 -0.106 6.822 -1.136 11.828 -2.608 17.678 -6.296 6.558 4.428 18.938 2.976 27.55 -5.65v-0.002Zm34.286 -25.416c0.864 -0.518 1.6 -0.778 2.202 -0.778 2.602 0 2.58 5.324 1.518 7.834 -1.182 2.626 -2.686 4.95 -4.478 6.92 -3.476 -4.602 -4.204 -10.876 0.758 -13.978v0.002Zm-37.678 12.81c0.474 -2.112 2.428 -5.552 4.534 -5.552 0.482 0 0.954 0.18 1.44 0.544 3.9 3.048 0.844 10.356 -2.06 14.094 -0.244 0.244 -0.49 0.528 -0.734 0.814 -2.766 -2.576 -3.966 -6.4 -3.18 -9.9Zm-28.33 7.896c-0.308 -4.56 2.876 -8 6.24 -8 2.254 0 4.142 1.506 4.53 4.154 0.686 4.226 -1.516 8.182 -6.546 11.766 -2.424 -2.02 -4.026 -4.996 -4.224 -7.92Z" stroke-width="1"></path><path id="vector_10" fill="#ff7449" d="M237.398 269.188c-0.324 -0.444 -0.952 -0.544 -1.398 -0.218 -4.628 3.376 -15.104 11.022 -22.188 8.782 3.064 -3.244 6.57 -10.624 4.96 -14.718 -0.446 -1.136 -1.504 -2.556 -4.004 -2.876 -8.138 -1.016 -10.08 11.572 -6.042 16.316 0.49 0.588 1.058 1.144 1.698 1.662 -5.842 5.292 -15.4718 9.37 -24.1758 6.606 3.12 -2.674 5.5038 -6.242 6.9558 -10.458 1.494 -5.414 -1.7158 -10.604 -7.2418 -9.262 -8.832 2.024 -12.24 14.71 -3.664 20.196 -7.378 5.092 -18.6642 8.712 -27.0182 6.07 4.134 -3.31 5.84 -7.38 4.948 -11.852 -1.418 -7.596 -8.398 -7.852 -12.422 -2.882 -4.056 5.006 -2.07 11.888 3.398 15.166 -5.124 2.762 -10.588 3.98 -16.0118 4.306 -0.282 -0.01 -1.882 -0.238 -2.592 -0.378 -0.118 -0.048 -0.2462 -0.076 -0.3802 -0.076 -1.296 0 -1.4198 1.694 -0.3098 1.97 0.63 0.158 2.8218 0.482 3.3238 0.482 6.376 -0.374 12.726 -1.974 18.196 -5.272 9.658 3.764 22.5782 -0.444 30.9502 -6.558 7.57 3.202 19.2618 1.066 27.7798 -6.932 7.626 3.424 18.336 -3.792 25.024 -8.672 0.446 -0.326 0.544 -0.952 0.218 -1.398l-0.004 -0.004Zm-88.912 16.798c-4.002 -8.128 7.9302 -16.062 9.7782 -6.174 0.812 4.066 -0.934 7.64 -5.192 10.63 -1.856 -0.838 -3.512 -2.446 -4.584 -4.456h-0.0022Zm33.25 -3.908c-4.838 -4.704 -1.892 -13.606 4.684 -15.114 4.14 -0.998 5.8802 3.07 4.8742 6.724 -1.45 4.204 -3.938 7.73 -7.214 10.232 -0.85 -0.404 -1.6242 -1.01 -2.3442 -1.844v0.002Zm32.778 -19.936c1.262 0.162 2.024 0.676 2.396 1.624 1.198 3.046 -1.942 9.538 -3.656 11.594 -0.39 0.488 -0.854 0.984 -1.298 1.436 -0.652 -0.498 -1.222 -1.036 -1.7 -1.612 -2.974 -3.49 -1.75 -13.81 4.258 -13.042Z" stroke-width="1"></path><path id="vector_11" fill="#ff7449" d="M88.86 89.2022c-1.816 -0.908 -4.086 -0.152 -4.996 1.816 -3.784 8.172 -14.966 35.24 -16.65 40.716 -0.908 2.422 -1.816 5.298 -2.876 7.416 -1.128 -1.354 -4.022 -5.472 -4.086 -5.6 -0.688 -0.692 -2.318 -5.928 -6.356 -4.39 -2.622 1.05 -3.234 4.486 -1.21 6.508 1.796 3.142 1.736 2.414 2.12 3.178 4.692 6.812 7.114 8.93 9.838 9.234 2.764 0 4.042 -1.276 6.04 -4.976 2.064 -3.824 5.5 -14.924 8.038 -19.998v-0.152c2.804 -6.17 4.958 -13.592 11.958 -28.76 0.908 -1.816 0.152 -4.086 -1.816 -4.994l-0.004 0.002Z" stroke-width="1"></path></g><g id="pencil"><path id="vector_12" fill="#ff7449" d="m369.638 97.0718 -148.79 92.938 7.872 13.1682s107.62 -67.0542 147.882 -92.3322l-6.962 -13.774h-0.002Z" stroke-width="1"></path><path id="vector_13" fill="#ffffff" d="M221 190.0098 196.3282 212.866l32.3918 -9.688 -7.72 -13.1682Z" stroke-width="1"></path><path id="vector_14" fill="#501200" d="M390.194 97.0478c-0.888 -1.628 -2.028 -3.348 -2.912 -4.938 -0.232 -1.944 -4.354 -4.494 -8.032 -2.242 -160.334 98.182 -158.53 98.772 -159.54 99.714L195.644 212.136c-0.764 0.714 -0.044 1.99 0.97 1.688 33.502 -10.012 33.054 -9.672 33.418 -10.286l158.31 -98.8122c2.648 -1.702 3.462 -5.174 1.85 -7.676l0.002 -0.002Zm-190.082 113.6422 20.542 -19.2522 6.55 11.1362 -27.092 8.116Zm28.95 -8.904 -6.814 -11.6242 146.99 -91.662 6.058 11.982 -146.234 91.3022v0.002Z" stroke-width="1"></path></g><g id="spark"><path id="vector_15" fill="#ff7449" d="M289.994 47.978c-1.806 -0.516 -6.524 -2.032 -8.544 -2.68 1.942 -6.812 4.12 -13.8 4.726 -14.862 0.79 -0.762 -0.062 -2.054 -1.066 -1.648 -1.022 0.41 -3.524 8.652 -5.546 15.906 -8.66 -2.766 -8.7 -2.7 -9.18 -1.91 -0.438 0.718 0.184 1.718 1.06 1.538 0.968 0.208 4.342 1.268 7.586 2.302 -1.348 4.918 -2.374 8.958 -2.396 9.058 -0.14 0.62 0.328 1.222 0.976 1.222 0.456 0 0.87 -0.314 0.974 -0.778 0.506 -2.226 1.36 -5.466 2.32 -8.902 3.298 1.048 8.416 2.716 8.814 2.716 1.154 0 1.384 -1.644 0.274 -1.962h0.002Z" stroke-width="1"></path><path id="vector_16" fill="#ff7449" d="M311.226 67.782c-0.994 -0.166 -1.232 -0.018 -10.254 12.442 -7.044 -6.266 -6.818 -6.192 -7.022 -6.296 -0.452 -0.224 -1.012 -0.078 -1.29 0.346 -0.502 0.768 -0.56 0.812 7.128 7.578 -2.216 3.04 -4.284 5.818 -5.684 7.458 -0.358 0.42 -0.308 1.052 0.112 1.41 0.42 0.358 1.052 0.308 1.41 -0.112 1.416 -1.662 3.47 -4.412 5.666 -7.422 2.328 2.06 5.856 5.168 7.616 6.634 0.428 0.354 1.056 0.294 1.41 -0.128 0.354 -0.424 0.296 -1.056 -0.128 -1.41 -1.57 -1.306 -4.664 -4.02 -7.714 -6.724 2.038 -2.814 7.848 -10.934 8.916 -11.846 0.976 -0.344 0.846 -1.76 -0.166 -1.93Z" stroke-width="1"></path></g></g></svg>