<svg xmlns="http://www.w3.org/2000/svg" fill="none" viewBox="0 0 400 400" id="Online-Learning-4--Streamline-Manchester.svg" height="400" width="400"><desc>Online Learning 4 Streamline Illustration: https://streamlinehq.com</desc><g id="online-learning-4--education-online-learning"><g id="books"><path id="vector" fill="#ffffff" d="M270.114 280.386H149.946c-0.8814 0 -1.596 0.714 -1.596 1.596v6.878c0 0.882 0.7146 1.596 1.596 1.596h120.168c0.882 0 1.596 -0.714 1.596 -1.596v-6.878c0 -0.882 -0.714 -1.596 -1.596 -1.596Z" stroke-width="1"></path><path id="vector_2" fill="#ffb949" d="M285.14 290.456H127.358c-1.0084 0 -1.826 0.818 -1.826 1.826v6.418c0 1.008 0.8176 1.826 1.826 1.826h157.782c1.008 0 1.826 -0.818 1.826 -1.826v-6.418c0 -1.008 -0.818 -1.826 -1.826 -1.826Z" stroke-width="1"></path><path id="vector_3" fill="#ffb949" d="M284.952 322.65H144.776c-1.1124 0 -2.014 0.902 -2.014 2.014v9.684c0 1.112 0.9016 2.014 2.014 2.014h140.176c1.112 0 2.014 -0.902 2.014 -2.014v-9.684c0 -1.112 -0.902 -2.014 -2.014 -2.014Z" stroke-width="1"></path><path id="vector_4" fill="#ff7449" d="M313.342 336.362H126.656c-1.6524 0 -2.992 1.34 -2.992 2.992v16.672c0 1.652 1.3396 2.992 2.992 2.992h186.686c1.652 0 2.992 -1.34 2.992 -2.992v-16.672c0 -1.652 -1.34 -2.992 -2.992 -2.992Z" stroke-width="1"></path><path id="vector_5" fill="#ff7449" d="M250.262 221.214H142.534c-1.119 0 -2.026 0.908 -2.026 2.026v13.856c0 1.118 0.907 2.026 2.026 2.026h107.728c1.118 0 2.026 -0.908 2.026 -2.026v-13.856c0 -1.118 -0.908 -2.026 -2.026 -2.026Z" stroke-width="1"></path><path id="vector_6" fill="#ffffff" d="M271.164 209.132c0.072 0 0.142 -0.014 0.208 -0.042 0.066 -0.028 0.126 -0.068 0.178 -0.118 0.05 -0.05 0.09 -0.11 0.118 -0.178 0.026 -0.066 0.04 -0.136 0.04 -0.208v-2.964c0 -0.144 -0.058 -0.282 -0.16 -0.384 -0.102 -0.102 -0.24 -0.16 -0.384 -0.16H182.16c-0.0714 0 -0.1422 0.014 -0.2082 0.042 -0.066 0.026 -0.126 0.066 -0.1764 0.118 -0.0506 0.05 -0.0906 0.11 -0.118 0.176 -0.0274 0.066 -0.0414 0.136 -0.0414 0.208v2.964c-0.0002 0.072 0.0136 0.142 0.0408 0.208 0.0272 0.068 0.0672 0.128 0.1178 0.178 0.0506 0.05 0.1106 0.09 0.1768 0.118 0.066 0.028 0.137 0.042 0.2086 0.042h3.504v8.026H182.16c-0.0716 0 -0.1426 0.014 -0.2086 0.042 -0.0662 0.028 -0.1262 0.068 -0.1768 0.118 -0.0506 0.05 -0.0906 0.11 -0.1178 0.178 -0.0272 0.066 -0.041 0.136 -0.0408 0.208v2.964c0 0.144 0.0572 0.284 0.1592 0.386 0.102 0.102 0.2404 0.16 0.3848 0.16h89c0.144 0 0.282 -0.058 0.384 -0.16 0.102 -0.102 0.16 -0.242 0.16 -0.386v-2.964c0 -0.072 -0.014 -0.142 -0.04 -0.208 -0.028 -0.068 -0.068 -0.128 -0.118 -0.178 -0.052 -0.05 -0.112 -0.09 -0.178 -0.118 -0.066 -0.028 -0.136 -0.042 -0.208 -0.042h-3.2v-8.026h3.204Z" stroke-width="1"></path><path id="vector_7" fill="#ffffff" d="M280.712 243.176c0.072 0 0.142 -0.014 0.208 -0.04 0.068 -0.028 0.128 -0.068 0.178 -0.118 0.05 -0.052 0.09 -0.112 0.118 -0.178 0.028 -0.066 0.042 -0.136 0.042 -0.208v-2.964c0 -0.144 -0.058 -0.284 -0.16 -0.386 -0.102 -0.102 -0.242 -0.16 -0.386 -0.16H158.444c-0.1448 0 -0.2836 0.058 -0.386 0.16 -0.1024 0.102 -0.16 0.242 -0.16 0.386v2.964c0 0.072 0.0142 0.142 0.0416 0.208 0.0274 0.066 0.0678 0.126 0.1184 0.178 0.0508 0.05 0.111 0.09 0.1772 0.118 0.0662 0.026 0.1372 0.04 0.2088 0.04h3.6v11.024h-3.6c-0.1448 0 -0.2836 0.058 -0.386 0.16 -0.1024 0.102 -0.16 0.242 -0.16 0.386v2.964c0 0.144 0.0576 0.284 0.16 0.386 0.1024 0.102 0.2412 0.16 0.386 0.16h122.268c0.144 0 0.284 -0.058 0.386 -0.16 0.102 -0.102 0.16 -0.242 0.16 -0.386v-2.964c0 -0.144 -0.058 -0.284 -0.16 -0.386 -0.102 -0.102 -0.242 -0.16 -0.386 -0.16h-3.866v-11.03l3.866 0.006Z" stroke-width="1"></path><path id="vector_8" fill="#ffffff" d="M264.876 262.136H149.674v14.254h115.202v-14.254Z" stroke-width="1"></path><path id="vector_9" fill="#ffffff" d="M266.866 305.314H141.62v12.87h125.246v-12.87Z" stroke-width="1"></path><path id="vector_10" fill="#501200" d="M313.492 335.6h-26.022c0.378 -0.8 0.266 -0.482 0.266 -11.028 0 -0.712 -0.284 -1.394 -0.786 -1.898 -0.504 -0.502 -1.186 -0.786 -1.898 -0.786h-13.568c0.306 -0.512 0.224 -0.682 0.224 -3.278 0 -0.416 -0.166 -0.814 -0.46 -1.108 -0.294 -0.294 -0.692 -0.46 -1.108 -0.46h-2.454v-10.892h2.454c0.416 0 0.814 -0.166 1.108 -0.46 0.294 -0.294 0.46 -0.694 0.46 -1.11 0 -2.734 0.066 -2.8 -0.224 -3.278h13.746c0.664 0 1.3 -0.264 1.77 -0.734s0.734 -1.106 0.736 -1.77v-6.6c-0.002 -0.664 -0.266 -1.3 -0.736 -1.77s-1.106 -0.734 -1.77 -0.734h-12.886c0.186 -0.536 0.134 -0.078 0.134 -7.784 -0.002 -0.606 -0.242 -1.186 -0.67 -1.616 -0.43 -0.428 -1.01 -0.668 -1.616 -0.67h-1.448c0.28 -0.498 0.2 -0.716 0.2 -3.346 0 -0.198 -0.038 -0.392 -0.114 -0.574 -0.076 -0.182 -0.186 -0.348 -0.326 -0.488 -0.14 -0.138 -0.306 -0.25 -0.488 -0.324 -0.182 -0.076 -0.376 -0.114 -0.574 -0.114h-1.906v-10.892h1.906c0.198 0 0.392 -0.038 0.574 -0.114 0.182 -0.074 0.348 -0.186 0.488 -0.324 0.14 -0.14 0.25 -0.306 0.326 -0.488 0.076 -0.182 0.114 -0.376 0.114 -0.574 0 -2.826 0.062 -2.884 -0.2 -3.346h11.968c0.348 0 0.684 -0.14 0.93 -0.386s0.386 -0.582 0.386 -0.93v-2.964c0 -0.348 -0.14 -0.684 -0.386 -0.93s-0.582 -0.386 -0.93 -0.386h-2.862v-9.49h2.862c0.348 0 0.684 -0.138 0.93 -0.384 0.246 -0.248 0.386 -0.582 0.386 -0.93v-2.964c0 -0.348 -0.14 -0.684 -0.386 -0.93s-0.582 -0.386 -0.93 -0.386h-27.926c0.176 -0.36 0.268 -0.756 0.27 -1.156 0 -15.222 0.11 -14.42 -0.27 -15.214h18.378c0.348 0 0.682 -0.138 0.93 -0.384 0.246 -0.248 0.384 -0.582 0.384 -0.93v-2.964c0 -0.348 -0.138 -0.684 -0.384 -0.93 -0.248 -0.246 -0.582 -0.386 -0.93 -0.386H268.8v-6.486h2.37c0.348 0 0.682 -0.14 0.93 -0.386 0.246 -0.246 0.384 -0.582 0.384 -0.93v-2.964c0 -0.348 -0.14 -0.682 -0.386 -0.928s-0.58 -0.386 -0.928 -0.386H182.16c-0.3484 0 -0.6822 0.14 -0.9286 0.386 -0.2462 0.246 -0.3848 0.58 -0.3854 0.928v2.964c0 0.348 0.1384 0.684 0.3848 0.93 0.2462 0.246 0.5806 0.386 0.9292 0.386h2.75v6.486H182.16c-0.3486 0 -0.683 0.14 -0.9292 0.386 -0.2464 0.246 -0.3848 0.582 -0.3848 0.93v2.74H142.432c-0.7144 0 -1.3992 0.284 -1.9044 0.79 -0.505 0.504 -0.789 1.19 -0.7896 1.904v14.054c0.0006 0.714 0.2844 1.4 0.7894 1.906 0.5052 0.504 1.19 0.788 1.9046 0.79h14.696v2.74c0.0006 0.348 0.1394 0.682 0.3862 0.93 0.2466 0.246 0.5812 0.384 0.9298 0.384h2.862v9.49h-2.862c-0.3488 0 -0.6832 0.14 -0.93 0.386 -0.2466 0.246 -0.3854 0.582 -0.386 0.93 0 3.22 -0.04 3.154 0.122 3.51h-10.168c-0.3978 0 -0.7794 0.158 -1.0606 0.44 -0.2814 0.28 -0.4394 0.662 -0.4394 1.06v2.616c0 0.398 0.158 0.78 0.4394 1.06 0.2812 0.282 0.6628 0.44 1.0606 0.44h1.918v10.892h-1.908c-0.3978 0 -0.7794 0.158 -1.0606 0.44 -0.2814 0.28 -0.4394 0.662 -0.4394 1.06v2.616c0 0.398 0.158 0.78 0.4394 1.06 0.2812 0.282 0.6628 0.44 1.0606 0.44h1.086c-0.3766 0.416 -0.5862 0.956 -0.588 1.516 0 7.6 -0.054 7.242 0.136 7.784h-20.46c-0.6638 0.002 -1.3 0.266 -1.7694 0.734 -0.4694 0.47 -0.7336 1.106 -0.7346 1.77v6.6c0.001 0.664 0.2652 1.3 0.7346 1.77 0.4694 0.468 1.1056 0.732 1.7694 0.734h9.822c-0.306 0.514 -0.226 0.684 -0.226 3.278 0.0006 0.416 0.1662 0.816 0.4604 1.11 0.2944 0.294 0.6934 0.46 1.1096 0.46h2.452v10.892h-2.452c-0.416 0 -0.815 0.166 -1.1094 0.46 -0.2944 0.294 -0.46 0.692 -0.4606 1.108v2.478c0 0.416 0.1654 0.816 0.4598 1.11 0.2944 0.294 0.6938 0.46 1.1102 0.46H142.8c-0.2544 0.25 -0.4562 0.548 -0.5936 0.876 -0.1372 0.328 -0.2076 0.682 -0.2064 1.038 0 10.65 -0.1 10.258 0.266 11.028h-15.76c-0.9576 0.002 -1.8758 0.382 -2.553 1.06 -0.677 0.676 -1.058 1.594 -1.059 2.552v16.972c0.001 0.958 0.382 1.876 1.059 2.552 0.6772 0.678 1.5954 1.058 2.553 1.06h186.986c0.958 -0.002 1.876 -0.382 2.552 -1.06 0.678 -0.676 1.058 -1.594 1.06 -2.552v-16.98c-0.004 -0.956 -0.386 -1.87 -1.064 -2.546 -0.676 -0.674 -1.592 -1.052 -2.548 -1.054Zm-161.8 -97.24h-9.26c-0.3064 0 -0.6002 -0.122 -0.8168 -0.34 -0.2168 -0.216 -0.3386 -0.51 -0.3392 -0.816v-14.058c0.001 -0.306 0.1232 -0.6 0.3398 -0.816 0.2166 -0.216 0.51 -0.338 0.8162 -0.34h9.264l-0.004 16.37Zm-10.982 61.4h-13.444c-0.2556 0 -0.5008 -0.102 -0.6816 -0.282 -0.1808 -0.182 -0.2824 -0.426 -0.2824 -0.682v-6.6c0 -0.256 0.1016 -0.5 0.2824 -0.682 0.1808 -0.18 0.426 -0.282 0.6816 -0.282h13.448l-0.004 8.528Zm144.516 -8.528c0.256 0 0.502 0.102 0.682 0.282 0.182 0.18 0.284 0.426 0.284 0.682v6.6c0 0.256 -0.102 0.502 -0.284 0.682 -0.18 0.18 -0.426 0.282 -0.682 0.282h-17.372v-8.528h17.372Zm-15.038 -10.07c0.198 0 0.388 0.08 0.528 0.218 0.14 0.14 0.218 0.33 0.22 0.528v7.038c-0.002 0.198 -0.08 0.388 -0.22 0.528 -0.14 0.138 -0.33 0.218 -0.528 0.218h-11.38v-8.53h11.38Zm-87.8 -72.8v-2.514h88.552v2.514H182.388Zm4.064 1.54h80.8v6.486h-80.8v-6.486Zm-4.064 8.026h88.552v2.516H182.386l0.002 -2.516Zm69.132 5.21v14.062c0 0.306 -0.122 0.6 -0.338 0.818 -0.218 0.216 -0.512 0.338 -0.818 0.338H240.4v-16.37h9.964c0.306 0.002 0.598 0.122 0.814 0.338 0.216 0.216 0.338 0.508 0.34 0.814h0.002Zm-90.272 -1.156h69.532v16.37H161.246l0.002 -16.37Zm-2.58 20.418v-2.514h121.82v2.514h-121.82Zm117.642 1.54v9.49H162.846v-9.49h113.464Zm-117.642 11.03h121.82v2.516h-121.82v-2.516Zm-8.14 8.902H264v10.892H150.528v-10.892Zm104.226 27.348v8.528H153.818v-8.528h100.936Zm-87.558 -1.54v-8.53h85.666v8.53H167.196Zm-18.076 -7.784c0.0006 -0.198 0.0792 -0.388 0.219 -0.526 0.1398 -0.14 0.3292 -0.22 0.527 -0.22h11.38v8.53h-11.38c-0.1978 0 -0.3872 -0.08 -0.527 -0.22 -0.1398 -0.138 -0.2184 -0.328 -0.219 -0.526v-7.038Zm-6.696 35.132v-10.892h123.722v10.892H142.424Zm4.414 41.214H126.506c-0.5494 0 -1.076 -0.22 -1.4646 -0.608 -0.3884 -0.388 -0.6068 -0.914 -0.6074 -1.464V339.2c0.0006 -0.55 0.219 -1.076 0.6074 -1.464 0.3886 -0.39 0.9152 -0.608 1.4646 -0.608h20.332v21.114Zm6.98 -22.656h-9.142c-0.3034 0 -0.5944 -0.12 -0.809 -0.336 -0.2144 -0.214 -0.335 -0.504 -0.335 -0.808v-9.884c0 -0.304 0.1206 -0.594 0.335 -0.808 0.2146 -0.216 0.5056 -0.336 0.809 -0.336h9.142v12.172Zm8.758 -12.172h98.316v12.186H162.576v-12.186Zm112.764 34.828H163.816v-21.11h111.524v21.11Zm10.856 -23.8c0 0.304 -0.122 0.594 -0.336 0.808 -0.214 0.214 -0.504 0.336 -0.808 0.336h-15.4v-12.166h15.4c0.304 0 0.594 0.122 0.808 0.336 0.214 0.214 0.336 0.504 0.336 0.808v9.878Zm29.368 21.728c0 0.55 -0.22 1.076 -0.608 1.464 -0.388 0.388 -0.914 0.608 -1.464 0.608h-21.174v-21.11h21.174c0.55 0 1.076 0.218 1.464 0.608 0.388 0.388 0.608 0.914 0.608 1.464v16.966Z" stroke-width="1"></path></g><g id="person"><path id="vector_11" fill="#ffffff" d="m189.6 273.536 15.362 -10.432s4.722 7.058 4.2 7.786c-0.522 0.728 -23.456 19.928 -23.768 19.358 -0.312 -0.57 4.206 -16.712 4.206 -16.712Z" stroke-width="1"></path><path id="vector_12" fill="#ffffff" d="m112.696 286.354 12.732 -13.216 17.3 -1.246s0.83 8.788 0 9.066c-0.83 0.278 -28.994 6.158 -30.032 5.396Z" stroke-width="1"></path><path id="vector_13" fill="#ffffff" d="M269.322 141.492c-9.962 -21.518 -34.354 -31.654 -34.354 -31.654s-1.8 -41.104 -1.8 -43.844c0 -2.74 2.11 -24.244 -18.188 -24.942 -21.57 -0.738 -17.676 23.552 -17.48 26.4 0.154 2.238 -1.484 38.372 -1.484 38.372C173.32 108.036 157.222 130.4 157.222 130.4s-2.54 0.056 -11.414 0.416c-8.874 0.36 -7.472 9.37 -7.472 9.37 -2.746 0.334 -1.818 7.032 -1.818 7.032 -3.2 4.352 -1.046 5.188 -1.046 5.188 -1.8 4.64 1.4 4 1.4 4 -1.242 4.044 1.2 3.526 1.2 3.526 -1.2 4.568 2.576 1.95 2.576 1.95 0.964 10.51 0 18.86 9.2 18.24 9.726 -0.658 86.428 -0.8 86.428 -0.8l0.334 -8.432c27.928 8.51 42.668 -7.89 32.712 -29.398Zm-31.4 9.412 0.466 -12.456c4 2.182 11.522 12.456 11.522 12.456 -3.978 0.518 -8.008 0.518 -11.986 0h-0.002Z" stroke-width="1"></path><path id="vector_14" fill="#501200" d="M213.566 61.2c-1.322 -1.9488 -2.024 -4.2506 -2.018 -6.6052 0.006 -2.3546 0.72 -4.6528 2.052 -6.5948 0.126 -0.1538 0.308 -0.2526 0.506 -0.2758 0.196 -0.0232 0.396 0.031 0.554 0.1514 0.158 0.1202 0.264 0.2972 0.296 0.4938 0.03 0.1966 -0.016 0.3974 -0.13 0.5606 -1.164 1.6796 -1.784 3.6752 -1.78 5.7184 0.006 2.0432 0.636 4.0358 1.808 5.7096 0.102 0.1708 0.134 0.3744 0.09 0.5682 -0.044 0.194 -0.162 0.363 -0.33 0.4718 -0.166 0.109 -0.368 0.1492 -0.564 0.1122 -0.196 -0.037 -0.368 -0.148 -0.484 -0.3102Z" stroke-width="1"></path><path id="vector_15" fill="#501200" d="M217.83 61.26c-0.606 -0.8132 -1.022 -1.7528 -1.214 -2.749 -0.192 -0.996 -0.156 -2.0226 0.104 -3.003 0.062 -0.1904 0.196 -0.3492 0.372 -0.4428 0.176 -0.0938 0.384 -0.1148 0.576 -0.059 0.192 0.056 0.354 0.1844 0.454 0.3584 0.098 0.174 0.126 0.3796 0.076 0.5734 -0.188 0.7418 -0.21 1.5158 -0.068 2.2676 0.144 0.7518 0.45 1.4632 0.896 2.0844 0.126 0.1588 0.184 0.361 0.162 0.5626 -0.022 0.2014 -0.122 0.3862 -0.28 0.5138 -0.158 0.1278 -0.36 0.1882 -0.562 0.1684 -0.2 -0.02 -0.386 -0.1188 -0.516 -0.2748Z" stroke-width="1"></path><path id="vector_16" fill="#501200" d="M222.476 61.2c1.158 -7.262 -2.336 -10.518 -2.486 -10.654 -0.148 -0.1368 -0.238 -0.3266 -0.248 -0.5286 -0.01 -0.202 0.06 -0.3998 0.194 -0.5508 0.134 -0.151 0.322 -0.2432 0.524 -0.2564 0.202 -0.0132 0.402 0.0536 0.554 0.1858 0.176 0.156 4.28 3.904 2.984 12.046 -0.032 0.2018 -0.142 0.3826 -0.308 0.5026 -0.166 0.12 -0.372 0.1694 -0.574 0.1374 -0.202 -0.032 -0.382 -0.143 -0.502 -0.3084 -0.12 -0.1654 -0.17 -0.3718 -0.138 -0.5736Z" stroke-width="1"></path><path id="vector_17" fill="#501200" d="M205.488 60.6c-0.972 -1.4248 -1.392 -3.1536 -1.186 -4.8654 0.208 -1.712 1.03 -3.2904 2.312 -4.4426 0.148 -0.133 0.342 -0.2034 0.54 -0.1966 0.2 0.0068 0.388 0.0904 0.526 0.2332 0.14 0.1426 0.218 0.3336 0.218 0.5326 0.002 0.199 -0.074 0.3908 -0.212 0.5348 -0.15 0.146 -3.628 3.614 -0.952 7.3 0.114 0.1656 0.158 0.3686 0.122 0.5662 -0.034 0.1974 -0.144 0.3738 -0.306 0.4916 -0.162 0.1176 -0.364 0.1674 -0.562 0.1388 -0.198 -0.0288 -0.378 -0.1336 -0.5 -0.2926Z" stroke-width="1"></path><path id="vector_18" fill="#501200" d="M209.082 61.222c-0.584 -0.7958 -0.942 -1.7346 -1.036 -2.717 -0.096 -0.9826 0.076 -1.9724 0.498 -2.865 0.094 -0.181 0.258 -0.3166 0.452 -0.3774 0.196 -0.0608 0.408 -0.0416 0.588 0.0534s0.316 0.2578 0.378 0.4528c0.06 0.1952 0.04 0.4062 -0.054 0.5872 -0.288 0.6402 -0.402 1.3458 -0.326 2.0442 0.076 0.6982 0.336 1.3638 0.754 1.9278 0.118 0.1662 0.166 0.3728 0.132 0.5742 -0.034 0.2014 -0.146 0.3812 -0.312 0.4998 -0.166 0.1186 -0.372 0.1662 -0.574 0.1324 -0.202 -0.0338 -0.382 -0.1462 -0.5 -0.3124Z" stroke-width="1"></path><path id="vector_19" fill="#501200" d="M200.818 60.4c-0.636 -1.7248 -0.704 -3.6084 -0.192 -5.3744 0.512 -1.766 1.578 -3.3212 3.038 -4.4376 0.168 -0.112 0.372 -0.1538 0.57 -0.1166 0.198 0.0372 0.374 0.1506 0.49 0.3156 0.114 0.1652 0.16 0.369 0.128 0.5676 -0.034 0.1988 -0.144 0.3766 -0.306 0.4954 -1.202 0.9116 -2.072 2.1894 -2.484 3.6402 -0.41 1.4508 -0.338 2.996 0.208 4.4018 0.056 0.1898 0.038 0.3938 -0.052 0.5702 -0.09 0.1762 -0.244 0.311 -0.432 0.3764 -0.186 0.0654 -0.392 0.0564 -0.572 -0.0254 -0.18 -0.0816 -0.322 -0.2296 -0.396 -0.4132Z" stroke-width="1"></path><path id="vector_20" fill="#501200" d="M210.64 79.172c-1.194 -0.376 -2.354 -0.8558 -3.464 -1.434 -0.224 -0.1058 -0.414 -0.2688 -0.554 -0.4724 -0.14 -0.2036 -0.224 -0.4408 -0.242 -0.6872 -0.02 -0.2464 0.028 -0.4934 0.134 -0.7158 0.108 -0.2224 0.274 -0.4124 0.478 -0.5506 0.94 -0.5842 1.79 -1.3032 2.52 -2.134 0.406 -2.7796 0.394 -5.6044 -0.038 -8.38 -0.02 -0.2032 0.04 -0.4064 0.168 -0.5648 0.13 -0.1584 0.316 -0.2592 0.52 -0.2802 0.202 -0.021 0.406 0.0396 0.564 0.1684 0.158 0.129 0.26 0.3154 0.28 0.5186 0.248 2.4 0.722 8.1 -0.246 9.438 -0.774 0.9262 -1.688 1.7266 -2.708 2.372 0.908 0.46 1.844 0.8646 2.8 1.212 0.178 0.0512 0.332 0.1652 0.434 0.3208 0.1 0.1556 0.142 0.3426 0.116 0.5262 -0.026 0.1838 -0.118 0.352 -0.258 0.4738 -0.14 0.1218 -0.318 0.189 -0.504 0.1892Z" stroke-width="1"></path><path id="vector_21" fill="#501200" d="M220.116 65.9c-0.618 -0.378 -1.316 -0.6036 -2.038 -0.6586 -0.724 -0.055 -1.448 0.0624 -2.116 0.3426 -0.178 0.0866 -0.382 0.101 -0.572 0.0404 -0.188 -0.0606 -0.346 -0.1916 -0.44 -0.3658 -0.096 -0.174 -0.12 -0.378 -0.068 -0.5692 0.052 -0.1912 0.176 -0.355 0.346 -0.4574 0.892 -0.4042 1.868 -0.587 2.846 -0.5326 0.978 0.0542 1.928 0.344 2.77 0.8446 0.172 0.1004 0.3 0.264 0.354 0.456 0.054 0.1922 0.032 0.3978 -0.064 0.5736 -0.094 0.1758 -0.252 0.308 -0.442 0.369 -0.19 0.0608 -0.396 0.0456 -0.576 -0.0426Z" stroke-width="1"></path><path id="vector_22" fill="#501200" d="M200.8 64.544c0.842 -0.4996 1.792 -0.7886 2.77 -0.843 0.978 -0.0542 1.956 0.1278 2.848 0.531 0.17 0.102 0.294 0.2654 0.346 0.4564 0.052 0.1908 0.028 0.3944 -0.066 0.5686 -0.094 0.1742 -0.25 0.3054 -0.438 0.3668 -0.19 0.0612 -0.394 0.0476 -0.572 -0.0378 -0.668 -0.2804 -1.394 -0.3982 -2.116 -0.3436 -0.724 0.0546 -1.424 0.28 -2.042 0.6576 -0.18 0.0968 -0.39 0.1182 -0.586 0.0594 -0.196 -0.0586 -0.36 -0.1926 -0.456 -0.3724 -0.098 -0.1798 -0.12 -0.3908 -0.06 -0.5864 0.058 -0.1956 0.192 -0.3598 0.372 -0.4566Z" stroke-width="1"></path><path id="vector_23" fill="#501200" d="M208.18 83.566c-0.172 -0.092 -0.304 -0.2462 -0.368 -0.4316 -0.062 -0.1852 -0.052 -0.3876 0.028 -0.5658 0.082 -0.1782 0.226 -0.3192 0.408 -0.394 0.18 -0.0748 0.382 -0.0778 0.566 -0.0086 0.566 0.2418 1.174 0.3682 1.788 0.3716 0.616 0.0034 1.226 -0.1162 1.794 -0.3516 0.18 -0.0854 0.386 -0.0978 0.574 -0.035 0.188 0.0628 0.346 0.1962 0.438 0.3722 0.092 0.176 0.114 0.381 0.058 0.572 -0.056 0.191 -0.182 0.3532 -0.354 0.4528 -0.772 0.3586 -1.612 0.5458 -2.464 0.5488 -0.852 0.0032 -1.694 -0.178 -2.468 -0.5308Z" stroke-width="1"></path><path id="vector_24" fill="#501200" d="M227.328 102.918c-0.264 -3.0884 -0.264 -6.1936 0 -9.282 0.024 -0.1994 0.126 -0.3812 0.284 -0.5066 0.156 -0.1254 0.356 -0.1844 0.556 -0.1646 0.2 0.0198 0.384 0.117 0.514 0.2708 0.128 0.1538 0.192 0.352 0.178 0.5524 -0.25 2.9908 -0.25 5.9972 0 8.988 0.01 0.1982 -0.058 0.3926 -0.188 0.5424 -0.13 0.15 -0.312 0.2438 -0.51 0.2622s-0.394 -0.0404 -0.55 -0.1638c-0.156 -0.1234 -0.258 -0.3022 -0.284 -0.4988Z" stroke-width="1"></path><path id="vector_25" fill="#501200" d="M200.912 101.74v-6.568c0 -0.2042 0.082 -0.4 0.226 -0.5444 0.144 -0.1446 0.34 -0.2256 0.544 -0.2256 0.204 0 0.4 0.081 0.544 0.2256 0.144 0.1444 0.226 0.3402 0.226 0.5444v6.568c0 0.2042 -0.082 0.4 -0.226 0.5444 -0.144 0.1444 -0.34 0.2256 -0.544 0.2256 -0.204 0 -0.4 -0.0812 -0.544 -0.2256 -0.144 -0.1444 -0.226 -0.3402 -0.226 -0.5444Z" stroke-width="1"></path><path id="vector_26" fill="#501200" d="M204.512 74.51c0.78 0 1.412 -0.8506 1.412 -1.9 0 -1.0494 -0.632 -1.9 -1.412 -1.9 -0.78 0 -1.412 0.8506 -1.412 1.9 0 1.0494 0.632 1.9 1.412 1.9Z" stroke-width="1"></path><path id="vector_27" fill="#501200" d="M217.848 74.51c0.78 0 1.412 -0.8506 1.412 -1.9 0 -1.0494 -0.632 -1.9 -1.412 -1.9 -0.78 0 -1.412 0.8506 -1.412 1.9 0 1.0494 0.632 1.9 1.412 1.9Z" stroke-width="1"></path><path id="vector_28" fill="#501200" d="M257.758 148.928c-2.238 0.703 -4.552 1.1426 -6.892 1.31 -4.186 -5.289 -8.918 -10.1212 -14.118 -14.416 -0.144 -0.1434 -0.34 -0.2236 -0.544 -0.2226 -0.204 0.001 -0.4 0.0828 -0.542 0.2276 -0.144 0.1448 -0.224 0.3406 -0.224 0.5446 0.002 0.2038 0.084 0.399 0.228 0.5424 0.026 0.028 1.2 1.032 1.94 1.662l-0.366 11.62c-3.582 -0.262 -6.24 -0.6 -6.81 -0.682 -0.156 -0.1646 -0.346 -0.296 -0.554 -0.386 -0.21 -0.0902 -0.434 -0.137 -0.662 -0.138 0.51 -1.584 -0.2 -2.844 -2.37 -2.756 -0.8 -1.376 -2.45 -1.162 -3.892 -0.492 -0.2 0 -6.1 -1.754 -6.81 0.954 -0.342 1.276 0.948 2 2.218 2.35 -1.4 1.33 -2.704 3 -2.088 4.2 0.166 0.2886 0.42 0.5178 0.722 0.656 0.304 0.138 0.642 0.1778 0.97 0.114 -0.324 1.694 0.614 2.8 2.624 2.236 -0.262 1.692 0.728 2.8 2.93 1.986 -0.006 0.2914 0.056 0.5802 0.182 0.8428 0.126 0.2624 0.314 0.4912 0.546 0.6672 1.338 0.926 3.6 -0.724 4.968 -1.8 3.562 -2.8 3.654 -4.512 3.106 -5.466 -0.172 -0.2726 -0.404 -0.502 -0.678 -0.6702 -0.274 -0.1682 -0.584 -0.2708 -0.904 -0.2998 0.032 -0.1282 0.056 -0.2586 0.072 -0.39 7.6 0.97 20.182 1.738 27.446 -0.734 0.194 -0.066 0.354 -0.2062 0.444 -0.3898 0.09 -0.1836 0.104 -0.3956 0.038 -0.5892 -0.068 -0.1936 -0.208 -0.353 -0.39 -0.4432 -0.184 -0.0902 -0.396 -0.1038 -0.59 -0.0378Zm-40.112 -1.878c0.18 -0.354 1.6 -0.436 3.368 -0.148 -0.358 0.232 -0.856 0.612 -1.2 0.876 -0.772 -0.0616 -1.516 -0.3116 -2.168 -0.728Zm0.02 5.424c0.298 -1.6 6.052 -6.294 7.612 -5.67 -2.314 1.6706 -4.504 3.5054 -6.554 5.49 -0.34 0.1206 -0.698 0.1816 -1.058 0.18Zm1.904 2.4c-0.034 0.0026 -0.068 0.0026 -0.102 0 -0.04 -0.4966 0.062 -0.9942 0.292 -1.436 2.12 -2.065 4.408 -3.9508 6.84 -5.638 0.862 -0.098 1.18 0.056 1.222 0.122 0.118 0.2 -0.144 0.93 -0.524 1.514 -2.124 1.4184 -4.106 3.0392 -5.918 4.84 -0.554 0.324 -1.172 0.527 -1.81 0.596v0.002Zm4.436 1.446c-1.3 0.688 -1.8 0.672 -1.91 0.652 -0.01 -0.555 0.114 -1.1042 0.364 -1.6 1.744 -1.7286 3.65 -3.2856 5.692 -4.65 0.308 -0.1094 0.628 -0.1734 0.954 -0.19 0.062 -0.0028 0.124 0.0026 0.186 0.016 0.022 0.4894 -0.096 0.975 -0.34 1.4 -1.352 1.08 -4.414 3.882 -4.952 4.37l0.006 0.002Zm6.978 -3.068c0.622 1.07 -4.4 5.23 -5.86 5.23 -0.142 -0.174 -0.042 -0.88 0 -1.11 0.724 -0.656 3.6 -3.274 4.814 -4.258 0.462 -0.152 0.934 -0.06 1.046 0.136v0.002Zm7.8 -2.956 0.328 -10.388c3.61 3.1906 6.932 6.692 9.93 10.464 -3.42 0.1708 -6.848 0.1448 -10.266 -0.078l0.008 0.002Z" stroke-width="1"></path><path id="vector_29" fill="#501200" d="M226.812 62.134c-0.594 -1.5308 -0.574 -3.2312 0.054 -4.748 0.098 -0.1762 0.26 -0.3072 0.454 -0.3646 0.192 -0.0576 0.4 -0.0372 0.578 0.0566 0.178 0.094 0.314 0.254 0.374 0.4458 0.062 0.1918 0.046 0.4 -0.044 0.5802 -0.426 1.1526 -0.408 2.4218 0.05 3.562 0.054 0.1918 0.03 0.397 -0.064 0.5722 -0.096 0.1752 -0.254 0.3068 -0.444 0.3674 -0.19 0.0606 -0.396 0.0454 -0.574 -0.0426 -0.178 -0.088 -0.316 -0.2418 -0.384 -0.429Z" stroke-width="1"></path><path id="vector_30" fill="#ffb949" d="M145.8 130.818s53.712 -1.712 55.684 -1.764c1.974 0.0682 3.85 0.883 5.246 2.28 1.396 1.3968 2.212 3.2718 2.28 5.246 0.726 6.176 2.8 32.02 2.906 33.628 0 0 14.99 -0.154 16.6 0 1.61 0.154 3.346 6.6 -0.688 7.162 -4.034 0.562 -19.448 0.232 -19.448 0.232s-58.058 2.364 -59.78 2.416c-1.722 0.052 -6.252 -0.968 -7 -7.23 -0.748 -6.262 -0.966 -10.906 -0.966 -10.906s5.234 -4 4.818 -6.386c-0.164 -0.952 -1.54 -0.186 -1.54 -0.186s2.4 -5.134 -1.074 -4.458c0 0 2.422 -4.1 -0.972 -3.166 0 0 2.42 -4.2 -2.304 -2.44 0 0 -0.816 -6.02 -0.9 -7.42 0.0682 -1.8592 0.846 -3.6218 2.1738 -4.9252 1.3276 -1.3034 3.104 -2.0488 4.9642 -2.0828Z" stroke-width="1"></path><path id="vector_31" fill="#501200" d="M172.036 158.118c1.7928 0 3.246 -1.4534 3.246 -3.246 0 -1.7928 -1.4532 -3.246 -3.246 -3.246s-3.246 1.4532 -3.246 3.246c0 1.7926 1.4532 3.246 3.246 3.246Z" stroke-width="1"></path><path id="vector_32" fill="#501200" d="M269.706 141.332c-7.082 -14.408 -19.13 -25.7722 -33.928 -32l-1.632 -27.132c2.058 -0.605 3.848 -1.8918 5.076 -3.6486 1.23 -1.757 1.824 -3.8796 1.688 -6.0194 -0.088 -1.9256 -0.81 -3.7678 -2.058 -5.2378 -1.246 -1.4702 -2.944 -2.4854 -4.83 -2.8862 0.026 -0.066 0.852 -11.516 -5.532 -18.522 -1.786 -1.871 -3.948 -3.3426 -6.342 -4.3182 -2.396 -0.9754 -4.972 -1.4328 -7.556 -1.3418 -2.474 -0.1916 -4.96 0.174 -7.276 1.0702 -2.314 0.8962 -4.398 2.2998 -6.098 4.1078 -5.512 6.292 -4.778 16.136 -4.52 18.388 -1.9684 0.385 -3.7454 1.4328 -5.0352 2.969 -1.2898 1.536 -2.0142 3.4676 -2.0528 5.473 -0.0242 2.0388 0.6362 4.0268 1.8756 5.6458 1.2394 1.619 2.986 2.7754 4.9604 3.2842l-0.734 24.024c-15.7074 2.8462 -29.7206 11.6194 -39.142 24.506l-11.03 0.348c-1.0992 0.0352 -2.1794 0.2948 -3.1746 0.7628 -0.9952 0.468 -1.8842 1.1346 -2.6122 1.9588 -0.7282 0.8242 -1.28 1.7886 -1.6218 2.8338 -0.3416 1.0454 -0.466 2.1494 -0.3654 3.2446l0.072 0.8c-2.274 0.158 -2.2 6.4 -2.104 7.872 -2.816 3.772 -1.252 5.096 -0.924 5.4 -1.226 3.456 0.76 4.054 1.246 4.218 -0.914 3 0.888 3.2 1.274 3.314 -0.528 3.294 2.248 2.9 2.664 2.72l0.944 10.352c0.1858 2.0028 1.1118 3.8644 2.5972 5.2208 1.4854 1.3564 3.4234 2.1098 5.4348 2.1132 0.086 0 -13.564 5.502 -19.252 15.684 -8.8 15.744 -5.968 68.328 -5.464 76.544 -1.146 1.15 -2.182 2.2 -3.122 3.156l-1.682 -1c-0.175 -0.106 -0.385 -0.138 -0.5838 -0.09 -0.1988 0.05 -0.37 0.174 -0.4762 0.35 -0.106 0.176 -0.1382 0.386 -0.0896 0.584 0.0488 0.198 0.1746 0.37 0.3496 0.476l1.36 0.816c-0.366 0.374 -0.714 0.728 -1.048 1.072l-1.2 -0.718c-0.1748 -0.106 -0.3846 -0.138 -0.5832 -0.09 -0.1986 0.048 -0.3696 0.174 -0.4758 0.348 -0.106 0.176 -0.1384 0.386 -0.0898 0.584 0.0486 0.198 0.174 0.37 0.3488 0.476l0.888 0.534c-6.03 6.22 -6.122 6.662 -6.162 6.878 -0.0276 0.14 -0.0174 0.284 0.0294 0.418 0.0466 0.134 0.1284 0.254 0.2366 0.346 0.112 0.098 0.22 0.19 0.734 0.19 3.386 0 29.544 -5.388 30.222 -5.646 0.504 -0.19 1.432 -0.548 0.6 -9.828 0.312 -28.58 4.04 -52.012 13.178 -61.958 0.4584 -4.242 1.7216 -8.358 3.722 -12.128 3.304 -6.188 10.228 -13.898 24.4 -15.432 0.1998 -0.0166 0.3984 0.0454 0.5532 0.1728 0.1548 0.1274 0.2538 0.3102 0.276 0.5096 0.0222 0.1992 -0.0344 0.3994 -0.1574 0.5576 -0.1232 0.1584 -0.3032 0.2624 -0.5018 0.29 -10.85 1.174 -18.66 6.096 -23.218 14.632 -1.7118 3.25 -2.8612 6.766 -3.4 10.4 2.362 28.618 25.876 58.372 30.674 64.178l-1.302 4.506 -1.884 -0.248c-0.199 -0.018 -0.3978 0.04 -0.554 0.166 -0.1564 0.124 -0.2582 0.304 -0.2842 0.502 -0.0258 0.198 0.0262 0.4 0.1452 0.56 0.119 0.16 0.2958 0.27 0.493 0.302l1.658 0.216c-0.14 0.492 -0.278 0.97 -0.4 1.416l-1.566 -0.2c-0.1002 -0.016 -0.2024 -0.012 -0.301 0.012 -0.0984 0.024 -0.1912 0.068 -0.273 0.128 -0.0818 0.06 -0.151 0.136 -0.2038 0.222 -0.0526 0.086 -0.0876 0.182 -0.1032 0.284 -0.0154 0.1 -0.011 0.202 0.013 0.3 0.024 0.098 0.0672 0.192 0.127 0.274 0.06 0.08 0.1354 0.15 0.222 0.202 0.0866 0.054 0.1828 0.088 0.283 0.104l1.38 0.178c-2.186 7.868 -2.03 8.292 -2 8.504 0.0112 0.088 0.0398 0.172 0.084 0.248 0.0444 0.076 0.1034 0.142 0.1736 0.194 0.0702 0.052 0.1504 0.092 0.2356 0.112 0.0854 0.022 0.174 0.026 0.2608 0.012 1.444 0 23.924 -19 24.44 -19.6 0.348 -0.4 0.98 -1.15 -4.024 -8.704 -8.98 -17 -18.934 -50.906 -23.162 -63.294 -0.066 -0.1934 -0.0526 -0.405 0.0374 -0.5884s0.2492 -0.3236 0.4426 -0.3896 0.405 -0.0526 0.5884 0.0374 0.3236 0.2492 0.3896 0.4426l1.832 5.378h37.91c15.054 0.278 13.944 -20.036 13.324 -23.324l0.348 -9.654c4.566 1.9488 9.532 2.774 14.484 2.4062 4.95 -0.368 9.74 -1.918 13.968 -4.5202 8.182 -5.844 9.594 -16.052 3.888 -28.01Zm-127.532 139.05c-2.54 0.636 -22.248 4.576 -28.036 5.378 1.114 -1.228 3.018 -3.218 5.096 -5.364 2.072 1.25 2 1.252 2.294 1.252 0.1684 0 0.3322 -0.056 0.4664 -0.158 0.1342 -0.102 0.2314 -0.244 0.2766 -0.406 0.0454 -0.162 0.0364 -0.336 -0.0256 -0.492 -0.0618 -0.156 -0.1734 -0.288 -0.3174 -0.376l-1.6 -0.948c0.348 -0.36 0.698 -0.72 1.046 -1.074 1.6 0.958 1.554 0.966 1.822 0.966 0.1684 0 0.3322 -0.056 0.4664 -0.158 0.1342 -0.102 0.2314 -0.244 0.2766 -0.406 0.0454 -0.162 0.0364 -0.336 -0.0256 -0.492 -0.0618 -0.156 -0.1734 -0.288 -0.3174 -0.376l-1.11 -0.668c0.956 -0.97 1.884 -1.914 2.72 -2.756l16.84 -1.574c0.2898 2.54 0.3326 5.104 0.128 7.652Zm48.304 -6.58 14.262 -9.6c1.42 2.038 2.64 4.208 3.644 6.482 -1.93 1.77 -17.368 14.642 -22.068 18.106 0.364 -1.488 1 -3.886 1.744 -6.518 0 0 1.934 0.252 1.97 0.252 0.1942 -0.004 0.38 -0.08 0.5204 -0.214 0.1406 -0.134 0.2256 -0.316 0.2378 -0.508 0.0124 -0.194 -0.0486 -0.386 -0.171 -0.536 -0.1224 -0.152 -0.297 -0.25 -0.4892 -0.278l-1.648 -0.214 0.4 -1.416s1.656 0.214 1.692 0.214c0.196 0 0.385 -0.074 0.5282 -0.208s0.2298 -0.318 0.2424 -0.512c0.0124 -0.196 -0.0502 -0.39 -0.1752 -0.54 -0.125 -0.152 -0.3028 -0.25 -0.4974 -0.274l-1.364 -0.18c0.406 -1.418 0.806 -2.804 1.172 -4.058v0.002ZM234.2 108.658c-4.622 -1.9678 -9.442 -3.4388 -14.376 -4.388v-9.532c4.252 -2.6024 7.338 -6.7432 8.618 -11.562 0.14 0.0486 0.288 0.0748 0.436 0.078 2.822 0.028 3.418 0.244 3.726 -1.084l1.596 26.488Zm-5.276 -44.028 2.166 0.04v17.09l-2.166 -0.042v-17.088Zm-14.354 -22.874c2.374 -0.0896 4.74 0.323 6.942 1.2108 2.204 0.8878 4.194 2.2308 5.842 3.9412 5.772 6.332 5.228 16.49 5.188 17.13 0 0 0.03 -18.902 -17.428 -20.116 -2.75 -0.3572 -5.548 -0.0244 -8.138 0.9682 -2.59 0.9926 -4.892 2.6138 -6.7 4.7178 2.806 -5.718 7.972 -7.956 14.292 -7.852h0.002Zm-11.528 8.108c1.448 -1.3258 3.162 -2.3276 5.026 -2.9384 1.866 -0.6108 3.84 -0.8166 5.792 -0.6036 3.038 0.0062 6.012 0.866 8.584 2.4814 2.572 1.6154 4.638 3.9214 5.962 6.6546 1.04 2.4688 1.822 5.0384 2.334 7.668 -2.102 -0.04 -2.454 -0.138 -2.976 0.384 -0.628 0.628 -0.444 -0.2 -0.334 16.864 -0.368 2.7274 -1.346 5.3366 -2.864 7.6328 -1.516 2.2964 -3.532 4.2206 -5.896 5.6292 -0.118 0.0668 -0.216 0.1636 -0.284 0.2806 -0.068 0.1172 -0.102 0.2502 -0.102 0.3854v10.414l-6.102 10.566 -4.258 -10.504 0.21 -6.338c2.332 -0.162 4.542 -1.1104 6.266 -2.69 0.12 -0.1026 0.204 -0.2394 0.244 -0.3918 0.04 -0.1524 0.03 -0.3132 -0.024 -0.4608 -0.056 -0.1476 -0.154 -0.2748 -0.284 -0.3644 -0.128 -0.0896 -0.282 -0.1374 -0.44 -0.137 -2.194 -0.0728 -4.352 -0.5924 -6.338 -1.527 -1.988 -0.9348 -3.762 -2.2648 -5.218 -3.909 -4.932 -5.824 -3.968 -26.102 -3.968 -26.102 -0.006 -0.082 -0.212 -8.19 4.668 -12.994h0.002Zm-5.08 32.06c0.4186 2.8922 1.515 5.6444 3.2 8.032 1.528 1.858 3.422 3.3826 5.564 4.48l-0.324 9.72c-3.062 0.0246 -6.116 0.2766 -9.14 0.754l0.7 -22.986Zm-1.38 24.654c0.446 3.106 2.166 14.108 4.064 14.468 2.13 0.4 7.656 -4.988 9.454 -6.81l1.2 2.946c-0.04 12.126 -0.076 25.434 -0.082 35.724l-1.586 -17.316c-0.188 -2.0478 -1.152 -3.9462 -2.694 -5.308 -1.54 -1.3618 -3.542 -2.0842 -5.598 -2.02l-42.8 1.37c9.4892 -12.0158 22.997 -20.2022 38.04 -23.054h0.002Zm-58.6 34.672 0.35 3.844c-0.35 0.236 -1.094 0.874 -1.12 0.898 -0.1636 -1.6212 0.1034 -3.257 0.774 -4.742h-0.004Zm3.578 4.4c0.0784 -0.0002 0.1538 0.0296 0.211 0.083 0.0572 0.0536 0.092 0.1268 0.097 0.205 0.056 0.256 -0.114 0.738 -0.73 1.33 -0.2 0.2 -4.068 3 -5.418 4.366 -1.228 -0.696 2.28 -6.296 5.844 -5.986l-0.004 0.002Zm-4.82 10.084c-1.242 -0.274 -0.954 -1.38 -0.318 -2.6 0.862 -0.914 4.938 -4.956 6.4 -4.572 0.094 2.224 -2.854 2.572 -6.082 7.172Zm0.728 3.078c-0.158 -0.2 -0.164 -0.812 0.314 -1.882 1.2692 -2.0572 2.9672 -3.8164 4.978 -5.158 0 0 0.8 -0.268 0.902 -0.14 0.014 0.022 1.072 0.6 -1.128 3.218 -0.294 0.216 -3.89 3.66 -4.312 4.174 -0.2 0 -0.59 -0.012 -0.754 -0.212Zm2.372 2.706c-0.77 0.456 -1.068 0.348 -1.068 0.348 -0.0808 -0.2782 -0.0864 -0.573 -0.016 -0.854 0.0702 -0.2812 0.2138 -0.5386 0.416 -0.746 0.336 -0.336 3.838 -3.842 4.214 -4.132 0.508 -0.076 0.974 -0.218 1.13 0.068 0.466 0.868 -4.316 5.094 -4.676 5.316Zm65.13 16.016 -55.79 1.782c-1.6624 0.047 -3.2804 -0.54 -4.5262 -1.642 -1.2456 -1.1018 -2.0256 -2.6362 -2.1818 -4.292l-1.016 -11.116c0.6576 -0.5168 1.2766 -1.081 1.852 -1.688 2.366 -2.432 3.152 -4 2.562 -5.102 -0.1574 -0.2526 -0.373 -0.4638 -0.6288 -0.6162 -0.2556 -0.1524 -0.544 -0.2414 -0.8412 -0.2598 0.8 -1.694 1.746 -4.626 -0.6 -4.27 0.504 -0.934 1.818 -3.2 -0.626 -3.264 0.222 -0.492 1.06 -3.942 -3.334 -2.696 -0.154 -1.708 -0.556 -5.658 -0.556 -5.658 -0.0836 -0.889 0.0164 -1.7858 0.2936 -2.6348 0.277 -0.8488 0.7256 -1.6318 1.3178 -2.3002 0.5922 -0.6686 1.3152 -1.2082 2.1246 -1.5858 0.8092 -0.3776 1.6874 -0.585 2.58 -0.6092l56 -1.78c1.628 0.002 3.194 0.6114 4.396 1.7086s1.95 2.6032 2.1 4.2234l3.172 34.678c0.13 1.7862 -0.444 3.5526 -1.6 4.92 -1.264 1.2552 -2.924 2.0332 -4.698 2.202Zm24.588 -2.658c0 0.5198 -0.206 1.0184 -0.574 1.386 -0.368 0.3676 -0.866 0.574 -1.386 0.574h-17.264c1.658 -0.814 2.544 -4 2.484 -6.04h14.78c0.52 0 1.018 0.2066 1.386 0.574 0.368 0.3676 0.574 0.8662 0.574 1.386v2.12Zm-3.188 -12.174c-0.146 -0.1426 -0.344 -0.2214 -0.548 -0.2188 -0.204 0.0026 -0.4 0.0864 -0.542 0.2328 -0.142 0.1464 -0.222 0.3434 -0.218 0.548 0.002 0.2044 0.086 0.3994 0.232 0.542 3.064 2.9742 6.652 5.3562 10.582 7.026l-0.246 6.77 -5.374 -0.452c0.946 -1.106 0.842 -1.924 0.842 -4.4 -0.002 -0.928 -0.37 -1.8176 -1.026 -2.4738 -0.656 -0.656 -1.546 -1.0252 -2.474 -1.0262h-14.828c-0.066 -5.86 0 -35.6 0.062 -52.018l1.89 -3.274c1.76 2.072 7.476 8.57 9.658 8.4 2.228 -0.18 3.93 -11.018 4.368 -14.088 11.352 3.898 29.74 13.13 39.568 33.73 14.774 30.962 -23.504 38.764 -41.946 20.702Z" stroke-width="1"></path><path id="vector_33" fill="#fccac2" d="M220.89 81.092c1.154 -0.1342 2.012 -0.901 1.918 -1.713 -0.094 -0.8118 -1.106 -1.3614 -2.26 -1.2272 -1.152 0.134 -2.01 0.901 -1.916 1.7128 0.094 0.812 1.106 1.3614 2.258 1.2274Z" stroke-width="1"></path><path id="vector_34" fill="#fccac2" d="M204.084 80.0994c0.086 -0.813 -0.782 -1.5698 -1.936 -1.6906 -1.154 -0.1206 -2.1594 0.4406 -2.2444 1.2536 -0.085 0.813 0.7824 1.5698 1.9364 1.6904 1.156 0.1206 2.16 -0.4406 2.244 -1.2534Z" stroke-width="1"></path></g><g id="clouds"><g id="group"><path id="vector_35" fill="#ffffff" d="M234.554 345.756h134.932s31.83 -28.72 14.67 -34.044c-10.706 -3.322 -36.466 18.06 -36.466 18.06s25.916 -36.024 12.61 -40.532c-18.838 -6.382 -49.976 21.642 -68.868 43.508 0 0 15.496 -24.6 3.322 -26.294 -25.74 -3.6 -60.2 39.302 -60.2 39.302Z" stroke-width="1"></path><path id="vector_36" fill="#501200" d="M234.554 346.526c-0.146 0 -0.288 -0.042 -0.41 -0.118 -0.122 -0.078 -0.222 -0.188 -0.284 -0.32 -0.062 -0.13 -0.088 -0.276 -0.07 -0.42 0.016 -0.144 0.074 -0.28 0.164 -0.394 6.282 -7.564 13.15 -14.618 20.542 -21.1 15.878 -13.788 29.46 -20 40.364 -18.482 8.974 1.252 4.75 13.184 0.652 21.312 14.176 -15.502 45.24 -45.2 65.036 -38.492 11.4 3.86 -2.692 27.422 -9.372 37.53 7.74 -5.89 24.716 -17.704 33.2 -15.064 14.762 4.58 -3.104 25.178 -14.382 35.35 -0.344 0.318 0.006 0.198 -135.44 0.198Zm1.64 -1.54h133c2.248 -2.072 21.074 -19.75 19.146 -28.506 -0.28 -1.018 -0.842 -1.936 -1.62 -2.648 -0.778 -0.714 -1.742 -1.192 -2.78 -1.384 -10.2 -3.166 -35.492 17.706 -35.748 17.916 -0.144 0.118 -0.326 0.182 -0.514 0.176 -0.186 -0.006 -0.364 -0.08 -0.5 -0.208 -0.138 -0.128 -0.224 -0.3 -0.242 -0.486 -0.018 -0.186 0.032 -0.372 0.14 -0.524 6.386 -8.882 23.384 -35.83 12.99 -39.352 -20.216 -6.85 -54.07 27.112 -68.038 43.28 -0.128 0.144 -0.304 0.236 -0.496 0.258 -0.192 0.02 -0.384 -0.032 -0.54 -0.148 -0.154 -0.114 -0.262 -0.282 -0.298 -0.472 -0.036 -0.19 -0.002 -0.386 0.1 -0.55 3.076 -4.91 9.786 -17.584 7.348 -22.83 -0.324 -0.658 -0.816 -1.218 -1.428 -1.62 -0.614 -0.404 -1.322 -0.636 -2.054 -0.672 -22.564 -3.154 -52.536 30.756 -58.46 37.77h-0.006Z" stroke-width="1"></path></g><g id="group_2"><path id="vector_37" fill="#ffffff" d="M35.888 115.716c-0.57 0.8 68.228 0 68.228 0s14.254 -12.732 9.964 -16.884c-4.29 -4.152 -20.2 6.366 -20.2 6.366s16.33 -22.972 7.2 -24.91c-9.13 -1.938 -25.334 10.656 -32.116 22.558 0 0 4.982 -9.548 -0.83 -9.964 -5.812 -0.416 -21.312 7.612 -32.246 22.834Z" stroke-width="1"></path><path id="vector_38" fill="#501200" d="M46.712 116.824c-11.156 -0.06 -11.218 -0.176 -11.508 -0.736 -0.0654 -0.1292 -0.0946 -0.2736 -0.0844 -0.418 0.0102 -0.1444 0.0594 -0.2834 0.1424 -0.402 10.8 -15.032 26.432 -23.26 32.926 -23.154 4.65 0.076 3.624 4.068 3.42 5.4 7.928 -10.332 21.4 -19.82 29.622 -17.986 7.924 1.766 -0.3 16.27 -4.732 23.132 18.386 -10.686 19.178 -2.8 19.156 -1.72 -0.11 5.532 -10.58 14.944 -11.026 15.342 -0.1382 0.1258 -0.3172 0.1968 -0.504 0.2 -0.17 0.006 -55.466 0.352 -57.412 0.342Zm-9.44 -1.696c6.904 0.35 42.352 0.1 66.542 -0.178 3.148 -2.856 12.758 -12.634 9.728 -15.564 -2.8 -2.714 -13.292 2.52 -19.246 6.454 -0.15 0.0988 -0.3296 0.142 -0.508 0.1224 -0.1784 -0.0196 -0.3444 -0.101 -0.4692 -0.2302 -0.1248 -0.129 -0.2006 -0.2976 -0.2142 -0.4766 -0.0136 -0.179 0.0356 -0.357 0.1394 -0.5036 3.928 -5.524 14.296 -22.304 7.666 -23.71 -8.8 -1.874 -24.822 10.852 -31.28 22.186 -0.1026 0.1698 -0.267 0.2936 -0.4584 0.3452 -0.1916 0.0516 -0.3958 0.0274 -0.57 -0.0678 -0.174 -0.0952 -0.3048 -0.254 -0.3646 -0.4432 -0.06 -0.189 -0.0446 -0.394 0.043 -0.5722 0.8 -1.544 3.146 -8.88 -0.2 -8.84 -5.016 0.058 -19.768 6.716 -30.806 21.478h-0.002Z" stroke-width="1"></path></g><g id="group_3"><path id="vector_39" fill="#ffffff" d="M267.246 106.272h35.4s7.576 -6.644 5.708 -8.824c-1.868 -2.18 -8.304 1.766 -8.304 1.766s7.474 -8.512 4.36 -11.314c-3.114 -2.802 -10.898 1.868 -19.306 10.8 0 0 1.868 -4.966 -0.31 -5.752 -2.178 -0.786 -11.32 2.528 -17.548 13.324Z" stroke-width="1"></path><path id="vector_40" fill="#501200" d="M267.246 107.042c-0.136 -0.0006 -0.268 -0.0366 -0.384 -0.1046 -0.116 -0.0678 -0.214 -0.165 -0.282 -0.282 -0.066 -0.117 -0.102 -0.2496 -0.102 -0.3846s0.034 -0.2676 0.102 -0.3848c6.4 -11.102 15.782 -14.386 18.468 -13.668 2.1 0.56 1.614 2.948 1.49 3.898 6.8 -6.742 14.69 -12.108 18.382 -8.788 2.4 2.166 0 6.614 -2.088 9.57 6.286 -2.6 10.684 0.862 0.314 9.952 -0.346 0.298 -0.048 0.192 -35.9 0.192Zm1.362 -1.54h33.74c3.986 -3.546 6.052 -6.8 5.416 -7.552 -0.982 -1.146 -4.948 0.468 -7.318 1.92 -0.158 0.0952 -0.342 0.1312 -0.524 0.1014 -0.182 -0.0298 -0.346 -0.1234 -0.464 -0.2638 -0.118 -0.1406 -0.182 -0.3188 -0.182 -0.5024 0.002 -0.1836 0.07 -0.3606 0.19 -0.4992 2.274 -2.6 6.346 -8.502 4.424 -10.234 -2.584 -2.326 -10.08 2.096 -18.232 10.75 -0.122 0.129 -0.286 0.2118 -0.462 0.2344 -0.176 0.0224 -0.354 -0.0166 -0.506 -0.1108 -0.15 -0.0942 -0.264 -0.2376 -0.32 -0.406 -0.058 -0.1684 -0.054 -0.3512 0.008 -0.5176 0.442 -1.18 1.422 -4.27 0.148 -4.758 -1.484 -0.566 -9.726 1.958 -15.926 11.838h0.008Z" stroke-width="1"></path></g><g id="group_4"><path id="vector_41" fill="#ffffff" d="M10.76998 253.348H129.926s16.2 -19.928 6.434 -24.496c-9.766 -4.568 -23.664 9.548 -23.664 9.548s16.2 -33.63 3.322 -38.612c-12.878 -4.982 -32.8 5.812 -51.898 29.686 0 0 4.774 -15.154 -3.322 -16.816 -8.096 -1.662 -30.1 8.93 -50.02802 40.69Z" stroke-width="1"></path><path id="vector_42" fill="#501200" d="M10.76998 254.118c-0.13734 0 -0.27214 -0.038 -0.39042 -0.106 -0.11828 -0.07 -0.21574 -0.17 -0.28224 -0.292 -0.06652 -0.12 -0.09968 -0.256 -0.09604 -0.392 0.00364 -0.138 0.04392 -0.272 0.1167 -0.388C29.632 221.838 51.96 210.222 60.954 211.906c6.8 1.274 5.388 11.11 4.73 14.44 18.332 -21.912 37.546 -32.33 50.612 -27.274 10.686 4.136 3.16 25.696 -1.37 36.252 19.93 -15.708 24.71 -4.94 25.14 -3.066 1.738 7.58 -9.082 21 -9.542 21.576 -0.368 0.452 -0.006 0.284 -119.75402 0.284Zm1.4 -1.54H129.554c1.546 -1.972 10.6 -13.722 9.012 -19.976 -2.256 -8.836 -18.812 -1.2 -25.322 6.34 -0.128 0.13 -0.2978 0.21 -0.4792 0.226 -0.1814 0.016 -0.3626 -0.032 -0.5114 -0.138 -0.149 -0.104 -0.256 -0.258 -0.302 -0.434 -0.046 -0.176 -0.028 -0.364 0.0506 -0.528 0.114 -0.236 11.4 -23.8 7.374 -33.8 -2.6 -6.444 -16.662 -5.58 -26.6 0.222 -10.8024 6.744 -20.3064 15.372 -28.06 25.474 -0.1122 0.14 -0.27 0.238 -0.446 0.274 -0.176 0.036 -0.3592 0.01 -0.5178 -0.076 -0.1586 -0.084 -0.2826 -0.22 -0.3506 -0.388 -0.068 -0.166 -0.0756 -0.35 -0.0216 -0.522 0.028 -0.092 3.952 -14.612 -2.742 -15.83 -6.578 -1.206 -27.726 6.704 -48.47002 39.156h0.002Z" stroke-width="1"></path></g><g id="group_5"><path id="vector_43" fill="#ffffff" d="M31.044 335.76H72.7s7.2 -5.12 4.982 -8.44c-2.218 -3.32 -10.102 1.66 -10.102 1.66s8.166 -11.902 3.044 -13.562c-5.122 -1.66 -13.562 4.842 -19.098 12.6 0 0 3.876 -7.472 0.692 -8.856 -3.184 -1.384 -12.594 3.59 -21.174 16.598Z" stroke-width="1"></path><path id="vector_44" fill="#501200" d="M31.044 336.53c-0.1402 0.002 -0.2782 -0.036 -0.3988 -0.108 -0.1206 -0.07 -0.2192 -0.174 -0.2854 -0.298 -0.0662 -0.124 -0.0972 -0.262 -0.0898 -0.402 0.0074 -0.14 0.0532 -0.276 0.132 -0.392 11.76 -17.832 25.982 -21.93 23.556 -11.6 5.316 -5.964 12.2 -10.582 16.904 -9.058 4.4 1.43 1.266 8.226 -1.062 12.212 2.738 -1.29 6.8 -2.588 8.524 0 2.554 3.832 -4.378 8.928 -5.178 9.496 -0.314 0.232 -0.004 0.15 -42.102 0.15Zm1.448 -1.538h39.958c1.834 -1.36 6 -5.126 4.6 -7.246 -1.468 -2.2 -7.17 0.696 -9.052 1.884 -0.1498 0.094 -0.3272 0.132 -0.5022 0.11 -0.175 -0.022 -0.3374 -0.102 -0.4596 -0.23 -0.1224 -0.128 -0.1972 -0.292 -0.2122 -0.468 -0.015 -0.176 0.031 -0.352 0.13 -0.498 2 -2.912 6.8 -11.304 3.44 -12.4 -4.298 -1.4 -12.308 4.012 -18.234 12.308 -0.1138 0.156 -0.2824 0.264 -0.472 0.302 -0.1898 0.038 -0.3868 0.002 -0.5518 -0.098 -0.1652 -0.1 -0.2862 -0.26 -0.3392 -0.446 -0.053 -0.186 -0.0342 -0.386 0.053 -0.558 0.968 -1.87 3 -6.96 1.07 -7.8 -2.566 -1.104 -11.104 3.062 -19.428 15.148v-0.008Z" stroke-width="1"></path></g></g></g></svg>