<svg xmlns="http://www.w3.org/2000/svg" fill="none" viewBox="0 0 400 400" id="Qr-Engineer--Streamline-Manchester.svg" height="400" width="400"><desc>Qr Engineer Streamline Illustration: https://streamlinehq.com</desc><g id="qr-engineer--Work-qr-engineer"><g id="computer"><path id="vector" fill="#ffffff" d="m341.084 215.056 -284.162 -0.202c1.938 -46.5804 -1.372 -108.7444 1.212 -142.5864 0.68 -8.902 1.834 -14.048 10.704 -14.592 28.816 -1.768 86.472 -1.014 115.524 -1.06 67.194 -0.11 106.538 -0.54 137.688 0.858 3.534 0.158 7.86 -0.172 11.008 1.666 6.898 4.028 5.742 17.318 5.856 25.346l2.172 130.5704h-0.002Z" stroke-width="1"></path><path id="vector_2" fill="#ffffff" d="M223.744 279.158H175.576c0.1 -0.1 1.616 -19.344 1.768 -28.332 1.436 0 35.184 -0.366 42.968 -0.606 1.768 9.24 1.716 19.698 3.434 28.938h-0.002Z" stroke-width="1"></path><path id="vector_3" fill="#ffffff" d="M341.186 216.066c0.488 8.356 0.956 20.622 -5.604 27.114 -4.526 4.478 -11.822 4.55 -18.126 4.848 -11.564 0.546 -77.67 2.16 -118.022 2.438 -50.654 0.348 -107.552 -0.972 -111.46 -0.722 -5.604 0.358 -11.258 0.904 -16.814 0 -14.756 -2.404 -15.32 -15.438 -14.542 -30.346 0.056 -1.06 0.1 -2.12 0.1 -3.18l284.466 -0.152h0.002Z" stroke-width="1"></path><path id="vector_4" fill="#501200" d="M342.852 214.956c-0.134 -2.268 -2.322 -136.3242 -2.322 -136.5282 0 -7.296 -0.222 -16.782 -6.362 -20.752 -2.958 -1.912 -6.622 -1.876 -10.2 -1.97 -17.036 -0.442 -17.376 -1.314 -82.552 -1.01 -175.972 0.824 -172.018 0.664 -176.264 1.566 -6.868 1.458 -8.338 8.33 -8.886 14.844 -2.52 29.88 0.58 102.858 -1.616 150.3122 -0.328 7.068 -0.37 14.448 2.726 20.954 5.124 10.768 18.634 9.946 28.476 9.24 5.34 -0.384 11.764 -0.398 17.116 -0.252 3.616 0.098 64.198 0.344 72.454 0.302 -0.306 17.972 -1.666 24.952 -1.666 26.76h-7.12c-1.298 0 -1.388 2.02 0 2.02l68.364 -0.05c1.298 0 1.388 -2.02 0 -2.02 -6.778 0 -9.644 -0.03 -9.644 -0.1 -1.668 -8.832 -1.806 -19.006 -3.382 -27.266 11.26 -0.252 94.468 -1.222 98.104 -1.414 11.62 -0.614 18.222 -2.942 21.66 -14.592 1.912 -6.48 1.504 -13.38 1.11 -20.044h0.004Zm-166.822 63.518c0.96 -8.836 1.514 -17.772 1.666 -26.76 2.07 0 4.19 -0.048 6.26 -0.1 23.26 -0.598 5.4 0.204 36.1 -0.556 1.704 9.126 1.712 18.672 3.382 27.316 -47.406 0 -47.41 -0.1 -47.41 0.102l0.002 -0.002Zm29.688 -29.082 -119.814 0.202c-10.942 0.798 -22.402 1.238 -26.862 -8.786 -3.53 -7.934 -2.12 -17.67 -2.12 -21.358 0.168 -2.344 0.034 -1.06 0.152 -2.828l283.708 -0.05c0.488 8.688 0.682 20.222 -5.504 26.406 -4.074 4.074 -10.95 4.344 -16.51 4.646 -15.848 0.86 -0.224 -0.964 -113.05 1.768ZM58.386 72.2678c0.748 -8.808 1.576 -13.79 10.402 -14.288 37.374 -2.112 216.754 -0.528 255.282 -0.202 2.98 0.026 6.258 0.106 8.734 1.566 5.886 3.464 5.706 14.08 5.706 20.954 0 1.364 2.222 134.1542 2.222 134.2562l-283.506 -0.05c1.992 -48.1402 -1.842 -106.8322 1.162 -142.2322l-0.002 -0.004Z" stroke-width="1"></path></g><g id="geer wheels"><path id="vector_5" fill="#fccac2" d="M247.222 177.29c-0.048 -1.464 -1.006 -2.688 -2.424 -3.03 -0.654 -0.158 -1.312 -0.152 -2.02 -0.152 -1.156 0 -1.294 -0.658 -1.716 -1.716 -0.302 -0.606 -0.152 -1.11 0.302 -1.566 2.202 -1.886 2.166 -3.984 0.96 -5.352 -1.16 -1.314 -2.434 -2.512 -3.736 -3.686 -1.222 -1.1 -2.978 -1.06 -4.292 -0.05 -0.404 0.354 -0.808 0.706 -1.162 1.11 -0.404 0.404 -0.86 0.462 -1.364 0.302 -1.924 -0.61 -1.818 -0.886 -1.818 -3.03 -0.1 -1.716 -1.462 -3.104 -3.18 -3.18 -1.666 -0.074 -3.382 -0.05 -5.05 0 -1.768 0.052 -3.058 1.416 -3.232 3.18 -0.052 0.524 0.174 1.758 -0.504 2.322 -1.128 0.938 -2.172 0.908 -3.232 -0.152 -1.754 -1.754 -3.694 -1.682 -4.998 -0.504 -1.274 1.148 -2.498 2.396 -3.636 3.686s-1.064 3.134 0.05 4.444c0.298 0.35 1.452 1.202 1.312 2.172 -0.354 1.666 -0.758 2.02 -2.524 2.02 -2.996 0 -3.704 2.198 -3.736 3.282 -0.048 1.616 -0.048 3.232 0 4.848 0.054 1.868 1.464 3.232 3.332 3.332 0.404 0 0.86 -0.058 1.262 0.05 0.356 0.096 0.812 0.248 1.01 0.504 1.19 1.546 0.734 2.104 -0.454 3.332 -1.49 1.54 -1.51 3.528 -0.05 5.05 1.014 1.056 2.064 2.128 3.13 3.13 1.612 1.516 3.85 1.398 5.654 -0.706 0.454 -0.454 0.906 -0.55 1.514 -0.302 1.66 0.672 1.716 0.706 1.716 2.474 0 2.166 1.382 3.63 3.282 3.686 1.616 0.048 3.838 0 5.504 -0.05 1.566 -0.048 2.828 -1.11 3.18 -2.626 0.276 -1.66 -0.302 -2.666 1.01 -3.18 0.944 -0.37 1.54 -0.924 2.374 0 0.354 0.354 0.704 0.71 1.06 1.01 1.152 0.97 2.964 1.044 4.09 0.05 1.396 -1.232 2.15 -2.494 3.382 -3.888 1.042 -1.178 0.944 -2.916 0 -4.14 -0.308 -0.4 -0.706 -0.606 -1.01 -1.06 -0.202 -0.302 -0.462 -0.808 -0.404 -1.162 0.272 -1.672 0.808 -2.07 2.474 -2.07h0.556c1.818 -0.152 3.13 -1.566 3.18 -3.382 0.252 -1.666 0.256 -3.332 0.202 -4.998l0.006 -0.002Zm-22.518 10.704c-4.494 0 -8.482 -3.736 -8.482 -8.18 0 -4.444 3.838 -8.33 8.28 -8.33 4.494 0 8.028 4.342 8.028 8.886 0 4.342 -3.434 7.624 -7.826 7.624Z" stroke-width="1"></path><path id="vector_6" fill="#fccac2" d="M207.182 122.7078c-0.096 -2.928 -2.03 -5.312 -4.848 -6.058 -1.268 -0.336 -2.626 -0.302 -3.988 -0.354 -2.47 -0.092 -2.598 -1.5922 -3.382 -3.3322 -1.124 -2.49 1.016 -3.1918 2.524 -5.2518 2.12 -2.576 2.162 -6.202 -0.05 -8.634 -2.332 -2.566 -4.792 -5.0542 -7.422 -7.4222 -2.418 -2.176 -5.946 -2.156 -8.532 -0.152 -2.22 1.72 -2.808 3.4902 -5.1 2.7262 -3.332 -1.11 -3.61 -1.5142 -3.636 -4.9482 -0.034 -4.698 -3.072 -7.2498 -6.362 -7.3718 -3.332 -0.124 -6.716 -0.098 -10.048 0 -3.534 0.104 -6.192 2.826 -6.412 6.362 -0.07 1.14 0.344 3.596 -0.908 4.696 -2.26 1.984 -4.292 1.818 -6.412 -0.302 -0.302 -0.302 -0.658 -0.654 -0.96 -0.908 -2.686 -2.26 -6.362 -2.4242 -8.936 -0.1002 -2.576 2.322 -4.986 4.7582 -7.27 7.3222 -2.26 2.536 -2.18 6.218 0.05 8.836 0.364 0.428 2.994 2.5338 2.626 4.3418 -0.69 3.376 -1.566 4.0402 -4.998 4.0402 -4.648 0 -7.366 2.9918 -7.472 6.6138 -0.096 3.232 -0.094 6.462 0 9.644 0.108 3.686 2.928 6.4042 6.664 6.6142 0.858 0.048 1.718 -0.1122 2.524 0.0498 0.708 0.142 1.616 0.504 2.02 1.06 2.222 3.066 1.586 4.158 -0.858 6.664 -2.968 3.042 -2.98 7.0202 -0.05 10.0982 2.018 2.122 4.152 4.1778 6.26 6.2598 1.372 1.356 3.03 2.0702 4.948 2.0202 0.05 0.1 0.1 0.252 0.152 0.354 1.414 -0.656 2.824 -1.168 4.14 -1.918 1.828 -1.04 2.418 -3.608 5.1 -2.576 3.512 1.352 3.434 1.358 3.434 5.7558 0.202 3.636 2.928 6.432 6.564 6.564 3.282 0.118 7.674 -0.0478 10.956 -0.1518 3.13 -0.098 5.66 -2.272 6.312 -5.252 0.632 -2.888 -0.698 -5.294 1.97 -6.312 1.716 -0.654 3.004 -1.842 4.796 -0.05 0.706 0.706 1.412 1.416 2.172 2.02 2.366 1.878 5.96 2.0718 8.18 0.0998 2.78 -2.47 4.292 -4.9478 6.766 -7.7258 2.07 -2.322 1.918 -5.856 -0.05 -8.28 -0.656 -0.808 -1.45 -1.2202 -2.02 -2.0702 -0.444 -0.664 -0.872 -1.5678 -0.758 -2.2718 0.642 -3.954 2.072 -4.14 6.008 -4.14 3.584 -0.252 6.284 -3.13 6.362 -6.716 0.07 -3.232 0.056 -6.564 -0.05 -9.846l-0.006 0.002ZM162.296 144.0656c-8.936 0 -16.914 -7.4218 -16.914 -16.3078s7.674 -16.662 16.562 -16.662c8.936 0 16.032 8.6838 16.006 17.7218 -0.026 8.684 -6.918 15.248 -15.652 15.248h-0.002Z" stroke-width="1"></path><g id="group"><path id="vector_7" fill="#501200" d="M161.892 110.188c-9.29 0 -17.47 8.23 -17.47 17.57 0 9.19 8.33 17.218 17.874 17.218 4.574 0 8.68 -1.71 11.664 -4.594 10.748 -10.392 1.95 -30.194 -12.068 -30.194Zm15.096 18.632c0 8.206 -6.492 14.288 -14.642 14.288 -8.532 0 -16.006 -7.17 -16.006 -15.4 0 -8.382 7.322 -15.728 15.652 -15.754 8.668 -0.026 14.996 8.52 14.996 16.864v0.002Z" stroke-width="1"></path><path id="vector_8" fill="#501200" d="M196.328 145.2278c-0.414 -0.6 -0.662 -1.264 -0.606 -1.616 0.47 -2.948 1.094 -3.332 4.14 -3.332 4.978 0 8.086 -3.486 8.23 -7.674 0.108 -3.13 0.104 -6.412 0 -9.998 -0.098 -3.332 -2.326 -6.1 -5.504 -6.918 -1.406 -0.362 -2.858 -0.322 -4.19 -0.354 -1.896 -0.046 -1.712 -1.05 -2.576 -2.828 -0.82 -1.688 0.644 -2.052 2.424 -4.242 2.422 -2.98 2.398 -7.142 -0.05 -9.846 -2.35 -2.596 -4.848 -5.098 -7.472 -7.472 -2.678 -2.422 -6.748 -2.502 -9.694 -0.202 -2.3 1.796 -2.61 3.198 -4.242 2.626 -2.922 -1.026 -3.004 -1.06 -3.03 -4.09 -0.002 -0.354 0 -0.706 -0.05 -1.11 -0.252 -3.938 -3.382 -7.036 -7.22 -7.17 -3.382 -0.118 -6.766 -0.116 -10.148 0 -3.938 0.134 -6.946 3.186 -7.322 7.22 -0.09 0.972 0.278 3.304 -0.606 4.04 -1.898 1.58 -3.382 1.566 -5.2 -0.252 -0.302 -0.302 -0.656 -0.656 -1.01 -0.96 -3.076 -2.63 -7.262 -2.666 -10.148 -0.05 -2.516 2.28 -5.018 4.78 -7.372 7.372 -2.596 2.858 -2.558 6.954 0.05 10.048 0.596 0.706 1.536 1.496 1.818 1.97 0.394 0.662 0.656 1.312 0.556 1.616 -0.556 2.878 -1.06 3.282 -4.09 3.282 -5.166 0 -8.268 3.438 -8.382 7.524 -0.09 3.232 -0.11 6.514 0 9.744 0.14 4.14 3.282 7.27 7.524 7.524 1.912 0 2.048 -0.036 2.424 0.05 0.704 0.164 1.262 0.454 1.464 0.706 1.666 2.374 1.632 3.096 -0.454 5.2 -3.806 3.84 -3.53 8.322 -0.354 11.664 2.388 2.512 4.476 4.476 6.26 6.26 1.414 1.414 3.08 2.172 4.998 2.272l0.302 0.706c1.32 -0.622 1.232 -0.594 2.07 -0.908 0.2 0 2.448 -1.08 3.03 -1.414 2.14 -1.23 2.314 -3.242 4.342 -2.424 1.914 0.772 2.828 2.07 2.828 4.09v0.858c0.252 4.14 3.386 7.218 7.472 7.422 2.792 0.138 8.254 -0.072 10.906 -0.1 3.292 -0.036 6.482 -2.342 7.22 -6.008 0.612 -3.04 -0.546 -4.95 1.364 -5.654 0.554 -0.204 1.11 -0.458 1.666 -0.706 1.676 -0.748 1.916 0.568 4.342 2.524 2.768 2.232 6.912 2.266 9.392 0.05 2.628 -2.348 4.708 -5.368 6.816 -7.776 2.284 -2.608 2.322 -6.564 0 -9.492 -0.644 -1.182 -1.232 -1.176 -1.918 -2.172Zm-13.078 17.824c-0.76 -0.602 -1.47 -1.306 -2.07 -1.918 -1.224 -1.25 -2.686 -1.586 -4.19 -0.858 -1.718 0.83 -3.888 1.134 -3.888 4.19 0 1.294 0.032 2.384 -0.202 3.434 -0.618 2.77 -3.036 4.506 -5.504 4.544 -3.182 0.05 -7.574 0.256 -10.856 0.152 -3.08 -0.098 -5.58 -2.522 -5.654 -5.706 -0.106 -4.456 0.088 -4.948 -4.04 -6.564 -0.45 -0.176 -0.882 -0.302 -1.514 -0.302 -1.744 0 -2.624 1.362 -3.03 1.666 -0.782 0.868 -1.394 1.576 -4.594 2.776l-0.05 -0.05h-0.656c-1.616 0 -3.024 -0.612 -4.242 -1.768 -1.94 -1.844 -4.464 -4.354 -6.26 -6.21 -2.512 -2.598 -2.71 -6.062 0.302 -9.088 2.746 -2.758 2.874 -4.44 0.656 -7.574 -0.606 -0.858 -1.87 -1.25 -2.576 -1.414 -0.754 -0.174 -1.63 -0.076 -2.726 -0.1 -3.234 -0.076 -5.656 -2.576 -5.756 -5.706 -0.102 -3.18 -0.102 -6.412 0 -9.594 0.1 -3.122 2.356 -5.728 6.564 -5.756 3.888 -0.026 5.188 -1.052 5.908 -4.796 0.214 -1.108 -0.454 -2.322 -0.808 -2.978 -0.606 -0.952 -1.262 -1.312 -1.97 -2.172 -1.936 -2.35 -2.016 -5.45 -0.05 -7.624 2.326 -2.572 4.74 -5.004 7.22 -7.27 2.216 -2.026 5.288 -1.954 7.726 0.1 0.302 0.254 0.606 0.556 0.908 0.858 2.474 2.474 5.056 2.582 7.674 0.302 1.416 -1.234 1.262 -3.468 1.262 -5.352 0.202 -3.08 2.574 -5.408 5.554 -5.504 3.332 -0.106 6.716 -0.108 9.998 0 2.878 0.094 5.252 2.424 5.454 5.454 0 0.354 0.048 0.706 0.05 1.01 0.026 3.888 0.558 4.588 4.242 5.806 2.918 0.966 3.786 -1.286 5.908 -2.928 2.3 -1.782 5.29 -1.754 7.322 0.1 2.56 2.338 4.996 4.8 7.322 7.322 1.866 2.022 1.892 5.17 0 7.422 -0.598 0.714 -1.268 1.406 -1.868 1.97 -1.276 1.198 -1.536 2.686 -0.808 4.19 0.804 1.666 1.068 3.844 4.242 3.888 1.24 0.016 2.56 -0.016 3.786 0.302 2.43 0.632 4.054 2.676 4.14 5.2 0.122 3.534 0.1 6.766 0 9.896 -0.102 3.18 -2.424 5.604 -5.504 5.806 -4.242 0 -6.022 0.318 -6.866 4.898 -0.204 1.11 0.454 2.322 0.908 2.928 0.636 1 1.628 1.534 2.02 2.12 1.768 2.222 1.77 5.204 0.05 7.12 -2.326 2.594 -4.038 5.286 -6.664 7.674 -1.666 1.818 -4.754 1.776 -6.866 0.102l-0.004 0.002Z" stroke-width="1"></path><path id="vector_9" fill="#501200" d="M248.13 177.238c-0.05 -1.868 -1.308 -3.45 -3.13 -3.888 -1.74 -0.418 -2.59 0.058 -2.776 -0.504 -0.288 -0.866 -0.63 -0.986 -0.252 -1.364 0.354 -0.354 0.714 -0.702 1.06 -1.11 1.39 -1.644 1.36 -3.984 -0.05 -5.504 -1.216 -1.31 -2.466 -2.584 -3.786 -3.786 -1.506 -1.372 -3.814 -1.448 -5.454 -0.1 -1.298 1.068 -1.272 1.31 -1.666 1.212 -0.808 -0.252 -1.212 -0.808 -1.212 -1.616v-0.606c-0.152 -2.222 -1.918 -3.958 -4.04 -4.04 -1.716 -0.066 -3.434 -0.064 -5.1 0 -2.222 0.084 -3.938 1.768 -4.09 4.04 0 0.814 0.056 1.558 -0.152 1.768 -1.26 1.092 -1.65 0.05 -2.524 -0.606 -1.716 -1.464 -4.096 -1.47 -5.706 0 -1.266 1.156 -2.532 2.418 -3.736 3.736 -1.476 1.618 -1.456 4.25 0.454 6.16 1.174 1.174 0.894 2.172 -1.464 2.172 -2.322 0.152 -4.054 1.918 -4.14 4.19 -0.062 1.616 -0.06 3.282 0 4.898 0.086 2.324 1.866 4.14 4.19 4.19 0.852 0.018 1.24 -0.066 1.566 0.152 0.706 1.01 0.71 1.114 -0.202 2.02 -2.068 2.054 -1.94 4.626 -0.202 6.462 1.46 1.542 2.49 2.49 3.13 3.13 2.266 2.266 4.752 1.458 7.018 -0.808 0.202 -0.202 0.304 -0.206 0.556 -0.1 1.462 0.606 0.976 0.132 1.162 1.616v0.454c0.152 2.322 1.918 4.116 4.19 4.14 2.306 0.026 4.008 -0.046 5.554 -0.1 1.968 -0.07 3.662 -1.458 4.04 -3.382 0.056 -0.286 0.1 -0.38 0.1 -1.97 0 -0.404 0.1 -0.454 0.302 -0.504 1.604 -0.534 0.61 -0.838 2.576 0.908 1.616 1.262 3.888 1.264 5.302 0 1.602 -1.432 2.14 -2.488 3.434 -3.938 1.31 -1.468 1.306 -3.732 0 -5.352 -0.622 -0.772 -1.088 -0.97 -1.212 -1.464 0.234 -1.4 0.344 -1.312 2.172 -1.312 2.272 -0.152 3.936 -1.97 4.04 -4.242 0.066 -1.466 0.102 -3.08 0.05 -4.948l-0.002 -0.004Zm-8.028 10.3c-0.12 0.69 0.24 1.796 1.212 2.576 0.152 0.1 0.252 0.252 0.354 0.354 0.758 0.908 0.744 2.16 0.05 2.978 -1.766 2.088 -2.372 2.976 -3.332 3.786 -0.766 0.646 -2.036 0.678 -2.928 -0.05 -0.36 -0.294 -0.706 -0.656 -1.01 -0.908 -1.322 -1.322 -2.588 -0.514 -3.382 -0.202 -2.074 0.814 -1.286 2.686 -1.616 3.838 -0.252 1.11 -1.16 1.876 -2.322 1.918 -1.616 0.06 -3.838 0.106 -5.402 0.05 -1.312 -0.046 -2.322 -1.06 -2.424 -2.424 0 -2.322 -0.046 -2.804 -2.322 -3.686 -0.448 -0.174 -0.738 -0.152 -0.96 -0.152 -1.006 0 -1.662 0.754 -1.868 0.96 -1.636 1.636 -3.172 1.422 -4.14 0.454 -0.77 -0.77 -1.514 -1.432 -3.13 -3.13 -0.364 -0.382 -1.768 -1.97 0.202 -3.938 1.514 -1.514 1.612 -2.672 0.354 -4.392 -0.406 -0.554 -1.06 -0.76 -1.566 -0.908 -0.392 -0.114 -0.684 -0.036 -1.414 -0.05 -1.364 -0.026 -2.428 -1.11 -2.474 -2.424 -0.056 -1.566 -0.056 -3.182 0 -4.796 0.008 -0.254 0.126 -2.424 2.828 -2.424 2.172 0 2.944 -0.714 3.382 -2.776 0.14 -0.658 -0.2 -1.364 -0.454 -1.818 -0.188 -0.334 -0.316 -0.418 -1.06 -1.162 -0.858 -1.01 -0.866 -2.33 -0.05 -3.232 1.15 -1.272 2.366 -2.482 3.584 -3.584 0.944 -0.856 2.338 -0.942 3.736 0.454 1.414 1.414 3.004 1.492 4.494 0.202 0.922 -0.798 0.808 -2.088 0.808 -2.978 0.1 -1.312 1.06 -2.278 2.322 -2.322 1.666 -0.058 3.332 -0.058 4.998 0 1.262 0.044 2.246 1.01 2.272 2.322 0.046 2.388 0.046 3.032 2.424 3.838 0.862 0.292 1.666 0.1 2.272 -0.504 0.538 -0.538 1.046 -0.996 1.11 -1.06 0.96 -0.758 2.218 -0.752 3.08 0.05 1.256 1.168 2.488 2.362 3.636 3.636 0.766 0.85 0.734 2.154 0 3.13 -0.928 1.234 -2.452 1.558 -1.11 4.242 0.782 2.188 2.844 1.288 3.988 1.716 1.01 0.252 1.702 1.11 1.716 2.172 0.026 1.768 0.054 3.382 0 4.898 -0.048 1.364 -1.01 2.374 -2.322 2.474h-0.504c-1.768 0.1 -2.668 0.8 -3.03 2.878l-0.002 -0.006Z" stroke-width="1"></path><path id="vector_10" fill="#501200" d="M224.552 170.5738c-4.898 0 -9.24 4.342 -9.24 9.29 0 4.948 4.292 9.088 9.392 9.088 4.946 0 8.734 -3.77 8.734 -8.532 0 -4.968 -3.918 -9.846 -8.886 -9.846Zm-0.1 1.818c5.954 -0.038 9.658 8.316 5.2 12.774 -4.304 4.304 -12.432 0.878 -12.472 -5.352 -0.026 -3.938 3.382 -7.396 7.27 -7.422h0.002Z" stroke-width="1"></path></g></g><g id="bug"><path id="vector_11" fill="#501200" d="M257.37 94.1302c-2.736 -0.388 -5.504 -0.05 -7.978 0.96 -0.678 -2.714 -1.742 -5.24 -3.838 -8.382 1.918 -1.716 4.546 -2.534 7.22 -2.07 0.858 0.148 1.212 -1.158 0.354 -1.312 -3.01 -0.542 -6.116 0.246 -8.432 2.272 -2.07 -2.676 -4.594 -4.998 -7.472 -6.716 1.088 -4.506 5.65 -6.12 9.138 -4.494 0.758 0.352 1.46 -0.796 0.656 -1.162 -4.726 -2.146 -9.814 0.388 -11.058 4.948 -3.348 -1.762 -6.546 -2.374 -10.3 -2.374 -3.756 -6.572 -13.238 -4.796 -12.926 3.08 0.066 1.666 0.556 3.282 1.566 4.594 -0.404 2.676 -0.354 5.402 0.1 8.028 -3.18 -0.302 -6.398 0.164 -8.584 2.776 -0.552 0.66 0.406 1.618 0.96 0.96 2.028 -2.416 4.998 -2.726 7.928 -2.374 0.858 3.636 2.474 7.018 4.796 9.946 -2.24 0.8 -3.114 2.592 -3.584 4.948 -0.292 1.466 -0.382 2.982 -0.202 4.444 0.128 1.036 1.404 0.694 1.312 0 -0.166 -1.26 -0.14 -2.572 0.1 -3.838 0.442 -2.312 1.062 -3.926 3.332 -4.494 4.078 4.894 10.604 6.816 10.806 6.918 -1.97 2.07 -3.032 5.048 -3.534 7.876 -0.152 0.858 1.16 1.212 1.312 0.354 0.498 -2.778 1.514 -5.958 3.686 -7.776 3.332 0.858 7.02 1.112 10.148 -0.302 4.31 -1.95 7.872 -7.482 6.716 -14.592 2.272 -1.01 4.856 -1.47 7.322 -1.01 0.964 0.18 1.31 -1.09 0.454 -1.212l0.002 0.004Z" stroke-width="1"></path><path id="vector_12" fill="#ffffff" d="M247.576 108.6722c-15.628 -15.896 -25.88 -28.96 -27.012 -30.092 1.262 -0.708 2.624 -1.214 4.04 -1.464 0.858 -0.152 0.504 -1.464 -0.352 -1.312 -3.99 0.706 -7.626 3.28 -9.542 6.868 -0.404 0.756 0.738 1.454 1.162 0.656 0.86 -1.62 2.144 -3 3.588 -4.056 9.216 11.08 19.96 22.884 27.21 30.31 0.556 0.656 1.51 -0.298 0.91 -0.91h-0.004Z" stroke-width="1"></path><path id="vector_13" fill="#ffffff" d="M221.774 91.2024c-0.748 -0.448 -1.824 -0.328 -2.474 0.404 -1.078 1.212 -0.554 3.072 0.706 3.332 1.648 0.342 2.954 -1.81 2.474 -2.928 -0.202 -0.354 -0.404 -0.658 -0.708 -0.808h0.002Z" stroke-width="1"></path><path id="vector_14" fill="#ffffff" d="M234.498 102.6144c-0.668 -0.424 -1.788 -0.368 -2.474 0.404 -1.078 1.21 -0.554 3.072 0.708 3.332 1.838 0.38 3.652 -2.542 1.766 -3.736Z" stroke-width="1"></path><path id="vector_15" fill="#ffffff" d="M237.73 91.1024c1.894 0.392 3.584 -2.618 1.818 -3.736 -0.668 -0.424 -1.788 -0.368 -2.474 0.404 -1 1.124 -0.678 3.056 0.656 3.332Z" stroke-width="1"></path></g><g id="arm2"><path id="vector_16" fill="#ffb949" d="M354.92 193.2962c-1.696 -7.78 -4.304 -11.574 -12.674 -11.41 -4.342 0.084 -8.634 0.858 -12.774 2.172 -16.384 -13.698 -45.128 -36.768 -44.836 -37.616 0.242 -0.702 3.758 -5.694 2.474 -13.734 -0.918 -5.754 -4.444 -10.956 -9.34 -14.086 -4.98 -3.184 -15.324 -5.812 -22.116 -4.646 -0.606 0.104 -0.606 0.96 -0.152 1.212 20.38 13.958 12.908 27.678 2.726 26.154 -7.588 -1.136 -13.21 -9.408 -16.762 -16.208 -1.546 -2.958 -2.702 -2.18 -2.626 -1.262 1.212 8.18 2.684 16.306 4.444 24.388 1.716 7.884 4.334 11.64 12.674 11.462 4.342 -0.094 8.634 -0.858 12.774 -2.12l44.936 37.616s-2.202 3.3 -2.676 8.4318c-0.728 7.868 3.228 15.266 9.542 19.288 4.858 3.094 15.282 5.866 22.216 4.594 0.604 -0.11 0.606 -0.96 0.152 -1.212 -4.218 -2.812 -7.936 -6.5 -9.946 -9.34 -6.494 -9.178 -1.386 -18.0478 7.22 -16.762 4.228 0.632 8.084 3.578 10.754 6.918 0.1 0.1 0.202 0.202 0.252 0.354 2.752 3.21 5.79 9.062 6.008 9.392 0.782 1.566 2.544 2.938 2.066 -0.072 -0.488 -3.076 -1.684 -11.332 -4.338 -23.5058l0.002 -0.008Z" stroke-width="1"></path><path id="vector_17" fill="#ffffff" d="M324.474 173.906c-0.362 0.55 -1.104 0.302 -1.162 -0.302 -0.134 -1.416 -0.302 -3.13 -1.312 -4.19 -0.808 -0.758 -2.24 -1.228 -3.08 -0.304 -0.362 0.398 -0.912 0.204 -1.06 -0.252 -0.614 -1.866 -1.364 -4.09 -3.13 -5.15 -1.262 -0.756 -3.286 -0.81 -4.14 0.606 -0.304 0.504 -0.956 0.352 -1.162 -0.152 -1.89 -4.626 -6.666 -7.152 -6.816 -1.818 -0.082 2.936 0.344 11.746 1.616 19.742 0.102 0.456 -0.41 1.07 -0.908 0.708 -3.734 -2.712 -7.978 -4.746 -12.522 -5.604 -1.87 -0.354 -4.506 -0.766 -5.756 1.06 -1.274 1.86 0.754 3.94 1.868 5.302 7.97 9.73 9.196 15.064 15.602 20.044 1.42 1.104 6.262 4.292 11.866 4.998 4.07 -3.018 13.692 -10.926 17.044 -13.44 -4.64 -9.612 -2.436 -17.366 -3.512 -20.086 -0.458 -1.16 -2.496 -2.59 -3.434 -1.162h-0.002Z" stroke-width="1"></path><path id="vector_18" fill="#501200" d="M381.882 228.79c-8.032 -8.032 -22.302 -23.166 -44.23 -38.776 -2.272 -1.618 -4.514 -2.798 -7.22 -2.12 -0.87 -3.676 -0.904 -5.76 -0.706 -8.33 0.214 -2.774 0.328 -5.998 -2.272 -7.322 -0.906 -0.462 -1.918 -0.556 -2.776 -0.302 -0.202 -1.464 -0.646 -3.044 -1.97 -4.09 -1.102 -0.87 -2.576 -1.162 -3.736 -0.706 -0.808 -2.12 -1.866 -4.196 -3.888 -5.15 -1.614 -0.762 -3.534 -0.656 -4.796 0.252 -2.76 -5.214 -7.226 -5.698 -8.634 -2.928 -1.006 1.98 -0.59 4.5 -0.556 6.312 0.082 4.224 0.702 10.564 1.312 14.49 -3.18 -2.07 -6.77 -3.614 -10.402 -4.444 -2.376 -0.542 -4.696 -0.908 -6.664 0.152s-2.704 3.222 -1.868 5.252c0.414 1.006 1.068 1.862 1.716 2.626 9.854 11.596 10.566 19.356 22.822 24.64v0.05c-1.412 4.236 0.67 8.29 2.474 12.118 4.186 8.878 13.348 24.628 15.754 28.174 4.12 6.074 10.768 16.414 15.096 21.914 9.59 12.184 19.174 8.78 30.346 -1.768 6.356 -6.002 10.512 -11.176 14.996 -17.672 0.556 -0.806 1.826 -3.054 2.374 -4.444 2.938 -7.468 -1.472 -12.226 -7.17 -17.924l-0.002 -0.004Zm-73.11 -22.064c-5.29 -2.196 -9.286 -5.182 -13.936 -12.622 -4.718 -7.552 -7.434 -10.368 -8.028 -11.26 -1.11 -1.312 -2.58 -3.084 -1.514 -4.594 1.106 -1.568 3.284 -1.376 5.504 -0.96 4.448 0.834 8.776 2.724 12.42 5.554 0.546 0.424 1.486 0.136 1.346 -1.464 -0.02 -0.232 -1.832 -12.484 -1.6 -19.186 0.176 -5.09 4.548 -2.252 6.312 1.918 0.15 0.354 0.454 0.606 0.858 0.606 0.966 0 0.624 -0.974 2.07 -1.364 0.756 -0.204 1.766 -0.048 2.524 0.404 1.786 1.066 2.688 3.924 3.03 4.948 0.1 0.302 0.404 0.556 0.706 0.606 0.83 0.138 0.782 -0.656 1.818 -0.656 0.556 0 1.218 0.296 1.666 0.758 0.922 0.946 1.06 2.524 1.212 3.888 0 0.552 0.316 0.906 0.706 1.01 1.006 0.27 0.812 -0.994 1.97 -0.858 0.808 0.096 1.722 0.908 1.97 1.566 0.912 2.424 -0.864 6.25 1.01 13.43 -3.308 1.654 -16.386 11.572 -20.044 18.278v-0.002Z" stroke-width="1"></path><path id="vector_19" fill="#ffffff" d="M333.512 198.2942c-1.21 -2.036 -0.716 -4.642 0.252 -5.454 1.48 -1.238 4.682 0.284 3.786 4.392 -0.188 0.862 1.108 1.21 1.312 0.354 0.546 -2.274 0.01 -5.176 -2.374 -6.16 -4.244 -1.752 -6.438 3.694 -4.14 7.524 0.404 0.808 1.612 0.102 1.162 -0.656h0.002Z" stroke-width="1"></path><path id="vector_20" fill="#ffffff" d="M367.844 263.83c-1.21 -2.036 -0.716 -4.642 0.252 -5.454 1.48 -1.238 4.682 0.284 3.786 4.392 -0.188 0.862 1.108 1.21 1.312 0.354 0.546 -2.274 0.01 -5.176 -2.374 -6.16 -4.244 -1.752 -6.438 3.694 -4.14 7.524 0.454 0.758 1.612 0.102 1.162 -0.656h0.002Z" stroke-width="1"></path><path id="vector_21" fill="#ffffff" d="M355.02 224.044c-1.19 -2.124 -0.73 -4.63 0.252 -5.454 1.48 -1.238 4.682 0.284 3.786 4.392 -0.188 0.862 1.108 1.21 1.312 0.354 0.546 -2.274 0.01 -5.176 -2.374 -6.16 -4.156 -1.716 -6.448 3.448 -4.14 7.524 0.422 0.746 1.58 0.092 1.162 -0.656h0.002Z" stroke-width="1"></path><path id="vector_22" fill="#ffffff" d="M384.456 234.192c-0.208 0.856 -1.526 0.502 -1.312 -0.354 0.24 -0.962 0.266 -2.076 -0.1 -3.03 -0.676 -1.758 -2.736 -2.154 -3.636 -1.364 -1.026 0.9 -1.418 3.436 -0.252 5.454 0.442 0.764 -0.706 1.414 -1.162 0.656 -1.742 -2.904 -0.958 -8.108 2.978 -7.826 0 0 2.744 2.84 3.736 3.888 0 0.858 -0.056 1.766 -0.252 2.576Z" stroke-width="1"></path><path id="vector_23" fill="#ffffff" d="M330.078 221.52c-0.964 0.338 -1.97 0.504 -2.978 0.252 -4.804 -0.848 -2.45 -6.494 2.626 -4.392 0.356 0.148 0.758 -0.152 0.808 -0.454 0.1 -0.404 -0.152 -0.706 -0.454 -0.808 -2.172 -0.908 -5.118 -0.768 -6.412 1.514 -2.302 4.064 2.986 6.71 6.766 5.2 0.966 -0.386 0.276 -1.534 -0.354 -1.312h-0.002Z" stroke-width="1"></path><path id="vector_24" fill="#ffffff" d="M345.73 260.902c-0.96 0.354 -1.97 0.504 -2.978 0.252 -4.804 -0.848 -2.45 -6.494 2.626 -4.392 0.356 0.148 0.758 -0.152 0.808 -0.454 0.1 -0.404 -0.152 -0.706 -0.454 -0.808 -2.172 -0.908 -5.118 -0.768 -6.412 1.514 -2.302 4.064 2.986 6.71 6.766 5.2 0.898 -0.358 0.396 -1.526 -0.354 -1.312h-0.002Z" stroke-width="1"></path><path id="vector_25" fill="#ffffff" d="M326.14 248.986c-0.252 -0.404 -0.504 -0.808 -0.758 -1.162 1.312 -0.454 2.888 -0.278 4.19 0.252 1.006 0.41 0.208 1.544 -0.354 1.262 -0.96 -0.354 -2.02 -0.606 -3.08 -0.354l0.002 0.002Z" stroke-width="1"></path><path id="vector_26" fill="#ffffff" d="M355.374 203.948c-3.838 -1.2 -5.534 2.142 -4.19 3.484 0.768 0.92 3.126 1.614 5.15 0.808 0.672 -0.268 1.296 0.816 0.302 1.312 -2.986 1.194 -6.384 -0.274 -7.12 -2.172 -0.752 -1.94 0.626 -4.816 3.888 -5.05l1.97 1.616v0.002Z" stroke-width="1"></path><path id="vector_27" fill="#ffffff" d="M389.404 245.756c-0.152 0.404 -0.302 0.858 -0.454 1.262 -0.656 -0.152 -1.314 -0.152 -1.97 0 -1.714 0.4 -2.498 2.284 -1.818 3.382 0.31 0.5 0.808 0.808 1.364 1.06 -0.252 0.404 -0.504 0.758 -0.758 1.11 -4.336 -1.928 -1.906 -8.096 3.636 -6.816v0.002Z" stroke-width="1"></path><path id="vector_28" fill="#ffffff" d="M361.584 234.698c0.594 -2.182 2.632 -3.662 3.938 -3.584 1.958 0.116 3.27 3.5 -0.454 5.756 -0.756 0.458 -0.062 1.598 0.656 1.162 1.99 -1.21 3.732 -3.584 2.776 -5.958 -1.688 -4.2 -6.934 -2.156 -8.28 2.222 -0.152 0.858 1.144 1.208 1.364 0.404v-0.002Z" stroke-width="1"></path><path id="vector_29" fill="#ffffff" d="M352.546 269.486c0.708 -2.332 2.682 -3.66 3.938 -3.584 1.958 0.116 3.27 3.5 -0.454 5.756 -0.756 0.458 -0.062 1.598 0.656 1.162 1.99 -1.21 3.732 -3.584 2.776 -5.958 -1.688 -4.2 -6.934 -2.156 -8.28 2.222 -0.202 0.858 1.118 1.214 1.364 0.404v-0.002Z" stroke-width="1"></path><path id="vector_30" fill="#ffffff" d="M353.102 237.576c-0.96 0.354 -1.97 0.504 -2.978 0.252 -4.804 -0.848 -2.45 -6.494 2.626 -4.392 0.356 0.148 0.758 -0.152 0.808 -0.454 0.1 -0.404 -0.152 -0.706 -0.454 -0.808 -2.172 -0.908 -5.118 -0.768 -6.412 1.514 -2.302 4.064 2.986 6.71 6.766 5.2 0.898 -0.358 0.396 -1.526 -0.354 -1.312h-0.002Z" stroke-width="1"></path><path id="vector_31" fill="#ffffff" d="M337.096 211.774c-1.21 -2.036 -0.716 -4.642 0.252 -5.454 1.48 -1.238 4.682 0.284 3.786 4.392 -0.188 0.862 1.108 1.21 1.312 0.354 0.546 -2.274 0.01 -5.176 -2.374 -6.16 -4.244 -1.752 -6.438 3.694 -4.14 7.524 0.454 0.758 1.612 0.102 1.162 -0.656h0.002Z" stroke-width="1"></path><path id="vector_32" fill="#ffffff" d="M372.49 248.128c-1.21 -2.036 -0.716 -4.642 0.252 -5.454 1.48 -1.238 4.682 0.284 3.786 4.392 -0.188 0.862 1.108 1.21 1.312 0.354 0.546 -2.274 0.01 -5.176 -2.374 -6.16 -4.244 -1.752 -6.438 3.694 -4.14 7.524 0.404 0.808 1.612 0.102 1.162 -0.656h0.002Z" stroke-width="1"></path><path id="vector_33" fill="#ffffff" d="M318.97 229.85c-0.204 0.858 -1.52 0.504 -1.312 -0.354 1.084 -4.466 -3.462 -6.376 -4.494 -3.282 -0.252 -0.504 -0.504 -0.96 -0.758 -1.464 2.11 -2.956 7.982 -0.882 6.564 5.1Z" stroke-width="1"></path><path id="vector_34" fill="#ffffff" d="M324.878 208.594c-2.128 -1.162 -3.018 -3.608 -2.576 -4.796 0.7 -1.876 4.27 -2.16 5.504 1.768 0.254 0.808 1.57 0.452 1.312 -0.354 -1.568 -4.912 -6.314 -5.04 -7.826 -2.374 -0.95 1.678 -0.168 5.084 2.928 6.918 0.76 0.45 1.47 -0.718 0.656 -1.162h0.002Z" stroke-width="1"></path><path id="vector_35" fill="#ffffff" d="M341.792 226.922c-2.062 -1.096 -3.034 -3.568 -2.576 -4.796 0.7 -1.876 4.27 -2.16 5.504 1.768 0.254 0.808 1.57 0.452 1.312 -0.354 -1.568 -4.912 -6.314 -5.04 -7.826 -2.374 -0.968 1.706 -0.116 5.16 2.928 6.918 0.706 0.408 1.414 -0.758 0.656 -1.162h0.002Z" stroke-width="1"></path><path id="vector_36" fill="#ffffff" d="M359.06 254.036c-2.062 -1.096 -3.034 -3.568 -2.576 -4.796 0.7 -1.876 4.27 -2.16 5.504 1.768 0.254 0.808 1.57 0.452 1.312 -0.354 -1.568 -4.912 -6.314 -5.04 -7.826 -2.374 -0.984 1.738 -0.05 5.254 2.928 6.918 0.75 0.418 1.414 -0.758 0.656 -1.162h0.002Z" stroke-width="1"></path><path id="vector_37" fill="#ffffff" d="M340.782 248.38c-2.058 -1.09 -3.034 -3.566 -2.576 -4.796 0.7 -1.876 4.27 -2.16 5.504 1.768 0.254 0.808 1.57 0.452 1.312 -0.354 -1.568 -4.912 -6.314 -5.04 -7.826 -2.374 -0.976 1.722 -0.142 5.036 2.928 6.918 0.716 0.438 1.414 -0.706 0.656 -1.162h0.002Z" stroke-width="1"></path><path id="vector_38" fill="#ffffff" d="M371.38 224.902c-3.112 -1.672 -4.908 -6.384 -1.616 -8.18 0.354 0.354 0.706 0.656 1.06 1.01 -0.606 0.202 -1.162 0.556 -1.364 1.162 -0.416 1.246 0.388 3.496 2.576 4.796 0.76 0.452 0.1 1.618 -0.656 1.212Z" stroke-width="1"></path><g id="group_2"><path id="vector_39" fill="#ffffff" d="M318.718 200.414c-1.114 -0.5996 -2.07 -1.5656 -2.676 -2.7256 0.354 -0.252 0.706 -0.556 1.11 -0.808 0.174 0.52 1.014 1.696 2.222 2.374 0.748 0.42 0.1 1.5676 -0.656 1.1616v-0.002Z" stroke-width="1"></path><path id="vector_40" fill="#ffffff" d="M322.252 196.2242c-0.246 -0.81 -0.738 -1.76 -1.394 -2.366 0.128 -0.086 0.936 -0.716 1.06 -0.808 0.706 0.758 1.286 1.814 1.596 2.77 0.296 0.912 -1.002 1.26 -1.262 0.404Z" stroke-width="1"></path></g><path id="vector_41" fill="#ffffff" d="M312.254 214.652c-1.6 -1.868 -1.61 -4.354 -0.858 -5.302 1.136 -1.43 4.594 -0.884 4.594 3.534 -0.05 0.858 1.328 0.86 1.364 0 0.094 -2.322 -1.01 -5.046 -3.534 -5.504 -4.694 -0.85 -5.392 5.02 -2.474 8.23 0.504 0.656 1.468 -0.306 0.908 -0.96v0.002Z" stroke-width="1"></path><path id="vector_42" fill="#ffffff" d="M328.512 238.736c-1.6 -1.868 -1.61 -4.354 -0.858 -5.302 1.136 -1.43 4.594 -0.884 4.594 3.534 -0.05 0.858 1.328 0.86 1.364 0 0.094 -2.322 -1.01 -5.046 -3.534 -5.504 -4.694 -0.85 -5.392 5.02 -2.474 8.23 0.504 0.656 1.468 -0.306 0.908 -0.96v0.002Z" stroke-width="1"></path></g><g id="arm1"><path id="vector_43" fill="#ffffff" d="M111.856 183.246c19.2128 0 34.788 -15.688 34.788 -35.04 0 -19.352 -15.5752 -35.04 -34.788 -35.04 -19.2128 0 -34.788 15.688 -34.788 35.04 0 19.352 15.5752 35.04 34.788 35.04Z" stroke-width="1"></path><path id="vector_44" fill="#ffffff" d="M97.92 215.662c-2.86 6.17 -14.812 11.546 -21.106 17.722 -3.826 -11.052 -5.77 -11.1 -5.402 -14.49 0.554 -5.106 1.688 -10.798 3.232 -15.702 0.666 -2.118 1.66 -4.2998 3.484 -5.6038 4.234 -3.032 14.914 -0.912 19.944 0.05 0 0 0.62 16.3618 -0.152 18.0258v-0.002Z" stroke-width="1"></path><path id="vector_45" fill="#501200" d="M100.964 196.2402c-3.108 16.7018 -3.116 17.4318 -3.952 19.1198 -2.826 5.712 -13.506 10.616 -19.742 16.258 -1.684 -4.714 -2.788 -6.608 -3.636 -8.432 -0.518 -0.972 -1.002 -1.796 -1.212 -2.878 -0.38 -1.964 1.546 -11.162 2.222 -13.784 2.518 -9.7838 4.35 -11.4738 23.226 -8.0778 1.19 0.214 1.71 -1.572 0.454 -1.818 -4.188 -0.822 -8.532 -1.64 -12.876 -1.666 -4.2 -0.024 -7.604 0.504 -9.946 3.988 -2.4 3.5698 -4.016 13.2058 -4.696 17.4198 -0.654 4.044 -0.376 4.932 1.514 8.482 3.814 7.166 3.1 9.442 4.544 9.442 0.964 0 -0.212 -0.378 9.644 -7.068 13.4 -9.098 12.526 -10.688 14.036 -17.924 0.106 -0.504 2.474 -13.0258 2.474 -13.0258 -0.096 -1.26 -1.694 -1.98 -2.056 -0.034l0.002 -0.002Z" stroke-width="1"></path><path id="vector_46" fill="#ff7449" d="M149.068 135.482c-8.804 -25.672 -40.318 -37.364 -64.628 -18.58 -8.444 6.524 -14.938 19.082 -14.44 32.516 0.616 16.628 11.436 33.62 29.638 39.08 -2.872 18.596 -15.134 40.236 -9.946 49.532 1.266 2.27 3.988 3.988 6.412 3.03 2.424 -0.958 3.2 -3.934 3.686 -6.514 2.79 -14.824 5.352 -29.688 8.028 -44.532 9.138 0.808 18.456 -1.398 26.054 -6.766 14.244 -10.062 21.052 -30.698 15.198 -47.764l-0.002 -0.002Zm-19.994 40.292c-11.166 7.864 -27.114 7.018 -37.716 -1.716 -15.456 -12.734 -16.96 -37.186 -0.908 -50.238 18.58 -15.11 43.644 -5.602 50.542 14.542 4.568 13.338 -0.716 29.526 -11.916 37.414l-0.002 -0.002Z" stroke-width="1"></path><path id="vector_47" fill="#ffffff" d="M76.614 246.108c8.684 -6.16 26.156 -24.082 34.232 -31.052 1.112 -0.958 2.356 -2.168 2.172 -3.584 -0.24 -1.848 -2.28 -2.52 -4.14 -2.626 -8.584 -0.492 -16.46 5.15 -24.992 5.454l-7.27 31.81 -0.002 -0.002Z" stroke-width="1"></path><g id="group_3"><path id="vector_48" fill="#501200" d="M114.028 141.1384c-0.302 -0.404 -0.802 -0.498 -1.212 -0.202 -4.438 3.208 -8.45 6.936 -11.966 11.058 -0.756 0.886 0.45 2.226 1.364 1.312 3.382 -4.14 7.35 -7.614 11.612 -10.754 0.464 -0.342 0.454 -1.01 0.202 -1.414Z" stroke-width="1"></path><path id="vector_49" fill="#501200" d="M110.544 149.7724c-3.786 3.332 -7.472 6.766 -11.008 10.3 -0.824 0.824 0.446 2.23 1.364 1.312 11.182 -11.182 11.422 -10.128 11.26 -11.108 -0.264 -0.662 -1.084 -1.036 -1.616 -0.504Z" stroke-width="1"></path></g><path id="vector_50" fill="#501200" d="M113.826 210.816c-1.018 -3.28 -5.354 -3.192 -8.532 -2.828 -7.442 0.852 -14.272 5.218 -21.458 5.352 -1.182 0.022 -1.222 1.98 0 1.868 8.186 -0.3 15.54 -5.272 22.822 -5.402 1.234 -0.022 3.236 -0.336 4.646 0.656 1.934 1.362 -0.032 3.142 -1.868 4.646 -0.548 0.55 -1.214 0.768 -12.724 11.866 -4.926 4.75 -15.09 14.534 -20.6 18.328 -0.722 0.498 -0.36 1.496 0.152 1.666 2.03 1.016 31.912 -28.596 34.486 -30.648 1.714 -1.366 3.832 -3.078 3.08 -5.504h-0.004Z" stroke-width="1"></path><path id="vector_51" fill="#ffb949" d="M88.882 238.99c0.1 1.514 -0.798 2.884 -1.666 4.14 -6.9 9.974 -16.588 20.416 -25.65 28.476 -1.05 0.934 -13.322 11.686 -14.49 12.522 -5.158 4.248 -9.402 8.324 -14.794 4.342 -2.322 -1.714 -6.322 -5.346 -9.594 -9.088 -5.526 -6.324 -9.708 -12.6 -10.148 -13.482 -4.108 -6.598 -2.956 -9.552 1.262 -13.28 15.152 -13.392 31.79 -23.884 47.612 -34.132 1.01 -0.654 2.02 -1.314 3.18 -1.566 2.826 -0.61 5.542 1.224 7.574 3.282 0.198 0.2 8.184 8.408 14.34 14.946 0.91 0.966 2.068 2.246 2.222 3.636 0.152 0.1 0.152 0.152 0.152 0.202v0.002Z" stroke-width="1"></path><path id="vector_52" fill="#ffffff" d="M88.882 238.99c0 -0.484 -0.162 -1.046 -0.454 -1.514 -3.18 3.636 -6.462 7.17 -9.794 10.704 -2.12 -2.374 -4.242 -4.846 -6.312 -7.27 4.03 -3.224 7.772 -6.258 11.26 -9.088 -0.302 -0.302 -0.606 -0.656 -0.91 -0.958l-11.158 9.038c-2.474 -2.98 -4.948 -5.958 -7.322 -8.988 3.686 -2.576 7.322 -5.15 11.006 -7.726 -0.302 -0.354 -0.656 -0.656 -0.958 -1.01 -3.636 2.524 -7.27 5.1 -10.906 7.674 -0.656 -0.858 -4.898 -6.362 -6.312 -8.23 -0.354 0.252 -0.756 0.504 -1.11 0.708 2.07 2.778 4.19 5.554 6.312 8.28 -7.304 5.204 -10.884 7.878 -11.412 8.23 -0.656 -0.708 -5.604 -6.21 -7.472 -8.28 -0.354 0.252 -0.758 0.504 -1.112 0.756 2.474 2.778 5 5.554 7.472 8.332 -4.292 3.13 -8.532 6.26 -12.774 9.442 -2.14 -2.354 -3.912 -4.31 -7.422 -8.836 -0.354 0.252 -0.708 0.504 -1.06 0.808 2.374 3.03 4.848 5.958 7.422 8.836 -3.484 2.624 -11.208 8.482 -11.614 8.836 -1.984 -2.482 -5.634 -7.494 -6.714 -9.038 -0.354 0.302 -0.708 0.606 -1.06 0.858 2.12 3.08 4.342 6.058 6.666 8.988 -3.232 2.524 -6.514 5.048 -9.746 7.574 0.252 0.352 0.504 0.756 0.758 1.11 3.282 -2.576 6.564 -5.15 9.846 -7.674 2.726 3.382 5.554 6.614 8.532 9.794 -3.534 2.676 -7.068 5.404 -10.602 8.08 0.302 0.354 0.606 0.656 0.91 1.01 3.534 -2.676 7.068 -5.402 10.602 -8.08 2.418 2.532 5.752 5.798 9.746 9.392 -3.484 2.778 -6.968 5.504 -10.806 7.826 0.404 0.302 0.808 0.556 1.262 0.808 4.5 -2.822 8.804 -6.38 10.552 -7.724 0.958 0.858 1.968 1.716 2.928 2.524 0.354 -0.302 0.708 -0.556 1.06 -0.858 -0.958 -0.808 -1.968 -1.666 -2.928 -2.524 7.648 -6.258 9.332 -7.792 12.37 -10.452 0.958 0.758 1.968 1.516 2.978 2.272 0.354 -0.302 0.656 -0.606 1.01 -0.91 -1.01 -0.706 -1.968 -1.464 -2.978 -2.22 3.432 -3.08 6.766 -6.16 10.098 -9.342 0.808 0.808 1.616 1.566 2.474 2.324 0.302 -0.302 0.606 -0.656 0.958 -0.96l-2.424 -2.272c2.98 -2.928 5.958 -5.908 8.836 -8.886 0.2 0.2 0 0.006 1.768 1.97 0.302 -0.354 0.606 -0.708 0.858 -1.06l-1.716 -1.868c3.232 -3.534 9.392 -10.402 9.392 -10.402v-0.004Zm-25.852 -7.322c2.424 3.03 4.846 6.058 7.372 9.038 -3.232 2.576 -10.148 8.078 -10.452 8.28 -2.778 -3.03 -5.554 -6.11 -8.28 -9.19 3.788 -2.726 7.574 -5.454 11.36 -8.128Zm-12.42 8.938c1.212 1.364 6.766 7.522 8.332 9.188 -3.99 3.182 -8.028 6.312 -12.016 9.442 -3.13 -2.928 -6.16 -6.008 -9.088 -9.19 4.242 -3.18 12.774 -9.442 12.774 -9.442l-0.002 0.002Zm-25.498 19.136c3.888 -2.98 7.776 -5.958 11.664 -8.886 2.928 3.18 5.958 6.26 9.088 9.24 -12.196 9.468 -12.018 9.242 -12.218 9.442 -2.98 -3.13 -5.806 -6.412 -8.534 -9.794v-0.002Zm19.186 20.146c-3.382 -2.978 -6.614 -6.11 -9.746 -9.39 0.202 -0.154 12.07 -9.242 12.27 -9.442 2.882 2.686 7.138 6.44 9.796 8.432 -4.04 3.534 -8.13 6.966 -12.32 10.4Zm13.33 -11.36c-3.334 -2.676 -6.614 -5.454 -9.746 -8.332l11.966 -9.39c2.624 2.828 5.25 5.554 7.978 8.23 -3.334 3.232 -6.716 6.412 -10.2 9.492h0.002Zm11.158 -10.402c-2.676 -2.624 -5.302 -5.352 -7.876 -8.128 3.484 -2.726 6.918 -5.502 10.35 -8.28 2.122 2.524 4.242 5 6.462 7.422 -2.928 3.03 -5.908 6.06 -8.936 8.988v-0.002Z" stroke-width="1"></path></g><g id="keyboard"><path id="vector_53" fill="#ffffff" d="M284.03 325.53c-2.386 -3.316 -13.684 -15.956 -13.734 -16.106 -6.232 -6.768 -8.728 -7.146 -15.5 -7.322 -9.44 -0.244 -113.202 -0.028 -116.936 0.05 -5.578 0.118 -8.432 0.624 -12.754 4.748 -2.448 2.336 -11.558 12.694 -17.704 21.13 -3.184 4.372 -1.56 6.39 3.546 6.738 7.032 0.478 170.252 0.058 170.458 0.05 8.676 -0.32 7.162 -2.99 2.626 -9.29l-0.002 0.002Z" stroke-width="1"></path><path id="vector_54" fill="#501200" d="M281.606 319.674c-5.236 -6.544 -9.172 -10.098 -9.946 -11.26 -6.612 -7.044 -9.346 -7.848 -15.754 -8.028 -2.98 -0.084 -109.616 -0.24 -117.744 0 -6.092 0.18 -8.558 0.38 -13.304 4.618 -6.732 6.01 -19.206 21.542 -20.556 23.952 -1.666 2.976 -3.27 8.798 -0.172 12.326 3.824 4.354 3.81 6.2 173.032 3.786 5.83 -0.084 11.698 -0.766 13.532 -6.362 1.622 -6.14 -5.118 -14.072 -9.088 -19.036v0.004Zm-174.482 8.946c7.568 -10.65 16.648 -20.148 19.248 -22.438 3.888 -3.426 6.334 -3.632 11.286 -3.776 3.434 -0.1 117.24 0 117.24 0 6.242 0.202 8.848 0.468 14.996 7.22 0.618 1.236 5.09 4.624 13.784 16.106 4.34 5.734 5.792 8.418 -2.726 8.786l-170.406 -0.05c-4.378 -0.372 -6.062 -2.128 -3.418 -5.848h-0.004Z" stroke-width="1"></path><path id="vector_55" fill="#501200" d="M264.44 316.746c-1.974 0.282 -11.198 0.38 -13.28 0.858 -1.218 0.28 -2.088 0.95 -2.524 1.818 -0.578 1.15 -0.198 2.32 0.252 3.484 0.918 2.37 2.27 4.546 3.938 6.312 1.876 1.986 3.688 1.868 6.16 1.868 0.302 0 15.602 0.05 16.056 0.05 2.042 0 4.186 -0.244 5.1 -2.07 0.706 -1.414 -0.298 -2.732 -1.11 -3.584 -1.284 -1.346 -7.002 -6.57 -7.364 -6.84 -2.838 -2.11 -5.118 -2.012 -7.228 -1.894v-0.002Zm13.884 11.41c-0.55 0.962 -2.932 0.858 -4.04 0.858 -17.682 0 -17.698 0.028 -18.682 -0.404 -1.594 -0.7 -4.212 -4.53 -5.1 -7.372 -0.202 -0.908 0.1 -1.418 1.01 -1.666 1.332 -0.362 13.202 -0.754 14.692 -0.808 1.696 -0.062 3.138 0.672 4.138 1.404 0.974 0.714 -0.026 0.044 5.658 5.16 1.18 1.18 1.734 1.61 2.12 2.272 0.302 0.302 0.252 0.454 0.202 0.556h0.002Z" stroke-width="1"></path><path id="vector_56" fill="#501200" d="M245.858 313.564c1.352 1.486 2.61 1.566 4.696 1.566 12.7 0 11.362 0.146 13.532 -0.05 2.16 -0.412 3.434 -2.31 1.616 -4.342 -2.408 -2.408 -4.256 -4.004 -4.342 -4.09 -0.364 -0.726 -2.408 -2.278 -4.594 -2.576 -0.69 -0.094 -0.372 -0.184 -9.846 0.354 -4.06 0.23 -4.908 2.064 -3.888 4.444 0.556 1.768 1.6 3.348 2.828 4.696l-0.002 -0.002Zm2.878 -7.17c1.878 0 1.558 -0.152 3.332 -0.152 1.262 -0.1 2.576 -0.098 3.838 -0.152 1.162 -0.048 2.322 0.504 3.434 1.414 0.168 0.334 2.184 2.032 3.382 3.232 0.202 0.202 1.8 1.502 1.616 1.868 -0.384 0.768 -3.784 0.354 -14.34 0.354 -1.646 0 -2.656 0.118 -4.646 -3.534 -0.248 -0.456 -0.556 -1.162 -0.758 -1.868 0.184 -0.55 -0.25 -1.162 4.14 -1.162h0.002Z" stroke-width="1"></path><path id="vector_57" fill="#501200" d="M218.24 331.084c2.7 1.864 18.47 0.778 21.256 0.706 1.972 -0.05 4.702 -0.15 5.554 -2.474 0.298 -0.812 0.22 -1.666 -0.022 -2.494 -0.132 -0.446 -1.588 -3.706 -2.38 -4.946 -3.036 -4.746 -10.004 -3.214 -21.934 -3.214 -3.164 0 -3.62 1.75 -3.938 4.898 -0.256 2.544 -0.554 6.13 1.464 7.524Zm0.504 -5.554c0.052 -1.092 0.14 -3.77 0.758 -4.696 0.202 -0.252 0.656 -0.252 1.01 -0.252 8.22 0 11.402 -0.476 15.4 -0.1 5.068 0.476 4.918 2.644 5.604 3.332 0.396 1.056 1.848 2.816 1.716 4.242 -0.116 1.26 -1.768 1.414 -3.534 1.414 -0.152 0 -3.182 0.096 -4.594 0.152 -13.926 0.552 -12.136 -0.152 -14.44 -0.152 -2.07 -0.276 -2.042 -1.352 -1.918 -3.938l-0.002 -0.002Z" stroke-width="1"></path><path id="vector_58" fill="#501200" d="M218.644 314.574c1.948 1.456 14.164 0.644 16.51 0.606 1.566 -0.026 3.964 -0.092 4.646 -2.12 0.708 -2.108 -1.514 -4.688 -1.514 -5.2 0 -0.032 -0.016 -0.066 -0.05 -0.1 -2.288 -4.44 -7.786 -3.332 -14.238 -3.332 -1.162 0 -2.322 0.05 -3.434 0.05 -2.304 0 -3.13 1.616 -3.13 3.938 -0.142 1.91 -0.472 4.902 1.212 6.16l-0.002 -0.002Zm0.758 -4.494c0.042 -0.706 0.092 -3.098 0.606 -3.484 0.1 -0.1 0.302 -0.1 0.454 -0.1 7.494 0 12.182 -0.748 14.642 0.606 0.654 0.36 1.01 0.96 1.312 1.566 1.614 3.23 2.634 4.342 -1.01 4.342 -3.072 0 -9.414 0.552 -14.39 0 -0.974 0 -1.194 -0.248 -1.312 -0.454 -0.404 -0.606 -0.354 -1.616 -0.302 -2.474v-0.002Z" stroke-width="1"></path><path id="vector_59" fill="#501200" d="M188.046 331.842c6.288 0.322 11.448 0.07 17.974 -0.202 1.162 -0.048 2.474 -0.1 3.484 -0.908 0.858 -0.606 1.4 -1.668 1.514 -2.878 0.19 -1.994 -1.186 -5.616 -2.222 -6.968 -2.056 -2.68 -5.87 -2.006 -7.17 -2.222 -3.672 -0.124 -6.398 -0.152 -9.594 -0.152 -2.944 0 -5.61 -0.154 -7.322 1.464 -1.204 1.138 -1.352 3.008 -1.666 3.636 -0.39 1.17 -0.972 2.496 -1.162 4.392 0 4.458 5.142 3.582 6.16 3.838h0.004ZM184.26 327.6c0.026 -0.112 1.734 -5.796 1.768 -5.908 0.976 -1.32 3.35 -1.092 5.15 -1.11 1.18 -0.012 12.776 -0.092 14.692 0.556 2.132 0.72 2.61 4.06 2.878 4.594 0.252 0.858 0.504 1.97 0 2.828 -0.504 0.858 -1.566 0.91 -2.474 0.96 -6.168 0.334 -12.72 0.642 -19.338 0.152 -0.1 0 -0.302 0 -0.504 -0.05 -2.752 -0.172 -2.478 -0.642 -2.172 -2.02v-0.002Z" stroke-width="1"></path><path id="vector_60" fill="#501200" d="M184.512 313.16c0.444 2.852 4.318 2.278 5.1 2.474 4.224 0.256 10.526 0.02 14.996 -0.252 0.958 -0.058 2.11 -0.114 3.03 -0.858 0.698 -0.566 1.136 -1.466 1.212 -2.524 0.12 -1.672 -1.01 -4.674 -1.868 -5.806 -1.604 -2.116 -4.028 -2.02 -14.188 -2.02 -2.082 0 -4.578 -0.078 -6.008 1.262 -1.036 0.97 -1.22 2.592 -1.464 3.08 -0.364 1.088 -1.328 3.604 -0.808 4.646l-0.002 -0.002Zm2.424 -2.222c0.122 -0.244 0.094 -0.216 1.212 -3.736 0.822 -1.058 2.886 -0.79 4.392 -0.808 6.26 -0.078 6.738 0.152 8.936 0.152 3.368 0 3.958 0.22 5.05 3.686 0.38 1.204 0.37 1.936 0.152 2.424 -0.342 0.762 -1.212 0.758 -2.07 0.808 -1.342 0 -7.042 0.456 -12.27 0.302 -1.112 -0.032 -3.736 -0.152 -3.888 -0.152 -2.312 0 -2.236 -0.512 -1.514 -2.676Z" stroke-width="1"></path><path id="vector_61" fill="#501200" d="M155.126 331.64c4.216 0.24 16.986 0.882 21.106 -0.05 0.86 -0.194 1.566 -0.758 2.07 -1.464 0.958 -1.578 0.706 -3.722 0.706 -5.05 0 -0.202 0 -0.454 -0.05 -0.706 -0.1 -1.918 -0.154 -4.89 -2.322 -5.604 -1.454 -0.478 -2.5 -0.076 -3.13 -0.202 -4.814 0 -9.418 -0.754 -14.49 -0.1 -3.21 0.412 -5.234 1.466 -6.614 4.392 -0.784 1.662 -2.064 3.38 -1.97 5.402 0.096 2.068 1.768 3.216 4.696 3.382h-0.002Zm-1.566 -6.614c0.642 -1.026 1.092 -2.59 2.222 -3.382 3.626 -2.54 15.75 -0.514 18.48 -1.06 1.688 -0.14 2.294 -0.142 2.474 2.928 0 1.11 0.576 5.138 -0.808 5.908 -2.41 0.964 -19.264 0.236 -21.156 0.1 -3.27 -0.232 -2.772 -1.494 -1.212 -4.494Z" stroke-width="1"></path><path id="vector_62" fill="#501200" d="M159.368 315.08c4.244 0.302 13.31 0.618 16.51 -0.1 0.706 -0.158 1.31 -0.556 1.716 -1.212 0.754 -1.214 0.656 -2.676 0.556 -3.988 0.016 -3.44 -0.624 -4.654 -1.868 -5.15 -0.58 -0.232 -1.05 -0.202 -2.374 -0.202 -7.254 0 -13.3 -1.288 -16.008 2.172 -0.486 0.62 -2.416 4.004 -2.32 5.504 0.114 1.77 1.516 2.818 3.786 2.978l0.002 -0.002Zm-0.758 -5.252c0.068 -0.158 0.504 -0.928 0.504 -0.96 0.092 -0.092 0.298 -0.894 1.11 -1.616 2.562 -1.922 12.782 -0.238 14.188 -0.706 0.354 -0.05 0.808 -0.1 1.06 0.05 0.454 0.202 0.556 1.364 0.556 1.918 0.086 1.28 0.264 2.396 0 3.584 -0.318 1.116 -0.172 1 -2.878 1.212 -5.672 0.442 -11.95 -0.202 -13.784 -0.202 -1.862 -0.186 -2.322 -0.328 -0.758 -3.282l0.002 0.002Z" stroke-width="1"></path><path id="vector_63" fill="#501200" d="M128.77 314.624c1.31 0.832 1.946 0.504 15.552 0.504 1.01 0 1.968 -0.102 2.828 -0.656 1.564 -1.01 2.738 -2.922 3.434 -4.342 0.566 -1.156 1.728 -3.6 -0.1 -4.898 -1.154 -0.818 -2.776 -0.808 -4.242 -0.808 -2.916 0 -5.338 -0.302 -8.28 -0.302 -2.284 0 -4.72 1.714 -5.15 2.576 -3.724 3.414 -5.054 4.462 -5.2 5.706 -0.202 0.808 0.298 1.672 1.162 2.222l-0.004 -0.002Zm10.502 -8.482c0.2 0 0 0.024 8.584 0.404 1.58 0.176 1.944 0.25 1.312 1.768 -0.25 0.374 -0.77 2.134 -2.524 3.888 -0.858 0.858 -2.17 0.782 -3.434 0.758 -0.302 -0.006 -11.512 0.05 -11.612 0.05 -3.692 0 -0.952 -1.378 -0.758 -1.768 3.34 -3.144 3.806 -3.286 3.938 -3.686 1.53 -1.36 2.81 -1.566 4.494 -1.414Z" stroke-width="1"></path><path id="vector_64" fill="#501200" d="M115.29 330.478c1.64 0.882 2.004 0.556 20.904 0.556 2.69 0 4.31 -0.578 6.16 -3.282 0.808 -1.01 1.492 -2.056 2.07 -3.18 0.848 -1.646 2.374 -4.746 0.1 -6.412 -0.124 0.208 -0.268 0.446 0 0 -1.34 -1.024 -3.696 -0.946 -5.856 -1.06 -0.8 0 -8.642 -0.454 -11.058 -0.454 -2.272 0 -4.646 1.06 -6.564 2.978 -5.024 5.024 -7.182 6.156 -7.372 8.028 -0.132 1.314 0.7 2.334 1.616 2.828v-0.002Zm1.768 -4.19c3.204 -3.204 5.068 -4.422 5.756 -5.454 2.534 -2.346 4.558 -2.21 6.664 -2.07 0.25 0.036 5.682 0.23 6.816 0.302 6.534 0.416 8.504 -0.248 6.968 3.232 -0.8 1.81 -1.524 3.428 -3.484 5.352 -0.764 0.75 -1.564 1.126 -2.626 1.212 -0.84 0.068 -0.446 0.072 -18.328 0.1 -1.01 0 -2.222 0.05 -2.828 -0.706 -0.556 -0.454 0.202 -1.212 1.06 -1.97l0.002 0.002Z" stroke-width="1"></path></g></g></svg>