<svg xmlns="http://www.w3.org/2000/svg" width="163.839" height="163.839" fill-rule="evenodd" clip-rule="evenodd" image-rendering="optimizeQuality" shape-rendering="geometricPrecision" text-rendering="geometricPrecision" viewBox="0 0 1707 1707" id="web-development"><defs><linearGradient id="a" x1="-23.811" x2="1730.48" y1="122.374" y2="1584.29" gradientUnits="userSpaceOnUse"><stop offset="0" stop-color="#08b6ff"></stop><stop offset=".012" stop-color="#2790ff"></stop><stop offset=".259" stop-color="#47c7ff"></stop><stop offset=".478" stop-color="#4cc9ff"></stop><stop offset=".8" stop-color="#4a9eff"></stop><stop offset=".929" stop-color="#466aff"></stop><stop offset="1" stop-color="#466aff"></stop></linearGradient></defs><path fill="url(#a)" d="M1654 1415l-1601 0c-29,0 -53,-23 -53,-53l0 -130 1707 0 0 130c0,30 -24,53 -53,53zm-392 -547l-817 0c-29,0 -53,-24 -53,-53l0 -668c0,-29 24,-53 53,-53l817 0c29,0 53,24 53,53l0 668c0,29 -24,53 -53,53zm-409 -246c-78,0 -141,-63 -141,-141 0,-78 63,-142 141,-142 78,0 142,64 142,142 0,78 -64,141 -142,141zm-38 109c-4,0 -7,-1 -11,-2l-65 -23c-18,-6 -27,-26 -21,-44l8 -23c-5,-4 -10,-8 -15,-12l-21 10c-5,3 -10,4 -16,4 -13,0 -25,-8 -31,-20l-30 -61c-4,-9 -4,-18 -1,-27 3,-9 9,-16 17,-20l22 -10c-1,-7 -1,-13 -1,-19l-23 -8c-18,-7 -28,-26 -22,-45l23 -64c5,-14 18,-24 33,-24 3,0 7,1 11,2l23 8c4,-5 8,-10 13,-14l-11 -22c-4,-8 -5,-18 -2,-27 3,-8 10,-15 18,-19l61 -30c5,-3 10,-4 16,-4 13,0 25,8 31,20l11 21c6,0 12,-1 19,-1l7 -23c5,-14 19,-23 33,-23 4,0 8,1 12,2l64 22c9,3 16,9 20,18 4,8 5,18 2,26l-8 23c5,4 10,9 14,13l22 -11c5,-2 10,-3 15,-3 13,0 26,7 32,19l30 62c8,17 1,38 -17,46l-21 11c0,6 1,13 1,19l23 8c9,3 16,9 20,18 4,8 4,17 1,26l-22 65c-5,14 -18,23 -33,23 -4,0 -8,0 -11,-2l-23 -8c-4,5 -8,10 -13,15l11 21c4,9 4,18 1,27 -3,9 -9,16 -17,20l-62 30c-5,2 -10,3 -15,3 -13,0 -25,-7 -31,-19l-11 -22c-6,1 -13,1 -19,1l-8 23c-5,14 -18,24 -33,24zm-100 -141c5,0 9,2 12,5 9,9 18,17 28,25 6,4 9,12 6,19l-12 34c0,1 0,2 1,2l65 22c0,0 0,0 0,0 1,0 1,0 2,-1l12 -34c2,-7 9,-12 16,-11 13,0 25,0 37,-3 7,-1 15,3 18,10l16 32c0,1 1,1 1,1 0,0 0,0 1,0l61 -30c1,0 1,0 1,-1 0,0 0,-1 0,-1l-16 -33c-3,-6 -2,-14 4,-19 9,-8 17,-18 24,-28 4,-6 12,-8 19,-6l35 12c0,0 0,0 0,0 0,0 1,0 1,-1l23 -65c0,0 0,0 0,-1 0,0 -1,0 -1,-1l-35 -11c-7,-3 -11,-10 -11,-17 1,-12 0,-25 -2,-37 -1,-7 2,-14 9,-18l33 -16c1,0 1,-1 1,-2l-30 -61c-1,-1 -2,-1 -2,-1 0,0 0,0 0,0l-33 16c-7,3 -15,2 -20,-4 -8,-9 -17,-17 -27,-24 -6,-4 -9,-12 -6,-19l11 -35c1,0 0,0 0,-1 0,0 0,0 -1,0l-64 -23c0,0 0,0 -1,0 0,0 -1,0 -1,1l-12 35c-2,7 -9,11 -16,11 -13,-1 -25,0 -37,2 -8,1 -15,-2 -18,-9l-16 -33c0,-1 -1,-1 -1,-1 -1,0 -1,0 -1,1l-61 30c-1,0 -1,0 -1,0 0,1 0,1 0,1l16 33c3,7 1,15 -4,20 -9,8 -17,17 -24,27 -5,6 -13,9 -20,7l-34 -12c0,0 0,0 0,0 -1,0 -2,0 -2,1l-22 64c0,1 0,2 1,2l34 12c7,2 12,9 11,17 0,12 1,24 3,36 1,8 -3,15 -9,18l-33 16c-1,0 -1,1 -1,1 0,0 0,1 0,1l30 62c0,0 1,0 1,0 1,0 1,0 1,0l33 -16c2,-1 5,-1 7,-1zm138 -218c-59,0 -108,49 -108,109 0,59 49,108 108,108 60,0 109,-49 109,-108 0,-60 -49,-109 -109,-109zm360 1241l-195 0 -329 0 -196 0c-9,0 -16,-8 -16,-17 0,-9 7,-16 16,-16l179 0 0 -131 363 0 0 131 178 0c10,0 17,7 17,16 0,9 -7,17 -17,17zm-798 -257c-28,0 -50,-22 -50,-50 0,-27 22,-50 50,-50 27,0 50,23 50,50 0,28 -23,50 -50,50zm0 -67c-10,0 -17,8 -17,17 0,10 7,17 17,17 9,0 17,-7 17,-17 0,-9 -8,-17 -17,-17zm-118 67c-28,0 -50,-22 -50,-50 0,-27 22,-50 50,-50 27,0 50,23 50,50 0,28 -23,50 -50,50zm0 -67c-9,0 -17,8 -17,17 0,10 8,17 17,17 9,0 17,-7 17,-17 0,-9 -8,-17 -17,-17zm-118 67c-28,0 -50,-22 -50,-50 0,-27 22,-50 50,-50 28,0 50,23 50,50 0,28 -22,50 -50,50zm0 -67c-9,0 -17,8 -17,17 0,10 8,17 17,17 9,0 17,-7 17,-17 0,-9 -8,-17 -17,-17zm-179 -91l0 -754 359 0 0 371c0,47 38,86 86,86l817 0c47,0 86,-39 86,-86l0 -371 359 0 0 754 -1707 0zm0 -787l0 -81c0,-30 24,-53 53,-53l306 0 0 134 -359 0zm1348 0l0 -134 306 0c29,0 53,23 53,53l0 81 -359 0z"></path></svg>