<svg xmlns="http://www.w3.org/2000/svg" viewBox="0 0 48 48" id="maintenance-data"><g><path fill="#bec6c6" d="M34 8H18l-1.54-4.63A2 2 0 0 0 14.56 2h16a2 2 0 0 1 1.9 1.37Z"></path><path fill="#f8f9f9" d="M46 10v26a2 2 0 0 1-2 2H4a2 2 0 0 1-2-2V4a2 2 0 0 1 2-2h10.56a2 2 0 0 1 1.9 1.37L18 8h26a2 2 0 0 1 2 2Z"></path><path fill="#414141" d="M44 7h-9.28L33.4 3.05a3 3 0 0 0-2.84-2H4A3 3 0 0 0 1 4v32a3 3 0 0 0 3 3h40a3 3 0 0 0 3-3V10a3 3 0 0 0-3-3ZM31.51 3.68 32.61 7H18.72l-1.33-4h13.17a1 1 0 0 1 .95.68ZM45 36a1 1 0 0 1-1 1H4a1 1 0 0 1-1-1V4a1 1 0 0 1 1-1h10.56a1 1 0 0 1 .95.69c1.59 4.77 1.53 4.73 1.75 5A1.05 1.05 0 0 0 18 9h26a1 1 0 0 1 1 1Z"></path><path fill="#6457ff" d="M16 22.81V28l-3 2-3-2v-5.19a6 6 0 0 0 0 10.38V44a3 3 0 0 0 6 0V33.19a6 6 0 0 0 0-10.38Z"></path><rect width="8" height="16" x="9" y="8" fill="#bec6c6" rx="2" transform="rotate(90 13 16)"></rect><rect width="20" height="10" x="23" y="24" fill="#bec6c6" rx="2"></rect><circle cx="13" cy="44" r="1" fill="#f8f9f9"></circle><path fill="#bec6c6" d="M42 14H24a1 1 0 0 1 0-2h18a1 1 0 0 1 0 2zm-16 4h-2a1 1 0 0 1 0-2h2a1 1 0 0 1 0 2zm10 4H24a1 1 0 0 1 0-2h12a1 1 0 0 1 0 2zm6-4H30a1 1 0 0 1 0-2h12a1 1 0 0 1 0 2z"></path></g></svg>