<svg xmlns="http://www.w3.org/2000/svg" fill="none" viewBox="0 0 400 400" id="Change-Settings-1--Streamline-Manchester.svg" height="400" width="400"><desc>Change Settings 1 Streamline Illustration: https://streamlinehq.com</desc><g id="change-settings-1--interface-change-settings-1"><g id="interface"><path id="vector" fill="#ffffff" d="M71.476 103.856c0.28 -4.566 -2.778 -21.418 15.522 -21.8 125.91 -2.668 264.738 -0.386 270.34 0.174 5.602 0.56 13.348 4.828 13.654 15.976 1.048 38.344 1.634 153.078 0 172.762 -0.516 6.2 -2.034 17.268 -16.544 17.516 -184.8 3.17 -259.444 0.2 -264.74 0 -5.296 -0.2 -17.878 -0.522 -18.33 -15.932 -0.452 -15.41 -1.446 -143.592 0.098 -168.696Z" stroke-width="1"></path><path id="vector_2" fill="#501200" d="M371.77 96.864c-0.004 -4.1432 -1.65 -8.116 -4.578 -11.0474 -2.928 -2.9312 -6.898 -4.5822 -11.042 -4.5906 -1.38 -0.032 -139.6 -2.706 -270.02 0 -4.1362 0.0168 -8.0982 1.6668 -11.0236 4.5908 -2.9254 2.9238 -4.5774 6.885 -4.5964 11.0212 0 0.534 -2.422 100.24 0 176.962 0.094 4.108 1.7674 8.024 4.6724 10.932 2.9052 2.906 6.8186 4.582 10.9276 4.68 73.846 2.432 196.16 1.69 270.026 0 4.118 -0.068 8.05 -1.734 10.964 -4.644 2.916 -2.91 4.588 -6.838 4.664 -10.956 2.81 -71.464 0.036 -175.928 0.006 -176.948Zm-285.6 -13.6c83.6 -1.73 188.95 -1.476 269.96 0 3.612 0.0058 7.076 1.4454 9.628 4.0026 2.552 2.5572 3.984 6.0228 3.982 9.6354 0 0.13 0.05 2.078 0.122 5.146H72.424c0.068 -3.328 0.114 -5.038 0.116 -5.174 0.0152 -3.6092 1.4564 -7.0662 4.0096 -9.6174 2.553 -2.5512 6.011 -3.99 9.6204 -4.0026v0.01Zm283.57 190.466c-0.056 3.596 -1.506 7.03 -4.046 9.576 -2.538 2.548 -5.968 4.008 -9.564 4.076 -0.672 0 -163.174 3.512 -269.946 0 -3.5926 -0.082 -7.015 -1.548 -9.556 -4.088 -2.541 -2.542 -4.0052 -5.964 -4.088 -9.556 -2 -63.618 -0.648 -145.03 -0.156 -169.67h297.526c0.562 24.55 2.214 108.932 -0.17 169.662Z" stroke-width="1"></path><path id="vector_3" fill="#501200" d="M344.716 156.178c-34.39 -0.68 -157.108 -0.848 -158.344 -0.848 -0.1332 0.0006 -0.2652 -0.025 -0.3884 -0.0752 -0.1234 -0.0504 -0.2354 -0.1246 -0.33 -0.2182 -0.0948 -0.0938 -0.17 -0.2052 -0.2216 -0.328 -0.0514 -0.1228 -0.0784 -0.2544 -0.079 -0.3876 -0.0006 -0.1332 0.0248 -0.2652 0.0752 -0.3884 0.0504 -0.1234 0.1246 -0.2354 0.2182 -0.33 0.0938 -0.0946 0.2052 -0.17 0.328 -0.2214 0.1226 -0.0516 0.2544 -0.0786 0.3876 -0.0792 1.238 0 124.016 -0.516 158.432 0.846 0.266 0.016 0.514 0.1354 0.692 0.3322 0.178 0.1968 0.272 0.4556 0.262 0.721 -0.01 0.2652 -0.124 0.5162 -0.318 0.6986 -0.192 0.1826 -0.448 0.2824 -0.714 0.2782Z" stroke-width="1"></path><path id="vector_4" fill="#501200" d="M138.354 208.926c-0.2614 -0.012 -0.5082 -0.124 -0.6892 -0.312 -0.1808 -0.19 -0.2818 -0.442 -0.2818 -0.704 0 -0.26 0.101 -0.512 0.2818 -0.702 0.181 -0.188 0.4278 -0.3 0.6892 -0.312h205.76c0.562 0 1.012 1.328 1.01 1.89 0 0.242 -0.046 0.662 -206.77 0.14Z" stroke-width="1"></path><path id="vector_5" fill="#501200" d="m342.882 257.694 -211.152 -2.2c-0.2614 -0.014 -0.5076 -0.126 -0.6876 -0.316 -0.1798 -0.19 -0.2792 -0.444 -0.2778 -0.704 0.0016 -0.262 0.104 -0.514 0.2862 -0.702 0.182 -0.188 0.4296 -0.298 0.6912 -0.308l211.144 2.2c0.262 0.012 0.508 0.124 0.69 0.312 0.18 0.19 0.28 0.442 0.28 0.702 0 0.262 -0.1 0.514 -0.28 0.704 -0.182 0.188 -0.428 0.3 -0.69 0.312h-0.004Z" stroke-width="1"></path><path id="vector_6" fill="#ff7449" d="M274.586 169.294c8.886 0 16.09 -7.2038 16.09 -16.09 0 -8.8862 -7.204 -16.09 -16.09 -16.09s-16.09 7.2038 -16.09 16.09c0 8.8862 7.204 16.09 16.09 16.09Z" stroke-width="1"></path><path id="vector_7" fill="#ffb949" d="M301.74 224.002c8.886 0 16.09 -7.204 16.09 -16.09 0 -8.8862 -7.204 -16.09 -16.09 -16.09s-16.09 7.2038 -16.09 16.09c0 8.886 7.204 16.09 16.09 16.09Z" stroke-width="1"></path><path id="vector_8" fill="#501200" d="M176.028 269.554c8.8862 0 16.09 -7.204 16.09 -16.09s-7.2038 -16.09 -16.09 -16.09c-8.8862 0 -16.09 7.204 -16.09 16.09s7.2038 16.09 16.09 16.09Z" stroke-width="1"></path><path id="vector_9" fill="#ff7449" d="M324.064 95.34c1.504 0 2.724 -1.2196 2.724 -2.724 0 -1.5044 -1.22 -2.724 -2.724 -2.724 -1.504 0 -2.724 1.2196 -2.724 2.724 0 1.5044 1.22 2.724 2.724 2.724Z" stroke-width="1"></path><path id="vector_10" fill="#ffb949" d="M339.248 95.748c1.504 0 2.724 -1.2196 2.724 -2.724 0 -1.5044 -1.22 -2.724 -2.724 -2.724 -1.504 0 -2.724 1.2196 -2.724 2.724 0 1.5044 1.22 2.724 2.724 2.724Z" stroke-width="1"></path><path id="vector_11" fill="#501200" d="M352.852 95.748c1.504 0 2.724 -1.2196 2.724 -2.724 0 -1.5044 -1.22 -2.724 -2.724 -2.724 -1.504 0 -2.724 1.2196 -2.724 2.724 0 1.5044 1.22 2.724 2.724 2.724Z" stroke-width="1"></path></g><g id="hand 1"><path id="vector_12" fill="#ffffff" d="M277.638 80.442s-12.184 13.91 -17.096 20.466c-4.912 6.556 -10.6 20.852 2.168 16.452 0 0 -1.32 10.822 8.426 7.868 0 0 2.288 5.698 7.224 4.856 0 0 -9.252 21.2 -4.936 23.2 6.622 3.072 16.734 -26.726 18.54 -29.976 1.806 -3.25 4.29 -9.7 6.26 -9.632 3.432 0.12 2.044 19.45 8.67 19.384 5.958 -0.062 -1.372 -37.8 -2.252 -42.138 0 -0.006 -16.892 -5.664 -27.004 -10.48Z" stroke-width="1"></path><path id="vector_13" fill="#501200" d="M355.252 28.538c-0.764 -9.298 -41.176 -23.486 -49.138 -16.812 -7.962 6.674 -34.648 65.69 -31.756 68.782 0.328 0.274 0.684 0.5138 1.062 0.716 -4.018 4.572 -16.666 19.244 -19.8 26.242 -4 9 -0.072 13.722 6.372 11.466 -1.52 9.306 8.836 7.85 8.888 7.84 0.394 1.2728 1.184 2.3866 2.256 3.1782 1.07 0.7916 2.368 1.2198 3.7 1.2218 -3.466 8.18 -9.26 22.944 -2.336 23.34 4.372 0.25 9.214 -10 15.898 -24.904 2.846 -6.35 6.388 -14.25 7.8 -14.832 0.658 0.284 1.25 3.77 1.472 5.868 1.8 16.918 8.62 12.99 9.162 12.382 4.086 -4.578 -2.88 -40.586 -2.376 -40.31 3.206 1.752 49.518 -55.396 48.796 -64.178Zm-47.922 103.146c-1.954 1.266 -4.47 -2.182 -5.634 -11.326 -0.498 -3.896 -0.924 -6.364 -2.388 -7.288 -0.262 -0.164 -0.558 -0.2672 -0.864 -0.3018 -0.308 -0.0346 -0.618 0.0002 -0.91 0.1018 -1.944 0.6 -4.118 5.078 -8.98 15.924 -4.148 9.24 -11.034 24.78 -14.324 23.652 -0.158 -0.056 -0.3 -0.1488 -0.414 -0.2704 -0.116 -0.1218 -0.2 -0.269 -0.246 -0.4296 -2.068 -5.08 7.684 -25.96 11.616 -33.578 0.07 -0.1188 0.114 -0.2506 0.132 -0.3872 0.016 -0.1368 0.004 -0.2754 -0.034 -0.4076 -0.038 -0.1322 -0.102 -0.2552 -0.19 -0.3616 -0.088 -0.1062 -0.196 -0.1936 -0.318 -0.2568 -0.124 -0.063 -0.256 -0.1006 -0.394 -0.1102 -0.138 -0.0096 -0.276 0.0088 -0.406 0.0542 -0.13 0.0454 -0.248 0.1168 -0.35 0.2098 -0.102 0.093 -0.184 0.2058 -0.24 0.3314 -0.6 1.174 -3.122 6.118 -5.7 12.01 -0.874 0.0502 -1.748 -0.124 -2.538 -0.5058 -0.788 -0.3818 -1.466 -0.9588 -1.97 -1.6762 -1.902 -3.426 1.286 -10.336 2.674 -12.708 0.128 -0.2318 0.16 -0.5046 0.09 -0.7602 -0.07 -0.2554 -0.236 -0.4734 -0.466 -0.6076 -0.228 -0.134 -0.5 -0.1736 -0.756 -0.11 -0.258 0.0634 -0.48 0.2248 -0.62 0.4498 -0.186 0.316 -3.716 6.416 -3.528 11.454 -3.248 0.108 -5.352 -0.636 -6.2 -2.19 -1.866 -3.45 2.216 -10.568 3.946 -13.02 0.156 -0.2204 0.216 -0.4936 0.172 -0.7592 -0.046 -0.2658 -0.196 -0.5024 -0.416 -0.6578 -0.222 -0.1554 -0.494 -0.217 -0.76 -0.171 -0.266 0.046 -0.502 0.1956 -0.658 0.416 -1.728 2.5042 -3.104 5.2328 -4.092 8.11 -6.6 3.13 -8.024 -1.616 -5.084 -8.21 3.048 -6.826 16.186 -22 19.766 -26.07 6.2 3.2 20.614 9.436 27.066 10.434 1.39 6.732 6.012 37.074 3.018 39.016Z" stroke-width="1"></path></g><g id="hand 2"><path id="vector_14" fill="#ffffff" d="M273.986 286.752s-2.248 -15.73 -1.686 -23.918c0.562 -8.188 0 -18.298 13.324 -14.446 0 0 6.236 -33.302 13.324 -32.346 5.938 0.8 0 27.29 0 27.29s7.544 -3.292 8.426 3.21c0 0 9.552 -4.334 8.83 5.618 0 0 14.788 -6.078 4.254 20.708 -4.736 12.038 -17.03 22.568 -17.03 22.568s-17.884 -8.836 -29.442 -8.684Z" stroke-width="1"></path><path id="vector_15" fill="#501200" d="M323.764 266.822c2.118 -8.106 1.848 -13.06 -0.83 -15.152 -0.866 -0.558 -1.858 -0.892 -2.886 -0.972 -1.026 -0.082 -2.058 0.092 -3.002 0.506 0 -2.642 -1.084 -8.716 -9.034 -5.556 -0.298 -1.242 -1.44 -5.366 -8.02 -3.586 5.056 -25.218 1.626 -26.556 -0.6 -27.15 -7.184 -1.92 -11.906 21.4 -14.298 32.368 -12.068 -3.548 -12.7 5.222 -13.324 10.102 -1.186 9.336 0.344 21.87 1.236 27.846 -1.592 -0.216 -3.21 -0.058 -4.73 0.462 -4.758 2.978 -44.448 80.922 -43.166 84.744 4.954 14.782 55.7 23.548 64.562 17.772 5.976 -3.894 22.508 -84.108 19.322 -88.934 -1.088 -1.524 -2.428 -2.852 -3.962 -3.924 4.25 -3.618 14.898 -13.866 18.732 -28.526Zm-20.494 27.336c-7.932 -5.044 -20.368 -8.038 -28.182 -8.786 -0.854 -5.68 -2.476 -18.51 -1.3 -27.736 0.536 -4.2 0.84 -11.656 10.874 -8.354 -0.63 2.988 -1.05 5.2 -1.2 6 -0.05 0.266 0.01 0.54 0.162 0.762 0.152 0.222 0.388 0.374 0.652 0.424 0.266 0.048 0.54 -0.01 0.762 -0.164 0.222 -0.152 0.374 -0.386 0.424 -0.652 2.624 -14.116 8.112 -38.816 13.3 -38.816 3.896 0 0.812 20.986 -4.126 39.4 -0.054 0.254 -0.01 0.52 0.126 0.742 0.136 0.224 0.352 0.384 0.604 0.452s0.52 0.036 0.748 -0.088c0.23 -0.124 0.402 -0.332 0.482 -0.58 0.02 -0.072 1.474 -5.52 2.922 -12.376 8.312 -3.574 7.668 4.446 4.826 13.034 -0.066 0.25 -0.034 0.516 0.088 0.744 0.124 0.228 0.328 0.402 0.574 0.482 0.246 0.082 0.514 0.068 0.75 -0.04 0.234 -0.11 0.42 -0.304 0.516 -0.544 1.232 -3.298 1.912 -6.776 2.012 -10.296 1.152 -0.63 4.042 -1.784 5.526 -0.568 1.12 0.91 2.476 4.032 -1.016 14.724 -0.07 0.252 -0.04 0.522 0.084 0.754 0.124 0.23 0.332 0.406 0.582 0.486 0.248 0.082 0.52 0.064 0.756 -0.05s0.42 -0.314 0.512 -0.56c1.024 -2.964 1.754 -6.02 2.18 -9.126 1.116 -0.516 3.426 -1.23 4.782 -0.166 1.092 0.856 2.556 3.688 0.11 13.034 -3.8 14.518 -14.864 24.782 -18.53 27.864Z" stroke-width="1"></path></g><g id="elements"><path id="vector_16" fill="#501200" d="M213.31 56.574c-3.65 -7.132 -9.042 -20.106 -9.096 -20.236 -0.056 -0.124 -0.086 -0.2582 -0.09 -0.3944 -0.004 -0.136 0.02 -0.2716 0.07 -0.3982 0.05 -0.1268 0.126 -0.242 0.22 -0.3392 0.096 -0.0972 0.21 -0.174 0.336 -0.2262 0.126 -0.0522 0.26 -0.0786 0.398 -0.0776 0.136 0.0012 0.27 0.0296 0.394 0.0836 0.126 0.0542 0.238 0.1328 0.332 0.2314 0.094 0.0986 0.168 0.2152 0.216 0.3426 0.054 0.128 5.416 13.028 9.03 20.09 0.122 0.24 0.144 0.5188 0.062 0.7752 -0.084 0.2564 -0.264 0.4692 -0.504 0.5918 -0.242 0.1226 -0.52 0.1446 -0.776 0.0616s-0.47 -0.2646 -0.592 -0.5046Z" stroke-width="1"></path><path id="vector_17" fill="#501200" d="M225.126 53.974c-0.926 -11.322 -1.4 -26.476 -1.4 -26.628 0 -0.264 0.102 -0.5176 0.286 -0.7072 0.184 -0.1896 0.434 -0.3002 0.698 -0.3086 0.264 -0.0084 0.52 0.0864 0.716 0.264 0.196 0.1776 0.314 0.4244 0.33 0.6878 0 0.152 0.476 15.258 1.4 26.528 0.022 0.2692 -0.064 0.536 -0.24 0.7418 -0.174 0.2056 -0.424 0.3334 -0.692 0.3552 -0.27 0.0218 -0.536 -0.0644 -0.742 -0.2394 -0.206 -0.1748 -0.334 -0.4244 -0.356 -0.6936Z" stroke-width="1"></path><path id="vector_18" fill="#501200" d="M246.904 33.32c-1.628 7.846 -5.566 21.334 -5.6 21.468 -0.036 0.1304 -0.096 0.2524 -0.18 0.359 -0.082 0.1066 -0.186 0.1954 -0.304 0.2616 -0.118 0.066 -0.248 0.108 -0.382 0.1232 -0.134 0.0152 -0.27 0.0036 -0.4 -0.0344 -0.13 -0.0378 -0.25 -0.1012 -0.356 -0.1864 -0.104 -0.0852 -0.19 -0.1904 -0.254 -0.3096 -0.064 -0.1192 -0.104 -0.2498 -0.116 -0.3842 -0.012 -0.1346 0.002 -0.2704 0.042 -0.3992 0.038 -0.134 3.952 -13.544 5.566 -21.312 0.07 -0.247 0.232 -0.4582 0.452 -0.591 0.22 -0.1328 0.482 -0.1776 0.732 -0.125 0.252 0.0524 0.474 0.1982 0.622 0.4078 0.148 0.2096 0.212 0.4676 0.178 0.7222Z" stroke-width="1"></path><path id="vector_19" fill="#501200" d="M347.772 339.926c-0.184 0.002 -0.366 -0.048 -0.524 -0.142 -0.158 -0.094 -0.286 -0.23 -0.372 -0.394 -4.34 -8.104 -8.826 -15.818 -8.87 -15.894 -0.066 -0.116 -0.11 -0.242 -0.128 -0.376 -0.018 -0.132 -0.01 -0.266 0.024 -0.394 0.036 -0.13 0.094 -0.25 0.176 -0.356 0.08 -0.106 0.182 -0.196 0.298 -0.264 0.114 -0.066 0.242 -0.11 0.374 -0.128 0.132 -0.016 0.266 -0.008 0.396 0.026 0.128 0.034 0.25 0.094 0.356 0.174 0.106 0.082 0.196 0.182 0.262 0.298 0.044 0.076 4.546 7.818 8.902 15.956 0.084 0.154 0.124 0.328 0.12 0.504 -0.004 0.174 -0.052 0.346 -0.144 0.496 -0.09 0.152 -0.216 0.276 -0.37 0.362 -0.152 0.086 -0.324 0.132 -0.5 0.132Z" stroke-width="1"></path><path id="vector_20" fill="#501200" d="M357.892 331.04c-0.134 0 -0.266 -0.026 -0.39 -0.078 -0.124 -0.05 -0.236 -0.126 -0.33 -0.22 -4 -4.026 -11.4 -11.928 -11.476 -12 -0.096 -0.096 -0.174 -0.212 -0.224 -0.338 -0.052 -0.126 -0.078 -0.262 -0.076 -0.4 0.004 -0.136 0.032 -0.27 0.088 -0.396 0.056 -0.124 0.136 -0.236 0.236 -0.33 0.1 -0.094 0.216 -0.166 0.346 -0.212 0.128 -0.048 0.264 -0.068 0.4 -0.062 0.136 0.008 0.27 0.042 0.394 0.102 0.122 0.06 0.232 0.144 0.322 0.246 0.074 0.08 7.45 7.964 11.43 11.964 0.138 0.142 0.232 0.322 0.27 0.518 0.036 0.196 0.016 0.398 -0.062 0.582 -0.076 0.184 -0.204 0.34 -0.37 0.452 -0.164 0.11 -0.36 0.17 -0.558 0.172Z" stroke-width="1"></path><path id="vector_21" fill="#501200" d="M370.756 315.384c-0.884 0 -18.024 -3.942 -20.508 -4.562 -0.262 -0.064 -0.488 -0.228 -0.628 -0.458 -0.14 -0.228 -0.184 -0.504 -0.12 -0.766s0.228 -0.488 0.458 -0.628c0.228 -0.14 0.504 -0.184 0.766 -0.12 0.106 0.024 10.452 2.524 20.236 4.524 0.246 0.052 0.462 0.192 0.61 0.394 0.148 0.204 0.216 0.454 0.19 0.702 -0.024 0.25 -0.142 0.482 -0.326 0.65 -0.186 0.168 -0.428 0.262 -0.678 0.264Z" stroke-width="1"></path></g><g id="gear 1"><path id="vector_22" fill="#ffffff" d="M87.54 89.23s1.6 -21.068 11.03 -17.878c0 0 3.554 -8.508 9.534 -4.976 0 0 2.8 -9.05 10.436 -2.91 0 0 7.698 -8.548 12.338 7.098 4.696 15.83 -1.08 16.982 -5.216 12.586 0 0 1.848 11.92 -7.662 5.418 0 0 0.06 9.872 -8.668 1.686 0 0 0.48 15.23 -10.294 -0.422 0 0 -1.74 2 -2.944 3.68 -2.7246 -1.6676 -5.5862 -3.1002 -8.554 -4.282Z" stroke-width="1"></path><path id="vector_23" fill="#ffb949" d="M194.97 122.256c-0.522 -0.726 -11 -0.958 -11 -0.958 2.294 -9.2 -1.6 -19.856 -1.6 -19.856l10.304 -2.786c-0.3814 -3.4802 -1.5198 -6.8348 -3.335 -9.8286 -1.8152 -2.9936 -4.2634 -5.554 -7.173 -7.5014 -2.6846 2.4728 -5.233 5.0892 -7.634 7.838 -5.66 -7.316 -16.6 -13.266 -16.6 -13.266 2.2816 -2.5 4.2058 -5.304 5.718 -8.332 -3.2 -5.166 -16.864 -7.43 -17.62 -7.2 -0.756 0.23 -1.828 10.8 -1.828 10.8 -4.4104 -0.635 -8.8724 -0.836 -13.322 -0.6 0 0 3.8 12.882 0.172 14.6 -3.338 1.568 -5.486 -2.846 -5.8 -3.542 0.146 0.872 1.336 7.664 -1.364 8.708 -2.09 0.784 -5.922 -2.032 -5.922 -2.032 0.488 7.582 -5.264 6.714 -9.258 0.058 0.232 0.814 1.856 6.968 -1.714 8.216 -3.86 1.364 -7.836 -7.634 -8.214 -7.084 -1.364 1.974 -2.678 4.03 -2.678 4.03s-9.078 -5.422 -10.356 -4.638c-1.278 0.784 -6.154 11.2 -6.038 12.772 0.146 1.538 11.612 4.788 11.612 4.788 3.86 2.73 5.862 6.708 3.974 9 -1.886 2.324 -7.574 0.464 -7.574 0.464 0.116 4.107 0.5238 8.2008 1.22 12.25 0 0 -8.66 1.844 -10.54 2.662 -0.784 0.32 0.552 13.44 8.4 15.56 1.132 0.29 7.982 -5.458 7.982 -5.458 4.3348 6.9932 10.7502 12.454 18.346 15.616 0 0 -5.226 8.536 -5.226 9.55 0 1.014 8.912 7.286 18.258 6.184 0.6 -0.088 1.568 -10.856 1.568 -10.856 7.2606 2.3214 15.1426 1.6956 21.946 -1.742 0 0 2.814 10.044 3.656 10.072 9.784 0.03 16.184 -7.6 16.866 -8.388C170.878 160.568 164.4 152 164.4 152c8.736 -3.28 15.152 -16.516 15.152 -16.516s9.956 3.86 10.566 3.366c4.822 -3.794 5.374 -15.87 4.852 -16.594Zm-59.158 16.922c-4.5278 -0.1044 -8.924 -1.5424 -12.6382 -4.1342 -3.714 -2.592 -6.5806 -6.2222 -8.2404 -10.436 -1.66 -4.2138 -2.0396 -8.8236 -1.0912 -13.2522 0.9484 -4.4286 3.1826 -8.4788 6.4228 -11.6432 3.24 -3.1644 7.3418 -5.3022 11.7916 -6.1456 4.4498 -0.8436 9.0494 -0.3552 13.2228 1.404 4.1734 1.759 7.7348 4.7106 10.2382 8.485 2.5032 3.7742 3.8372 8.2032 3.8344 12.7322 -0.0754 6.1696 -2.5972 12.0566 -7.0114 16.3676 -4.414 4.3108 -10.359 6.6928 -16.5286 6.6224Z" stroke-width="1"></path><path id="vector_24" fill="#501200" d="M135.96 139.986c-4.705 -0.1396 -9.2648 -1.6624 -13.1094 -4.3782 -3.8448 -2.7158 -6.804 -6.5044 -8.508 -10.8924 -1.704 -4.3878 -2.0774 -9.1806 -1.0734 -13.7794 1.004 -4.5988 3.3406 -8.8 6.7184 -12.0784 3.3776 -3.2786 7.6464 -5.4892 12.2732 -6.3558 4.6268 -0.8664 9.4062 -0.3504 13.7414 1.4836s8.0338 4.9046 10.634 8.8286c2.6002 3.9238 3.9866 8.5268 3.9858 13.234 -0.1052 6.4418 -2.7604 12.579 -7.3834 17.0662 -4.623 4.4872 -10.8366 6.9584 -17.2786 6.8718Zm0 -45.852c-4.3026 0.141 -8.4686 1.5458 -11.9782 4.039 -3.5096 2.4934 -6.2072 5.9648 -7.7566 9.9812 -1.5496 4.0166 -1.882 8.4004 -0.9562 12.6048 0.9258 4.2042 3.0692 8.0428 6.1624 11.037 3.0934 2.994 6.9998 5.0112 11.232 5.7996 4.2322 0.7882 8.6028 0.3132 12.5668 -1.3664 3.964 -1.6794 7.3456 -4.4888 9.7232 -8.0778 2.3776 -3.5888 3.6458 -7.7984 3.6466 -12.1034 -0.1046 -5.9054 -2.5466 -11.5286 -6.7906 -15.6364 -4.244 -4.1078 -9.9436 -6.3654 -15.8494 -6.2776Z" stroke-width="1"></path><path id="vector_25" fill="#ffffff" d="M88.076 115.94c3.156 1.458 6.506 1.012 7.21 -0.506 1.044 -2.246 1.124 -9.188 -12.134 -12.158 -0.7542 1.434 -1.0796 3.0546 -0.9378 4.6686 0.1418 1.614 0.7452 3.153 1.7378 4.4334C56.102 159.384 27.666 178.24 27.666 178.24c7.544 23.918 11.6 59.57 11.6 59.57 54.374 -26.182 67.416 -84.772 67.416 -84.772 -18.82 -12.388 -18.75 -33.61 -18.606 -37.098Z" stroke-width="1"></path><path id="vector_26" fill="#501200" d="M196.212 122.462c-0.057 -0.357 -0.2216 -0.688 -0.4718 -0.9488 -0.2502 -0.2608 -0.574 -0.4392 -0.9282 -0.5112 -1.6 -0.25 -7.2 -0.352 -9.708 -0.382 1.0578 -6.2606 0.529 -12.6866 -1.538 -18.69l9.59 -2.06c0.2456 -0.0516 0.4632 -0.1924 0.611 -0.3952s0.2152 -0.4532 0.189 -0.7028c-0.934 -8.98 -8.378 -17.4 -11.142 -18.4 -0.278 -0.1332 -0.5894 -0.1804 -0.8946 -0.1356 -0.305 0.045 -0.5896 0.1798 -0.8174 0.3876 -0.946 0.93 -4.64 5.372 -6.248 7.314 -4.4866 -4.8708 -9.7358 -8.9792 -15.542 -12.164 6.058 -7.6 5.48 -8.51 5.128 -9.062 -2.166 -3.4 -14.066 -7.958 -17.882 -7.4 -0.4066 0.0086 -0.8008 0.1408 -1.1302 0.3792 -0.3296 0.2382 -0.5784 0.5714 -0.7138 0.9548 -0.6164 3.1714 -0.9888 6.3856 -1.114 9.614 -4.0324 -0.7938 -8.1494 -1.072 -12.252 -0.828 -0.488 -1.309 -1.0744 -2.5794 -1.754 -3.8 -5.284 -9.028 -10.356 -4.158 -11.2 -3.282 -6.882 -5.104 -10.056 1.454 -10.512 2.826 -6.082 -2.712 -8.83 3.51 -9.494 5.046 -8.868 -2.38 -11.25 14.766 -11.354 17.876 -0.6876 -0.2788 -1.45 -0.3134 -2.16 -0.098 -2.726 1.4 -6.53 10.378 -6.4 13.17 -0.0236 0.3382 0.057 0.6754 0.2306 0.9664 0.1738 0.291 0.4326 0.522 0.7414 0.6616 0.4 0.162 1.346 0.524 2.528 0.98 -0.7236 1.3216 -1.0396 2.828 -0.908 4.3292 0.1318 1.501 0.7052 2.9294 1.648 4.1048C68.9138 137.5038 50.0908 159.7088 27.4 177.464c-0.2104 0.1596 -0.3504 0.3946 -0.3908 0.6554 -0.0404 0.261 0.0222 0.5274 0.1746 0.743 0.1522 0.2156 0.3824 0.3636 0.6418 0.4128 0.2594 0.0492 0.5278 -0.0044 0.7484 -0.1492 22.7302 -17.779 41.6234 -39.978 55.54 -65.258 0.8572 0.8118 1.7586 1.5756 2.7 2.288 -0.256 3.8374 0.1776 7.6896 1.28 11.374L78.38 129.86c-0.1714 0.0422 -0.329 0.1278 -0.4576 0.2486 -0.1284 0.121 -0.2238 0.273 -0.2764 0.4414 -2.38 7.726 6.348 18.172 9.564 16.818 2.5736 -1.5254 4.986 -3.3078 7.2 -5.32 2.9102 4.6128 6.725 8.5882 11.214 11.686 -20.5 65.2 -65.476 82.316 -65.928 82.48 -0.2514 0.094 -0.4552 0.284 -0.5674 0.528 -0.1124 0.244 -0.124 0.524 -0.0326 0.776 0.0982 0.248 0.2886 0.45 0.5316 0.562 0.243 0.112 0.5196 0.126 0.7724 0.038 0.458 -0.17 46.132 -17.504 67.018 -83.328 1.4042 0.8536 2.8686 1.6036 4.382 2.244 -4.65 8.4 -5.422 8.496 -4.78 9.426 3.4 4.842 13.456 7.016 17.684 7.016 1.014 0 2.262 -0.092 2.584 -1.048 0.37 -1.078 0.974 -7 1.246 -9.8 6.8002 1.8538 14.0326 1.2934 20.466 -1.586 0.884 2.816 2.962 8.284 3.236 9 0.0856 0.2036 0.232 0.3758 0.4192 0.4928 0.1874 0.1172 0.4062 0.1734 0.6268 0.1612 8.294 0 20 -7.334 17.682 -10.562 -0.942 -1.318 -3.942 -5.644 -5.282 -7.58 6.2946 -3.7656 11.3118 -9.3368 14.4 -15.99 9.856 3.948 10.36 3.506 10.862 3.084 3.978 -3.394 6.156 -14.06 5.268 -17.186ZM127.8 66.6c4.074 7.472 4.456 14.8 3.2 17.19 -0.35 0.672 -2.64 1.75 -4.566 -1.948 -0.987 -6.3736 -3.2788 -12.4748 -6.732 -17.922 3.354 -4.064 6.324 -0.574 8.098 2.68Zm-12.166 -3.828c4.4 2.03 9.832 16.91 9.118 24.08 -0.188 1.89 -1.736 4.73 -5.988 0.256 -0.786 -6.524 -4.64 -16.434 -9.158 -20.644 1.29 -5.222 4.644 -4.33 6.026 -3.694l0.002 0.002Zm-11.8 3.848c6.086 -2.578 13.308 16.178 13.026 23.224 -0.2 4.8 -5.174 2.016 -7.162 -1.844 -0.03 -0.062 -3.224 -10.886 -9.532 -16.822 0.6686 -1.8952 1.966 -3.5044 3.676 -4.56l-0.008 0.002Zm-8.174 5.482c2.6 -1.224 6.308 3.048 8.8 7.842 3.612 6.94 4.766 14.48 2.424 15.82 -0.122 0.068 -3.174 1.614 -10.218 -12.29 -0.1332 -0.2212 -0.3458 -0.3834 -0.5944 -0.4536 -0.2486 -0.07 -0.5146 -0.043 -0.7438 0.076 -0.2292 0.119 -0.4046 0.3208 -0.4904 0.5644 -0.0858 0.2436 -0.0756 0.5108 0.0286 0.7472 0.262 0.506 1.4 2.638 2.924 5.058l-2 2.928c-2.1746 -1.3286 -4.4312 -2.5182 -6.756 -3.562 0.004 -0.41 0.118 -13.668 6.626 -16.73Zm-11.766 32.4 6.978 2.672c1.526 1.444 5.104 5.508 3.43 7.766 -1.224 1.652 -5.422 0.85 -8.554 -2.286 -4.398 -4.394 -1.886 -8.054 -1.854 -8.144v-0.008Zm105.974 33.382c-3.3798 -0.9932 -6.6994 -2.1812 -9.942 -3.558 -0.2488 -0.101 -0.5274 -0.0992 -0.775 0.005 -0.2474 0.1042 -0.4434 0.3024 -0.545 0.551 -0.046 0.116 -4.8 11.508 -14.866 16.4 -0.1292 0.0666 -0.2432 0.1596 -0.3344 0.2728 -0.0912 0.1132 -0.1578 0.2442 -0.1956 0.3848 -0.0376 0.1404 -0.0454 0.2872 -0.023 0.4308 0.0222 0.1438 0.0744 0.2812 0.153 0.4036 0 0 4.484 6.486 5.856 8.414 -0.474 1.534 -7.784 7.188 -15.324 7.48 -1.012 -2.678 -3 -8.072 -3.248 -9.314 -0.036 -0.1596 -0.1092 -0.3082 -0.2138 -0.434 -0.1044 -0.1258 -0.2374 -0.225 -0.3876 -0.2894 -0.1504 -0.0644 -0.3138 -0.0922 -0.477 -0.0812 -0.163 0.011 -0.3214 0.0606 -0.4616 0.1446 -0.082 0.054 -8.49 5.19 -21.18 1.68 -0.1432 -0.036 -0.2924 -0.041 -0.4376 -0.015 -0.1454 0.0262 -0.2834 0.083 -0.405 0.1666 -0.1216 0.0836 -0.2242 0.1922 -0.3006 0.3184 -0.0764 0.1264 -0.1252 0.2674 -0.1428 0.414 -0.328 3.528 -0.872 8.638 -1.17 10.164 -2.144 0.294 -12.652 -1.276 -16.374 -5.616 1.2 -2.038 4.722 -8.042 5.094 -8.92 0.0502 -0.1306 0.0738 -0.2698 0.0692 -0.4096 -0.0044 -0.1396 -0.037 -0.277 -0.0956 -0.404 -0.0584 -0.127 -0.1418 -0.241 -0.2452 -0.3352 -0.1034 -0.0942 -0.2246 -0.1666 -0.3564 -0.2132 -7.584 -3.001 -13.9308 -8.4774 -18.01 -15.54 -0.077 -0.1254 -0.18 -0.2326 -0.302 -0.3146 -0.1222 -0.082 -0.2604 -0.1368 -0.4054 -0.1608 -0.1452 -0.0238 -0.2938 -0.0162 -0.4356 0.0222 -0.142 0.0386 -0.274 0.1072 -0.387 0.2012 -2.3294 2.1246 -4.8366 4.0456 -7.494 5.742 -2.2544 -1.5026 -4.0864 -3.5576 -5.3208 -5.9692 -1.2346 -2.4116 -1.8306 -5.0994 -1.7312 -7.8068l10.136 -2.432c0.1316 -0.0344 0.255 -0.0944 0.3632 -0.177 0.108 -0.0824 0.1988 -0.1854 0.2666 -0.3032 0.068 -0.1178 0.1118 -0.248 0.129 -0.3828 0.0172 -0.135 0.0074 -0.272 -0.0288 -0.403 -0.9516 -3.5244 -1.4768 -7.1504 -1.564 -10.8 1.236 0.506 6.048 1.2 7.338 -1.288 2.332 -4.504 -3.728 -10.12 -3.99 -10.358 -0.094 -0.084 -9.35 -3.648 -11.6 -4.532 -0.116 -1.848 3.278 -10.17 5.186 -11.174 0.936 -0.12 5.912 2.38 9.888 4.782 0.2224 0.133 0.487 0.176 0.74 0.1208 0.253 -0.0554 0.4756 -0.2052 0.622 -0.4188l2.06 -3.034c2.024 2.938 5.028 6.772 7.926 6.28 2 -0.342 3.232 -3.076 3.176 -5.678 4.89 5.236 9.104 2.234 8.8 -1.932 7.652 5.082 8.094 -3.306 7.886 -4.762 8.436 5.348 7.218 -8.102 5.304 -13.818 4.1098 -0.1538 8.2226 0.2138 12.24 1.094 0.1436 0.0284 0.2916 0.026 0.4342 -0.0072 0.1428 -0.0332 0.2766 -0.0962 0.393 -0.1852 0.1164 -0.0888 0.2124 -0.2016 0.2818 -0.3304 0.0696 -0.129 0.1108 -0.2712 0.121 -0.4172 0.1334 -3.396 0.4674 -6.7814 1 -10.138 1.664 -1.048 13.632 3.232 16 6.166 -1.6234 2.802 -3.4978 5.4508 -5.6 7.914 -0.0958 0.1212 -0.1632 0.2622 -0.197 0.413s-0.0332 0.3072 0.0018 0.4576c0.035 0.1506 0.1034 0.2912 0.2002 0.4116 0.0968 0.1204 0.2196 0.2174 0.359 0.2838 6.37 3.2988 12.0742 7.7484 16.824 13.124 0.0994 0.106 0.22 0.1902 0.354 0.2466 0.134 0.0566 0.2782 0.0844 0.4236 0.0814 0.1454 -0.0028 0.2886 -0.036 0.4202 -0.0978 0.1318 -0.0616 0.249 -0.1504 0.3442 -0.2602 1.474 -1.8 5.31 -6.412 6.6 -7.8 1.714 0.8 8.29 7.736 9.544 15.732L181.984 100.2c-0.1464 0.033 -0.284 0.0976 -0.4026 0.1896 -0.1188 0.0918 -0.216 0.2086 -0.2846 0.3422 -0.0686 0.1334 -0.1072 0.2804 -0.1128 0.4304 -0.0058 0.15 0.0216 0.2994 0.08 0.4378 2.385 6.3178 2.945 13.179 1.616 19.8 -0.0274 0.147 -0.0228 0.298 0.0134 0.4432 0.0364 0.145 0.1034 0.2804 0.1968 0.3972 0.0934 0.1168 0.211 0.212 0.3444 0.2792 0.1336 0.0672 0.28 0.1048 0.4294 0.1104 2.316 0.024 8.47 0.122 10.4 0.344 0.674 1.768 -0.97 11.584 -4.396 14.91Z" stroke-width="1"></path><path id="vector_27" fill="#501200" d="M47.328 219.062c-0.1772 -0.002 -0.3508 -0.05 -0.5036 -0.14 -0.1528 -0.09 -0.2798 -0.218 -0.3684 -0.372 -0.0886 -0.152 -0.1356 -0.326 -0.1366 -0.504 -0.0012 -0.178 0.044 -0.352 0.1306 -0.506l3.852 -6.622c0.067 -0.116 0.156 -0.216 0.262 -0.298 0.1062 -0.08 0.2272 -0.14 0.356 -0.174 0.129 -0.034 0.2636 -0.042 0.3958 -0.026 0.1322 0.018 0.2598 0.062 0.3752 0.128 0.1154 0.068 0.2166 0.158 0.2976 0.264 0.081 0.106 0.1404 0.226 0.1746 0.356 0.0342 0.128 0.0428 0.262 0.025 0.394 -0.0176 0.134 -0.0612 0.26 -0.1282 0.376l-3.86 6.622c-0.0906 0.15 -0.2182 0.276 -0.3708 0.364 -0.1526 0.088 -0.3252 0.136 -0.5012 0.138Z" stroke-width="1"></path><path id="vector_28" fill="#501200" d="M42.03 183.882c-0.1326 0.0018 -0.264 -0.0226 -0.387 -0.072s-0.2348 -0.1228 -0.3292 -0.2158c-0.0944 -0.0932 -0.1692 -0.204 -0.2204 -0.3262 -0.051 -0.1222 -0.0774 -0.2534 -0.0774 -0.386 -0.0022 -0.2708 0.1032 -0.5316 0.2928 -0.725 0.1898 -0.1934 0.4484 -0.3038 0.7192 -0.307h7.662c0.1324 -0.0018 0.264 0.0226 0.387 0.072s0.2348 0.1228 0.3292 0.216c0.0944 0.093 0.1692 0.2038 0.2204 0.326 0.051 0.1224 0.0774 0.2536 0.0774 0.386 0.0014 0.1342 -0.0238 0.2674 -0.074 0.3918 -0.0502 0.1246 -0.1242 0.238 -0.2182 0.3338s-0.206 0.1722 -0.3294 0.2248c-0.1236 0.0526 -0.2562 0.0804 -0.3904 0.0816h-7.662Z" stroke-width="1"></path><path id="vector_29" fill="#501200" d="M72.518 190.746c-0.2034 -0.0028 -0.4016 -0.0654 -0.5698 -0.1798 -0.1682 -0.1146 -0.299 -0.276 -0.3762 -0.4642L68.8 182.964c-0.0484 -0.1244 -0.072 -0.257 -0.0692 -0.3906 0.003 -0.1334 0.032 -0.265 0.0856 -0.3872 0.0538 -0.1222 0.131 -0.2326 0.2272 -0.325 0.0964 -0.0922 0.21 -0.1648 0.3344 -0.2132 0.1244 -0.0484 0.257 -0.072 0.3904 -0.0692 0.1336 0.0028 0.2652 0.032 0.3874 0.0856 0.1222 0.0536 0.2326 0.131 0.325 0.2272 0.0922 0.0964 0.1648 0.21 0.2132 0.3344l2.774 7.138c0.057 0.1542 0.0762 0.3198 0.056 0.4828 -0.0204 0.1632 -0.0796 0.319 -0.1728 0.4544 -0.093 0.1356 -0.2174 0.2466 -0.3624 0.324s-0.3064 0.1188 -0.4708 0.1208Z" stroke-width="1"></path><path id="vector_30" fill="#501200" d="M65.89 159.246c-0.1774 -0.0018 -0.3514 -0.0496 -0.5046 -0.1392 -0.1532 -0.0894 -0.2804 -0.2174 -0.369 -0.371 -0.0888 -0.1538 -0.1358 -0.328 -0.1366 -0.5054 -0.0006 -0.1774 0.0448 -0.352 0.1322 -0.5064l3.852 -6.622c0.067 -0.1154 0.156 -0.2166 0.262 -0.2976 0.1062 -0.081 0.227 -0.1404 0.356 -0.1746 0.129 -0.0342 0.2636 -0.0428 0.3958 -0.025 0.1322 0.0176 0.2598 0.0612 0.3752 0.1282s0.2166 0.156 0.2976 0.262c0.081 0.1062 0.1404 0.2272 0.1746 0.356 0.0342 0.129 0.0428 0.2636 0.025 0.3958 -0.0176 0.1322 -0.0612 0.2598 -0.1282 0.3752l-3.852 6.622c-0.092 0.1516 -0.221 0.277 -0.375 0.365 -0.154 0.0878 -0.3278 0.135 -0.505 0.137Z" stroke-width="1"></path><path id="vector_31" fill="#501200" d="M86.426 163.2c-0.259 -0.003 -0.507 -0.1048 -0.6934 -0.2844 -0.1864 -0.1798 -0.2972 -0.4238 -0.3098 -0.6824 -0.0124 -0.2588 0.0742 -0.5124 0.2424 -0.7092 0.1684 -0.1968 0.4054 -0.322 0.6628 -0.35l7.626 -0.726c0.2684 -0.0266 0.5364 0.0546 0.7448 0.2256 0.2086 0.1712 0.3406 0.418 0.3672 0.6864 0.0266 0.2684 -0.0546 0.5364 -0.2258 0.7448 -0.171 0.2086 -0.4178 0.3406 -0.6862 0.3672l-7.728 0.728Z" stroke-width="1"></path><path id="vector_32" fill="#ff7449" d="M122.854 193.558c-0.264 -0.053 -0.496 -0.2088 -0.645 -0.4328 -0.1492 -0.2242 -0.203 -0.4984 -0.15 -0.7622 0.053 -0.2638 0.2088 -0.496 0.4328 -0.645 0.2242 -0.149 0.4982 -0.203 0.7622 -0.15 0.22 0.036 22.028 4.176 34.158 -11.614 0.0812 -0.1058 0.1824 -0.1944 0.2978 -0.261 0.1154 -0.0666 0.2428 -0.1098 0.375 -0.1272 0.132 -0.0174 0.2664 -0.0086 0.395 0.026 0.1288 0.0346 0.2494 0.094 0.3552 0.1752 0.1056 0.0812 0.1944 0.1824 0.261 0.2978 0.0666 0.1154 0.1098 0.2428 0.1272 0.375 0.0174 0.1322 0.0086 0.2664 -0.026 0.395 -0.0346 0.1288 -0.094 0.2494 -0.1752 0.3552 -8.45 10.998 -21.64 14.648 -36.168 12.368Z" stroke-width="1"></path><path id="vector_33" fill="#ff7449" d="M129.368 182.712c-0.1268 -0.0426 -0.2436 -0.1108 -0.3434 -0.2002 -0.0996 -0.0894 -0.18 -0.198 -0.236 -0.3196 -0.0562 -0.1216 -0.087 -0.2532 -0.0906 -0.387 -0.0034 -0.1338 0.0204 -0.267 0.07 -0.3912 0.045 -0.1254 0.1142 -0.2408 0.2038 -0.3396 0.0896 -0.0986 0.1978 -0.1786 0.3184 -0.2356 0.1204 -0.0568 0.251 -0.0892 0.3842 -0.0956 0.1332 -0.0064 0.2662 0.0136 0.3916 0.0588 3.4756 1.0354 7.1446 1.2462 10.716 0.6162 3.5714 -0.6302 6.9466 -2.084 9.858 -4.2462 0.1056 -0.0862 0.2276 -0.1502 0.3584 -0.1882 0.1308 -0.0382 0.268 -0.0494 0.4034 -0.0334 0.1354 0.016 0.2662 0.0592 0.3844 0.1268 0.1184 0.0676 0.222 0.1582 0.3044 0.2668 0.0826 0.1084 0.1424 0.2324 0.1762 0.3644 0.0336 0.1322 0.0404 0.2696 0.0198 0.4044 -0.0206 0.1346 -0.0682 0.264 -0.1396 0.38 -0.0716 0.116 -0.1658 0.2164 -0.277 0.2952 -3.1766 2.38 -6.8706 3.976 -10.7808 4.6578 -3.9104 0.682 -7.9264 0.4306 -11.7212 -0.7338Z" stroke-width="1"></path><path id="vector_34" fill="#501200" d="M179.812 55.888c-0.172 -0.2 -17.626 -20.336 -45.078 -21.93 -19.84 -1.128 -39.85 7.43 -59.508 25.466 0.1434 -4.1088 0.9728 -8.1648 2.454 -12 0.0958 -0.248 0.0904 -0.5238 -0.0148 -0.7678 -0.1052 -0.2442 -0.302 -0.4374 -0.548 -0.5382 -0.246 -0.1008 -0.5218 -0.101 -0.768 -0.0008 -0.2462 0.1002 -0.4434 0.2928 -0.5492 0.5368 -1.6568 4.6966 -2.5148 9.6378 -2.538 14.618 0.024 0.95 0.138 1.176 0.576 1.43 1.2 0.69 11.6 -0.088 15.076 -1.124 0.2652 -0.048 0.5006 -0.1994 0.6542 -0.4208 0.1536 -0.2216 0.2128 -0.495 0.1648 -0.7602 -0.048 -0.2652 -0.1994 -0.5004 -0.4208 -0.654 -0.2216 -0.1536 -0.495 -0.213 -0.7602 -0.165 -4.0296 0.7758 -8.1046 1.2956 -12.2 1.556 19.308 -17.8 38.876 -26.262 58.24 -25.158 26.576 1.54 43.506 21.024 43.674 21.224 0.1766 0.1986 0.424 0.3202 0.6892 0.3386 0.2652 0.0182 0.527 -0.068 0.7292 -0.2406 0.2024 -0.1724 0.329 -0.4172 0.3528 -0.682 0.0238 -0.2646 -0.057 -0.5282 -0.2252 -0.734v0.006Z" stroke-width="1"></path></g><g id="gear 2"><g id="group"><path id="vector_35" fill="#ffb949" d="M170.092 328.7c-0.318 -0.2 -9.752 -1.828 -9.752 -1.828 0.4126 -4.17 0.2856 -8.374 -0.378 -12.512l8.564 -2.38c0.5132 -2.924 0.1948 -5.932 -0.9192 -8.682 -1.1138 -2.752 -2.9784 -5.134 -5.3808 -6.876 -2.442 1.422 -4.7882 3.004 -7.024 4.732 0 0 -8.186 -11.38 -13.556 -13.644 1.67 -1.946 3.1936 -4.012 4.558 -6.182 0 -0.64 -6.968 -8.042 -14.6 -7.664 -0.58 0.028 -2.2 7.75 -2.2 7.75s-11.146 -2.816 -18.664 -0.2c-0.295 -2.972 -0.7902 -5.92 -1.482 -8.826 -3.0036 -0.248 -6.0244 0.18 -8.8418 1.25 -2.8172 1.07 -5.36 2.756 -7.4422 4.934 -0.6 0.638 5.718 7.054 5.718 7.054 -6.9408 4.06 -12.541 10.064 -16.11 17.27 -2.3794 -1.576 -4.8616 -2.992 -7.43 -4.238 -2.3978 2.23 -4.1728 5.048 -5.1504 8.172 -0.9774 3.126 -1.1234 6.452 -0.4236 9.652 0.116 0.6 8.94 -0.232 8.94 -0.232 -0.8178 5.986 -0.1304 12.082 2 17.736 0 0.4 -7.868 1.944 -7.868 2.496 0.3612 3.238 1.4076 6.362 3.0692 9.166 1.6618 2.802 3.901 5.22 6.5688 7.09 0.232 -0.088 6.908 -6.386 6.908 -6.386s5.4 6.444 11.582 8.62c0 0 -4.412 8.506 -4.15 9.2 0.232 0.668 8.186 5.834 19.332 4.644 0.638 -0.058 0 -9.55 0 -9.55s10.16 0.64 16.72 -1.682c0 0 0.9 9.056 1.422 9.084 9.058 0.552 15.85 -7.228 16.314 -7.952 0.494 -0.726 -5.718 -7.52 -5.718 -7.52s7.75 -5.34 10.8 -11.64c0 0 7.6 5.458 8.012 5.11 5.596 -4.732 6.902 -15.762 6.582 -15.966Zm-49.81 12.946c-4.1396 -0.048 -8.1736 -1.314 -11.599 -3.638 -3.4256 -2.326 -6.0914 -5.606 -7.6652 -9.436 -1.5738 -3.828 -1.986 -8.036 -1.1854 -12.098 0.8006 -4.062 2.7788 -7.798 5.6878 -10.744 2.9092 -2.946 6.6208 -4.97 10.6724 -5.82 4.0514 -0.852 8.2638 -0.492 12.1122 1.036 3.8482 1.526 7.1624 4.15 9.5294 7.546 2.367 3.398 3.6822 7.416 3.7818 11.554 0.0352 5.694 -2.1928 11.168 -6.1936 15.218 -4.001 4.05 -9.447 6.346 -15.1404 6.382Z" stroke-width="1"></path><path id="vector_36" fill="#501200" d="M95.928 365.028c-0.2076 -0.132 -0.359 -0.338 -0.425 -0.574 -0.066 -0.238 -0.0422 -0.492 0.067 -0.712l3.966 -8.264c-3.9272 -1.928 -7.4624 -4.566 -10.426 -7.784l-5.948 5.922c-0.1568 0.156 -0.3596 0.256 -0.5782 0.286 -0.2186 0.03 -0.441 -0.012 -0.6338 -0.12 -0.33 -0.184 -8.062 -4.642 -10.428 -17.142 -0.0478 -0.25 0.0004 -0.508 0.135 -0.726 0.1344 -0.216 0.3456 -0.372 0.591 -0.44l7.104 -1.986c-1.925 -5.178 -2.6006 -10.738 -1.972 -16.226l-7.87 0.4c-0.2376 0.01 -0.4712 -0.064 -0.6608 -0.206 -0.1898 -0.144 -0.3238 -0.348 -0.3792 -0.58 -0.6882 -3.434 -0.4908 -6.988 0.574 -10.324 1.0648 -3.338 2.9618 -6.348 5.512 -8.75 0.1596 -0.144 0.3604 -0.232 0.5738 -0.256 0.2134 -0.022 0.4284 0.024 0.6142 0.132l6.532 3.776c3.432 -6.658 8.6584 -12.22 15.088 -16.062l-5.53 -6.12c-0.1664 -0.182 -0.2602 -0.42 -0.2634 -0.668 -0.0034 -0.246 0.084 -0.486 0.2454 -0.674 0.228 -0.266 5.712 -6.522 17.548 -6.72 0.243 -0.008 0.4804 0.074 0.6678 0.228 0.1874 0.156 0.312 0.374 0.3502 0.614l1.364 7.874c2.884 -0.502 11.074 -1.642 16.968 0.488l1.904 -7.074c0.0564 -0.212 0.1806 -0.4 0.3534 -0.536 0.1728 -0.134 0.3852 -0.21 0.6046 -0.214 3.0198 0.124 5.9742 0.918 8.6496 2.324 2.6756 1.406 5.0052 3.39 6.8204 5.806 0.138 0.178 0.213 0.396 0.213 0.62 0 0.226 -0.075 0.444 -0.213 0.622l-3.946 5.2c4.887 3.376 9.0858 7.652 12.372 12.6l6.02 -4.686c0.178 -0.138 0.3968 -0.214 0.622 -0.214s0.4442 0.076 0.622 0.214c0.36 0.278 8.8 6.934 6.85 17.11 -0.035 0.19 -0.124 0.368 -0.2566 0.51 -0.1326 0.142 -0.3032 0.242 -0.4914 0.29l-7.692 1.954c0.5516 3.686 0.653 7.424 0.302 11.134l8.838 1.444c0.2306 0.038 0.441 0.154 0.5958 0.33 0.1548 0.176 0.2446 0.398 0.2542 0.632 -0.0328 6.312 -2.4712 12.374 -6.818 16.95 -0.1636 0.174 -0.3836 0.282 -0.6206 0.308 -0.2368 0.024 -0.4748 -0.036 -0.6714 -0.17l-7.096 -4.734c-2.4538 4.228 -5.7868 7.88 -9.774 10.708L151.426 358c0.1496 0.184 0.2302 0.414 0.228 0.65 -0.002 0.236 -0.087 0.466 -0.24 0.646 -0.306 0.36 -7.6 8.88 -17.336 8.384 -0.2366 -0.01 -0.462 -0.104 -0.6372 -0.262 -0.1754 -0.16 -0.2894 -0.376 -0.3228 -0.61L132 358.874c-4.8364 1.354 -9.8642 1.894 -14.878 1.6l0.146 8.4c0.0166 0.24 -0.0582 0.478 -0.2094 0.666 -0.1514 0.188 -0.368 0.312 -0.6066 0.346 -10.19 0.548 -13.956 -0.53 -20.524 -4.858Zm1.864 -1.218c5.2022 3.24 11.3132 4.71 17.42 4.19l-0.15 -8.646c-0.0004 -0.146 0.03 -0.29 0.0892 -0.422s0.146 -0.252 0.2546 -0.348c0.1086 -0.096 0.2364 -0.168 0.375 -0.212 0.1386 -0.044 0.285 -0.058 0.4292 -0.04 5.4968 0.458 11.031 -0.128 16.31 -1.726 0.141 -0.042 0.2892 -0.054 0.4348 -0.034 0.1458 0.02 0.2856 0.07 0.4102 0.148 0.1248 0.078 0.2314 0.182 0.313 0.304 0.0814 0.122 0.136 0.26 0.16 0.406l1.172 8.24c6.92 -0.076 12.534 -5.258 14.284 -7.066l-5.412 -6.65c-0.0876 -0.112 -0.1512 -0.242 -0.1866 -0.38 -0.0352 -0.138 -0.0416 -0.282 -0.0188 -0.422 0.023 -0.142 0.0748 -0.276 0.152 -0.396 0.0774 -0.118 0.1786 -0.222 0.2974 -0.3 4.4066 -2.918 8.0254 -6.878 10.536 -11.53 0.0656 -0.128 0.1574 -0.242 0.2694 -0.332 0.1122 -0.092 0.2418 -0.158 0.381 -0.196 0.1392 -0.036 0.2848 -0.046 0.4272 -0.024 0.1426 0.022 0.279 0.074 0.4004 0.152l7.302 4.872c3.3958 -3.912 5.3872 -8.846 5.658 -14.018l-8.982 -1.466c-0.2686 -0.05 -0.5064 -0.204 -0.662 -0.43 -0.1556 -0.224 -0.2168 -0.5 -0.17 -0.77 0.4914 -4.114 0.3992 -8.278 -0.274 -12.366 -0.0412 -0.252 0.0134 -0.508 0.153 -0.722 0.1398 -0.212 0.3542 -0.364 0.601 -0.426l7.936 -2.016c1.03 -7.134 -3.88 -12.378 -5.612 -13.98l-6.25 4.856c-0.1146 0.084 -0.2456 0.144 -0.3844 0.176s-0.2828 0.036 -0.423 0.01c-0.14 -0.026 -0.2732 -0.082 -0.3914 -0.162 -0.118 -0.078 -0.2186 -0.182 -0.2952 -0.302 -3.4016 -5.39 -7.914 -9.992 -13.236 -13.498 -0.1198 -0.076 -0.2228 -0.176 -0.3024 -0.292 -0.0796 -0.118 -0.1342 -0.25 -0.1602 -0.39 -0.0262 -0.138 -0.0232 -0.282 0.0086 -0.42 0.0318 -0.138 0.0916 -0.268 0.176 -0.382l4.122 -5.426c-3.1562 -3.796 -7.6746 -6.204 -12.586 -6.708l-2 7.4c-0.0418 0.14 -0.1128 0.27 -0.208 0.38 -0.0952 0.11 -0.2128 0.2 -0.3448 0.262s-0.2758 0.096 -0.4216 0.1c-0.146 0.002 -0.291 -0.026 -0.4256 -0.082 -6.452 -2.974 -17.728 -0.628 -17.84 -0.6 -0.1336 0.028 -0.2716 0.028 -0.4054 0.002 -0.1338 -0.028 -0.261 -0.08 -0.374 -0.158 -0.113 -0.076 -0.2094 -0.174 -0.2838 -0.288 -0.0742 -0.116 -0.1248 -0.244 -0.1488 -0.378l-1.4 -8.022c-5.3098 0.066 -10.4354 1.956 -14.516 5.354l5.768 6.384c0.1026 0.118 0.1768 0.26 0.2168 0.412 0.0402 0.152 0.0452 0.31 0.0146 0.464 -0.0304 0.156 -0.0954 0.3 -0.1904 0.426 -0.0948 0.124 -0.2168 0.226 -0.357 0.298 -10.274 4.896 -15.764 16.562 -15.824 16.684 -0.0616 0.126 -0.1482 0.238 -0.2544 0.33 -0.1062 0.092 -0.23 0.16 -0.3636 0.202 -0.1336 0.042 -0.2744 0.058 -0.414 0.044 -0.1396 -0.014 -0.275 -0.054 -0.398 -0.122l-6.818 -3.938c-1.992 2.068 -3.4844 4.566 -4.3632 7.3s-1.1204 5.632 -0.7068 8.474l8.224 -0.426c0.1518 -0.004 0.3024 0.028 0.4414 0.088 0.1388 0.062 0.2624 0.154 0.3624 0.268 0.0998 0.114 0.1734 0.248 0.2156 0.394 0.0422 0.146 0.052 0.3 0.0286 0.45 -0.8728 5.874 -0.1618 11.874 2.06 17.38 0.055 0.134 0.0816 0.278 0.078 0.422 -0.0036 0.144 -0.0374 0.286 -0.0992 0.418 -0.0616 0.13 -0.15 0.248 -0.2594 0.342 -0.1092 0.094 -0.2372 0.166 -0.3754 0.208l-7.28 2.032c1.0226 5.692 4.0844 10.816 8.612 14.414l6.114 -6.088c0.0996 -0.096 0.2176 -0.17 0.3466 -0.22 0.1292 -0.05 0.2668 -0.072 0.405 -0.068 0.1382 0.004 0.274 0.036 0.3994 0.094 0.1256 0.058 0.238 0.142 0.331 0.244 3.1218 3.62 6.9978 6.512 11.356 8.474 0.1294 0.052 0.247 0.13 0.3454 0.228 0.0986 0.1 0.1758 0.218 0.2272 0.346 0.0516 0.13 0.076 0.27 0.0722 0.408 -0.004 0.14 -0.0362 0.278 -0.0948 0.404l-4.028 8.404Z" stroke-width="1"></path><path id="vector_37" fill="#501200" d="M119.77 342.576c-4.3106 -0.152 -8.4812 -1.57 -11.9916 -4.078 -3.5104 -2.506 -6.2058 -5.99 -7.75 -10.018 -1.544 -4.026 -1.8688 -8.42 -0.9338 -12.63 0.9352 -4.212 3.0886 -8.054 6.1924 -11.05 3.1038 -2.994 7.0202 -5.01 11.2616 -5.796 4.2414 -0.784 8.62 -0.304 12.5902 1.382s7.3564 4.504 9.7366 8.102c2.3802 3.596 3.649 7.814 3.6486 12.128 -0.1156 5.926 -2.5754 11.564 -6.8402 15.68 -4.265 4.116 -9.9874 6.374 -15.9138 6.28Zm0 -41.894c-3.9092 0.152 -7.6874 1.45 -10.8646 3.734 -3.177 2.282 -5.6126 5.45 -7.0038 9.106 -1.391 3.656 -1.6762 7.642 -0.82 11.458 0.8562 3.818 2.8162 7.3 5.6358 10.012 2.8196 2.712 6.3744 4.534 10.2222 5.242 3.8478 0.708 7.8186 0.268 11.4184 -1.264s6.6696 -4.09 8.8274 -7.352c2.1578 -3.264 3.3084 -7.09 3.3086 -11.002 -0.1134 -5.388 -2.3584 -10.512 -6.243 -14.25 -3.8846 -3.736 -9.092 -5.78 -14.481 -5.684Z" stroke-width="1"></path></g><path id="vector_38" fill="#501200" d="M62.458 342.2c-0.053 -0.266 -0.2092 -0.498 -0.4344 -0.648 -0.225 -0.15 -0.5004 -0.206 -0.7656 -0.152 -0.2652 0.052 -0.4986 0.21 -0.6486 0.434 -0.15 0.226 -0.2044 0.5 -0.1514 0.766 0.014 0.074 1.184 6.09 1.736 10.266 -21.562 -28.12 -5.908 -53.822 -5.744 -54.084 0.1306 -0.228 0.1684 -0.496 0.105 -0.752 -0.0632 -0.254 -0.2226 -0.474 -0.4444 -0.614 -0.222 -0.14 -0.4896 -0.188 -0.7464 -0.136 -0.257 0.054 -0.4836 0.204 -0.6322 0.42 -0.174 0.272 -16.532 27.026 5.716 56.228 -2.448 -1.078 -6.048 -2.884 -9.226 -4.6 -0.1172 -0.064 -0.2458 -0.102 -0.3784 -0.116 -0.1326 -0.014 -0.2666 -0.002 -0.3942 0.036 -0.1278 0.038 -0.2466 0.102 -0.35 0.186 -0.1034 0.084 -0.1892 0.188 -0.2524 0.304 -0.0634 0.118 -0.1028 0.246 -0.1164 0.38 -0.0136 0.132 -0.001 0.266 0.0372 0.394 0.038 0.128 0.101 0.246 0.1852 0.35 0.084 0.102 0.1878 0.188 0.305 0.252 9.13 4.936 11.988 5.81 13.054 5.81 0.3182 0 0.6234 -0.126 0.8486 -0.352 0.225 -0.224 0.3514 -0.53 0.3514 -0.848 -0.4574 -4.54 -1.143 -9.054 -2.054 -13.524Z" stroke-width="1"></path><path id="vector_39" fill="#ff7449" d="M157.15 364.628c0.4 -0.016 9.842 -0.576 14.532 -13.2 0.097 -0.25 0.2878 -0.454 0.5322 -0.566 0.2442 -0.112 0.5226 -0.124 0.7758 -0.034 0.1252 0.046 0.24 0.116 0.3378 0.208 0.098 0.09 0.177 0.2 0.2328 0.32 0.0556 0.122 0.087 0.252 0.092 0.386 0.005 0.134 -0.0162 0.266 -0.0626 0.392 -5.182 13.956 -15.906 14.512 -16.36 14.528 -0.1336 0.006 -0.2668 -0.016 -0.3922 -0.062s-0.2406 -0.116 -0.3386 -0.208c-0.0982 -0.09 -0.1776 -0.2 -0.2336 -0.32 -0.0558 -0.122 -0.0874 -0.254 -0.0926 -0.388 -0.0052 -0.132 0.0158 -0.266 0.062 -0.392 0.0464 -0.124 0.1168 -0.24 0.2076 -0.338 0.0906 -0.098 0.1998 -0.178 0.3212 -0.234 0.1214 -0.056 0.2526 -0.086 0.3862 -0.092Z" stroke-width="1"></path><path id="vector_40" fill="#ff7449" d="M167.462 368.45c0.508 -0.162 12.4 -4.114 11.67 -19.27 -0.0064 -0.134 0.0134 -0.266 0.0584 -0.392 0.0452 -0.126 0.1146 -0.242 0.2042 -0.34 0.0898 -0.098 0.198 -0.18 0.3186 -0.236 0.1208 -0.058 0.2516 -0.09 0.3848 -0.096 0.2692 -0.014 0.5326 0.082 0.732 0.262 0.0988 0.09 0.179 0.198 0.236 0.32 0.057 0.12 0.0896 0.25 0.096 0.384 0.8 16.76 -12.952 21.264 -13.09 21.306 -0.2556 0.076 -0.5308 0.048 -0.7662 -0.076 -0.2354 -0.126 -0.4122 -0.338 -0.4922 -0.592 -0.0802 -0.256 -0.057 -0.53 0.0644 -0.768 0.1212 -0.238 0.331 -0.418 0.584 -0.502Z" stroke-width="1"></path></g></g></svg>